<?xml version="1.0" encoding="utf-8"?>
<!-- Generator: Adobe Illustrator 25.1.0, SVG Export Plug-In . SVG Version: 6.00 Build 0)  -->
<svg version="1.1" id="Layer_1" xmlns="http://www.w3.org/2000/svg" xmlns:xlink="http://www.w3.org/1999/xlink" x="0px" y="0px"
	 viewBox="0 0 190 100" style="enable-background:new 0 0 190 100;" xml:space="preserve">
<style type="text/css">
	.st0{fill:url(#SVGID_1_);}
	.st1{fill:#FFFFFF;}
</style>
<g>
	<linearGradient id="SVGID_1_" gradientUnits="userSpaceOnUse" x1="4.0304" y1="86.6922" x2="243.7102" y2="-9.9816">
		<stop  offset="0" style="stop-color:#FF898C"/>
		<stop  offset="1" style="stop-color:#ED1E79"/>
	</linearGradient>
	<rect class="st0" width="190" height="100"/>
	<g>
		<g>
			<path class="st1" d="M72.19,52.41c0,11.86-6.68,18.41-15.85,18.41c-6.16,0-10.48-3.34-12.51-9.04h-0.26v8.25H29.61V22.21h13.95
				v21.03h0.26c2.03-5.9,6.35-9.17,12.64-9.17C65.31,34.07,72.19,40.55,72.19,52.41z M58.04,52.41c0-5.11-2.69-8.58-7.14-8.58
				c-4.32,0-7.34,3.27-7.34,8.12v0.98c0,5.11,3.08,8.12,7.27,8.12C55.35,61.06,58.04,57.65,58.04,52.41z"/>
			<path class="st1" d="M115.42,34.85v35.18h-13.49v-8.78h-0.33c-1.64,5.37-5.31,9.56-12.51,9.56c-7.66,0-12.05-4.52-12.05-13.43
				V34.85h13.95v19.98c0,3.28,1.44,5.37,4.91,5.37c3.01,0,5.57-1.64,5.57-6.75v-18.6H115.42z"/>
			<path class="st1" d="M162.39,34.85l-13.76,34.91c-3.8,9.76-9.69,14.02-19.72,14.02c-3.14,0-6.35-0.52-8.25-1.18l0.07-8.78
				c1.97,0.59,4.39,0.92,6.81,0.92c1.9,0,3.01-0.26,3.8-0.85c0.92-0.72,1.38-1.7,1.38-3.01c0-1.9-0.72-3.93-1.57-6.03l-12.45-30
				h15.33l6.75,24.04h0.39l6.62-24.04H162.39z"/>
		</g>
	</g>
</g>
</svg>
