<?xml version="1.0" encoding="utf-8"?>
<!-- Generator: Adobe Illustrator 25.1.0, SVG Export Plug-In . SVG Version: 6.00 Build 0)  -->
<svg version="1.1" id="Layer_1" xmlns="http://www.w3.org/2000/svg" xmlns:xlink="http://www.w3.org/1999/xlink" x="0px" y="0px"
	 viewBox="0 0 190 250" style="enable-background:new 0 0 190 250;" xml:space="preserve">
<style type="text/css">
	.st0{fill:#FFFFFF;}
</style>
<g>
	<g>
		<g>
			<path class="st0" d="M54.08,227.33c1.33-2.98,1.87-6.33,1.46-9.77c-1-8.41-7.84-15.15-16.27-16.04c-0.01,0-0.01,0-0.02,0
				l23.25-13.38l-1.75-3.04l-31.89,18.35c-3.01,1.55-5.53,3.9-7.34,6.87l-8.24,14.9l0,0l-3.9,7.05c-0.49,0.88-0.71,1.85-0.67,2.82
				c0.03,0.96,0.33,1.92,0.88,2.76c0.63,0.97,1.53,1.69,2.56,2.09c0.62,0.24,1.29,0.37,1.97,0.37c0.16,0,0.32-0.01,0.48-0.02
				l23.8-2.11c2.59-0.16,5.07-0.84,7.36-2.04c0.26-0.13,0.5-0.28,0.75-0.43l0.01,0.01l49.51-28.48l-1.75-3.04L54.08,227.33z
				 M38.15,234.67l-16.04,1.42c0.07-0.71,0.07-1.42-0.01-2.14c-0.39-3.32-2.49-6.16-5.42-7.63l7.88-14.25
				c1.42-2.32,3.43-4.2,5.82-5.45l0.16-0.09c2.09-1.06,4.39-1.61,6.75-1.61c0.54,0,1.07,0.03,1.61,0.09
				c6.81,0.72,12.35,6.17,13.16,12.97c0.74,6.25-2.36,12.16-7.91,15.05C42.3,233.99,40.29,234.54,38.15,234.67z"/>
			<path class="st0" d="M178.84,138.39c-2.45-4.26-6.41-7.31-11.16-8.59c-1.36-0.37-2.73-0.56-4.1-0.61
				c-3.42-0.14-6.82,0.67-9.86,2.43l-13.54,7.79l0,0l-12.93,7.44c0,0-0.01,0-0.01,0l0,0L94.13,165.9l1.75,3.04l33.14-19.06
				c3.45-1.98,7.46-2.52,11.28-1.51c3.83,1.01,7.03,3.46,9.01,6.9c4.12,7.16,1.7,16.3-5.38,20.38l-16.43,9.45l1.75,3.04l16.42-9.45
				l0,0c0,0,0,0,0,0l26.4-15.19C180.86,158.45,183.9,147.18,178.84,138.39z M152.34,153.52c-2.45-4.26-6.41-7.29-11.15-8.54
				c-0.93-0.25-1.86-0.39-2.8-0.49l3.53-2.03c7.05-3.87,16.05-1.35,20.06,5.62c1.98,3.45,2.5,7.46,1.47,11.3s-3.5,7.05-6.95,9.03
				l-1.88,1.1l0,0l-1.42,0.82C155.52,165.1,155.41,158.87,152.34,153.52z"/>
		</g>
		<path class="st0" d="M180.93,232.94c-0.09-0.23-0.19-0.46-0.32-0.67l-3.9-7.05l0,0l-8.27-14.96c-1.77-2.9-4.29-5.25-7.3-6.8
			l-98.39-56.6l0,0c0,0-0.01,0-0.01-0.01l-12.92-7.43l0,0l-13.54-7.79c-0.53-0.31-1.08-0.58-1.63-0.83
			c-3.87-1.75-8.18-2.1-12.33-0.98c-4.74,1.28-8.71,4.33-11.16,8.59c-5.06,8.79-2.02,20.06,6.77,25.11l125.54,72.21l0.01-0.01
			c0.25,0.14,0.49,0.29,0.75,0.43c2.29,1.2,4.77,1.88,7.32,2.04l23.85,2.11c0.16,0.01,0.32,0.02,0.48,0.02
			c0.68,0,1.35-0.13,1.97-0.37c1.03-0.4,1.94-1.12,2.57-2.09c0.55-0.84,0.84-1.8,0.88-2.76
			C181.31,234.36,181.19,233.63,180.93,232.94z M135.92,227.33l-89.83-51.68l0,0c-7.09-4.08-9.5-13.22-5.39-20.38
			c1.98-3.44,5.18-5.89,9.01-6.9c3.82-1.01,7.83-0.47,11.28,1.51l89.76,51.63c-0.01,0-0.01,0-0.02,0
			c-8.43,0.89-15.27,7.64-16.27,16.04C134.05,221,134.59,224.35,135.92,227.33z M33.51,168.4c-3.45-1.98-5.92-5.19-6.95-9.03
			c-1.04-3.84-0.51-7.85,1.47-11.3c4.01-6.97,13.01-9.49,20.06-5.62l3.53,2.03c-0.94,0.1-1.87,0.25-2.8,0.49
			c-4.74,1.25-8.7,4.29-11.15,8.54c-3.07,5.35-3.18,11.58-0.85,16.8l-1.42-0.82l0.01-0.01L33.51,168.4z M145.85,233.02
			c-5.55-2.89-8.65-8.8-7.91-15.05c0.81-6.8,6.34-12.25,13.16-12.97c0.54-0.06,1.08-0.09,1.61-0.09c2.36,0,4.66,0.55,6.75,1.61
			l0.16,0.09c2.39,1.25,4.4,3.13,5.78,5.39l7.91,14.32c-2.93,1.47-5.02,4.31-5.42,7.63c-0.09,0.72-0.08,1.44-0.01,2.14l-16.09-1.43
			C149.71,234.54,147.7,233.99,145.85,233.02z"/>
	</g>
	<path class="st0" d="M107.16,141.57c0,0,26.09-9.91,33.27-38.72c2.15-8.63,2.15-17.7,0.26-26.4c-1.55-7.14-4.62-16.58-10.58-23.66
		c0,0-1.01,16.71-9.09,22.69c0,0,6.5-51.52-45.47-65.78c0,0,7.24,29.06-9.46,46.8c-25.13,26.69-28.18,68.54,16.53,86.45
		c0,0-27.71-16.63-6.35-42.89c0,0,1.59,14.72,10.68,18.22c0,0-16.64-35.59,8.06-58.9c0,0-3.44,15.03,14.02,36.19
		S116.83,134.67,107.16,141.57z"/>
</g>
</svg>
