<?xml version="1.0" encoding="utf-8"?>
<!-- Generator: Adobe Illustrator 25.1.0, SVG Export Plug-In . SVG Version: 6.00 Build 0)  -->
<svg version="1.1" id="Layer_1" xmlns="http://www.w3.org/2000/svg" xmlns:xlink="http://www.w3.org/1999/xlink" x="0px" y="0px"
	 viewBox="0 0 315 245" style="enable-background:new 0 0 315 245;" xml:space="preserve">
<style type="text/css">
	.st0{fill:url(#SVGID_1_);}
	.st1{fill:url(#SVGID_2_);}
	.st2{fill:url(#SVGID_3_);}
	.st3{fill:url(#SVGID_4_);}
	.st4{fill:url(#SVGID_5_);}
	.st5{fill:url(#SVGID_6_);}
	.st6{fill:url(#SVGID_7_);}
	.st7{fill:url(#SVGID_8_);}
	.st8{fill:url(#SVGID_9_);}
	.st9{fill:url(#SVGID_10_);}
	.st10{fill:url(#SVGID_11_);}
	.st11{fill:url(#SVGID_12_);}
	.st12{fill:url(#SVGID_13_);}
	.st13{fill:url(#SVGID_14_);}
	.st14{fill:url(#SVGID_15_);}
	.st15{fill:url(#SVGID_16_);}
	.st16{fill:url(#SVGID_17_);}
	.st17{fill:url(#SVGID_18_);}
	.st18{fill:url(#SVGID_19_);}
	.st19{fill:url(#SVGID_20_);}
	.st20{fill:url(#SVGID_21_);}
	.st21{fill:url(#SVGID_22_);}
	.st22{fill:url(#SVGID_23_);}
	.st23{fill:url(#SVGID_24_);}
	.st24{fill:url(#SVGID_25_);}
	.st25{fill:url(#SVGID_26_);}
	.st26{fill:url(#SVGID_27_);}
	.st27{fill:url(#SVGID_28_);}
	.st28{fill:url(#SVGID_29_);}
	.st29{fill:url(#SVGID_30_);}
	.st30{fill:url(#SVGID_31_);}
	.st31{fill:url(#SVGID_32_);}
	.st32{fill:url(#SVGID_33_);}
	.st33{fill:url(#SVGID_34_);}
	.st34{fill:url(#SVGID_35_);}
	.st35{fill:url(#SVGID_36_);}
</style>
<g>
	<g>
		<linearGradient id="SVGID_1_" gradientUnits="userSpaceOnUse" x1="-30.0557" y1="196.5082" x2="322.1053" y2="-112.755">
			<stop  offset="0" style="stop-color:#FF898C"/>
			<stop  offset="1" style="stop-color:#ED1E79"/>
		</linearGradient>
		<path class="st0" d="M60.81,114.27v3.8h-2.54v-1.27h-2.54v2.54h2.54v2.54h-2.54v2.54h2.54v-1.27h2.54v3.8h-8.88v-2.54h1.27v-7.61
			h-1.27v-2.54H60.81z"/>
		<linearGradient id="SVGID_2_" gradientUnits="userSpaceOnUse" x1="-25.3847" y1="201.8271" x2="326.7762" y2="-107.4361">
			<stop  offset="0" style="stop-color:#FF898C"/>
			<stop  offset="1" style="stop-color:#ED1E79"/>
		</linearGradient>
		<path class="st1" d="M67.26,119.38c1.05,0.16,1.89,0.41,2.51,0.77c0.62,0.36,1.1,0.74,1.42,1.16c0.33,0.42,0.53,0.83,0.62,1.23
			c0.09,0.4,0.14,0.73,0.14,0.99c0,0.51-0.11,0.98-0.32,1.41c-0.21,0.43-0.5,0.81-0.87,1.12s-0.8,0.56-1.3,0.74
			c-0.5,0.18-1.05,0.27-1.64,0.27c-0.62,0-1.17-0.06-1.66-0.19c-0.49-0.13-0.93-0.29-1.31-0.5v0.56h-2.54v-3.8h2.54
			c0.22,0.24,0.43,0.45,0.64,0.62c0.21,0.18,0.43,0.32,0.65,0.43c0.22,0.11,0.47,0.2,0.74,0.25c0.27,0.05,0.58,0.08,0.93,0.08
			c0.46,0,0.84-0.09,1.14-0.28c0.3-0.19,0.45-0.43,0.45-0.73c0-0.25-0.08-0.47-0.24-0.66c-0.16-0.19-0.36-0.35-0.61-0.48
			c-0.25-0.13-0.52-0.24-0.82-0.32c-0.3-0.08-0.59-0.14-0.88-0.19c-1.03-0.16-1.85-0.4-2.46-0.72c-0.62-0.33-1.09-0.68-1.42-1.07
			c-0.33-0.39-0.55-0.78-0.65-1.19c-0.1-0.4-0.15-0.76-0.15-1.08c0-0.52,0.11-1,0.32-1.45c0.21-0.45,0.5-0.84,0.88-1.17
			c0.37-0.33,0.81-0.59,1.3-0.78c0.5-0.19,1.03-0.28,1.61-0.28c0.62,0,1.15,0.06,1.61,0.18c0.46,0.12,0.88,0.28,1.25,0.49v-0.54
			h2.54v3.8h-2.55c-0.21-0.23-0.4-0.43-0.6-0.61c-0.19-0.17-0.4-0.32-0.62-0.43c-0.22-0.11-0.46-0.2-0.72-0.26
			c-0.26-0.06-0.56-0.09-0.92-0.09c-0.51,0-0.9,0.12-1.17,0.36s-0.41,0.5-0.41,0.78C64.72,118.6,65.57,119.12,67.26,119.38z"/>
		<linearGradient id="SVGID_3_" gradientUnits="userSpaceOnUse" x1="-21.0088" y1="206.81" x2="331.1522" y2="-102.4532">
			<stop  offset="0" style="stop-color:#FF898C"/>
			<stop  offset="1" style="stop-color:#ED1E79"/>
		</linearGradient>
		<path class="st2" d="M83.49,114.27v3.8h-2.54v-1.27h-1.27v7.61h1.27v2.54h-5.07v-2.54h1.27v-7.61h-1.27v1.27h-2.54v-3.8H83.49z"/>
	</g>
	<g>
		<linearGradient id="SVGID_4_" gradientUnits="userSpaceOnUse" x1="48.6353" y1="286.1143" x2="400.7962" y2="-23.1488">
			<stop  offset="0" style="stop-color:#FF898C"/>
			<stop  offset="1" style="stop-color:#ED1E79"/>
		</linearGradient>
		<path class="st3" d="M237.81,123.15h2.54v3.81h-8.89v-2.56l5.35-4.97c0.25-0.23,0.45-0.42,0.58-0.56
			c0.13-0.14,0.23-0.27,0.29-0.36c0.06-0.1,0.1-0.18,0.11-0.24c0.01-0.07,0.02-0.13,0.02-0.19c0-0.35-0.12-0.65-0.37-0.9
			c-0.25-0.25-0.55-0.37-0.9-0.37h-1.27c-0.35,0-0.65,0.12-0.9,0.37c-0.25,0.25-0.37,0.55-0.37,0.9h-2.54c0-0.52,0.1-1.01,0.3-1.48
			c0.2-0.47,0.47-0.87,0.82-1.21c0.34-0.34,0.75-0.62,1.21-0.82c0.46-0.2,0.95-0.3,1.49-0.3h1.27c0.52,0,1.01,0.1,1.48,0.3
			c0.47,0.2,0.87,0.47,1.21,0.82c0.34,0.34,0.62,0.75,0.82,1.21c0.2,0.47,0.3,0.96,0.3,1.48c0,0.33-0.04,0.63-0.12,0.9
			c-0.08,0.27-0.19,0.53-0.34,0.78c-0.15,0.25-0.34,0.5-0.56,0.74c-0.22,0.25-0.49,0.51-0.79,0.79c-0.1,0.1-0.25,0.24-0.46,0.44
			c-0.21,0.19-0.47,0.43-0.76,0.71c-0.3,0.28-0.63,0.59-0.99,0.92s-0.75,0.7-1.16,1.07h2.65V123.15z"/>
		<linearGradient id="SVGID_5_" gradientUnits="userSpaceOnUse" x1="52.643" y1="290.6779" x2="404.8039" y2="-18.5852">
			<stop  offset="0" style="stop-color:#FF898C"/>
			<stop  offset="1" style="stop-color:#ED1E79"/>
		</linearGradient>
		<path class="st4" d="M246.93,114.27c0.52,0,1.01,0.1,1.48,0.3c0.47,0.2,0.87,0.47,1.21,0.82c0.34,0.34,0.62,0.75,0.82,1.21
			c0.2,0.47,0.3,0.96,0.3,1.48v5.08c0,0.53-0.1,1.03-0.3,1.49c-0.2,0.46-0.47,0.86-0.82,1.21c-0.34,0.34-0.75,0.62-1.21,0.82
			c-0.47,0.2-0.96,0.3-1.48,0.3h-1.27c-0.53,0-1.03-0.1-1.49-0.3c-0.46-0.2-0.86-0.47-1.21-0.82c-0.34-0.34-0.62-0.75-0.82-1.21
			c-0.2-0.46-0.3-0.95-0.3-1.49v-5.08c0-0.52,0.1-1.01,0.3-1.48c0.2-0.47,0.47-0.87,0.82-1.21c0.34-0.34,0.75-0.62,1.21-0.82
			c0.46-0.2,0.95-0.3,1.49-0.3H246.93z M248.2,118.08c0-0.35-0.12-0.65-0.37-0.9c-0.25-0.25-0.55-0.37-0.9-0.37h-1.27
			c-0.35,0-0.65,0.12-0.9,0.37c-0.25,0.25-0.37,0.55-0.37,0.9v5.08c0,0.35,0.12,0.65,0.37,0.9c0.25,0.25,0.55,0.37,0.9,0.37h1.27
			c0.35,0,0.65-0.12,0.9-0.37c0.25-0.25,0.37-0.55,0.37-0.9V118.08z"/>
		<linearGradient id="SVGID_6_" gradientUnits="userSpaceOnUse" x1="56.283" y1="294.8229" x2="408.444" y2="-14.4403">
			<stop  offset="0" style="stop-color:#FF898C"/>
			<stop  offset="1" style="stop-color:#ED1E79"/>
		</linearGradient>
		<path class="st5" d="M257.19,124.42v2.54h-5.08v-2.54h1.27v-7.62h-1.27v-2.54h3.81v10.16H257.19z"/>
		<linearGradient id="SVGID_7_" gradientUnits="userSpaceOnUse" x1="59.007" y1="297.9248" x2="411.168" y2="-11.3384">
			<stop  offset="0" style="stop-color:#FF898C"/>
			<stop  offset="1" style="stop-color:#ED1E79"/>
		</linearGradient>
		<path class="st6" d="M267.86,114.27l-4.73,12.69h-2.72l3.81-10.16h-2.97v1.27h-2.54v-3.81H267.86z"/>
	</g>
	<linearGradient id="SVGID_8_" gradientUnits="userSpaceOnUse" x1="-26.3891" y1="200.6833" x2="325.7718" y2="-108.5798">
		<stop  offset="0" style="stop-color:#FF898C"/>
		<stop  offset="1" style="stop-color:#ED1E79"/>
	</linearGradient>
	<polygon class="st7" points="83.49,133.9 15.82,133.9 83.49,131.83 	"/>
	<linearGradient id="SVGID_9_" gradientUnits="userSpaceOnUse" x1="66.9893" y1="307.0143" x2="419.1503" y2="-2.2489">
		<stop  offset="0" style="stop-color:#FF898C"/>
		<stop  offset="1" style="stop-color:#ED1E79"/>
	</linearGradient>
	<polygon class="st8" points="231.46,133.9 299.13,133.9 231.46,131.83 	"/>
	<g>
		<g>
			<linearGradient id="SVGID_10_" gradientUnits="userSpaceOnUse" x1="-11.9724" y1="217.0998" x2="340.1885" y2="-92.1634">
				<stop  offset="0" style="stop-color:#FF898C"/>
				<stop  offset="1" style="stop-color:#ED1E79"/>
			</linearGradient>
			<path class="st9" d="M142.69,86.7c0.48-1.08,0.68-2.29,0.53-3.54c-0.36-3.04-2.84-5.48-5.89-5.8c0,0,0,0-0.01,0l8.41-4.84
				l-0.63-1.1l-11.54,6.64c-1.09,0.56-2,1.41-2.65,2.48l-2.98,5.39l0,0l-1.41,2.55c-0.18,0.32-0.26,0.67-0.24,1.02
				c0.01,0.35,0.12,0.69,0.32,1c0.23,0.35,0.55,0.61,0.93,0.76c0.22,0.09,0.47,0.13,0.71,0.13c0.06,0,0.12,0,0.17-0.01l8.61-0.76
				c0.94-0.06,1.83-0.31,2.66-0.74c0.09-0.05,0.18-0.1,0.27-0.15l0,0.01l17.91-10.3l-0.63-1.1L142.69,86.7z M136.93,89.36l-5.8,0.51
				c0.02-0.26,0.03-0.51-0.01-0.78c-0.14-1.2-0.9-2.23-1.96-2.76l2.85-5.16c0.51-0.84,1.24-1.52,2.11-1.97l0.06-0.03
				c0.76-0.38,1.59-0.58,2.44-0.58c0.19,0,0.39,0.01,0.58,0.03c2.47,0.26,4.47,2.23,4.76,4.69c0.27,2.26-0.85,4.4-2.86,5.45
				C138.43,89.11,137.7,89.31,136.93,89.36z"/>
			<linearGradient id="SVGID_11_" gradientUnits="userSpaceOnUse" x1="-8.0242" y1="221.5957" x2="344.1368" y2="-87.6674">
				<stop  offset="0" style="stop-color:#FF898C"/>
				<stop  offset="1" style="stop-color:#ED1E79"/>
			</linearGradient>
			<path class="st10" d="M187.84,54.52c-0.89-1.54-2.32-2.64-4.04-3.11c-0.49-0.13-0.99-0.2-1.48-0.22
				c-1.24-0.05-2.47,0.24-3.57,0.88l-4.9,2.82l0,0l-4.68,2.69c0,0,0,0,0,0l0,0l-11.99,6.9l0.63,1.1l11.99-6.9
				c1.25-0.72,2.7-0.91,4.08-0.55c1.39,0.37,2.54,1.25,3.26,2.5c1.49,2.59,0.62,5.9-1.95,7.37l-5.94,3.42l0.63,1.1l5.94-3.42l0,0
				c0,0,0,0,0,0l9.55-5.5C188.57,61.78,189.67,57.7,187.84,54.52z M178.25,59.99c-0.89-1.54-2.32-2.64-4.03-3.09
				c-0.34-0.09-0.67-0.14-1.01-0.18l1.28-0.73c2.55-1.4,5.81-0.49,7.26,2.03c0.72,1.25,0.91,2.7,0.53,4.09
				c-0.37,1.39-1.27,2.55-2.52,3.27l-0.68,0.4l0,0l-0.52,0.3C179.4,64.19,179.36,61.93,178.25,59.99z"/>
		</g>
		<linearGradient id="SVGID_12_" gradientUnits="userSpaceOnUse" x1="-9.8402" y1="219.5277" x2="342.3207" y2="-89.7354">
			<stop  offset="0" style="stop-color:#FF898C"/>
			<stop  offset="1" style="stop-color:#ED1E79"/>
		</linearGradient>
		<path class="st11" d="M188.59,88.73c-0.03-0.08-0.07-0.16-0.11-0.24l-1.41-2.55l0,0l-2.99-5.41c-0.64-1.05-1.55-1.9-2.64-2.46
			l-35.6-20.48l0,0c0,0,0,0,0,0l-4.68-2.69l0,0l-4.9-2.82c-0.19-0.11-0.39-0.21-0.59-0.3c-1.4-0.63-2.96-0.76-4.46-0.36
			c-1.72,0.46-3.15,1.57-4.04,3.11c-1.83,3.18-0.73,7.26,2.45,9.09l45.43,26.13l0-0.01c0.09,0.05,0.18,0.11,0.27,0.15
			c0.83,0.43,1.73,0.68,2.65,0.74l8.63,0.76c0.06,0.01,0.12,0.01,0.17,0.01c0.25,0,0.49-0.05,0.71-0.13
			c0.37-0.15,0.7-0.41,0.93-0.76c0.2-0.3,0.3-0.65,0.32-1C188.73,89.25,188.69,88.98,188.59,88.73z M172.31,86.7L139.8,68l0,0
			c-2.56-1.48-3.44-4.78-1.95-7.38c0.72-1.24,1.87-2.13,3.26-2.5c1.38-0.36,2.83-0.17,4.08,0.55l32.48,18.68c0,0,0,0-0.01,0
			c-3.05,0.32-5.53,2.76-5.89,5.8C171.63,84.41,171.83,85.62,172.31,86.7z M135.25,65.38c-1.25-0.72-2.14-1.88-2.52-3.27
			s-0.19-2.84,0.53-4.09c1.45-2.52,4.71-3.43,7.26-2.03l1.28,0.73c-0.34,0.04-0.68,0.09-1.01,0.18c-1.72,0.45-3.15,1.55-4.03,3.09
			c-1.11,1.93-1.15,4.19-0.31,6.08l-0.52-0.3l0,0L135.25,65.38z M175.9,88.76c-2.01-1.05-3.13-3.18-2.86-5.45
			c0.29-2.46,2.3-4.43,4.76-4.69c0.2-0.02,0.39-0.03,0.58-0.03c0.85,0,1.69,0.2,2.44,0.58l0.06,0.03c0.86,0.45,1.59,1.13,2.09,1.95
			l2.86,5.18c-1.06,0.53-1.82,1.56-1.96,2.76c-0.03,0.26-0.03,0.52-0.01,0.78l-5.82-0.52C177.3,89.31,176.57,89.11,175.9,88.76z"/>
	</g>
	<linearGradient id="SVGID_13_" gradientUnits="userSpaceOnUse" x1="-30.2888" y1="196.2427" x2="321.8721" y2="-113.0204">
		<stop  offset="0" style="stop-color:#FF898C"/>
		<stop  offset="1" style="stop-color:#ED1E79"/>
	</linearGradient>
	<path class="st12" d="M161.9,55.67c0,0,9.44-3.59,12.04-14.01c0.78-3.12,0.78-6.41,0.09-9.55c-0.56-2.58-1.67-6-3.83-8.56
		c0,0-0.37,6.05-3.29,8.21c0,0,2.35-18.64-16.45-23.8c0,0,2.62,10.51-3.42,16.93c-9.09,9.66-10.2,24.8,5.98,31.28
		c0,0-10.03-6.02-2.3-15.52c0,0,0.57,5.32,3.87,6.59c0,0-6.02-12.88,2.92-21.31c0,0-1.25,5.44,5.07,13.09
		C168.9,46.68,165.4,53.17,161.9,55.67z"/>
	<g>
		<linearGradient id="SVGID_14_" gradientUnits="userSpaceOnUse" x1="-11.4695" y1="217.6725" x2="340.6915" y2="-91.5907">
			<stop  offset="0" style="stop-color:#FF898C"/>
			<stop  offset="1" style="stop-color:#ED1E79"/>
		</linearGradient>
		<path class="st13" d="M110.59,111.36v-1.73c0-0.96-0.34-1.77-1.01-2.45c-0.68-0.68-1.49-1.02-2.45-1.02h-6.92
			c-0.96,0-1.77,0.34-2.45,1.02c-0.68,0.68-1.01,1.49-1.01,2.45v13.87c0,0.96,0.34,1.78,1.01,2.45c0.67,0.68,1.49,1.02,2.45,1.02
			h6.92c0.96,0,1.77-0.34,2.45-1.02c0.67-0.68,1.01-1.49,1.01-2.45v-1.73h6.92v1.73c0,1.45-0.27,2.81-0.82,4.06
			c-0.54,1.26-1.28,2.35-2.22,3.29c-0.94,0.94-2.04,1.68-3.31,2.23c-1.27,0.54-2.61,0.82-4.03,0.82h-6.92
			c-1.45,0-2.8-0.27-4.05-0.82c-1.25-0.55-2.35-1.29-3.29-2.23c-0.94-0.94-1.68-2.04-2.22-3.29c-0.54-1.25-0.82-2.61-0.82-4.06
			v-13.87c0-1.42,0.27-2.77,0.82-4.04s1.28-2.38,2.22-3.32c0.94-0.94,2.03-1.68,3.29-2.23c1.25-0.55,2.6-0.82,4.05-0.82h6.92
			c1.42,0,2.76,0.27,4.03,0.82c1.27,0.54,2.37,1.29,3.31,2.23c0.94,0.94,1.68,2.05,2.22,3.32s0.82,2.62,0.82,4.04v1.73H110.59z"/>
		<linearGradient id="SVGID_15_" gradientUnits="userSpaceOnUse" x1="6.1073" y1="237.6873" x2="358.2682" y2="-71.5759">
			<stop  offset="0" style="stop-color:#FF898C"/>
			<stop  offset="1" style="stop-color:#ED1E79"/>
		</linearGradient>
		<path class="st14" d="M155.15,126.96v6.94h-13.83v-6.94h3.26l-1.04-3.47h-10.67l-1.04,3.47h3.26v6.94h-13.83v-6.94h3.36l8.3-27.74
			h10.57l8.3,27.74H155.15z M141.47,116.56l-3.11-10.4h-0.3l-3.11,10.4H141.47z"/>
		<linearGradient id="SVGID_16_" gradientUnits="userSpaceOnUse" x1="20.2415" y1="253.7821" x2="372.4025" y2="-55.481">
			<stop  offset="0" style="stop-color:#FF898C"/>
			<stop  offset="1" style="stop-color:#ED1E79"/>
		</linearGradient>
		<path class="st15" d="M193.79,99.22v6.94h-3.46v20.81h3.46v6.94h-13.83v-6.94h3.46V112.1l-6.92,10.95l-6.92-10.95v14.86h3.46v6.94
			H159.2v-6.94h3.46v-20.81h-3.46v-6.94h10.47l6.82,10.85l6.82-10.85H193.79z"/>
		<linearGradient id="SVGID_17_" gradientUnits="userSpaceOnUse" x1="32.5472" y1="267.7947" x2="384.7081" y2="-41.4685">
			<stop  offset="0" style="stop-color:#FF898C"/>
			<stop  offset="1" style="stop-color:#ED1E79"/>
		</linearGradient>
		<path class="st16" d="M214.1,99.22c1.51,0,2.95,0.29,4.3,0.87c1.35,0.58,2.53,1.37,3.53,2.38c1,1.01,1.79,2.19,2.37,3.54
			c0.58,1.35,0.86,2.79,0.86,4.31c0,1.55-0.29,3-0.86,4.33c-0.58,1.34-1.37,2.51-2.37,3.52c-1.01,1.01-2.18,1.8-3.53,2.38
			c-1.35,0.58-2.78,0.87-4.3,0.87h-5.88v5.55h3.46v6.94h-13.83v-6.94h3.46v-20.81h-3.46v-6.94H214.1z M214.1,114.48
			c1.15,0,2.13-0.4,2.94-1.21c0.81-0.81,1.21-1.79,1.21-2.95c0-1.16-0.4-2.14-1.21-2.95c-0.81-0.81-1.79-1.21-2.94-1.21h-5.88v8.32
			H214.1z"/>
	</g>
	<g>
		<linearGradient id="SVGID_18_" gradientUnits="userSpaceOnUse" x1="-16.1721" y1="212.3176" x2="335.9889" y2="-96.9455">
			<stop  offset="0" style="stop-color:#FF898C"/>
			<stop  offset="1" style="stop-color:#ED1E79"/>
		</linearGradient>
		<path class="st17" d="M17.91,211.26c0-8.77,0-19.12,0-29.44c3.66,8.78,8.38,19.67,11.8,28c3.43-0.39,7.22-0.81,11.35-1.24
			c-3.94-9.3-9.48-21.77-13.37-30.95c3.66-9.25,9.8-22.62,13.95-32.5H30.47c-3.63,8.99-8.94,21.43-12.56,30.6
			c0-11.35,0-22.29,0-30.6H7.37c0,17.41,0,47.17,0,67.62C7.37,212.74,11.06,212.15,17.91,211.26z"/>
		<linearGradient id="SVGID_19_" gradientUnits="userSpaceOnUse" x1="11.332" y1="243.6368" x2="363.493" y2="-65.6264">
			<stop  offset="0" style="stop-color:#FF898C"/>
			<stop  offset="1" style="stop-color:#ED1E79"/>
		</linearGradient>
		<path class="st18" d="M91.93,204.56c3.45-0.2,6.98-0.38,10.59-0.55c0-6.26,0-15.98,0-22.02c4.06-12.68,8.8-24.32,12.93-36.86
			h-10.66c-2.41,9.33-5.37,18.14-7.7,27.57c-2.5-9.28-5.92-18.33-8.51-27.57H77.45c4.45,12.5,10.12,25.16,14.49,37.7
			C91.93,188.77,91.93,198.39,91.93,204.56z"/>
		<linearGradient id="SVGID_20_" gradientUnits="userSpaceOnUse" x1="26.0091" y1="260.3497" x2="378.1701" y2="-48.9134">
			<stop  offset="0" style="stop-color:#FF898C"/>
			<stop  offset="1" style="stop-color:#ED1E79"/>
		</linearGradient>
		<path class="st19" d="M129.6,203.02c0-8.01,0-16.02,0-24.03c4.76-0.12,9.53-0.21,14.29-0.27c0-2.58,0-5.15,0-7.73
			c-4.76,0.06-9.53,0.15-14.29,0.27c0-5.89,0-11.78,0-17.67c5.84-0.15,11.68-0.25,17.51-0.31c0-1.56,0-5.01,0-8.16h-28.21
			c0,18.32,0,40.77,0,58.21C122.41,203.22,125.98,203.11,129.6,203.02z"/>
		<linearGradient id="SVGID_21_" gradientUnits="userSpaceOnUse" x1="45.4307" y1="282.4652" x2="397.5916" y2="-26.7979">
			<stop  offset="0" style="stop-color:#FF898C"/>
			<stop  offset="1" style="stop-color:#ED1E79"/>
		</linearGradient>
		<path class="st20" d="M162.41,202.65c0-7.36,0-14.73,0-22.09c1.17,0,2.34,0.01,3.5,0.01c2.88,7.38,5.76,14.77,8.64,22.17
			c3.77,0.05,7.57,0.12,11.42,0.21c-3.15-7.53-6.3-15.05-9.45-22.55c4.49-0.79,6.73-3.69,6.73-8.72c0-5.74,0-11.47,0-17.21
			c0-6.07-3.35-9.19-10.05-9.27c-7.13-0.08-14.26-0.1-21.39-0.06c0,19.18,0,38.35,0,57.53C155.3,202.65,158.83,202.64,162.41,202.65
			z M162.41,153.23c2.55,0.01,5.1,0.02,7.65,0.04c0.98,0.01,1.66,0.19,2.03,0.53c0.37,0.34,0.55,1,0.55,1.98c0,4.85,0,9.69,0,14.54
			c0,0.98-0.18,1.64-0.55,1.97c-0.37,0.33-1.05,0.49-2.03,0.49c-2.55-0.02-5.1-0.04-7.65-0.04
			C162.41,166.23,162.41,159.73,162.41,153.23z"/>
		<linearGradient id="SVGID_22_" gradientUnits="userSpaceOnUse" x1="65.6664" y1="305.5079" x2="417.8274" y2="-3.7552">
			<stop  offset="0" style="stop-color:#FF898C"/>
			<stop  offset="1" style="stop-color:#ED1E79"/>
		</linearGradient>
		<path class="st21" d="M200.12,203.36c0.65-3.84,1.3-7.68,1.95-11.53c4.24,0.14,8.48,0.31,12.72,0.5
			c0.71,3.92,1.42,7.83,2.14,11.75c3.54,0.18,7.1,0.38,10.68,0.6c-3.89-18.65-8.45-40.69-12.39-59.56h-14.05
			c-3.74,18.47-7.93,39.62-11.63,57.91C193.04,203.13,196.56,203.24,200.12,203.36z M208.24,156.26c1.69,9.33,3.38,18.66,5.07,28
			c-3.29-0.14-6.57-0.27-9.86-0.39C205.05,174.67,206.65,165.47,208.24,156.26z"/>
		<linearGradient id="SVGID_23_" gradientUnits="userSpaceOnUse" x1="83.4704" y1="325.7815" x2="435.6313" y2="16.5183">
			<stop  offset="0" style="stop-color:#FF898C"/>
			<stop  offset="1" style="stop-color:#ED1E79"/>
		</linearGradient>
		<path class="st22" d="M241.1,205.59c0-13.45,0-26.89,0-40.34c2.58,9.53,5.15,19.07,7.73,28.61c2.85,0.21,5.7,0.43,8.55,0.66
			c2.58-9.18,5.15-18.35,7.72-27.51c0,13.54,0,27.08,0,40.62c3.08,0.3,6.18,0.62,9.28,0.95c0-18.01,0-44.31,0-63.46h-10.32
			c-3.28,11.34-8.05,27.86-11.01,38.11c-3.01-10.89-7.33-26.54-10.54-38.11h-10.81c0,18.74,0,41.41,0,59.81
			C234.83,205.14,237.96,205.36,241.1,205.59z"/>
		<linearGradient id="SVGID_24_" gradientUnits="userSpaceOnUse" x1="102.1135" y1="347.0106" x2="454.2745" y2="37.7474">
			<stop  offset="0" style="stop-color:#FF898C"/>
			<stop  offset="1" style="stop-color:#ED1E79"/>
		</linearGradient>
		<path class="st23" d="M307.63,212.74c0-2.7,0-5.4,0-8.1c-5.87-0.74-11.73-1.44-17.61-2.09c0-5.86,0-15.08,0-20.94l14.22,0.69
			c0-2.73,0-5.46,0-8.19l-14.22-0.69c0-5.37,0-14.77,0-20.13l17.61,0.5v-8.71l-28.26,0.05c0,19.12,0,45.83,0,64.01
			C288.72,210.18,298.15,211.38,307.63,212.74z"/>
		<linearGradient id="SVGID_25_" gradientUnits="userSpaceOnUse" x1="-1.0436" y1="229.5446" x2="351.1174" y2="-79.7186">
			<stop  offset="0" style="stop-color:#FF898C"/>
			<stop  offset="1" style="stop-color:#ED1E79"/>
		</linearGradient>
		<path class="st24" d="M74.79,205.65c0-2.54,0-5.08,0-7.62c-5.89,0.41-11.78,0.87-17.66,1.36c0-5.86,0-12.84,0-18.7
			c4.75-0.4,9.5-0.78,14.26-1.12c0-2.73,0-5.46,0-8.19c-4.75,0.35-9.51,0.72-14.26,1.12c0-5.37,0-12.98,0-18.35l16.93-0.75
			c0-2.13,0-5.59,0-8.29H46.46c0,19.03,0,44.21,0,62.91C54.78,207.23,64.28,206.4,74.79,205.65z"/>
	</g>
	<g>
		<linearGradient id="SVGID_26_" gradientUnits="userSpaceOnUse" x1="31.8482" y1="266.9987" x2="384.0091" y2="-42.2645">
			<stop  offset="0" style="stop-color:#FF898C"/>
			<stop  offset="1" style="stop-color:#ED1E79"/>
		</linearGradient>
		<polygon class="st25" points="79.08,221.29 74.85,225.52 79.08,229.75 83.31,225.52 		"/>
		<linearGradient id="SVGID_27_" gradientUnits="userSpaceOnUse" x1="100.5042" y1="345.1779" x2="452.6651" y2="35.9148">
			<stop  offset="0" style="stop-color:#FF898C"/>
			<stop  offset="1" style="stop-color:#ED1E79"/>
		</linearGradient>
		<polygon class="st26" points="236.76,221.29 232.53,225.52 236.76,229.75 240.99,225.52 		"/>
	</g>
	<g>
		<g>
			<linearGradient id="SVGID_28_" gradientUnits="userSpaceOnUse" x1="51.6627" y1="289.5617" x2="403.8236" y2="-19.7015">
				<stop  offset="0" style="stop-color:#FF898C"/>
				<stop  offset="1" style="stop-color:#ED1E79"/>
			</linearGradient>
			<path class="st27" d="M133.7,216.13c0-0.92,0-2.12,0-3.11c-4.05,0.09-8.03,0.19-11.93,0.32c0,0.99,0,2.19,0,3.12
				c1.3-0.04,2.6-0.08,3.91-0.12c0,6.35,0,13.04,0,19.4c1.35-0.04,2.71-0.07,4.08-0.1c0-6.36,0-13.05,0-19.41
				C131.08,216.19,132.39,216.16,133.7,216.13z"/>
		</g>
		<linearGradient id="SVGID_29_" gradientUnits="userSpaceOnUse" x1="59.2436" y1="298.1942" x2="411.4046" y2="-11.069">
			<stop  offset="0" style="stop-color:#FF898C"/>
			<stop  offset="1" style="stop-color:#ED1E79"/>
		</linearGradient>
		<path class="st28" d="M141.45,212.86c1.44-0.02,2.89-0.04,4.33-0.06c2.58-0.03,3.87,1.14,3.87,3.5c0,5.15,0,10.3,0,15.45
			c0,2.36-1.29,3.54-3.87,3.57c-1.44,0.02-2.89,0.03-4.33,0.06c-2.58,0.04-3.87-1.11-3.87-3.47c0-5.15,0-10.3,0-15.45
			C137.57,214.1,138.86,212.9,141.45,212.86z M145.57,231.22c0-4.77,0-9.54,0-14.31c0-0.38-0.07-0.64-0.21-0.77
			c-0.14-0.13-0.4-0.19-0.78-0.19c-0.63,0.01-1.25,0.02-1.88,0.02c-0.4,0.01-0.67,0.08-0.82,0.21c-0.14,0.13-0.21,0.39-0.21,0.77
			c0,4.77,0,9.54,0,14.31c0,0.38,0.07,0.64,0.21,0.76c0.14,0.13,0.41,0.19,0.82,0.18c0.63-0.01,1.26-0.02,1.88-0.02
			c0.38,0,0.64-0.07,0.78-0.21C145.49,231.86,145.57,231.6,145.57,231.22z"/>
		<g>
			<linearGradient id="SVGID_30_" gradientUnits="userSpaceOnUse" x1="72.8163" y1="313.6495" x2="424.9772" y2="4.3863">
				<stop  offset="0" style="stop-color:#FF898C"/>
				<stop  offset="1" style="stop-color:#ED1E79"/>
			</linearGradient>
			<path class="st29" d="M172.7,212.82c0,7.24,0,15.34,0,22.58c1.36,0.02,2.72,0.04,4.08,0.06c0-7.24,0-15.34,0-22.59
				C175.42,212.85,174.06,212.83,172.7,212.82z"/>
		</g>
		<linearGradient id="SVGID_31_" gradientUnits="userSpaceOnUse" x1="79.9567" y1="321.7804" x2="432.1177" y2="12.5173">
			<stop  offset="0" style="stop-color:#FF898C"/>
			<stop  offset="1" style="stop-color:#ED1E79"/>
		</linearGradient>
		<path class="st30" d="M191.13,213.18c-1.84-0.05-3.67-0.1-5.49-0.14c-1.46,7.23-3.07,15.27-4.54,22.5
			c1.36,0.03,2.72,0.06,4.08,0.09c0.25-1.49,0.57-3.36,0.8-4.76c1.63,0.04,3.27,0.09,4.9,0.14c0.27,1.51,0.59,3.26,0.87,4.79
			c1.37,0.04,2.75,0.08,4.13,0.13C194.35,228.63,192.66,220.48,191.13,213.18z M186.52,227.79c0.62-3.56,1.23-7.11,1.85-10.67
			c0.65,3.59,1.3,7.19,1.95,10.78C189.05,227.86,187.78,227.83,186.52,227.79z"/>
		<g>
			<linearGradient id="SVGID_32_" gradientUnits="userSpaceOnUse" x1="86.3964" y1="329.1133" x2="438.5573" y2="19.8502">
				<stop  offset="0" style="stop-color:#FF898C"/>
				<stop  offset="1" style="stop-color:#ED1E79"/>
			</linearGradient>
			<path class="st31" d="M204.05,233.02c0-6.27,0-13.12,0-19.42c-1.36-0.05-2.73-0.1-4.08-0.15c0,7.29,0,15.34,0,22.61
				c3.32,0.12,6.67,0.25,10.04,0.41c0-1.01,0-2.19,0-3.17C208.03,233.2,206.04,233.11,204.05,233.02z"/>
		</g>
		<linearGradient id="SVGID_33_" gradientUnits="userSpaceOnUse" x1="92.9759" y1="336.6055" x2="445.1369" y2="27.3423">
			<stop  offset="0" style="stop-color:#FF898C"/>
			<stop  offset="1" style="stop-color:#ED1E79"/>
		</linearGradient>
		<path class="st32" d="M221.05,232.9c0-1.61,0-3.22,0-4.83c0-0.38-0.07-0.64-0.21-0.78c-0.14-0.14-0.4-0.22-0.78-0.24
			c-0.96-0.06-1.92-0.11-2.87-0.16c-2.44-0.14-3.65-1.39-3.65-3.78c0-1.85,0-3.7,0-5.55c0-2.36,1.28-3.48,3.83-3.34
			c1.3,0.07,2.6,0.15,3.9,0.23c2.55,0.15,3.83,1.42,3.83,3.78c0,1.05,0,2.1,0,3.15c-1.37-0.09-2.74-0.17-4.11-0.25
			c0-0.86,0-1.72,0-2.58c0-0.38-0.07-0.64-0.21-0.78c-0.14-0.14-0.4-0.22-0.78-0.24c-0.45-0.03-0.9-0.05-1.35-0.08
			c-0.4-0.02-0.67,0.03-0.82,0.15c-0.14,0.12-0.21,0.38-0.21,0.76c0,1.52,0,3.03,0,4.55c0,0.38,0.07,0.64,0.21,0.78
			c0.14,0.14,0.41,0.22,0.82,0.24c0.93,0.05,1.87,0.11,2.8,0.16c2.48,0.15,3.72,1.4,3.72,3.74c0,1.97,0,3.94,0,5.91
			c0,2.36-1.29,3.46-3.87,3.31c-1.28-0.08-2.55-0.15-3.83-0.22c-2.58-0.14-3.87-1.39-3.87-3.76c0-1.04,0-2.08,0-3.12
			c1.36,0.07,2.72,0.15,4.08,0.22c0,0.85,0,1.7,0,2.54c0,0.38,0.07,0.64,0.21,0.78c0.14,0.14,0.41,0.22,0.82,0.24
			c0.45,0.03,0.9,0.05,1.35,0.08c0.38,0.02,0.64-0.03,0.78-0.15C220.98,233.53,221.05,233.28,221.05,232.9z"/>
		<linearGradient id="SVGID_34_" gradientUnits="userSpaceOnUse" x1="38.4042" y1="274.4641" x2="390.5651" y2="-34.7991">
			<stop  offset="0" style="stop-color:#FF898C"/>
			<stop  offset="1" style="stop-color:#ED1E79"/>
		</linearGradient>
		<path class="st33" d="M97.82,217.52c1.31-0.07,2.63-0.14,3.94-0.21c0-0.95,0-2.17,0-3.17c-4.08,0.2-8.06,0.41-11.92,0.63v3.22
			c1.3-0.08,2.6-0.16,3.9-0.24c0,6.24,0,13.01,0,19.28c1.35-0.07,2.71-0.15,4.08-0.22C97.82,230.54,97.82,223.76,97.82,217.52z"/>
		<linearGradient id="SVGID_35_" gradientUnits="userSpaceOnUse" x1="45.371" y1="282.3973" x2="397.532" y2="-26.8658">
			<stop  offset="0" style="stop-color:#FF898C"/>
			<stop  offset="1" style="stop-color:#ED1E79"/>
		</linearGradient>
		<path class="st34" d="M109.6,236.26c1.44-0.06,2.89-0.13,4.33-0.18c2.58-0.1,3.87-1.32,3.87-3.67c0-6.18,0-12.73,0-18.93
			c-1.37,0.05-2.73,0.1-4.08,0.15c0,6.01,0,12.37,0,18.37c0,0.38-0.07,0.64-0.21,0.77c-0.14,0.14-0.41,0.21-0.82,0.23
			c-0.63,0.03-1.25,0.05-1.88,0.08c-0.38,0.02-0.64-0.04-0.78-0.16c-0.14-0.12-0.21-0.38-0.21-0.76c0-5.92,0-12.42,0-18.38
			c-1.37,0.06-2.73,0.12-4.08,0.18c0,6.15,0,12.85,0,18.96C105.73,235.26,107.02,236.37,109.6,236.26z"/>
		<linearGradient id="SVGID_36_" gradientUnits="userSpaceOnUse" x1="67.1115" y1="307.1534" x2="419.2725" y2="-2.1097">
			<stop  offset="0" style="stop-color:#FF898C"/>
			<stop  offset="1" style="stop-color:#ED1E79"/>
		</linearGradient>
		<path class="st35" d="M164.6,226.33c1.73-0.32,2.59-1.45,2.59-3.39c0-2.21,0-4.43,0-6.64c0-2.34-1.29-3.53-3.87-3.54
			c-2.29-0.01-4.59-0.01-6.88-0.01c-0.46,0-0.91,0-1.36,0.01c0,7.35,0,15.19,0,22.55c1.36,0,2.72,0,4.08,0c0-2.84,0-6.09,0-8.89
			c0.45,0,0.9,0,1.35,0c1.1,2.81,2.36,6.06,3.47,8.91c1.46,0.01,2.93,0.02,4.41,0.03C167.18,232.46,165.81,229.19,164.6,226.33z
			 M163.11,222.45c0,0.38-0.07,0.63-0.21,0.76c-0.14,0.13-0.4,0.19-0.78,0.19c-0.98,0-1.97-0.01-2.95-0.01c0-2.51,0-5.02,0-7.53
			c0.98,0,1.97,0,2.95,0.01c0.38,0,0.64,0.07,0.78,0.2c0.14,0.13,0.21,0.39,0.21,0.76C163.11,218.71,163.11,220.58,163.11,222.45z"
			/>
	</g>
</g>
</svg>
