<?xml version="1.0" encoding="utf-8"?>
<!-- Generator: Adobe Illustrator 25.1.0, SVG Export Plug-In . SVG Version: 6.00 Build 0)  -->
<svg version="1.1" id="Layer_1" xmlns="http://www.w3.org/2000/svg" xmlns:xlink="http://www.w3.org/1999/xlink" x="0px" y="0px"
	 viewBox="0 0 1325 215" style="enable-background:new 0 0 1325 215;" xml:space="preserve">
<style type="text/css">
	.st0{fill:#FFFFFF;}
</style>
<g>
	<g>
		<path class="st0" d="M60.09,35.39c-1.95,12.23-10.21,20.95-25.69,20.95C18.71,56.34,9.8,46.13,9.8,32.47
			c0-15.42,9.76-25.17,25.24-25.17c13.66,0,21.92,7.74,24.39,18.47l-12.75,3.25c-1.82-6.9-5.72-10.08-11.51-10.08
			c-6.83,0-11.12,4.42-11.12,13.01c0,8.26,4.03,12.75,11.06,12.75c6.31,0,10.86-3.64,11.9-10.93L60.09,35.39z"/>
		<path class="st0" d="M106.27,46.13l-0.06,8.39c-2.02,0.91-5.66,1.69-8.91,1.69c-7.03,0-9.11-3.19-9.11-7.22v-1.04h-0.33
			c-1.89,4.62-6.18,8.39-12.95,8.39c-6.76,0-11.58-4.1-11.58-9.37c0-4.03,2.6-6.83,8.26-8.78c3.25-1.11,8.91-2.67,16.13-4.68v-0.06
			c0-2.67-2.15-4.16-5.4-4.16c-3.19,0-6.18,1.3-8.2,6.24l-10.47-3.58c3.64-9.11,10.73-12.03,19.97-12.03
			c11.9,0,17.95,5.66,17.95,13.79V43c0,1.24,0,3.32,2.41,3.32C104.58,46.32,105.42,46.26,106.27,46.13z M87.73,43.2v-5.4l-6.9,2.34
			c-2.47,0.85-3.64,1.69-3.64,3.12c0,1.56,1.3,3.32,4.03,3.32C84.02,46.58,86.88,45.02,87.73,43.2z"/>
		<path class="st0" d="M171.83,33.12v22.44h-13.85v-19.9c0-3.32-1.37-5.33-4.42-5.33c-2.86,0-5.33,1.63-5.33,6.7v18.54h-13.86v-19.9
			c0-3.32-1.43-5.33-4.42-5.33c-2.93,0-5.33,1.63-5.33,6.7v18.54h-13.86V20.63h13.4v8.59h0.39c1.56-5.27,5.2-9.37,12.16-9.37
			c6.18,0,10.08,3.12,11.19,9.37h0.33c1.56-5.27,4.94-9.37,11.9-9.37C167.54,19.85,171.83,24.27,171.83,33.12z"/>
		<path class="st0" d="M220.88,38.06c0,11.77-6.64,18.28-15.74,18.28c-6.11,0-10.41-3.32-12.42-8.98h-0.26v21.08H178.6V20.63h13.85
			v8.33h0.26c2.02-5.85,6.31-9.11,12.55-9.11C214.05,19.85,220.88,26.29,220.88,38.06z M206.83,38.06c0-5.07-2.67-8.52-7.09-8.52
			c-4.29,0-7.29,3.25-7.29,8.07v0.98c0,5.07,3.06,8.07,7.22,8.07C204.16,46.65,206.83,43.27,206.83,38.06z"/>
		<path class="st0" d="M266.93,37.28l-6.76,7.22v11.06h-13.92V8.07h13.92v19.64l18.21-19.64h16.13l-17.95,19.06l19.06,28.43h-16.52
			L266.93,37.28z"/>
		<path class="st0" d="M334.97,39.43l-25.89-0.06c0.26,4.81,2.34,7.22,6.89,7.22c3.38,0,6.44-1.24,7.61-5.92l11.12,3.12
			c-3.06,9.43-10.54,12.55-19.71,12.55c-12.68,0-19.9-6.9-19.9-17.76c0-11.25,8-18.73,20.29-18.73
			C327.29,19.85,335.1,26.94,334.97,39.43z M309.27,34.74h12.49c-0.78-4.1-2.86-5.79-5.98-5.79
			C312.27,28.95,310.05,30.71,309.27,34.74z"/>
		<path class="st0" d="M378.74,20.63L365.08,55.3c-3.77,9.69-9.63,13.92-19.58,13.92c-3.12,0-6.31-0.52-8.2-1.17l0.06-8.72
			c1.95,0.59,4.36,0.91,6.77,0.91c1.89,0,2.99-0.26,3.77-0.85c0.91-0.72,1.37-1.69,1.37-2.99c0-1.89-0.72-3.9-1.56-5.98
			l-12.36-29.79h15.22l6.7,23.87h0.39l6.57-23.87H378.74z"/>
		<path class="st0" d="M407.49,30.19h-8.46v25.37h-13.86V30.19h-5.2v-9.56h5.2v-2.41c0-6.63,5.27-10.93,14.44-10.93
			c3.19,0,5.72,0.39,7.94,0.91v7.42c-1.17-0.07-2.54-0.13-3.51-0.13c-4.88,0-5.01,1.82-5.01,3.64v1.5h8.46V30.19z"/>
		<path class="st0" d="M440.14,20.5v12.42c-0.78-0.2-1.95-0.33-2.93-0.33c-7.22,0-11.9,4.49-11.9,11.9v11.06h-13.86V20.63h13.53
			v13.99h0.39c0.91-6.57,2.8-11.19,7.09-13.4c1.3-0.65,3.06-0.98,4.94-0.98C438.32,20.24,439.23,20.3,440.14,20.5z"/>
		<path class="st0" d="M484.77,46.13l-0.06,8.39c-2.02,0.91-5.66,1.69-8.91,1.69c-7.03,0-9.11-3.19-9.11-7.22v-1.04h-0.33
			c-1.89,4.62-6.18,8.39-12.95,8.39c-6.76,0-11.58-4.1-11.58-9.37c0-4.03,2.6-6.83,8.26-8.78c3.25-1.11,8.91-2.67,16.13-4.68v-0.06
			c0-2.67-2.15-4.16-5.4-4.16c-3.19,0-6.18,1.3-8.2,6.24l-10.47-3.58c3.64-9.11,10.73-12.03,19.97-12.03
			c11.9,0,17.95,5.66,17.95,13.79V43c0,1.24,0,3.32,2.41,3.32C483.07,46.32,483.92,46.26,484.77,46.13z M466.23,43.2v-5.4l-6.9,2.34
			c-2.47,0.85-3.64,1.69-3.64,3.12c0,1.56,1.3,3.32,4.03,3.32C462.52,46.58,465.38,45.02,466.23,43.2z"/>
		<path class="st0" d="M550.33,33.12v22.44h-13.85v-19.9c0-3.32-1.37-5.33-4.42-5.33c-2.86,0-5.33,1.63-5.33,6.7v18.54h-13.86v-19.9
			c0-3.32-1.43-5.33-4.42-5.33c-2.93,0-5.33,1.63-5.33,6.7v18.54h-13.86V20.63h13.4v8.59h0.39c1.56-5.27,5.2-9.37,12.16-9.37
			c6.18,0,10.08,3.12,11.19,9.37h0.33c1.56-5.27,4.94-9.37,11.9-9.37C546.04,19.85,550.33,24.27,550.33,33.12z"/>
		<path class="st0" d="M595.08,39.43l-25.89-0.06c0.26,4.81,2.34,7.22,6.89,7.22c3.38,0,6.44-1.24,7.61-5.92l11.12,3.12
			c-3.06,9.43-10.54,12.55-19.71,12.55c-12.68,0-19.9-6.9-19.9-17.76c0-11.25,8-18.73,20.29-18.73
			C587.41,19.85,595.21,26.94,595.08,39.43z M569.39,34.74h12.49c-0.78-4.1-2.86-5.79-5.98-5.79
			C572.38,28.95,570.17,30.71,569.39,34.74z"/>
		<path class="st0" d="M633.98,8.07v9.5h-13.92v-9.5H633.98z M620.06,20.63h13.86v34.93h-13.86V20.63z"/>
		<path class="st0" d="M646.6,42.81c2.21,3.19,5.79,4.94,10.86,4.94c3.71,0,5.59-1.24,5.59-2.86c0-1.17-0.85-1.69-2.93-1.89
			c-3.38-0.33-6.57-0.52-9.3-0.85c-5.79-0.65-11.12-3.45-11.12-10.34c0-7.61,7.29-11.97,17.11-11.97c6.64,0,12.88,1.82,17.04,6.18
			l-6.57,6.31c-3.06-2.86-6.76-3.97-10.41-3.97c-2.93,0-4.88,1.04-4.88,2.47c0,1.04,0.72,1.63,2.6,1.82
			c2.8,0.26,5.79,0.59,8.26,0.85c6.96,0.72,12.42,3.38,12.42,10.28c0,8.07-6.96,12.55-18.34,12.55c-8.65,0-15.68-2.47-18.8-8.91
			L646.6,42.81z"/>
		<path class="st0" d="M703.77,20.63l5.66-10.08h5.98l0.2,10.08h9.11v9.56h-9.11l-0.07,9.37c-0.07,3.84,0.72,5.92,4.88,5.92
			c1.37,0,2.86-0.13,4.36-0.46v10.02c-2.8,0.78-5.85,1.24-10.08,1.24c-10.8,0-12.94-4.42-12.94-9.56V30.19h-5.07v-9.56H703.77z"/>
		<path class="st0" d="M768.49,33.12v22.44h-13.86v-19.9c0-3.25-1.5-5.33-4.88-5.33c-2.99,0-5.59,1.63-5.59,6.7v18.54h-13.86V8.07
			h13.86v20.75h0.33c1.43-5.27,5.2-8.98,11.97-8.98C764.14,19.85,768.49,24.27,768.49,33.12z"/>
		<path class="st0" d="M813.24,39.43l-25.89-0.06c0.26,4.81,2.34,7.22,6.89,7.22c3.38,0,6.44-1.24,7.61-5.92l11.12,3.12
			c-3.06,9.43-10.54,12.55-19.71,12.55c-12.68,0-19.9-6.9-19.9-17.76c0-11.25,8-18.73,20.29-18.73
			C805.57,19.85,813.37,26.94,813.24,39.43z M787.55,34.74h12.49c-0.78-4.1-2.86-5.79-5.98-5.79
			C790.54,28.95,788.33,30.71,787.55,34.74z"/>
		<path class="st0" d="M877.83,55.69c0,8.72-9.56,13.53-23.74,13.53c-11.84,0-16.39-3.45-16.39-7.42c0-3.32,3.06-4.68,7.35-4.94
			v-0.52c-5.92-0.2-9.11-2.73-9.11-6.96c0-4.36,3.51-7.55,9.82-8.52V40.6c-5.2-1.89-8.13-5.2-8.13-9.56
			c0-6.77,6.96-11.19,18.8-11.19c3.06,0,5.79,0.33,8.13,0.85l0.72-10.8h12.16v0.33l-9.82,11.45c4.81,1.89,7.48,5.14,7.48,9.37
			c0,6.76-7.03,11.12-18.67,11.12c-2.41,0-4.55-0.2-6.57-0.52c-1.95,0.46-2.73,1.24-2.73,2.28c0,0.98,0.85,1.63,2.99,1.63H863
			C872.44,45.54,877.83,48.92,877.83,55.69z M865.73,58.62c0-1.37-1.24-1.76-4.36-1.76h-11.12c-2.21,0-2.86,0.98-2.86,2.08
			c0,2.21,2.73,3.45,8.46,3.45C861.77,62.39,865.73,61.09,865.73,58.62z M851.62,31.04c0,3.06,1.76,4.42,4.75,4.42
			c2.93,0,4.75-1.37,4.75-4.42c0-3.12-1.82-4.49-4.75-4.49C853.51,26.55,851.62,27.91,851.62,31.04z"/>
		<path class="st0" d="M920.24,38c0,11.25-7.81,18.34-21.01,18.34c-13.21,0-21.01-7.09-21.01-18.34s8.07-18.15,21.01-18.15
			C912.24,19.85,920.24,26.74,920.24,38z M906.06,38.39c0-5.27-2.21-9.11-6.83-9.11c-4.55,0-6.9,3.77-6.9,9.11
			c0,5.4,2.34,8.59,6.9,8.59C903.72,46.97,906.06,43.79,906.06,38.39z"/>
		<path class="st0" d="M950.49,32.21v11.64h-24.26V32.21H950.49z"/>
		<path class="st0" d="M961.74,20.63l5.66-10.08h5.98l0.2,10.08h9.11v9.56h-9.11l-0.07,9.37c-0.07,3.84,0.72,5.92,4.88,5.92
			c1.37,0,2.86-0.13,4.36-0.46v10.02c-2.8,0.78-5.85,1.24-10.08,1.24c-10.8,0-12.94-4.42-12.94-9.56V30.19h-5.07v-9.56H961.74z"/>
		<path class="st0" d="M1028.22,38c0,11.25-7.81,18.34-21.01,18.34C994,56.34,986.2,49.25,986.2,38s8.07-18.15,21.01-18.15
			C1020.22,19.85,1028.22,26.74,1028.22,38z M1014.04,38.39c0-5.27-2.21-9.11-6.83-9.11c-4.55,0-6.9,3.77-6.9,9.11
			c0,5.4,2.34,8.59,6.9,8.59C1011.7,46.97,1014.04,43.79,1014.04,38.39z"/>
		<path class="st0" d="M1095.35,38.06c0,11.77-6.64,18.28-15.74,18.28c-6.11,0-10.41-3.32-12.42-8.98h-0.26v21.08h-13.85V20.63
			h13.85v8.33h0.26c2.02-5.85,6.31-9.11,12.55-9.11C1088.52,19.85,1095.35,26.29,1095.35,38.06z M1081.29,38.06
			c0-5.07-2.67-8.52-7.09-8.52c-4.29,0-7.29,3.25-7.29,8.07v0.98c0,5.07,3.06,8.07,7.22,8.07
			C1078.63,46.65,1081.29,43.27,1081.29,38.06z"/>
		<path class="st0" d="M1100.68,8.07h13.86v47.49h-13.86V8.07z"/>
		<path class="st0" d="M1162.6,46.13l-0.06,8.39c-2.02,0.91-5.66,1.69-8.91,1.69c-7.03,0-9.11-3.19-9.11-7.22v-1.04h-0.33
			c-1.89,4.62-6.18,8.39-12.95,8.39c-6.76,0-11.58-4.1-11.58-9.37c0-4.03,2.6-6.83,8.26-8.78c3.25-1.11,8.91-2.67,16.13-4.68v-0.06
			c0-2.67-2.15-4.16-5.4-4.16c-3.19,0-6.18,1.3-8.2,6.24l-10.47-3.58c3.64-9.11,10.73-12.03,19.97-12.03
			c11.9,0,17.95,5.66,17.95,13.79V43c0,1.24,0,3.32,2.41,3.32C1160.91,46.32,1161.76,46.26,1162.6,46.13z M1144.06,43.2v-5.4
			l-6.9,2.34c-2.47,0.85-3.64,1.69-3.64,3.12c0,1.56,1.3,3.32,4.03,3.32C1140.35,46.58,1143.22,45.02,1144.06,43.2z"/>
		<path class="st0" d="M1184.59,56.34c-12.29,0-19.58-7.22-19.58-17.76c0-11.58,8.72-18.73,20.17-18.73
			c10.28,0,17.11,5.66,18.67,13.79l-10.73,2.6c-1.04-4.23-3.38-6.77-7.16-6.77c-4.03,0-6.83,2.73-6.83,8.65
			c0,6.11,2.8,8.46,6.83,8.46c4.16,0,6.7-2.67,7.48-7.42l11.51,1.43C1203.52,49.77,1196.69,56.34,1184.59,56.34z"/>
		<path class="st0" d="M1247.42,39.43l-25.89-0.06c0.26,4.81,2.34,7.22,6.89,7.22c3.38,0,6.44-1.24,7.61-5.92l11.12,3.12
			c-3.06,9.43-10.54,12.55-19.71,12.55c-12.68,0-19.9-6.9-19.9-17.76c0-11.25,8-18.73,20.29-18.73
			C1239.74,19.85,1247.55,26.94,1247.42,39.43z M1221.73,34.74h12.49c-0.78-4.1-2.86-5.79-5.98-5.79
			C1224.72,28.95,1222.51,30.71,1221.73,34.74z"/>
		<path class="st0" d="M35.89,99.43h-8.46v25.37H13.58V99.43h-5.2v-9.56h5.2v-2.41c0-6.63,5.27-10.93,14.44-10.93
			c3.19,0,5.72,0.39,7.94,0.91v7.42c-1.17-0.07-2.54-0.13-3.51-0.13c-4.88,0-5.01,1.82-5.01,3.64v1.5h8.46V99.43z"/>
		<path class="st0" d="M78.95,107.24c0,11.25-7.81,18.34-21.01,18.34c-13.21,0-21.01-7.09-21.01-18.34
			c0-11.25,8.07-18.15,21.01-18.15C70.95,89.09,78.95,95.99,78.95,107.24z M64.77,107.63c0-5.27-2.21-9.11-6.83-9.11
			c-4.55,0-6.9,3.77-6.9,9.11c0,5.4,2.34,8.59,6.9,8.59C62.43,116.22,64.77,113.03,64.77,107.63z"/>
		<path class="st0" d="M112.97,89.74v12.42c-0.78-0.2-1.95-0.33-2.93-0.33c-7.22,0-11.9,4.49-11.9,11.9v11.06H84.28V89.87h13.53
			v13.99h0.39c0.91-6.57,2.8-11.19,7.09-13.4c1.3-0.65,3.06-0.98,4.94-0.98C111.15,89.48,112.06,89.55,112.97,89.74z"/>
		<path class="st0" d="M154.66,125.58c-12.29,0-19.58-7.22-19.58-17.76c0-11.58,8.72-18.73,20.17-18.73
			c10.28,0,17.11,5.66,18.67,13.79l-10.73,2.6c-1.04-4.23-3.38-6.77-7.16-6.77c-4.03,0-6.83,2.73-6.83,8.65
			c0,6.12,2.8,8.46,6.83,8.46c4.16,0,6.7-2.67,7.48-7.42l11.51,1.43C173.59,119.01,166.76,125.58,154.66,125.58z"/>
		<path class="st0" d="M208.26,89.74v12.42c-0.78-0.2-1.95-0.33-2.93-0.33c-7.22,0-11.9,4.49-11.9,11.9v11.06h-13.86V89.87h13.53
			v13.99h0.39c0.91-6.57,2.8-11.19,7.09-13.4c1.3-0.65,3.06-0.98,4.94-0.98C206.44,89.48,207.35,89.55,208.26,89.74z"/>
		<path class="st0" d="M250.21,108.67l-25.89-0.07c0.26,4.81,2.34,7.22,6.89,7.22c3.38,0,6.44-1.24,7.61-5.92l11.12,3.12
			c-3.06,9.43-10.54,12.55-19.71,12.55c-12.68,0-19.9-6.9-19.9-17.76c0-11.25,8-18.73,20.29-18.73
			C242.54,89.09,250.34,96.18,250.21,108.67z M224.52,103.99h12.49c-0.78-4.1-2.86-5.79-5.98-5.79
			C227.51,98.2,225.3,99.95,224.52,103.99z"/>
		<path class="st0" d="M296.4,115.37l-0.06,8.39c-2.02,0.91-5.66,1.69-8.91,1.69c-7.03,0-9.11-3.19-9.11-7.22v-1.04h-0.33
			c-1.89,4.62-6.18,8.39-12.95,8.39c-6.76,0-11.58-4.1-11.58-9.37c0-4.03,2.6-6.83,8.26-8.78c3.25-1.11,8.91-2.67,16.13-4.68v-0.06
			c0-2.67-2.15-4.16-5.4-4.16c-3.19,0-6.18,1.3-8.2,6.24l-10.47-3.58c3.64-9.11,10.73-12.03,19.97-12.03
			c11.9,0,17.95,5.66,17.95,13.79v9.3c0,1.24,0,3.32,2.41,3.32C294.7,115.57,295.55,115.5,296.4,115.37z M277.86,112.44v-5.4
			l-6.9,2.34c-2.47,0.85-3.64,1.69-3.64,3.12c0,1.56,1.3,3.32,4.03,3.32C274.15,115.83,277.01,114.27,277.86,112.44z"/>
		<path class="st0" d="M304.46,89.87l5.66-10.08h5.98l0.2,10.08h9.11v9.56h-9.11l-0.07,9.37c-0.07,3.84,0.72,5.92,4.88,5.92
			c1.37,0,2.86-0.13,4.36-0.46v10.02c-2.8,0.78-5.85,1.24-10.08,1.24c-10.8,0-12.94-4.42-12.94-9.56V99.43h-5.07v-9.56H304.46z"/>
		<path class="st0" d="M370.94,107.24c0,11.25-7.81,18.34-21.01,18.34c-13.21,0-21.01-7.09-21.01-18.34
			c0-11.25,8.07-18.15,21.01-18.15C362.94,89.09,370.94,95.99,370.94,107.24z M356.76,107.63c0-5.27-2.21-9.11-6.83-9.11
			c-4.55,0-6.9,3.77-6.9,9.11c0,5.4,2.34,8.59,6.9,8.59C354.42,116.22,356.76,113.03,356.76,107.63z"/>
		<path class="st0" d="M404.96,89.74v12.42c-0.78-0.2-1.95-0.33-2.93-0.33c-7.22,0-11.9,4.49-11.9,11.9v11.06h-13.86V89.87h13.53
			v13.99h0.39c0.91-6.57,2.8-11.19,7.09-13.4c1.3-0.65,3.06-0.98,4.94-0.98C403.14,89.48,404.05,89.55,404.96,89.74z"/>
		<path class="st0" d="M414.71,112.05c2.21,3.19,5.79,4.94,10.86,4.94c3.71,0,5.59-1.24,5.59-2.86c0-1.17-0.85-1.69-2.93-1.89
			c-3.38-0.33-6.57-0.52-9.3-0.85c-5.79-0.65-11.12-3.45-11.12-10.34c0-7.61,7.29-11.97,17.11-11.97c6.64,0,12.88,1.82,17.04,6.18
			l-6.57,6.31c-3.06-2.86-6.76-3.97-10.41-3.97c-2.93,0-4.88,1.04-4.88,2.47c0,1.04,0.72,1.63,2.6,1.82
			c2.8,0.26,5.79,0.59,8.26,0.85c6.96,0.72,12.42,3.38,12.42,10.28c0,8.07-6.96,12.55-18.34,12.55c-8.65,0-15.68-2.47-18.8-8.91
			L414.71,112.05z"/>
		<path class="st0" d="M527.05,89.87l-9.37,34.93h-15.94l-5.79-21.21h-0.13l-6.18,21.21H474.1l-9.76-34.93h14.64l4.62,22.38h0.33
			l6.38-22.38h11.51l6.38,22.38h0.33l4.75-22.38H527.05z"/>
		<path class="st0" d="M568.87,102.36v22.44h-13.86V104.9c0-3.25-1.5-5.33-4.88-5.33c-2.99,0-5.59,1.63-5.59,6.7v18.54h-13.86V77.32
			h13.86v20.75h0.33c1.43-5.27,5.2-8.98,11.97-8.98C564.51,89.09,568.87,93.51,568.87,102.36z"/>
		<path class="st0" d="M615.77,107.24c0,11.25-7.81,18.34-21.01,18.34c-13.21,0-21.01-7.09-21.01-18.34
			c0-11.25,8.07-18.15,21.01-18.15C607.77,89.09,615.77,95.99,615.77,107.24z M601.59,107.63c0-5.27-2.21-9.11-6.83-9.11
			c-4.55,0-6.9,3.77-6.9,9.11c0,5.4,2.34,8.59,6.9,8.59C599.25,116.22,601.59,113.03,601.59,107.63z"/>
		<path class="st0" d="M699.74,89.87l-9.37,34.93h-15.94l-5.79-21.21h-0.13l-6.18,21.21h-15.55l-9.76-34.93h14.64l4.62,22.38h0.33
			l6.38-22.38h11.51l6.38,22.38h0.33l4.75-22.38H699.74z"/>
		<path class="st0" d="M743.58,115.37l-0.06,8.39c-2.02,0.91-5.66,1.69-8.91,1.69c-7.03,0-9.11-3.19-9.11-7.22v-1.04h-0.33
			c-1.89,4.62-6.18,8.39-12.95,8.39c-6.76,0-11.58-4.1-11.58-9.37c0-4.03,2.6-6.83,8.26-8.78c3.25-1.11,8.91-2.67,16.13-4.68v-0.06
			c0-2.67-2.15-4.16-5.4-4.16c-3.19,0-6.18,1.3-8.2,6.24l-10.47-3.58c3.64-9.11,10.73-12.03,19.97-12.03
			c11.9,0,17.95,5.66,17.95,13.79v9.3c0,1.24,0,3.32,2.41,3.32C741.89,115.57,742.74,115.5,743.58,115.37z M725.05,112.44v-5.4
			l-6.9,2.34c-2.47,0.85-3.64,1.69-3.64,3.12c0,1.56,1.3,3.32,4.03,3.32C721.34,115.83,724.2,114.27,725.05,112.44z"/>
		<path class="st0" d="M786.25,102.36v22.44H772.4V104.9c0-3.25-1.5-5.33-4.88-5.33c-2.99,0-5.59,1.63-5.59,6.7v18.54h-13.86V89.87
			h13.4v8.65h0.39c1.56-5.33,5.2-9.43,12.36-9.43C781.9,89.09,786.25,93.51,786.25,102.36z"/>
		<path class="st0" d="M796.98,89.87l5.66-10.08h5.98l0.2,10.08h9.11v9.56h-9.11l-0.07,9.37c-0.07,3.84,0.72,5.92,4.88,5.92
			c1.37,0,2.86-0.13,4.36-0.46v10.02c-2.8,0.78-5.85,1.24-10.08,1.24c-10.8,0-12.94-4.42-12.94-9.56V99.43h-5.07v-9.56H796.98z"/>
		<path class="st0" d="M847,89.87l5.66-10.08h5.98l0.2,10.08h9.11v9.56h-9.11l-0.07,9.37c-0.07,3.84,0.72,5.92,4.88,5.92
			c1.37,0,2.86-0.13,4.36-0.46v10.02c-2.8,0.78-5.85,1.24-10.08,1.24c-10.8,0-12.94-4.42-12.94-9.56V99.43h-5.07v-9.56H847z"/>
		<path class="st0" d="M913.48,107.24c0,11.25-7.81,18.34-21.01,18.34c-13.21,0-21.01-7.09-21.01-18.34
			c0-11.25,8.07-18.15,21.01-18.15C905.48,89.09,913.48,95.99,913.48,107.24z M899.3,107.63c0-5.27-2.21-9.11-6.83-9.11
			c-4.55,0-6.9,3.77-6.9,9.11c0,5.4,2.34,8.59,6.9,8.59C896.96,116.22,899.3,113.03,899.3,107.63z"/>
		<path class="st0" d="M980.61,107.31c0,11.77-6.64,18.28-15.74,18.28c-6.11,0-10.41-3.32-12.42-8.98h-0.26v8.2h-13.85V77.32h13.85
			V98.2h0.26c2.02-5.85,6.31-9.11,12.55-9.11C973.78,89.09,980.61,95.53,980.61,107.31z M966.56,107.31c0-5.07-2.67-8.52-7.09-8.52
			c-4.29,0-7.29,3.25-7.29,8.07v0.98c0,5.07,3.06,8.07,7.22,8.07C963.89,115.89,966.56,112.51,966.56,107.31z"/>
		<path class="st0" d="M1014.63,89.74v12.42c-0.78-0.2-1.95-0.33-2.93-0.33c-7.22,0-11.9,4.49-11.9,11.9v11.06h-13.86V89.87h13.53
			v13.99h0.39c0.91-6.57,2.8-11.19,7.09-13.4c1.3-0.65,3.06-0.98,4.94-0.98C1012.8,89.48,1013.71,89.55,1014.63,89.74z"/>
		<path class="st0" d="M1033.03,77.32v9.5h-13.92v-9.5H1033.03z M1019.11,89.87h13.86v34.93h-13.86V89.87z"/>
		<path class="st0" d="M1078.44,102.36v22.44h-13.86V104.9c0-3.25-1.5-5.33-4.88-5.33c-2.99,0-5.59,1.63-5.59,6.7v18.54h-13.86
			V89.87h13.4v8.65h0.39c1.56-5.33,5.2-9.43,12.36-9.43C1074.08,89.09,1078.44,93.51,1078.44,102.36z"/>
		<path class="st0" d="M1124.88,124.93c0,8.72-9.56,13.53-23.74,13.53c-11.84,0-16.39-3.45-16.39-7.42c0-3.32,3.06-4.68,7.35-4.94
			v-0.52c-5.92-0.2-9.11-2.73-9.11-6.96c0-4.36,3.51-7.55,9.82-8.52v-0.26c-5.2-1.89-8.13-5.2-8.13-9.56
			c0-6.77,6.96-11.19,18.8-11.19c3.06,0,5.79,0.33,8.13,0.85l0.72-10.8h12.16v0.33l-9.82,11.45c4.81,1.89,7.48,5.14,7.48,9.37
			c0,6.76-7.03,11.12-18.67,11.12c-2.41,0-4.55-0.2-6.57-0.52c-1.95,0.46-2.73,1.24-2.73,2.28c0,0.98,0.85,1.63,2.99,1.63h12.88
			C1119.48,114.79,1124.88,118.17,1124.88,124.93z M1112.78,127.86c0-1.37-1.24-1.76-4.36-1.76h-11.12c-2.21,0-2.86,0.98-2.86,2.08
			c0,2.21,2.73,3.45,8.46,3.45C1108.81,131.63,1112.78,130.33,1112.78,127.86z M1098.66,100.28c0,3.06,1.76,4.42,4.75,4.42
			c2.93,0,4.75-1.37,4.75-4.42c0-3.12-1.82-4.49-4.75-4.49C1100.55,95.79,1098.66,97.16,1098.66,100.28z"/>
		<path class="st0" d="M1151.94,89.87l5.66-10.08h5.98l0.2,10.08h9.11v9.56h-9.11l-0.07,9.37c-0.07,3.84,0.72,5.92,4.88,5.92
			c1.37,0,2.86-0.13,4.36-0.46v10.02c-2.8,0.78-5.85,1.24-10.08,1.24c-10.8,0-12.94-4.42-12.94-9.56V99.43h-5.07v-9.56H1151.94z"/>
		<path class="st0" d="M1216.66,102.36v22.44h-13.86V104.9c0-3.25-1.5-5.33-4.88-5.33c-2.99,0-5.59,1.63-5.59,6.7v18.54h-13.86
			V77.32h13.86v20.75h0.33c1.43-5.27,5.2-8.98,11.97-8.98C1212.3,89.09,1216.66,93.51,1216.66,102.36z"/>
		<path class="st0" d="M1261.41,108.67l-25.89-0.07c0.26,4.81,2.34,7.22,6.89,7.22c3.38,0,6.44-1.24,7.61-5.92l11.12,3.12
			c-3.06,9.43-10.54,12.55-19.71,12.55c-12.68,0-19.9-6.9-19.9-17.76c0-11.25,8-18.73,20.29-18.73
			C1253.73,89.09,1261.54,96.18,1261.41,108.67z M1235.71,103.99h12.49c-0.78-4.1-2.86-5.79-5.98-5.79
			C1238.7,98.2,1236.49,99.95,1235.71,103.99z"/>
		<path class="st0" d="M1280.72,77.32v9.5h-13.92v-9.5H1280.72z M1266.8,89.87h13.86v34.93h-13.86V89.87z"/>
		<path class="st0" d="M1316.63,89.74v12.42c-0.78-0.2-1.95-0.33-2.93-0.33c-7.22,0-11.9,4.49-11.9,11.9v11.06h-13.86V89.87h13.53
			v13.99h0.39c0.91-6.57,2.8-11.19,7.09-13.4c1.3-0.65,3.06-0.98,4.94-0.98C1314.81,89.48,1315.72,89.55,1316.63,89.74z"/>
		<path class="st0" d="M51.89,146.56v47.49H38.03v-8.26h-0.26c-2.02,5.79-6.25,9.04-12.55,9.04c-8.72,0-15.61-6.38-15.61-18.21
			c0-11.71,6.63-18.28,15.81-18.28c6.11,0,10.41,3.38,12.36,8.98h0.26v-20.75H51.89z M38.1,177.07v-0.98c0-5.01-3.12-8.07-7.29-8.07
			c-4.42,0-7.09,3.45-7.09,8.59s2.67,8.52,7.09,8.52C35.11,185.14,38.1,181.88,38.1,177.07z"/>
		<path class="st0" d="M97.03,177.91l-25.89-0.06c0.26,4.81,2.34,7.22,6.89,7.22c3.38,0,6.44-1.24,7.61-5.92l11.12,3.12
			c-3.06,9.43-10.54,12.55-19.71,12.55c-12.68,0-19.9-6.9-19.9-17.76c0-11.25,8-18.73,20.29-18.73
			C89.35,158.34,97.16,165.43,97.03,177.91z M71.34,173.23h12.49c-0.78-4.1-2.86-5.79-5.98-5.79
			C74.33,167.44,72.12,169.2,71.34,173.23z"/>
		<path class="st0" d="M107.83,181.3c2.21,3.19,5.79,4.94,10.86,4.94c3.71,0,5.59-1.24,5.59-2.86c0-1.17-0.85-1.69-2.93-1.89
			c-3.38-0.33-6.57-0.52-9.3-0.85c-5.79-0.65-11.12-3.45-11.12-10.34c0-7.61,7.29-11.97,17.11-11.97c6.64,0,12.88,1.82,17.04,6.18
			l-6.57,6.31c-3.06-2.86-6.76-3.97-10.41-3.97c-2.93,0-4.88,1.04-4.88,2.47c0,1.04,0.72,1.63,2.6,1.82
			c2.8,0.26,5.79,0.58,8.26,0.85c6.96,0.71,12.42,3.38,12.42,10.28c0,8.07-6.96,12.55-18.34,12.55c-8.65,0-15.68-2.47-18.8-8.91
			L107.83,181.3z"/>
		<path class="st0" d="M155.44,146.56v9.5h-13.92v-9.5H155.44z M141.52,159.12h13.86v34.93h-13.86V159.12z"/>
		<path class="st0" d="M202.27,194.18c0,8.72-9.56,13.53-23.74,13.53c-11.84,0-16.39-3.45-16.39-7.42c0-3.32,3.06-4.68,7.35-4.94
			v-0.52c-5.92-0.2-9.11-2.73-9.11-6.96c0-4.36,3.51-7.54,9.82-8.52v-0.26c-5.2-1.89-8.13-5.2-8.13-9.56
			c0-6.77,6.96-11.19,18.8-11.19c3.06,0,5.79,0.33,8.13,0.85l0.72-10.8h12.16v0.33l-9.82,11.45c4.81,1.89,7.48,5.14,7.48,9.37
			c0,6.76-7.03,11.12-18.67,11.12c-2.41,0-4.55-0.2-6.57-0.52c-1.95,0.46-2.73,1.24-2.73,2.28c0,0.98,0.85,1.63,2.99,1.63h12.88
			C196.87,184.03,202.27,187.41,202.27,194.18z M190.17,197.1c0-1.37-1.24-1.76-4.36-1.76h-11.12c-2.21,0-2.86,0.98-2.86,2.08
			c0,2.21,2.73,3.45,8.46,3.45C186.21,200.88,190.17,199.58,190.17,197.1z M176.06,169.52c0,3.06,1.76,4.42,4.75,4.42
			c2.93,0,4.75-1.37,4.75-4.42c0-3.12-1.82-4.49-4.75-4.49C177.94,165.03,176.06,166.4,176.06,169.52z"/>
		<path class="st0" d="M244.03,171.6v22.44h-13.86v-19.9c0-3.25-1.5-5.33-4.88-5.33c-2.99,0-5.59,1.63-5.59,6.7v18.54h-13.86v-34.93
			h13.4v8.65h0.39c1.56-5.33,5.2-9.43,12.36-9.43C239.67,158.34,244.03,162.76,244.03,171.6z"/>
		<path class="st0" d="M256.26,181.3c2.21,3.19,5.79,4.94,10.86,4.94c3.71,0,5.59-1.24,5.59-2.86c0-1.17-0.85-1.69-2.93-1.89
			c-3.38-0.33-6.57-0.52-9.3-0.85c-5.79-0.65-11.12-3.45-11.12-10.34c0-7.61,7.29-11.97,17.11-11.97c6.64,0,12.88,1.82,17.04,6.18
			l-6.57,6.31c-3.06-2.86-6.76-3.97-10.41-3.97c-2.93,0-4.88,1.04-4.88,2.47c0,1.04,0.72,1.63,2.6,1.82
			c2.8,0.26,5.79,0.58,8.26,0.85c6.96,0.71,12.42,3.38,12.42,10.28c0,8.07-6.96,12.55-18.34,12.55c-8.65,0-15.68-2.47-18.8-8.91
			L256.26,181.3z"/>
		<path class="st0" d="M350.32,184.61l-0.06,8.39c-2.02,0.91-5.66,1.69-8.91,1.69c-7.03,0-9.11-3.19-9.11-7.22v-1.04h-0.33
			c-1.89,4.62-6.18,8.39-12.95,8.39c-6.76,0-11.58-4.1-11.58-9.37c0-4.03,2.6-6.83,8.26-8.78c3.25-1.11,8.91-2.67,16.13-4.68v-0.07
			c0-2.67-2.15-4.16-5.4-4.16c-3.19,0-6.18,1.3-8.2,6.25l-10.47-3.58c3.64-9.11,10.73-12.03,19.97-12.03
			c11.9,0,17.95,5.66,17.95,13.79v9.3c0,1.24,0,3.32,2.41,3.32C348.62,184.81,349.47,184.74,350.32,184.61z M331.78,181.69v-5.4
			l-6.9,2.34c-2.47,0.85-3.64,1.69-3.64,3.12c0,1.56,1.3,3.32,4.03,3.32C328.07,185.07,330.93,183.51,331.78,181.69z"/>
		<path class="st0" d="M392.99,171.6v22.44h-13.86v-19.9c0-3.25-1.5-5.33-4.88-5.33c-2.99,0-5.59,1.63-5.59,6.7v18.54H354.8v-34.93
			h13.4v8.65h0.39c1.56-5.33,5.2-9.43,12.36-9.43C388.63,158.34,392.99,162.76,392.99,171.6z"/>
		<path class="st0" d="M440.14,146.56v47.49h-13.86v-8.26h-0.26c-2.02,5.79-6.25,9.04-12.55,9.04c-8.72,0-15.61-6.38-15.61-18.21
			c0-11.71,6.63-18.28,15.81-18.28c6.11,0,10.41,3.38,12.36,8.98h0.26v-20.75H440.14z M426.35,177.07v-0.98
			c0-5.01-3.12-8.07-7.29-8.07c-4.42,0-7.09,3.45-7.09,8.59s2.67,8.52,7.09,8.52C423.36,185.14,426.35,181.88,426.35,177.07z"/>
		<path class="st0" d="M480.86,146.56v9.5h-13.92v-9.5H480.86z M466.94,159.12h13.86v34.93h-13.86V159.12z"/>
		<path class="st0" d="M488.08,146.56h13.86v47.49h-13.86V146.56z"/>
		<path class="st0" d="M509.22,146.56h13.86v47.49h-13.86V146.56z"/>
		<path class="st0" d="M567.96,159.12v34.93h-13.4v-8.72h-0.33c-1.63,5.33-5.27,9.5-12.42,9.5c-7.61,0-11.97-4.49-11.97-13.33
			v-22.38h13.86v19.84c0,3.25,1.43,5.33,4.88,5.33c2.99,0,5.53-1.63,5.53-6.7v-18.47H567.96z"/>
		<path class="st0" d="M580.64,181.3c2.21,3.19,5.79,4.94,10.86,4.94c3.71,0,5.59-1.24,5.59-2.86c0-1.17-0.85-1.69-2.93-1.89
			c-3.38-0.33-6.57-0.52-9.3-0.85c-5.79-0.65-11.12-3.45-11.12-10.34c0-7.61,7.29-11.97,17.11-11.97c6.64,0,12.88,1.82,17.04,6.18
			l-6.57,6.31c-3.06-2.86-6.76-3.97-10.41-3.97c-2.93,0-4.88,1.04-4.88,2.47c0,1.04,0.72,1.63,2.6,1.82
			c2.8,0.26,5.79,0.58,8.26,0.85c6.96,0.71,12.42,3.38,12.42,10.28c0,8.07-6.96,12.55-18.34,12.55c-8.65,0-15.68-2.47-18.8-8.91
			L580.64,181.3z"/>
		<path class="st0" d="M618.24,159.12l5.66-10.08h5.98l0.2,10.08h9.11v9.56h-9.11l-0.07,9.37c-0.07,3.84,0.72,5.92,4.88,5.92
			c1.37,0,2.86-0.13,4.36-0.46v10.02c-2.8,0.78-5.85,1.24-10.08,1.24c-10.8,0-12.94-4.42-12.94-9.56v-16.52h-5.07v-9.56H618.24z"/>
		<path class="st0" d="M673.46,158.99v12.42c-0.78-0.2-1.95-0.33-2.93-0.33c-7.22,0-11.9,4.49-11.9,11.9v11.06h-13.86v-34.93h13.53
			v13.99h0.39c0.91-6.57,2.8-11.19,7.09-13.4c1.3-0.65,3.06-0.98,4.94-0.98C671.64,158.73,672.55,158.79,673.46,158.99z"/>
		<path class="st0" d="M718.08,184.61l-0.06,8.39c-2.02,0.91-5.66,1.69-8.91,1.69c-7.03,0-9.11-3.19-9.11-7.22v-1.04h-0.33
			c-1.89,4.62-6.18,8.39-12.95,8.39c-6.76,0-11.58-4.1-11.58-9.37c0-4.03,2.6-6.83,8.26-8.78c3.25-1.11,8.91-2.67,16.13-4.68v-0.07
			c0-2.67-2.15-4.16-5.4-4.16c-3.19,0-6.18,1.3-8.2,6.25l-10.47-3.58c3.64-9.11,10.73-12.03,19.97-12.03
			c11.9,0,17.95,5.66,17.95,13.79v9.3c0,1.24,0,3.32,2.41,3.32C716.39,184.81,717.24,184.74,718.08,184.61z M699.54,181.69v-5.4
			l-6.9,2.34c-2.47,0.85-3.64,1.69-3.64,3.12c0,1.56,1.3,3.32,4.03,3.32C695.84,185.07,698.7,183.51,699.54,181.69z"/>
		<path class="st0" d="M726.15,159.12l5.66-10.08h5.98l0.2,10.08h9.11v9.56h-9.11l-0.07,9.37c-0.07,3.84,0.72,5.92,4.88,5.92
			c1.37,0,2.86-0.13,4.36-0.46v10.02c-2.8,0.78-5.85,1.24-10.08,1.24c-10.8,0-12.94-4.42-12.94-9.56v-16.52h-5.07v-9.56H726.15z"/>
		<path class="st0" d="M766.6,146.56v9.5h-13.92v-9.5H766.6z M752.68,159.12h13.86v34.93h-13.86V159.12z"/>
		<path class="st0" d="M813.9,176.48c0,11.25-7.81,18.34-21.01,18.34c-13.21,0-21.01-7.09-21.01-18.34
			c0-11.25,8.07-18.15,21.01-18.15C805.89,158.34,813.9,165.23,813.9,176.48z M799.71,176.87c0-5.27-2.21-9.11-6.83-9.11
			c-4.55,0-6.9,3.77-6.9,9.11c0,5.4,2.34,8.59,6.9,8.59C797.37,185.46,799.71,182.27,799.71,176.87z"/>
		<path class="st0" d="M857.41,171.6v22.44h-13.86v-19.9c0-3.25-1.5-5.33-4.88-5.33c-2.99,0-5.59,1.63-5.59,6.7v18.54h-13.86v-34.93
			h13.4v8.65h0.39c1.56-5.33,5.2-9.43,12.36-9.43C853.05,158.34,857.41,162.76,857.41,171.6z"/>
		<path class="st0" d="M869.64,181.3c2.21,3.19,5.79,4.94,10.86,4.94c3.71,0,5.59-1.24,5.59-2.86c0-1.17-0.85-1.69-2.93-1.89
			c-3.38-0.33-6.57-0.52-9.3-0.85c-5.79-0.65-11.12-3.45-11.12-10.34c0-7.61,7.29-11.97,17.11-11.97c6.64,0,12.88,1.82,17.04,6.18
			l-6.57,6.31c-3.06-2.86-6.76-3.97-10.41-3.97c-2.93,0-4.88,1.04-4.88,2.47c0,1.04,0.72,1.63,2.6,1.82
			c2.8,0.26,5.79,0.58,8.26,0.85c6.96,0.71,12.42,3.38,12.42,10.28c0,8.07-6.96,12.55-18.34,12.55c-8.65,0-15.68-2.47-18.8-8.91
			L869.64,181.3z"/>
		<path class="st0" d="M926.81,159.12l5.66-10.08h5.98l0.2,10.08h9.11v9.56h-9.11l-0.07,9.37c-0.07,3.84,0.72,5.92,4.88,5.92
			c1.37,0,2.86-0.13,4.36-0.46v10.02c-2.8,0.78-5.85,1.24-10.08,1.24c-10.8,0-12.94-4.42-12.94-9.56v-16.52h-5.07v-9.56H926.81z"/>
		<path class="st0" d="M993.29,176.48c0,11.25-7.81,18.34-21.01,18.34c-13.21,0-21.01-7.09-21.01-18.34
			c0-11.25,8.07-18.15,21.01-18.15C985.29,158.34,993.29,165.23,993.29,176.48z M979.11,176.87c0-5.27-2.21-9.11-6.83-9.11
			c-4.55,0-6.9,3.77-6.9,9.11c0,5.4,2.34,8.59,6.9,8.59C976.77,185.46,979.11,182.27,979.11,176.87z"/>
		<path class="st0" d="M1018.2,146.56h13.86v47.49h-13.86V146.56z"/>
		<path class="st0" d="M1053.26,146.56v9.5h-13.92v-9.5H1053.26z M1039.34,159.12h13.86v34.93h-13.86V159.12z"/>
		<path class="st0" d="M1084.81,168.68h-8.46v25.37h-13.86v-25.37h-5.2v-9.56h5.2v-2.41c0-6.63,5.27-10.93,14.44-10.93
			c3.19,0,5.72,0.39,7.94,0.91v7.42c-1.17-0.07-2.54-0.13-3.51-0.13c-4.88,0-5.01,1.82-5.01,3.64v1.5h8.46V168.68z"/>
		<path class="st0" d="M1125.72,177.91l-25.89-0.06c0.26,4.81,2.34,7.22,6.89,7.22c3.38,0,6.44-1.24,7.61-5.92l11.12,3.12
			c-3.06,9.43-10.54,12.55-19.71,12.55c-12.68,0-19.9-6.9-19.9-17.76c0-11.25,8-18.73,20.29-18.73
			C1118.05,158.34,1125.85,165.43,1125.72,177.91z M1100.03,173.23h12.49c-0.78-4.1-2.86-5.79-5.98-5.79
			C1103.02,167.44,1100.81,169.2,1100.03,173.23z"/>
		<path class="st0" d="M1143.87,180.39v13.66h-13.66v-13.66H1143.87z"/>
	</g>
</g>
</svg>
