<?xml version="1.0" encoding="utf-8"?>
<!-- Generator: Adobe Illustrator 25.1.0, SVG Export Plug-In . SVG Version: 6.00 Build 0)  -->
<svg version="1.1" id="Laag_1" xmlns="http://www.w3.org/2000/svg" xmlns:xlink="http://www.w3.org/1999/xlink" x="0px" y="0px"
	 viewBox="0 0 1005 270" style="enable-background:new 0 0 1005 270;" xml:space="preserve">
<style type="text/css">
	.st0{fill:#FFFFFF;}
</style>
<g>
	<g>
		<path class="st0" d="M57.82,38.62C55.94,50.38,48,58.75,33.12,58.75c-15.07,0-23.63-9.81-23.63-22.94
			c0-14.82,9.38-24.19,24.26-24.19c13.13,0,21.07,7.44,23.44,17.75L44.94,32.5c-1.75-6.63-5.5-9.69-11.06-9.69
			c-6.56,0-10.69,4.25-10.69,12.5c0,7.94,3.88,12.25,10.63,12.25c6.06,0,10.44-3.5,11.44-10.5L57.82,38.62z"/>
		<path class="st0" d="M102.2,48.94L102.14,57c-1.94,0.88-5.44,1.63-8.56,1.63c-6.75,0-8.75-3.06-8.75-6.94v-1h-0.31
			c-1.81,4.44-5.94,8.06-12.44,8.06c-6.5,0-11.13-3.94-11.13-9c0-3.88,2.5-6.56,7.94-8.44c3.13-1.06,8.56-2.56,15.5-4.5v-0.06
			c0-2.56-2.06-4-5.19-4c-3.06,0-5.94,1.25-7.88,6l-10.07-3.44c3.5-8.75,10.32-11.57,19.19-11.57c11.44,0,17.25,5.44,17.25,13.25
			v8.94c0,1.19,0,3.19,2.31,3.19C100.57,49.13,101.38,49.06,102.2,48.94z M84.38,46.13v-5.19l-6.63,2.25c-2.38,0.81-3.5,1.62-3.5,3
			c0,1.5,1.25,3.19,3.88,3.19C80.82,49.38,83.57,47.88,84.38,46.13z"/>
		<path class="st0" d="M165.21,36.44V58h-13.32V38.87c0-3.19-1.31-5.13-4.25-5.13c-2.75,0-5.13,1.56-5.13,6.44V58H129.2V38.87
			c0-3.19-1.38-5.13-4.25-5.13c-2.81,0-5.13,1.56-5.13,6.44V58h-13.32V24.43h12.88v8.25h0.38c1.5-5.06,5-9,11.69-9
			c5.94,0,9.69,3,10.75,9h0.31c1.5-5.06,4.75-9,11.44-9C161.08,23.68,165.21,27.93,165.21,36.44z"/>
		<path class="st0" d="M212.34,41.19c0,11.31-6.38,17.57-15.13,17.57c-5.88,0-10-3.19-11.94-8.63h-0.25v20.25H171.7V24.43h13.32v8
			h0.25c1.94-5.63,6.06-8.75,12.07-8.75C205.77,23.68,212.34,29.87,212.34,41.19z M198.84,41.19c0-4.88-2.56-8.19-6.81-8.19
			c-4.13,0-7,3.13-7,7.75v0.94c0,4.88,2.94,7.75,6.94,7.75C196.27,49.44,198.84,46.19,198.84,41.19z"/>
		<path class="st0" d="M256.59,40.44l-6.5,6.94V58h-13.38V12.37h13.38v18.88l17.5-18.88h15.5l-17.25,18.32L284.16,58h-15.88
			L256.59,40.44z"/>
		<path class="st0" d="M321.98,42.5l-24.88-0.06c0.25,4.63,2.25,6.94,6.63,6.94c3.25,0,6.19-1.19,7.31-5.69l10.69,3
			c-2.94,9.06-10.13,12.07-18.94,12.07c-12.19,0-19.13-6.63-19.13-17.07c0-10.82,7.69-18,19.5-18
			C314.6,23.68,322.1,30.5,321.98,42.5z M297.28,38h12c-0.75-3.94-2.75-5.56-5.75-5.56C300.16,32.43,298.03,34.12,297.28,38z"/>
		<path class="st0" d="M364.05,24.43l-13.13,33.32c-3.63,9.31-9.25,13.38-18.82,13.38c-3,0-6.06-0.5-7.88-1.13l0.06-8.38
			c1.88,0.56,4.19,0.88,6.5,0.88c1.81,0,2.88-0.25,3.63-0.81c0.88-0.69,1.31-1.63,1.31-2.88c0-1.81-0.69-3.75-1.5-5.75l-11.88-28.63
			h14.63l6.44,22.94h0.38l6.31-22.94H364.05z"/>
		<path class="st0" d="M391.67,33.62h-8.13V58h-13.32V33.62h-5v-9.19h5v-2.31c0-6.38,5.06-10.5,13.88-10.5
			c3.06,0,5.5,0.38,7.63,0.88v7.13c-1.13-0.06-2.44-0.12-3.38-0.12c-4.69,0-4.81,1.75-4.81,3.5v1.44h8.13V33.62z"/>
		<path class="st0" d="M423.05,24.31v11.94c-0.75-0.19-1.88-0.31-2.81-0.31c-6.94,0-11.44,4.31-11.44,11.44V58h-13.32V24.43h13
			v13.44h0.38c0.88-6.31,2.69-10.75,6.81-12.88c1.25-0.62,2.94-0.94,4.75-0.94C421.3,24.06,422.18,24.12,423.05,24.31z"/>
		<path class="st0" d="M465.94,48.94L465.87,57c-1.94,0.88-5.44,1.63-8.56,1.63c-6.75,0-8.75-3.06-8.75-6.94v-1h-0.31
			c-1.81,4.44-5.94,8.06-12.44,8.06c-6.5,0-11.13-3.94-11.13-9c0-3.88,2.5-6.56,7.94-8.44c3.13-1.06,8.56-2.56,15.5-4.5v-0.06
			c0-2.56-2.06-4-5.19-4c-3.06,0-5.94,1.25-7.88,6l-10.07-3.44c3.5-8.75,10.32-11.57,19.19-11.57c11.44,0,17.25,5.44,17.25,13.25
			v8.94c0,1.19,0,3.19,2.31,3.19C464.31,49.13,465.12,49.06,465.94,48.94z M448.12,46.13v-5.19l-6.63,2.25
			c-2.38,0.81-3.5,1.62-3.5,3c0,1.5,1.25,3.19,3.88,3.19C444.55,49.38,447.31,47.88,448.12,46.13z"/>
		<path class="st0" d="M528.95,36.44V58h-13.32V38.87c0-3.19-1.31-5.13-4.25-5.13c-2.75,0-5.13,1.56-5.13,6.44V58h-13.32V38.87
			c0-3.19-1.38-5.13-4.25-5.13c-2.81,0-5.13,1.56-5.13,6.44V58h-13.32V24.43h12.88v8.25h0.38c1.5-5.06,5-9,11.69-9
			c5.94,0,9.69,3,10.75,9h0.31c1.5-5.06,4.75-9,11.44-9C524.82,23.68,528.95,27.93,528.95,36.44z"/>
		<path class="st0" d="M571.95,42.5l-24.88-0.06c0.25,4.63,2.25,6.94,6.63,6.94c3.25,0,6.19-1.19,7.31-5.69l10.69,3
			c-2.94,9.06-10.13,12.07-18.94,12.07c-12.19,0-19.13-6.63-19.13-17.07c0-10.82,7.69-18,19.5-18
			C564.57,23.68,572.07,30.5,571.95,42.5z M547.26,38h12c-0.75-3.94-2.75-5.56-5.75-5.56C550.13,32.43,548.01,34.12,547.26,38z"/>
		<path class="st0" d="M609.33,12.37v9.13h-13.38v-9.13H609.33z M595.95,24.43h13.32V58h-13.32V24.43z"/>
		<path class="st0" d="M621.45,45.75c2.13,3.06,5.56,4.75,10.44,4.75c3.56,0,5.38-1.19,5.38-2.75c0-1.13-0.81-1.63-2.81-1.81
			c-3.25-0.31-6.31-0.5-8.94-0.81c-5.56-0.63-10.69-3.31-10.69-9.94c0-7.31,7-11.5,16.44-11.5c6.38,0,12.38,1.75,16.38,5.94
			l-6.31,6.06c-2.94-2.75-6.5-3.81-10-3.81c-2.81,0-4.69,1-4.69,2.38c0,1,0.69,1.56,2.5,1.75c2.69,0.25,5.56,0.56,7.94,0.81
			c6.69,0.69,11.94,3.25,11.94,9.88c0,7.75-6.69,12.07-17.63,12.07c-8.31,0-15.07-2.38-18.07-8.56L621.45,45.75z"/>
		<path class="st0" d="M676.4,24.43l5.44-9.69h5.75l0.19,9.69h8.75v9.19h-8.75l-0.06,9c-0.06,3.69,0.69,5.69,4.69,5.69
			c1.31,0,2.75-0.12,4.19-0.44v9.63c-2.69,0.75-5.63,1.19-9.69,1.19c-10.38,0-12.44-4.25-12.44-9.19V33.62h-4.88v-9.19H676.4z"/>
		<path class="st0" d="M738.6,36.44V58h-13.32V38.87c0-3.13-1.44-5.13-4.69-5.13c-2.88,0-5.38,1.56-5.38,6.44V58H701.9V12.37h13.32
			v19.94h0.31c1.38-5.06,5-8.63,11.5-8.63C734.41,23.68,738.6,27.93,738.6,36.44z"/>
		<path class="st0" d="M781.6,42.5l-24.88-0.06c0.25,4.63,2.25,6.94,6.63,6.94c3.25,0,6.19-1.19,7.31-5.69l10.69,3
			c-2.94,9.06-10.13,12.07-18.94,12.07c-12.19,0-19.13-6.63-19.13-17.07c0-10.82,7.69-18,19.5-18
			C774.22,23.68,781.73,30.5,781.6,42.5z M756.91,38h12c-0.75-3.94-2.75-5.56-5.75-5.56C759.78,32.43,757.66,34.12,756.91,38z"/>
		<path class="st0" d="M843.67,58.13c0,8.38-9.19,13-22.82,13c-11.38,0-15.75-3.31-15.75-7.13c0-3.19,2.94-4.5,7.06-4.75v-0.5
			c-5.69-0.19-8.75-2.63-8.75-6.69c0-4.19,3.38-7.25,9.44-8.19v-0.25c-5-1.81-7.81-5-7.81-9.19c0-6.5,6.69-10.75,18.07-10.75
			c2.94,0,5.56,0.31,7.81,0.81l0.69-10.38h11.69v0.31l-9.44,11c4.63,1.81,7.19,4.94,7.19,9c0,6.5-6.75,10.69-17.94,10.69
			c-2.31,0-4.38-0.19-6.31-0.5c-1.88,0.44-2.63,1.19-2.63,2.19c0,0.94,0.81,1.56,2.88,1.56h12.38
			C838.48,48.38,843.67,51.63,843.67,58.13z M832.04,60.94c0-1.31-1.19-1.69-4.19-1.69h-10.69c-2.13,0-2.75,0.94-2.75,2
			c0,2.13,2.63,3.31,8.13,3.31C828.23,64.57,832.04,63.32,832.04,60.94z M818.48,34.44c0,2.94,1.69,4.25,4.56,4.25
			c2.81,0,4.56-1.31,4.56-4.25c0-3-1.75-4.31-4.56-4.31C820.29,30.12,818.48,31.43,818.48,34.44z"/>
		<path class="st0" d="M884.43,41.12c0,10.81-7.5,17.63-20.19,17.63c-12.69,0-20.19-6.81-20.19-17.63
			c0-10.82,7.75-17.44,20.19-17.44C876.74,23.68,884.43,30.31,884.43,41.12z M870.8,41.5c0-5.06-2.12-8.75-6.56-8.75
			c-4.38,0-6.63,3.63-6.63,8.75c0,5.19,2.25,8.25,6.63,8.25C868.55,49.75,870.8,46.69,870.8,41.5z"/>
		<path class="st0" d="M913.49,35.56v11.19h-23.32V35.56H913.49z"/>
		<path class="st0" d="M924.3,24.43l5.44-9.69h5.75l0.19,9.69h8.75v9.19h-8.75l-0.06,9c-0.06,3.69,0.69,5.69,4.69,5.69
			c1.31,0,2.75-0.12,4.19-0.44v9.63c-2.69,0.75-5.63,1.19-9.69,1.19c-10.38,0-12.44-4.25-12.44-9.19V33.62h-4.88v-9.19H924.3z"/>
		<path class="st0" d="M988.19,41.12c0,10.81-7.5,17.63-20.19,17.63c-12.69,0-20.19-6.81-20.19-17.63
			c0-10.82,7.75-17.44,20.19-17.44C980.5,23.68,988.19,30.31,988.19,41.12z M974.56,41.5c0-5.06-2.12-8.75-6.56-8.75
			c-4.38,0-6.63,3.63-6.63,8.75c0,5.19,2.25,8.25,6.63,8.25C972.31,49.75,974.56,46.69,974.56,41.5z"/>
		<path class="st0" d="M51.75,107.73c0,11.31-6.38,17.57-15.13,17.57c-5.88,0-10-3.19-11.94-8.63h-0.25v20.25H11.12V90.98h13.32v8
			h0.25c1.94-5.63,6.06-8.75,12.07-8.75C45.19,90.23,51.75,96.41,51.75,107.73z M38.25,107.73c0-4.88-2.56-8.19-6.81-8.19
			c-4.13,0-7,3.13-7,7.75v0.94c0,4.88,2.94,7.75,6.94,7.75C35.69,115.98,38.25,112.73,38.25,107.73z"/>
		<path class="st0" d="M56.88,78.91h13.32v45.64H56.88V78.91z"/>
		<path class="st0" d="M116.39,115.48l-0.06,8.06c-1.94,0.88-5.44,1.63-8.56,1.63c-6.75,0-8.75-3.06-8.75-6.94v-1H98.7
			c-1.81,4.44-5.94,8.06-12.44,8.06c-6.5,0-11.13-3.94-11.13-9c0-3.88,2.5-6.56,7.94-8.44c3.13-1.06,8.56-2.56,15.5-4.5v-0.06
			c0-2.56-2.06-4-5.19-4c-3.06,0-5.94,1.25-7.88,6l-10.07-3.44c3.5-8.75,10.32-11.57,19.19-11.57c11.44,0,17.25,5.44,17.25,13.25
			v8.94c0,1.19,0,3.19,2.31,3.19C114.76,115.67,115.57,115.61,116.39,115.48z M98.57,112.67v-5.19l-6.63,2.25
			c-2.38,0.81-3.5,1.62-3.5,3c0,1.5,1.25,3.19,3.88,3.19C95.01,115.92,97.76,114.42,98.57,112.67z"/>
		<path class="st0" d="M137.51,125.3c-11.82,0-18.82-6.94-18.82-17.07c0-11.13,8.38-18,19.38-18c9.88,0,16.44,5.44,17.94,13.25
			l-10.32,2.5c-1-4.06-3.25-6.5-6.88-6.5c-3.88,0-6.56,2.63-6.56,8.31c0,5.88,2.69,8.13,6.56,8.13c4,0,6.44-2.56,7.19-7.13
			l11.07,1.38C155.71,118.98,149.14,125.3,137.51,125.3z"/>
		<path class="st0" d="M197.9,109.04l-24.88-0.06c0.25,4.63,2.25,6.94,6.63,6.94c3.25,0,6.19-1.19,7.31-5.69l10.69,3
			c-2.94,9.06-10.13,12.07-18.94,12.07c-12.19,0-19.13-6.63-19.13-17.07c0-10.82,7.69-18,19.5-18
			C190.52,90.23,198.02,97.04,197.9,109.04z M173.21,104.54h12c-0.75-3.94-2.75-5.56-5.75-5.56
			C176.08,98.98,173.96,100.67,173.21,104.54z"/>
		<path class="st0" d="M245.28,100.17h-8.13v24.38h-13.32v-24.38h-5v-9.19h5v-2.31c0-6.38,5.06-10.5,13.88-10.5
			c3.06,0,5.5,0.38,7.63,0.88v7.13c-1.13-0.06-2.44-0.12-3.38-0.12c-4.69,0-4.81,1.75-4.81,3.5v1.44h8.13V100.17z"/>
		<path class="st0" d="M286.66,107.67c0,10.81-7.5,17.63-20.19,17.63c-12.69,0-20.19-6.81-20.19-17.63
			c0-10.82,7.75-17.44,20.19-17.44C278.97,90.23,286.66,96.85,286.66,107.67z M273.03,108.04c0-5.06-2.12-8.75-6.56-8.75
			c-4.38,0-6.63,3.63-6.63,8.75c0,5.19,2.25,8.25,6.63,8.25C270.78,116.29,273.03,113.23,273.03,108.04z"/>
		<path class="st0" d="M319.35,90.85v11.94c-0.75-0.19-1.88-0.31-2.81-0.31c-6.94,0-11.44,4.31-11.44,11.44v10.63h-13.32V90.98h13
			v13.44h0.38c0.88-6.31,2.69-10.75,6.81-12.88c1.25-0.62,2.94-0.94,4.75-0.94C317.6,90.6,318.48,90.66,319.35,90.85z"/>
		<path class="st0" d="M359.42,125.3c-11.82,0-18.82-6.94-18.82-17.07c0-11.13,8.38-18,19.38-18c9.88,0,16.44,5.44,17.94,13.25
			l-10.32,2.5c-1-4.06-3.25-6.5-6.88-6.5c-3.88,0-6.56,2.63-6.56,8.31c0,5.88,2.69,8.13,6.56,8.13c4,0,6.44-2.56,7.19-7.13
			l11.07,1.38C377.61,118.98,371.05,125.3,359.42,125.3z"/>
		<path class="st0" d="M410.93,90.85v11.94c-0.75-0.19-1.88-0.31-2.81-0.31c-6.94,0-11.44,4.31-11.44,11.44v10.63h-13.32V90.98h13
			v13.44h0.38c0.88-6.31,2.69-10.75,6.81-12.88c1.25-0.62,2.94-0.94,4.75-0.94C409.17,90.6,410.05,90.66,410.93,90.85z"/>
		<path class="st0" d="M451.25,109.04l-24.88-0.06c0.25,4.63,2.25,6.94,6.63,6.94c3.25,0,6.19-1.19,7.31-5.69l10.69,3
			c-2.94,9.06-10.13,12.07-18.94,12.07c-12.19,0-19.13-6.63-19.13-17.07c0-10.82,7.69-18,19.5-18
			C443.87,90.23,451.37,97.04,451.25,109.04z M426.55,104.54h12c-0.75-3.94-2.75-5.56-5.75-5.56
			C429.43,98.98,427.3,100.67,426.55,104.54z"/>
		<path class="st0" d="M495.63,115.48l-0.06,8.06c-1.94,0.88-5.44,1.63-8.56,1.63c-6.75,0-8.75-3.06-8.75-6.94v-1h-0.31
			c-1.81,4.44-5.94,8.06-12.44,8.06c-6.5,0-11.13-3.94-11.13-9c0-3.88,2.5-6.56,7.94-8.44c3.13-1.06,8.56-2.56,15.5-4.5v-0.06
			c0-2.56-2.06-4-5.19-4c-3.06,0-5.94,1.25-7.88,6l-10.07-3.44c3.5-8.75,10.32-11.57,19.19-11.57c11.44,0,17.25,5.44,17.25,13.25
			v8.94c0,1.19,0,3.19,2.31,3.19C494,115.67,494.81,115.61,495.63,115.48z M477.81,112.67v-5.19l-6.63,2.25
			c-2.38,0.81-3.5,1.62-3.5,3c0,1.5,1.25,3.19,3.88,3.19C474.25,115.92,477,114.42,477.81,112.67z"/>
		<path class="st0" d="M503.38,90.98l5.44-9.69h5.75l0.19,9.69h8.75v9.19h-8.75l-0.06,9c-0.06,3.69,0.69,5.69,4.69,5.69
			c1.31,0,2.75-0.12,4.19-0.44v9.63c-2.69,0.75-5.63,1.19-9.69,1.19c-10.38,0-12.44-4.25-12.44-9.19v-15.88h-4.88v-9.19H503.38z"/>
		<path class="st0" d="M567.26,107.67c0,10.81-7.5,17.63-20.19,17.63c-12.69,0-20.19-6.81-20.19-17.63
			c0-10.82,7.75-17.44,20.19-17.44C559.57,90.23,567.26,96.85,567.26,107.67z M553.63,108.04c0-5.06-2.12-8.75-6.56-8.75
			c-4.38,0-6.63,3.63-6.63,8.75c0,5.19,2.25,8.25,6.63,8.25C551.38,116.29,553.63,113.23,553.63,108.04z"/>
		<path class="st0" d="M599.95,90.85v11.94c-0.75-0.19-1.88-0.31-2.81-0.31c-6.94,0-11.44,4.31-11.44,11.44v10.63h-13.32V90.98h13
			v13.44h0.38c0.88-6.31,2.69-10.75,6.81-12.88c1.25-0.62,2.94-0.94,4.75-0.94C598.2,90.6,599.08,90.66,599.95,90.85z"/>
		<path class="st0" d="M609.33,112.29c2.13,3.06,5.56,4.75,10.44,4.75c3.56,0,5.38-1.19,5.38-2.75c0-1.13-0.81-1.63-2.81-1.81
			c-3.25-0.31-6.31-0.5-8.94-0.81c-5.56-0.63-10.69-3.31-10.69-9.94c0-7.31,7-11.5,16.44-11.5c6.38,0,12.38,1.75,16.38,5.94
			l-6.31,6.06c-2.94-2.75-6.5-3.81-10-3.81c-2.81,0-4.69,1-4.69,2.38c0,1,0.69,1.56,2.5,1.75c2.69,0.25,5.56,0.56,7.94,0.81
			c6.69,0.69,11.94,3.25,11.94,9.88c0,7.75-6.69,12.07-17.63,12.07c-8.31,0-15.07-2.38-18.07-8.56L609.33,112.29z"/>
		<path class="st0" d="M717.28,90.98l-9,33.57h-15.32l-5.56-20.38h-0.12l-5.94,20.38H666.4l-9.38-33.57h14.07l4.44,21.51h0.31
			l6.13-21.51h11.07l6.13,21.51h0.31l4.56-21.51H717.28z"/>
		<path class="st0" d="M757.47,102.98v21.57h-13.32v-19.13c0-3.13-1.44-5.13-4.69-5.13c-2.88,0-5.38,1.56-5.38,6.44v17.82h-13.32
			V78.91h13.32v19.94h0.31c1.38-5.06,5-8.63,11.5-8.63C753.29,90.23,757.47,94.48,757.47,102.98z"/>
		<path class="st0" d="M802.54,107.67c0,10.81-7.5,17.63-20.19,17.63c-12.69,0-20.19-6.81-20.19-17.63
			c0-10.82,7.75-17.44,20.19-17.44C794.85,90.23,802.54,96.85,802.54,107.67z M788.92,108.04c0-5.06-2.12-8.75-6.56-8.75
			c-4.38,0-6.63,3.63-6.63,8.75c0,5.19,2.25,8.25,6.63,8.25C786.67,116.29,788.92,113.23,788.92,108.04z"/>
		<path class="st0" d="M883.24,90.98l-9,33.57h-15.32l-5.56-20.38h-0.12l-5.94,20.38h-14.94l-9.38-33.57h14.07l4.44,21.51h0.31
			l6.13-21.51h11.07l6.13,21.51h0.31l4.56-21.51H883.24z"/>
		<path class="st0" d="M925.37,115.48l-0.06,8.06c-1.94,0.88-5.44,1.63-8.56,1.63c-6.75,0-8.75-3.06-8.75-6.94v-1h-0.31
			c-1.81,4.44-5.94,8.06-12.44,8.06c-6.5,0-11.13-3.94-11.13-9c0-3.88,2.5-6.56,7.94-8.44c3.13-1.06,8.56-2.56,15.5-4.5v-0.06
			c0-2.56-2.06-4-5.19-4c-3.06,0-5.94,1.25-7.88,6l-10.07-3.44c3.5-8.75,10.32-11.57,19.19-11.57c11.44,0,17.25,5.44,17.25,13.25
			v8.94c0,1.19,0,3.19,2.31,3.19C923.75,115.67,924.56,115.61,925.37,115.48z M907.56,112.67v-5.19l-6.63,2.25
			c-2.38,0.81-3.5,1.62-3.5,3c0,1.5,1.25,3.19,3.88,3.19C903.99,115.92,906.74,114.42,907.56,112.67z"/>
		<path class="st0" d="M966.38,102.98v21.57h-13.32v-19.13c0-3.13-1.44-5.13-4.69-5.13c-2.88,0-5.38,1.56-5.38,6.44v17.82h-13.32
			V90.98h12.88v8.31h0.38c1.5-5.13,5-9.06,11.88-9.06C962.19,90.23,966.38,94.48,966.38,102.98z"/>
		<path class="st0" d="M976.69,90.98l5.44-9.69h5.75l0.19,9.69h8.75v9.19h-8.75l-0.06,9c-0.06,3.69,0.69,5.69,4.69,5.69
			c1.31,0,2.75-0.12,4.19-0.44v9.63c-2.69,0.75-5.63,1.19-9.69,1.19c-10.38,0-12.44-4.25-12.44-9.19v-15.88h-4.88v-9.19H976.69z"/>
		<path class="st0" d="M14.93,157.52l5.44-9.69h5.75l0.19,9.69h8.75v9.19h-8.75l-0.06,9c-0.06,3.69,0.69,5.69,4.69,5.69
			c1.31,0,2.75-0.12,4.19-0.44v9.63c-2.69,0.75-5.63,1.19-9.69,1.19c-10.38,0-12.44-4.25-12.44-9.19v-15.88H8.12v-9.19H14.93z"/>
		<path class="st0" d="M78.82,174.21c0,10.82-7.5,17.63-20.19,17.63c-12.69,0-20.19-6.81-20.19-17.63s7.75-17.44,20.19-17.44
			C71.13,156.77,78.82,163.39,78.82,174.21z M65.19,174.58c0-5.06-2.12-8.75-6.56-8.75c-4.38,0-6.63,3.63-6.63,8.75
			c0,5.19,2.25,8.25,6.63,8.25C62.94,182.84,65.19,179.77,65.19,174.58z"/>
		<path class="st0" d="M143.33,174.27c0,11.32-6.38,17.57-15.13,17.57c-5.88,0-10-3.19-11.94-8.63h-0.25v7.88h-13.32v-45.64h13.32
			v20.07h0.25c1.94-5.63,6.06-8.75,12.07-8.75C136.76,156.77,143.33,162.96,143.33,174.27z M129.83,174.27
			c0-4.88-2.56-8.19-6.81-8.19c-4.13,0-7,3.13-7,7.75v0.94c0,4.88,2.94,7.75,6.94,7.75C127.26,182.52,129.83,179.27,129.83,174.27z"
			/>
		<path class="st0" d="M176.02,157.39v11.94c-0.75-0.19-1.88-0.31-2.81-0.31c-6.94,0-11.44,4.31-11.44,11.44v10.63h-13.32v-33.57h13
			v13.44h0.38c0.88-6.31,2.69-10.75,6.81-12.88c1.25-0.62,2.94-0.94,4.75-0.94C174.27,157.14,175.14,157.21,176.02,157.39z"/>
		<path class="st0" d="M193.71,145.45v9.13h-13.38v-9.13H193.71z M180.33,157.52h13.32v33.57h-13.32V157.52z"/>
		<path class="st0" d="M237.34,169.52v21.57h-13.32v-19.13c0-3.12-1.44-5.13-4.69-5.13c-2.88,0-5.38,1.56-5.38,6.44v17.82h-13.32
			v-33.57h12.88v8.31h0.38c1.5-5.13,5-9.06,11.88-9.06C233.15,156.77,237.34,161.02,237.34,169.52z"/>
		<path class="st0" d="M281.97,191.21c0,8.38-9.19,13-22.82,13c-11.38,0-15.75-3.31-15.75-7.13c0-3.19,2.94-4.5,7.06-4.75v-0.5
			c-5.69-0.19-8.75-2.62-8.75-6.69c0-4.19,3.38-7.25,9.44-8.19v-0.25c-5-1.81-7.81-5-7.81-9.19c0-6.5,6.69-10.75,18.07-10.75
			c2.94,0,5.56,0.31,7.81,0.81l0.69-10.38h11.69v0.31l-9.44,11c4.63,1.81,7.19,4.94,7.19,9c0,6.5-6.75,10.69-17.94,10.69
			c-2.31,0-4.38-0.19-6.31-0.5c-1.88,0.44-2.63,1.19-2.63,2.19c0,0.94,0.81,1.56,2.88,1.56h12.38
			C276.78,181.46,281.97,184.71,281.97,191.21z M270.34,194.03c0-1.31-1.19-1.69-4.19-1.69h-10.69c-2.13,0-2.75,0.94-2.75,2
			c0,2.13,2.63,3.31,8.13,3.31C266.53,197.65,270.34,196.4,270.34,194.03z M256.78,167.52c0,2.94,1.69,4.25,4.56,4.25
			c2.81,0,4.56-1.31,4.56-4.25c0-3-1.75-4.31-4.56-4.31C258.59,163.21,256.78,164.52,256.78,167.52z"/>
		<path class="st0" d="M307.97,157.52l5.44-9.69h5.75l0.19,9.69h8.75v9.19h-8.75l-0.06,9c-0.06,3.69,0.69,5.69,4.69,5.69
			c1.31,0,2.75-0.12,4.19-0.44v9.63c-2.69,0.75-5.63,1.19-9.69,1.19c-10.38,0-12.44-4.25-12.44-9.19v-15.88h-4.88v-9.19H307.97z"/>
		<path class="st0" d="M370.17,169.52v21.57h-13.32v-19.13c0-3.12-1.44-5.13-4.69-5.13c-2.88,0-5.38,1.56-5.38,6.44v17.82h-13.32
			v-45.64h13.32v19.94h0.31c1.38-5.06,5-8.63,11.5-8.63C365.98,156.77,370.17,161.02,370.17,169.52z"/>
		<path class="st0" d="M413.17,175.58l-24.88-0.06c0.25,4.63,2.25,6.94,6.63,6.94c3.25,0,6.19-1.19,7.31-5.69l10.69,3
			c-2.94,9.07-10.13,12.07-18.94,12.07c-12.19,0-19.13-6.63-19.13-17.07c0-10.82,7.69-18,19.5-18
			C405.8,156.77,413.3,163.58,413.17,175.58z M388.48,171.08h12c-0.75-3.94-2.75-5.56-5.75-5.56
			C391.36,165.52,389.23,167.21,388.48,171.08z"/>
		<path class="st0" d="M431.74,145.45v9.13h-13.38v-9.13H431.74z M418.36,157.52h13.32v33.57h-13.32V157.52z"/>
		<path class="st0" d="M466.24,157.39v11.94c-0.75-0.19-1.88-0.31-2.81-0.31c-6.94,0-11.44,4.31-11.44,11.44v10.63h-13.32v-33.57h13
			v13.44h0.38c0.88-6.31,2.69-10.75,6.81-12.88c1.25-0.62,2.94-0.94,4.75-0.94C464.49,157.14,465.37,157.21,466.24,157.39z"/>
		<path class="st0" d="M528.13,145.45v45.64h-13.32v-7.94h-0.25c-1.94,5.56-6,8.69-12.07,8.69c-8.38,0-15-6.13-15-17.5
			c0-11.25,6.38-17.57,15.19-17.57c5.88,0,10,3.25,11.88,8.63h0.25v-19.94H528.13z M514.87,174.77v-0.94c0-4.81-3-7.75-7-7.75
			c-4.25,0-6.81,3.31-6.81,8.25s2.56,8.19,6.81,8.19C512,182.52,514.87,179.4,514.87,174.77z"/>
		<path class="st0" d="M571.51,175.58l-24.88-0.06c0.25,4.63,2.25,6.94,6.63,6.94c3.25,0,6.19-1.19,7.31-5.69l10.69,3
			c-2.94,9.07-10.13,12.07-18.94,12.07c-12.19,0-19.13-6.63-19.13-17.07c0-10.82,7.69-18,19.5-18
			C564.13,156.77,571.63,163.58,571.51,175.58z M546.81,171.08h12c-0.75-3.94-2.75-5.56-5.75-5.56
			C549.69,165.52,547.56,167.21,546.81,171.08z"/>
		<path class="st0" d="M581.88,178.84c2.13,3.06,5.56,4.75,10.44,4.75c3.56,0,5.38-1.19,5.38-2.75c0-1.13-0.81-1.63-2.81-1.81
			c-3.25-0.31-6.31-0.5-8.94-0.81c-5.56-0.62-10.69-3.31-10.69-9.94c0-7.31,7-11.5,16.44-11.5c6.38,0,12.38,1.75,16.38,5.94
			l-6.31,6.06c-2.94-2.75-6.5-3.81-10-3.81c-2.81,0-4.69,1-4.69,2.38c0,1,0.69,1.56,2.5,1.75c2.69,0.25,5.56,0.56,7.94,0.81
			c6.69,0.69,11.94,3.25,11.94,9.88c0,7.75-6.69,12.07-17.63,12.07c-8.31,0-15.07-2.38-18.07-8.56L581.88,178.84z"/>
		<path class="st0" d="M627.64,145.45v9.13h-13.38v-9.13H627.64z M614.26,157.52h13.32v33.57h-13.32V157.52z"/>
		<path class="st0" d="M672.65,191.21c0,8.38-9.19,13-22.82,13c-11.38,0-15.75-3.31-15.75-7.13c0-3.19,2.94-4.5,7.06-4.75v-0.5
			c-5.69-0.19-8.75-2.62-8.75-6.69c0-4.19,3.38-7.25,9.44-8.19v-0.25c-5-1.81-7.81-5-7.81-9.19c0-6.5,6.69-10.75,18.07-10.75
			c2.94,0,5.56,0.31,7.81,0.81l0.69-10.38h11.69v0.31l-9.44,11c4.63,1.81,7.19,4.94,7.19,9c0,6.5-6.75,10.69-17.94,10.69
			c-2.31,0-4.38-0.19-6.31-0.5c-1.88,0.44-2.63,1.19-2.63,2.19c0,0.94,0.81,1.56,2.88,1.56h12.38
			C667.46,181.46,672.65,184.71,672.65,191.21z M661.02,194.03c0-1.31-1.19-1.69-4.19-1.69h-10.69c-2.13,0-2.75,0.94-2.75,2
			c0,2.13,2.63,3.31,8.13,3.31C657.21,197.65,661.02,196.4,661.02,194.03z M647.45,167.52c0,2.94,1.69,4.25,4.56,4.25
			c2.81,0,4.56-1.31,4.56-4.25c0-3-1.75-4.31-4.56-4.31C649.27,163.21,647.45,164.52,647.45,167.52z"/>
		<path class="st0" d="M712.78,169.52v21.57h-13.32v-19.13c0-3.12-1.44-5.13-4.69-5.13c-2.88,0-5.38,1.56-5.38,6.44v17.82h-13.32
			v-33.57h12.88v8.31h0.38c1.5-5.13,5-9.06,11.88-9.06C708.59,156.77,712.78,161.02,712.78,169.52z"/>
		<path class="st0" d="M724.52,178.84c2.13,3.06,5.56,4.75,10.44,4.75c3.56,0,5.38-1.19,5.38-2.75c0-1.13-0.81-1.63-2.81-1.81
			c-3.25-0.31-6.31-0.5-8.94-0.81c-5.56-0.62-10.69-3.31-10.69-9.94c0-7.31,7-11.5,16.44-11.5c6.38,0,12.38,1.75,16.38,5.94
			l-6.31,6.06c-2.94-2.75-6.5-3.81-10-3.81c-2.81,0-4.69,1-4.69,2.38c0,1,0.69,1.56,2.5,1.75c2.69,0.25,5.56,0.56,7.94,0.81
			c6.69,0.69,11.94,3.25,11.94,9.88c0,7.75-6.69,12.07-17.63,12.07c-8.31,0-15.07-2.38-18.07-8.56L724.52,178.84z"/>
		<path class="st0" d="M814.92,182.02l-0.06,8.06c-1.94,0.88-5.44,1.62-8.56,1.62c-6.75,0-8.75-3.06-8.75-6.94v-1h-0.31
			c-1.81,4.44-5.94,8.06-12.44,8.06c-6.5,0-11.13-3.94-11.13-9c0-3.88,2.5-6.56,7.94-8.44c3.13-1.06,8.56-2.56,15.5-4.5v-0.06
			c0-2.56-2.06-4-5.19-4c-3.06,0-5.94,1.25-7.88,6l-10.07-3.44c3.5-8.75,10.32-11.57,19.19-11.57c11.44,0,17.25,5.44,17.25,13.25
			v8.94c0,1.19,0,3.19,2.31,3.19C813.29,182.21,814.1,182.15,814.92,182.02z M797.1,179.21v-5.19l-6.63,2.25
			c-2.38,0.81-3.5,1.62-3.5,3c0,1.5,1.25,3.19,3.88,3.19C793.53,182.46,796.29,180.96,797.1,179.21z"/>
		<path class="st0" d="M855.92,169.52v21.57h-13.32v-19.13c0-3.12-1.44-5.13-4.69-5.13c-2.88,0-5.38,1.56-5.38,6.44v17.82h-13.32
			v-33.57h12.88v8.31h0.38c1.5-5.13,5-9.06,11.88-9.06C851.73,156.77,855.92,161.02,855.92,169.52z"/>
		<path class="st0" d="M901.24,145.45v45.64h-13.32v-7.94h-0.25c-1.94,5.56-6,8.69-12.07,8.69c-8.38,0-15-6.13-15-17.5
			c0-11.25,6.38-17.57,15.19-17.57c5.88,0,10,3.25,11.88,8.63h0.25v-19.94H901.24z M887.99,174.77v-0.94c0-4.81-3-7.75-7-7.75
			c-4.25,0-6.81,3.31-6.81,8.25s2.56,8.19,6.81,8.19C885.11,182.52,887.99,179.4,887.99,174.77z"/>
		<path class="st0" d="M24.56,212v9.13H11.18V212H24.56z M11.18,224.06H24.5v33.57H11.18V224.06z"/>
		<path class="st0" d="M31.5,212h13.32v45.64H31.5V212z"/>
		<path class="st0" d="M51.81,212h13.32v45.64H51.81V212z"/>
		<path class="st0" d="M108.26,224.06v33.57H95.38v-8.38h-0.31c-1.56,5.13-5.06,9.13-11.94,9.13c-7.31,0-11.5-4.31-11.5-12.82
			v-21.51h13.32v19.07c0,3.13,1.38,5.13,4.69,5.13c2.88,0,5.31-1.56,5.31-6.44v-17.75H108.26z"/>
		<path class="st0" d="M120.45,245.38c2.13,3.06,5.56,4.75,10.44,4.75c3.56,0,5.38-1.19,5.38-2.75c0-1.12-0.81-1.62-2.81-1.81
			c-3.25-0.31-6.31-0.5-8.94-0.81c-5.56-0.63-10.69-3.31-10.69-9.94c0-7.31,7-11.5,16.44-11.5c6.38,0,12.38,1.75,16.38,5.94
			l-6.31,6.06c-2.94-2.75-6.5-3.81-10-3.81c-2.81,0-4.69,1-4.69,2.38c0,1,0.69,1.56,2.5,1.75c2.69,0.25,5.56,0.56,7.94,0.81
			c6.69,0.69,11.94,3.25,11.94,9.88c0,7.75-6.69,12.07-17.63,12.07c-8.31,0-15.07-2.38-18.07-8.56L120.45,245.38z"/>
		<path class="st0" d="M156.58,224.06l5.44-9.69h5.75l0.19,9.69h8.75v9.19h-8.75l-0.06,9c-0.06,3.69,0.69,5.69,4.69,5.69
			c1.31,0,2.75-0.12,4.19-0.44v9.63c-2.69,0.75-5.63,1.19-9.69,1.19c-10.38,0-12.44-4.25-12.44-9.19v-15.88h-4.88v-9.19H156.58z"/>
		<path class="st0" d="M209.65,223.94v11.94c-0.75-0.19-1.88-0.31-2.81-0.31c-6.94,0-11.44,4.31-11.44,11.44v10.63h-13.32v-33.57h13
			v13.44h0.38c0.88-6.31,2.69-10.75,6.81-12.88c1.25-0.63,2.94-0.94,4.75-0.94C207.9,223.69,208.77,223.75,209.65,223.94z"/>
		<path class="st0" d="M252.53,248.57l-0.06,8.07c-1.94,0.88-5.44,1.62-8.56,1.62c-6.75,0-8.75-3.06-8.75-6.94v-1h-0.31
			c-1.81,4.44-5.94,8.06-12.44,8.06c-6.5,0-11.13-3.94-11.13-9c0-3.88,2.5-6.56,7.94-8.44c3.13-1.06,8.56-2.56,15.5-4.5v-0.06
			c0-2.56-2.06-4-5.19-4c-3.06,0-5.94,1.25-7.88,6l-10.07-3.44c3.5-8.75,10.32-11.57,19.19-11.57c11.44,0,17.25,5.44,17.25,13.25
			v8.94c0,1.19,0,3.19,2.31,3.19C250.91,248.76,251.72,248.69,252.53,248.57z M234.71,245.75v-5.19l-6.63,2.25
			c-2.38,0.81-3.5,1.62-3.5,3c0,1.5,1.25,3.19,3.88,3.19C231.15,249.01,233.9,247.5,234.71,245.75z"/>
		<path class="st0" d="M260.28,224.06l5.44-9.69h5.75l0.19,9.69h8.75v9.19h-8.75l-0.06,9c-0.06,3.69,0.69,5.69,4.69,5.69
			c1.31,0,2.75-0.12,4.19-0.44v9.63c-2.69,0.75-5.63,1.19-9.69,1.19c-10.38,0-12.44-4.25-12.44-9.19v-15.88h-4.88v-9.19H260.28z"/>
		<path class="st0" d="M299.16,212v9.13h-13.38V212H299.16z M285.78,224.06h13.32v33.57h-13.32V224.06z"/>
		<path class="st0" d="M344.61,240.75c0,10.81-7.5,17.63-20.19,17.63c-12.69,0-20.19-6.81-20.19-17.63
			c0-10.82,7.75-17.44,20.19-17.44C336.92,223.31,344.61,229.94,344.61,240.75z M330.98,241.13c0-5.06-2.12-8.75-6.56-8.75
			c-4.38,0-6.63,3.63-6.63,8.75c0,5.19,2.25,8.25,6.63,8.25C328.73,249.38,330.98,246.32,330.98,241.13z"/>
		<path class="st0" d="M386.42,236.06v21.57h-13.32V238.5c0-3.13-1.44-5.13-4.69-5.13c-2.88,0-5.38,1.56-5.38,6.44v17.82h-13.32
			v-33.57h12.88v8.31h0.38c1.5-5.13,5-9.06,11.88-9.06C382.24,223.31,386.42,227.56,386.42,236.06z"/>
		<path class="st0" d="M398.17,245.38c2.13,3.06,5.56,4.75,10.44,4.75c3.56,0,5.38-1.19,5.38-2.75c0-1.12-0.81-1.62-2.81-1.81
			c-3.25-0.31-6.31-0.5-8.94-0.81c-5.56-0.63-10.69-3.31-10.69-9.94c0-7.31,7-11.5,16.44-11.5c6.38,0,12.38,1.75,16.38,5.94
			l-6.31,6.06c-2.94-2.75-6.5-3.81-10-3.81c-2.81,0-4.69,1-4.69,2.38c0,1,0.69,1.56,2.5,1.75c2.69,0.25,5.56,0.56,7.94,0.81
			c6.69,0.69,11.94,3.25,11.94,9.88c0,7.75-6.69,12.07-17.63,12.07c-8.31,0-15.07-2.38-18.07-8.56L398.17,245.38z"/>
		<path class="st0" d="M453.12,224.06l5.44-9.69h5.75l0.19,9.69h8.75v9.19h-8.75l-0.06,9c-0.06,3.69,0.69,5.69,4.69,5.69
			c1.31,0,2.75-0.12,4.19-0.44v9.63c-2.69,0.75-5.63,1.19-9.69,1.19c-10.38,0-12.44-4.25-12.44-9.19v-15.88h-4.88v-9.19H453.12z"/>
		<path class="st0" d="M517,240.75c0,10.81-7.5,17.63-20.19,17.63c-12.69,0-20.19-6.81-20.19-17.63c0-10.82,7.75-17.44,20.19-17.44
			C509.32,223.31,517,229.94,517,240.75z M503.38,241.13c0-5.06-2.12-8.75-6.56-8.75c-4.38,0-6.63,3.63-6.63,8.75
			c0,5.19,2.25,8.25,6.63,8.25C501.13,249.38,503.38,246.32,503.38,241.13z"/>
		<path class="st0" d="M540.94,212h13.32v45.64h-13.32V212z"/>
		<path class="st0" d="M574.63,212v9.13h-13.38V212H574.63z M561.26,224.06h13.32v33.57h-13.32V224.06z"/>
		<path class="st0" d="M604.95,233.25h-8.13v24.38h-13.32v-24.38h-5v-9.19h5v-2.31c0-6.38,5.06-10.5,13.88-10.5
			c3.06,0,5.5,0.38,7.63,0.88v7.13c-1.13-0.06-2.44-0.12-3.38-0.12c-4.69,0-4.81,1.75-4.81,3.5v1.44h8.13V233.25z"/>
		<path class="st0" d="M644.27,242.13l-24.88-0.06c0.25,4.63,2.25,6.94,6.63,6.94c3.25,0,6.19-1.19,7.31-5.69l10.69,3
			c-2.94,9.06-10.13,12.07-18.94,12.07c-12.19,0-19.13-6.63-19.13-17.07c0-10.82,7.69-18,19.5-18
			C636.89,223.31,644.4,230.13,644.27,242.13z M619.58,237.63h12c-0.75-3.94-2.75-5.56-5.75-5.56
			C622.45,232.06,620.33,233.75,619.58,237.63z"/>
		<path class="st0" d="M661.71,244.5v13.13h-13.13V244.5H661.71z"/>
	</g>
</g>
</svg>
