<?xml version="1.0" encoding="utf-8"?>
<!-- Generator: Adobe Illustrator 25.1.0, SVG Export Plug-In . SVG Version: 6.00 Build 0)  -->
<svg version="1.1" id="Layer_1" xmlns="http://www.w3.org/2000/svg" xmlns:xlink="http://www.w3.org/1999/xlink" x="0px" y="0px"
	 viewBox="0 0 190 100" style="enable-background:new 0 0 190 100;" xml:space="preserve">
<style type="text/css">
	.st0{fill:url(#SVGID_1_);}
	.st1{fill:#000038;}
</style>
<g>
	
		<linearGradient id="SVGID_1_" gradientUnits="userSpaceOnUse" x1="4.0304" y1="15.3078" x2="243.7102" y2="111.9816" gradientTransform="matrix(1 0 0 -1 0 102)">
		<stop  offset="0" style="stop-color:#FF898C"/>
		<stop  offset="1" style="stop-color:#ED1E79"/>
	</linearGradient>
	<rect class="st0" width="190" height="100"/>
	<g>
		<g>
			<path class="st1" d="M78.93,69.14c0,8.78-9.63,13.63-23.91,13.63c-11.92,0-16.51-3.47-16.51-7.47c0-3.34,3.08-4.72,7.4-4.98V69.8
				c-5.96-0.2-9.17-2.75-9.17-7.01c0-4.39,3.54-7.6,9.89-8.58v-0.26c-5.24-1.9-8.19-5.24-8.19-9.63c0-6.81,7.01-11.27,18.93-11.27
				c3.08,0,5.83,0.33,8.19,0.85l0.72-10.87h12.25v0.33l-9.89,11.53c4.85,1.9,7.53,5.17,7.53,9.43c0,6.81-7.07,11.2-18.8,11.2
				c-2.42,0-4.58-0.2-6.62-0.52C48.78,55.46,48,56.24,48,57.29c0,0.98,0.85,1.64,3.01,1.64h12.97
				C73.49,58.93,78.93,62.33,78.93,69.14z M66.75,72.09c0-1.38-1.24-1.77-4.39-1.77h-11.2c-2.23,0-2.88,0.98-2.88,2.1
				c0,2.23,2.75,3.47,8.52,3.47C62.75,75.89,66.75,74.58,66.75,72.09z M52.53,44.32c0,3.08,1.77,4.45,4.78,4.45
				c2.95,0,4.78-1.38,4.78-4.45c0-3.14-1.83-4.52-4.78-4.52C54.43,39.8,52.53,41.17,52.53,44.32z"/>
			<path class="st1" d="M119.48,52.77L93.41,52.7c0.26,4.85,2.36,7.27,6.94,7.27c3.41,0,6.49-1.24,7.66-5.96l11.2,3.14
				c-3.08,9.5-10.61,12.64-19.85,12.64c-12.77,0-20.04-6.94-20.04-17.88c0-11.33,8.06-18.87,20.44-18.87
				C111.75,33.05,119.61,40.19,119.48,52.77z M93.6,48.05h12.58c-0.79-4.13-2.88-5.83-6.03-5.83C96.62,42.22,94.39,43.99,93.6,48.05
				z"/>
			<path class="st1" d="M128.84,33.84l5.7-10.15h6.03l0.2,10.15h9.17v9.63h-9.17l-0.07,9.43c-0.07,3.86,0.72,5.96,4.91,5.96
				c1.38,0,2.88-0.13,4.39-0.46v10.09c-2.82,0.79-5.9,1.24-10.15,1.24c-10.87,0-13.04-4.45-13.04-9.63V43.47h-5.11v-9.63H128.84z"/>
		</g>
	</g>
</g>
</svg>
