<?xml version="1.0" encoding="utf-8"?>
<!-- Generator: Adobe Illustrator 25.1.0, SVG Export Plug-In . SVG Version: 6.00 Build 0)  -->
<svg version="1.1" id="Layer_1" xmlns="http://www.w3.org/2000/svg" xmlns:xlink="http://www.w3.org/1999/xlink" x="0px" y="0px"
	 viewBox="0 0 600 70" style="enable-background:new 0 0 600 70;" xml:space="preserve">
<style type="text/css">
	.st0{fill:url(#SVGID_1_);}
	.st1{fill:url(#SVGID_2_);}
	.st2{fill:url(#SVGID_3_);}
	.st3{fill:url(#SVGID_4_);}
	.st4{fill:url(#SVGID_5_);}
	.st5{fill:url(#SVGID_6_);}
	.st6{fill:url(#SVGID_7_);}
	.st7{fill:url(#SVGID_8_);}
	.st8{fill:url(#SVGID_9_);}
	.st9{fill:url(#SVGID_10_);}
</style>
<g>
	<g>
		<linearGradient id="SVGID_1_" gradientUnits="userSpaceOnUse" x1="9.7774" y1="40.8363" x2="482.7774" y2="-34.1637">
			<stop  offset="0" style="stop-color:#FF898C"/>
			<stop  offset="1" style="stop-color:#ED1E79"/>
		</linearGradient>
		<path class="st0" d="M66.19,31.59v31.06H51.8l-0.45-12.8H50.9c-3.33,9.39-10.45,13.71-20.07,13.71c-16.29,0-25.9-11.89-25.9-27.87
			c0-17.5,12.12-29.24,31.13-29.24c13.71,0,23.78,5.91,28.1,17.35l-15.53,3.94c-2.12-4.85-6.44-7.65-13.1-7.65
			c-8.79,0-14.01,5.38-14.01,15.45c0,9.54,5,14.47,13.33,14.47c6.21,0,12.04-2.42,13.86-8.03H35.97V31.59H66.19z"/>
		<linearGradient id="SVGID_2_" gradientUnits="userSpaceOnUse" x1="12.1347" y1="55.7031" x2="485.1347" y2="-19.2969">
			<stop  offset="0" style="stop-color:#FF898C"/>
			<stop  offset="1" style="stop-color:#ED1E79"/>
		</linearGradient>
		<path class="st1" d="M121.03,42.2c0,13.1-9.09,21.36-24.47,21.36S72.09,55.3,72.09,42.2s9.39-21.13,24.47-21.13
			C111.72,21.06,121.03,29.09,121.03,42.2z M104.52,42.65c0-6.14-2.58-10.6-7.95-10.6c-5.3,0-8.03,4.39-8.03,10.6
			c0,6.29,2.73,10,8.03,10C101.8,52.65,104.52,48.94,104.52,42.65z"/>
		<linearGradient id="SVGID_3_" gradientUnits="userSpaceOnUse" x1="13.0009" y1="61.1654" x2="486.0009" y2="-13.8346">
			<stop  offset="0" style="stop-color:#FF898C"/>
			<stop  offset="1" style="stop-color:#ED1E79"/>
		</linearGradient>
		<path class="st2" d="M154.59,21.97l6.59-11.74h6.97l0.23,11.74h10.6V33.1h-10.6l-0.08,10.91c-0.08,4.47,0.83,6.89,5.68,6.89
			c1.59,0,3.33-0.15,5.07-0.53v11.66c-3.26,0.91-6.82,1.44-11.74,1.44c-12.57,0-15.07-5.15-15.07-11.13V33.11h-5.91V21.97H154.59z"
			/>
		<linearGradient id="SVGID_4_" gradientUnits="userSpaceOnUse" x1="14.8566" y1="72.8688" x2="487.8566" y2="-2.1312">
			<stop  offset="0" style="stop-color:#FF898C"/>
			<stop  offset="1" style="stop-color:#ED1E79"/>
		</linearGradient>
		<path class="st3" d="M232.01,42.2c0,13.1-9.09,21.36-24.47,21.36s-24.47-8.26-24.47-21.36s9.39-21.13,24.47-21.13
			C222.69,21.06,232.01,29.09,232.01,42.2z M215.49,42.65c0-6.14-2.58-10.6-7.95-10.6c-5.3,0-8.03,4.39-8.03,10.6
			c0,6.29,2.73,10,8.03,10C212.77,52.65,215.49,48.94,215.49,42.65z"/>
		<linearGradient id="SVGID_5_" gradientUnits="userSpaceOnUse" x1="16.6247" y1="84.0197" x2="489.6247" y2="9.0197">
			<stop  offset="0" style="stop-color:#FF898C"/>
			<stop  offset="1" style="stop-color:#ED1E79"/>
		</linearGradient>
		<path class="st4" d="M267.31,47.8c2.58,3.71,6.74,5.76,12.65,5.76c4.32,0,6.51-1.44,6.51-3.33c0-1.36-0.98-1.97-3.41-2.2
			c-3.94-0.38-7.65-0.61-10.83-0.98c-6.74-0.76-12.95-4.01-12.95-12.04c0-8.86,8.48-13.94,19.92-13.94c7.73,0,15,2.12,19.85,7.2
			l-7.65,7.35c-3.56-3.33-7.88-4.62-12.12-4.62c-3.41,0-5.68,1.21-5.68,2.88c0,1.21,0.83,1.89,3.03,2.12
			c3.26,0.3,6.74,0.68,9.62,0.98c8.1,0.83,14.47,3.94,14.47,11.97c0,9.39-8.1,14.62-21.36,14.62c-10.07,0-18.25-2.88-21.89-10.38
			L267.31,47.8z"/>
		<linearGradient id="SVGID_6_" gradientUnits="userSpaceOnUse" x1="16.8391" y1="85.3719" x2="489.8391" y2="10.3719">
			<stop  offset="0" style="stop-color:#FF898C"/>
			<stop  offset="1" style="stop-color:#ED1E79"/>
		</linearGradient>
		<path class="st5" d="M311.09,21.97l6.59-11.74h6.97l0.23,11.74h10.6V33.1h-10.6l-0.08,10.91c-0.08,4.47,0.83,6.89,5.68,6.89
			c1.59,0,3.33-0.15,5.07-0.53v11.66c-3.26,0.91-6.82,1.44-11.74,1.44c-12.57,0-15.07-5.15-15.07-11.13V33.11h-5.91V21.97H311.09z"
			/>
		<linearGradient id="SVGID_7_" gradientUnits="userSpaceOnUse" x1="18.6946" y1="97.0737" x2="491.6945" y2="22.0737">
			<stop  offset="0" style="stop-color:#FF898C"/>
			<stop  offset="1" style="stop-color:#ED1E79"/>
		</linearGradient>
		<path class="st6" d="M388.5,42.2c0,13.1-9.09,21.36-24.47,21.36s-24.47-8.26-24.47-21.36s9.39-21.13,24.47-21.13
			C379.18,21.06,388.5,29.09,388.5,42.2z M371.99,42.65c0-6.14-2.58-10.6-7.95-10.6c-5.3,0-8.03,4.39-8.03,10.6
			c0,6.29,2.73,10,8.03,10C369.26,52.65,371.99,48.94,371.99,42.65z"/>
		<linearGradient id="SVGID_8_" gradientUnits="userSpaceOnUse" x1="19.644" y1="103.0617" x2="492.644" y2="28.0617">
			<stop  offset="0" style="stop-color:#FF898C"/>
			<stop  offset="1" style="stop-color:#ED1E79"/>
		</linearGradient>
		<path class="st7" d="M428.12,21.82v14.47c-0.91-0.23-2.27-0.38-3.41-0.38c-8.41,0-13.86,5.23-13.86,13.86v12.88h-16.13V21.97
			h15.75v16.28h0.45c1.06-7.65,3.26-13.03,8.26-15.6c1.51-0.76,3.56-1.14,5.76-1.14C426,21.52,427.06,21.59,428.12,21.82z"/>
		<linearGradient id="SVGID_9_" gradientUnits="userSpaceOnUse" x1="20.9069" y1="111.0265" x2="493.907" y2="36.0265">
			<stop  offset="0" style="stop-color:#FF898C"/>
			<stop  offset="1" style="stop-color:#ED1E79"/>
		</linearGradient>
		<path class="st8" d="M476.98,43.86l-30.15-0.08c0.3,5.6,2.73,8.41,8.03,8.41c3.94,0,7.5-1.44,8.86-6.89l12.95,3.64
			c-3.56,10.98-12.27,14.62-22.95,14.62c-14.77,0-23.18-8.03-23.18-20.68c0-13.1,9.32-21.81,23.63-21.81
			C468.04,21.06,477.13,29.32,476.98,43.86z M447.06,38.41h14.54c-0.91-4.77-3.33-6.74-6.97-6.74
			C450.54,31.67,447.97,33.71,447.06,38.41z"/>
	</g>
	
		<linearGradient id="SVGID_10_" gradientUnits="userSpaceOnUse" x1="116.2525" y1="-57.5726" x2="642.1107" y2="43.52" gradientTransform="matrix(1 0 0 -1 0 72)">
		<stop  offset="0" style="stop-color:#FF898C"/>
		<stop  offset="1" style="stop-color:#ED1E79"/>
	</linearGradient>
	<polygon class="st9" points="574.02,20.5 568.16,26.35 579.24,37.43 515.74,37.43 515.74,45.71 579.24,45.71 568.16,56.78 
		574.02,62.64 595.09,41.57 	"/>
</g>
</svg>
