<?xml version="1.0" encoding="utf-8"?>
<!-- Generator: Adobe Illustrator 25.1.0, SVG Export Plug-In . SVG Version: 6.00 Build 0)  -->
<svg version="1.1" id="Layer_1" xmlns="http://www.w3.org/2000/svg" xmlns:xlink="http://www.w3.org/1999/xlink" x="0px" y="0px"
	 viewBox="0 0 600 70" style="enable-background:new 0 0 600 70;" xml:space="preserve">
<style type="text/css">
	.st0{fill:#FFFFFF;}
	.st1{fill:url(#SVGID_1_);}
</style>
<g>
	<g>
		<path class="st0" d="M66.19,31.59v31.06H51.8l-0.45-12.8h-0.45c-3.33,9.39-10.45,13.71-20.07,13.71
			c-16.29,0-25.9-11.89-25.9-27.87c0-17.5,12.12-29.24,31.13-29.24c13.71,0,23.78,5.91,28.1,17.35l-15.53,3.94
			c-2.12-4.85-6.44-7.65-13.1-7.65c-8.79,0-14.01,5.38-14.01,15.45c0,9.54,5,14.47,13.33,14.47c6.21,0,12.04-2.42,13.86-8.03H35.97
			V31.59H66.19z"/>
		<path class="st0" d="M121.03,42.2c0,13.1-9.09,21.36-24.47,21.36c-15.38,0-24.47-8.26-24.47-21.36c0-13.1,9.39-21.13,24.47-21.13
			C111.72,21.06,121.03,29.09,121.03,42.2z M104.52,42.65c0-6.14-2.58-10.6-7.95-10.6c-5.3,0-8.03,4.39-8.03,10.6
			c0,6.29,2.73,10,8.03,10C101.8,52.65,104.52,48.94,104.52,42.65z"/>
		<path class="st0" d="M154.59,21.97l6.59-11.74h6.97l0.23,11.74h10.6v11.13h-10.6l-0.08,10.91c-0.08,4.47,0.83,6.89,5.68,6.89
			c1.59,0,3.33-0.15,5.07-0.53v11.66c-3.26,0.91-6.82,1.44-11.74,1.44c-12.57,0-15.07-5.15-15.07-11.13V33.11h-5.91V21.97H154.59z"
			/>
		<path class="st0" d="M232.01,42.2c0,13.1-9.09,21.36-24.47,21.36c-15.38,0-24.47-8.26-24.47-21.36c0-13.1,9.39-21.13,24.47-21.13
			C222.69,21.06,232.01,29.09,232.01,42.2z M215.49,42.65c0-6.14-2.58-10.6-7.95-10.6c-5.3,0-8.03,4.39-8.03,10.6
			c0,6.29,2.73,10,8.03,10C212.77,52.65,215.49,48.94,215.49,42.65z"/>
		<path class="st0" d="M267.31,47.8c2.58,3.71,6.74,5.76,12.65,5.76c4.32,0,6.51-1.44,6.51-3.33c0-1.36-0.98-1.97-3.41-2.2
			c-3.94-0.38-7.65-0.61-10.83-0.98c-6.74-0.76-12.95-4.01-12.95-12.04c0-8.86,8.48-13.94,19.92-13.94c7.73,0,15,2.12,19.85,7.2
			l-7.65,7.35c-3.56-3.33-7.88-4.62-12.12-4.62c-3.41,0-5.68,1.21-5.68,2.88c0,1.21,0.83,1.89,3.03,2.12
			c3.26,0.3,6.74,0.68,9.62,0.98c8.1,0.83,14.47,3.94,14.47,11.97c0,9.39-8.1,14.62-21.36,14.62c-10.07,0-18.25-2.88-21.89-10.38
			L267.31,47.8z"/>
		<path class="st0" d="M311.09,21.97l6.59-11.74h6.97l0.23,11.74h10.6v11.13h-10.6l-0.08,10.91c-0.08,4.47,0.83,6.89,5.68,6.89
			c1.59,0,3.33-0.15,5.07-0.53v11.66c-3.26,0.91-6.82,1.44-11.74,1.44c-12.57,0-15.07-5.15-15.07-11.13V33.11h-5.91V21.97H311.09z"
			/>
		<path class="st0" d="M388.5,42.2c0,13.1-9.09,21.36-24.47,21.36c-15.38,0-24.47-8.26-24.47-21.36c0-13.1,9.39-21.13,24.47-21.13
			C379.18,21.06,388.5,29.09,388.5,42.2z M371.99,42.65c0-6.14-2.58-10.6-7.95-10.6c-5.3,0-8.03,4.39-8.03,10.6
			c0,6.29,2.73,10,8.03,10C369.26,52.65,371.99,48.94,371.99,42.65z"/>
		<path class="st0" d="M428.12,21.82v14.47c-0.91-0.23-2.27-0.38-3.41-0.38c-8.41,0-13.86,5.23-13.86,13.86v12.88h-16.13V21.97
			h15.75v16.28h0.45c1.06-7.65,3.26-13.03,8.26-15.6c1.51-0.76,3.56-1.14,5.76-1.14C426,21.52,427.06,21.59,428.12,21.82z"/>
		<path class="st0" d="M476.98,43.86l-30.15-0.08c0.3,5.6,2.73,8.41,8.03,8.41c3.94,0,7.5-1.44,8.86-6.89l12.95,3.64
			c-3.56,10.98-12.27,14.62-22.95,14.62c-14.77,0-23.18-8.03-23.18-20.68c0-13.1,9.32-21.81,23.63-21.81
			C468.04,21.06,477.13,29.32,476.98,43.86z M447.06,38.41h14.54c-0.91-4.77-3.33-6.74-6.97-6.74
			C450.54,31.67,447.97,33.71,447.06,38.41z"/>
	</g>
	<linearGradient id="SVGID_1_" gradientUnits="userSpaceOnUse" x1="116.2518" y1="129.5688" x2="642.11" y2="28.4763">
		<stop  offset="0" style="stop-color:#FF898C"/>
		<stop  offset="1" style="stop-color:#ED1E79"/>
	</linearGradient>
	<polygon class="st1" points="574.02,20.5 568.16,26.35 579.24,37.43 515.74,37.43 515.74,45.71 579.24,45.71 568.16,56.78 
		574.02,62.64 595.09,41.57 	"/>
</g>
</svg>
