<?xml version="1.0" encoding="utf-8"?>
<!-- Generator: Adobe Illustrator 25.1.0, SVG Export Plug-In . SVG Version: 6.00 Build 0)  -->
<svg version="1.1" id="Layer_1" xmlns="http://www.w3.org/2000/svg" xmlns:xlink="http://www.w3.org/1999/xlink" x="0px" y="0px"
	 viewBox="0 0 95 95" style="enable-background:new 0 0 95 95;" xml:space="preserve">
<style type="text/css">
	.st0{fill:#FFFFFF;}
</style>
<g>
	<path class="st0" d="M47.5,1.27c-25.53,0-46.23,20.7-46.23,46.23c0,25.54,20.7,46.23,46.23,46.23c25.53,0,46.23-20.7,46.23-46.23
		C93.73,21.97,73.03,1.27,47.5,1.27z M68.7,67.95c-0.83,1.36-2.6,1.79-3.96,0.96c-10.86-6.64-24.52-8.13-40.61-4.46
		c-1.55,0.36-3.1-0.62-3.45-2.17c-0.36-1.55,0.61-3.1,2.17-3.45c17.61-4.03,32.72-2.29,44.9,5.15
		C69.11,64.82,69.53,66.59,68.7,67.95z M74.36,55.36c-1.05,1.7-3.26,2.23-4.96,1.19c-12.42-7.64-31.37-9.85-46.07-5.39
		c-1.91,0.58-3.92-0.5-4.5-2.4c-0.57-1.91,0.5-3.92,2.4-4.5c16.79-5.1,37.67-2.63,51.94,6.14C74.87,51.45,75.4,53.67,74.36,55.36z
		 M74.85,42.25c-14.9-8.85-39.48-9.66-53.71-5.35c-2.28,0.69-4.7-0.6-5.39-2.88c-0.69-2.29,0.6-4.7,2.88-5.39
		c16.33-4.96,43.48-4,60.63,6.18c2.06,1.22,2.73,3.87,1.51,5.93C79.55,42.8,76.9,43.47,74.85,42.25z"/>
</g>
</svg>
