<?xml version="1.0" encoding="utf-8"?>
<!-- Generator: Adobe Illustrator 25.1.0, SVG Export Plug-In . SVG Version: 6.00 Build 0)  -->
<svg version="1.1" id="Layer_1" xmlns="http://www.w3.org/2000/svg" xmlns:xlink="http://www.w3.org/1999/xlink" x="0px" y="0px"
	 viewBox="0 0 95 95" style="enable-background:new 0 0 95 95;" xml:space="preserve">
<style type="text/css">
	.st0{fill:#FFFFFF;}
</style>
<g>
	
		<ellipse transform="matrix(0.9732 -0.2298 0.2298 0.9732 -9.79 12.0894)" class="st0" cx="47.02" cy="48.09" rx="18.11" ry="18.11"/>
	<path class="st0" d="M47.5,1.27c-25.53,0-46.23,20.7-46.23,46.23c0,25.54,20.7,46.23,46.23,46.23c25.53,0,46.23-20.7,46.23-46.23
		C93.73,21.97,73.03,1.27,47.5,1.27z M47.02,74.5c-14.56,0-26.41-11.85-26.41-26.41c0-14.56,11.85-26.41,26.41-26.41
		s26.41,11.85,26.41,26.41C73.43,62.65,61.58,74.5,47.02,74.5z M74.46,26.52c-3.14,0-5.69-2.55-5.69-5.69s2.55-5.69,5.69-5.69
		c3.14,0,5.69,2.55,5.69,5.69S77.6,26.52,74.46,26.52z"/>
</g>
</svg>
