<?xml version="1.0" encoding="utf-8"?>
<!-- Generator: Adobe Illustrator 25.1.0, SVG Export Plug-In . SVG Version: 6.00 Build 0)  -->
<svg version="1.1" id="Layer_1" xmlns="http://www.w3.org/2000/svg" xmlns:xlink="http://www.w3.org/1999/xlink" x="0px" y="0px"
	 viewBox="0 0 105 105" style="enable-background:new 0 0 105 105;" xml:space="preserve">
<style type="text/css">
	.st0{fill:#FFFFFF;}
</style>
<g>
	<g>
		<path class="st0" d="M72.59,103.41H32.41c-17,0-30.83-13.83-30.83-30.83V32.41c0-17,13.83-30.83,30.83-30.83h40.18
			c17,0,30.83,13.83,30.83,30.83v40.18C103.41,89.59,89.59,103.41,72.59,103.41z M32.41,9.89c-12.42,0-22.52,10.1-22.52,22.52v40.18
			c0,12.42,10.1,22.52,22.52,22.52h40.18c12.42,0,22.52-10.1,22.52-22.52V32.41c0-12.42-10.1-22.52-22.52-22.52H32.41z"/>
	</g>
	<g>
		<path class="st0" d="M52.5,78.91c-14.56,0-26.41-11.85-26.41-26.41S37.94,26.09,52.5,26.09S78.91,37.94,78.91,52.5
			S67.06,78.91,52.5,78.91z M52.5,34.39c-9.99,0-18.11,8.12-18.11,18.11s8.12,18.11,18.11,18.11c9.99,0,18.11-8.12,18.11-18.11
			S62.49,34.39,52.5,34.39z"/>
	</g>
	<g>
		<circle class="st0" cx="79.94" cy="25.24" r="5.69"/>
	</g>
</g>
</svg>
