<?xml version="1.0" encoding="utf-8"?>
<!-- Generator: Adobe Illustrator 25.1.0, SVG Export Plug-In . SVG Version: 6.00 Build 0)  -->
<svg version="1.1" id="Layer_1" xmlns="http://www.w3.org/2000/svg" xmlns:xlink="http://www.w3.org/1999/xlink" x="0px" y="0px"
	 viewBox="0 0 2165 375" style="enable-background:new 0 0 2165 375;" xml:space="preserve">
<style type="text/css">
	.st0{fill:url(#SVGID_1_);}
	.st1{fill:url(#SVGID_2_);}
	.st2{fill:url(#SVGID_3_);}
	.st3{fill:url(#SVGID_4_);}
	.st4{fill:url(#SVGID_5_);}
	.st5{fill:url(#SVGID_6_);}
	.st6{fill:url(#SVGID_7_);}
	.st7{fill:url(#SVGID_8_);}
	.st8{fill:url(#SVGID_9_);}
	.st9{fill:url(#SVGID_10_);}
	.st10{fill:url(#SVGID_11_);}
	.st11{fill:url(#SVGID_12_);}
	.st12{fill:url(#SVGID_13_);}
	.st13{fill:url(#SVGID_14_);}
	.st14{fill:url(#SVGID_15_);}
	.st15{fill:url(#SVGID_16_);}
	.st16{fill:url(#SVGID_17_);}
	.st17{fill:url(#SVGID_18_);}
	.st18{fill:url(#SVGID_19_);}
	.st19{fill:url(#SVGID_20_);}
	.st20{fill:url(#SVGID_21_);}
	.st21{fill:url(#SVGID_22_);}
	.st22{fill:url(#SVGID_23_);}
	.st23{fill:url(#SVGID_24_);}
	.st24{fill:url(#SVGID_25_);}
	.st25{fill:url(#SVGID_26_);}
	.st26{fill:url(#SVGID_27_);}
	.st27{fill:url(#SVGID_28_);}
	.st28{fill:url(#SVGID_29_);}
	.st29{fill:url(#SVGID_30_);}
	.st30{fill:url(#SVGID_31_);}
	.st31{fill:url(#SVGID_32_);}
	.st32{fill:url(#SVGID_33_);}
	.st33{fill:url(#SVGID_34_);}
	.st34{fill:url(#SVGID_35_);}
	.st35{fill:url(#SVGID_36_);}
	.st36{fill:url(#SVGID_37_);}
	.st37{fill:url(#SVGID_38_);}
	.st38{fill:url(#SVGID_39_);}
	.st39{fill:url(#SVGID_40_);}
	.st40{fill:url(#SVGID_41_);}
	.st41{fill:url(#SVGID_42_);}
	.st42{fill:url(#SVGID_43_);}
	.st43{fill:url(#SVGID_44_);}
	.st44{fill:url(#SVGID_45_);}
	.st45{fill:url(#SVGID_46_);}
	.st46{fill:url(#SVGID_47_);}
	.st47{fill:url(#SVGID_48_);}
	.st48{fill:url(#SVGID_49_);}
	.st49{fill:url(#SVGID_50_);}
	.st50{fill:url(#SVGID_51_);}
	.st51{fill:url(#SVGID_52_);}
	.st52{fill:url(#SVGID_53_);}
	.st53{fill:url(#SVGID_54_);}
	.st54{fill:url(#SVGID_55_);}
	.st55{fill:url(#SVGID_56_);}
	.st56{fill:url(#SVGID_57_);}
	.st57{fill:url(#SVGID_58_);}
	.st58{fill:url(#SVGID_59_);}
	.st59{fill:url(#SVGID_60_);}
	.st60{fill:url(#SVGID_61_);}
	.st61{fill:url(#SVGID_62_);}
	.st62{fill:url(#SVGID_63_);}
	.st63{fill:url(#SVGID_64_);}
	.st64{fill:url(#SVGID_65_);}
	.st65{fill:url(#SVGID_66_);}
	.st66{fill:url(#SVGID_67_);}
	.st67{fill:url(#SVGID_68_);}
	.st68{fill:url(#SVGID_69_);}
	.st69{fill:url(#SVGID_70_);}
	.st70{fill:url(#SVGID_71_);}
	.st71{fill:url(#SVGID_72_);}
	.st72{fill:url(#SVGID_73_);}
</style>
<g>
	<linearGradient id="SVGID_1_" gradientUnits="userSpaceOnUse" x1="205.1089" y1="10.063" x2="1764.0613" y2="-452.8341">
		<stop  offset="0" style="stop-color:#FF898C"/>
		<stop  offset="1" style="stop-color:#ED1E79"/>
	</linearGradient>
	<path class="st0" d="M99.61,35.55H69.69v67.22H43.77V35.55H13.85v-21.2h85.76V35.55z"/>
	<linearGradient id="SVGID_2_" gradientUnits="userSpaceOnUse" x1="213.3426" y1="37.7925" x2="1772.295" y2="-425.1046">
		<stop  offset="0" style="stop-color:#FF898C"/>
		<stop  offset="1" style="stop-color:#ED1E79"/>
	</linearGradient>
	<path class="st1" d="M178.95,60.98v41.79h-25.8V65.71c0-6.06-2.79-9.93-9.08-9.93c-5.57,0-10.42,3.03-10.42,12.48v34.52h-25.8
		V14.35h25.8v38.64h0.61c2.66-9.81,9.69-16.72,22.29-16.72C170.83,36.27,178.95,44.51,178.95,60.98z"/>
	<linearGradient id="SVGID_3_" gradientUnits="userSpaceOnUse" x1="223.2325" y1="71.0996" x2="1782.1848" y2="-391.7975">
		<stop  offset="0" style="stop-color:#FF898C"/>
		<stop  offset="1" style="stop-color:#ED1E79"/>
	</linearGradient>
	<path class="st2" d="M262.28,72.73l-48.21-0.12c0.48,8.96,4.36,13.44,12.84,13.44c6.3,0,11.99-2.3,14.17-11.02l20.71,5.81
		c-5.69,17.56-19.62,23.38-36.7,23.38c-23.62,0-37.06-12.84-37.06-33.07c0-20.95,14.9-34.88,37.79-34.88
		C247.98,36.27,262.52,49.48,262.28,72.73z M214.43,64.01h23.26c-1.45-7.63-5.33-10.78-11.14-10.78
		C220,53.23,215.89,56.5,214.43,64.01z"/>
	<linearGradient id="SVGID_4_" gradientUnits="userSpaceOnUse" x1="234.4552" y1="108.8957" x2="1793.4076" y2="-354.0015">
		<stop  offset="0" style="stop-color:#FF898C"/>
		<stop  offset="1" style="stop-color:#ED1E79"/>
	</linearGradient>
	<path class="st3" d="M382.55,103.01c0,16.23-17.81,25.19-44.21,25.19c-22.04,0-30.52-6.42-30.52-13.81c0-6.18,5.69-8.72,13.69-9.21
		v-0.97c-11.02-0.36-16.96-5.09-16.96-12.96c0-8.12,6.54-14.05,18.29-15.87v-0.48c-9.69-3.51-15.14-9.69-15.14-17.81
		c0-12.6,12.96-20.83,35-20.83c5.69,0,10.78,0.61,15.14,1.57l1.33-20.11h22.65v0.61l-18.29,21.32c8.96,3.51,13.93,9.57,13.93,17.44
		c0,12.6-13.08,20.71-34.76,20.71c-4.48,0-8.48-0.36-12.23-0.97c-3.63,0.85-5.09,2.3-5.09,4.24c0,1.82,1.57,3.03,5.57,3.03h23.98
		C372.49,84.12,382.55,90.42,382.55,103.01z M360.02,108.46c0-2.54-2.3-3.27-8.12-3.27h-20.71c-4.12,0-5.33,1.82-5.33,3.88
		c0,4.12,5.09,6.42,15.75,6.42C352.63,115.49,360.02,113.07,360.02,108.46z M333.73,57.11c0,5.69,3.27,8.24,8.84,8.24
		c5.45,0,8.84-2.54,8.84-8.24c0-5.81-3.39-8.36-8.84-8.36C337.25,48.75,333.73,51.29,333.73,57.11z"/>
	<linearGradient id="SVGID_5_" gradientUnits="userSpaceOnUse" x1="239.1386" y1="124.6685" x2="1798.0909" y2="-338.2286">
		<stop  offset="0" style="stop-color:#FF898C"/>
		<stop  offset="1" style="stop-color:#ED1E79"/>
	</linearGradient>
	<path class="st4" d="M461.52,70.07c0,20.95-14.54,34.16-39.12,34.16s-39.12-13.2-39.12-34.16c0-20.95,15.02-33.79,39.12-33.79
		C446.62,36.27,461.52,49.11,461.52,70.07z M435.11,70.8c0-9.81-4.12-16.96-12.72-16.96c-8.48,0-12.84,7.03-12.84,16.96
		c0,10.05,4.36,15.99,12.84,15.99C430.75,86.78,435.11,80.85,435.11,70.8z"/>
	<linearGradient id="SVGID_6_" gradientUnits="userSpaceOnUse" x1="245.0071" y1="144.4325" x2="1803.9595" y2="-318.4646">
		<stop  offset="0" style="stop-color:#FF898C"/>
		<stop  offset="1" style="stop-color:#ED1E79"/>
	</linearGradient>
	<path class="st5" d="M517.84,59.29v21.68h-45.18V59.29H517.84z"/>
	<linearGradient id="SVGID_7_" gradientUnits="userSpaceOnUse" x1="247.8863" y1="154.1292" x2="1806.8386" y2="-308.7679">
		<stop  offset="0" style="stop-color:#FF898C"/>
		<stop  offset="1" style="stop-color:#ED1E79"/>
	</linearGradient>
	<path class="st6" d="M538.79,37.73l10.54-18.77h11.14l0.36,18.77h16.96v17.81h-16.96l-0.12,17.44C560.59,80.12,562.05,84,569.8,84
		c2.54,0,5.33-0.24,8.12-0.85v18.65c-5.21,1.45-10.9,2.3-18.77,2.3c-20.11,0-24.1-8.24-24.1-17.81V55.53h-9.45V37.73H538.79z"/>
	<linearGradient id="SVGID_8_" gradientUnits="userSpaceOnUse" x1="255.429" y1="179.5317" x2="1814.3813" y2="-283.3654">
		<stop  offset="0" style="stop-color:#FF898C"/>
		<stop  offset="1" style="stop-color:#ED1E79"/>
	</linearGradient>
	<path class="st7" d="M662.58,70.07c0,20.95-14.54,34.16-39.12,34.16s-39.12-13.2-39.12-34.16c0-20.95,15.02-33.79,39.12-33.79
		C647.68,36.27,662.58,49.11,662.58,70.07z M636.17,70.8c0-9.81-4.12-16.96-12.72-16.96c-8.48,0-12.84,7.03-12.84,16.96
		c0,10.05,4.36,15.99,12.84,15.99C631.81,86.78,636.17,80.85,636.17,70.8z"/>
	<linearGradient id="SVGID_9_" gradientUnits="userSpaceOnUse" x1="266.6636" y1="217.3676" x2="1825.616" y2="-245.5295">
		<stop  offset="0" style="stop-color:#FF898C"/>
		<stop  offset="1" style="stop-color:#ED1E79"/>
	</linearGradient>
	<path class="st8" d="M787.57,70.19c0,21.92-12.35,34.04-29.31,34.04c-11.38,0-19.38-6.18-23.13-16.72h-0.48v39.24h-25.8V37.73h25.8
		v15.5h0.48c3.75-10.9,11.75-16.96,23.38-16.96C774.86,36.27,787.57,48.27,787.57,70.19z M761.41,70.19
		c0-9.45-4.97-15.87-13.2-15.87c-7.99,0-13.57,6.06-13.57,15.02v1.82c0,9.45,5.69,15.02,13.45,15.02
		C756.45,86.18,761.41,79.88,761.41,70.19z"/>
	<linearGradient id="SVGID_10_" gradientUnits="userSpaceOnUse" x1="267.3855" y1="219.7989" x2="1826.3379" y2="-243.0982">
		<stop  offset="0" style="stop-color:#FF898C"/>
		<stop  offset="1" style="stop-color:#ED1E79"/>
	</linearGradient>
	<path class="st9" d="M797.5,14.35h25.8v88.42h-25.8V14.35z"/>
	<linearGradient id="SVGID_11_" gradientUnits="userSpaceOnUse" x1="276.383" y1="250.1008" x2="1835.3353" y2="-212.7963">
		<stop  offset="0" style="stop-color:#FF898C"/>
		<stop  offset="1" style="stop-color:#ED1E79"/>
	</linearGradient>
	<path class="st10" d="M912.81,85.21l-0.12,15.62c-3.75,1.7-10.54,3.15-16.59,3.15c-13.08,0-16.96-5.94-16.96-13.44V88.6h-0.61
		c-3.51,8.6-11.51,15.62-24.1,15.62c-12.6,0-21.56-7.63-21.56-17.44c0-7.51,4.84-12.72,15.38-16.35c6.06-2.06,16.59-4.97,30.04-8.72
		v-0.12c0-4.97-4-7.75-10.05-7.75c-5.94,0-11.51,2.42-15.26,11.63l-19.5-6.66c6.78-16.96,19.99-22.41,37.18-22.41
		c22.17,0,33.43,10.54,33.43,25.68V79.4c0,2.3,0,6.18,4.48,6.18C909.66,85.57,911.24,85.45,912.81,85.21z M878.29,79.76V69.71
		l-12.84,4.36c-4.6,1.57-6.78,3.15-6.78,5.81c0,2.91,2.42,6.18,7.51,6.18C871.39,86.06,876.72,83.15,878.29,79.76z"/>
	<linearGradient id="SVGID_12_" gradientUnits="userSpaceOnUse" x1="282.2687" y1="269.923" x2="1841.2211" y2="-192.9742">
		<stop  offset="0" style="stop-color:#FF898C"/>
		<stop  offset="1" style="stop-color:#ED1E79"/>
	</linearGradient>
	<path class="st11" d="M953.75,104.23c-22.89,0-36.46-13.44-36.46-33.07c0-21.56,16.23-34.88,37.55-34.88
		c19.14,0,31.86,10.54,34.76,25.68l-19.99,4.84c-1.94-7.87-6.3-12.6-13.32-12.6c-7.51,0-12.72,5.09-12.72,16.11
		c0,11.39,5.21,15.75,12.72,15.75c7.75,0,12.48-4.97,13.93-13.81l21.44,2.66C989,91.99,976.28,104.23,953.75,104.23z"/>
	<linearGradient id="SVGID_13_" gradientUnits="userSpaceOnUse" x1="288.7377" y1="291.7091" x2="1847.6901" y2="-171.188">
		<stop  offset="0" style="stop-color:#FF898C"/>
		<stop  offset="1" style="stop-color:#ED1E79"/>
	</linearGradient>
	<path class="st12" d="M1070.75,72.73l-48.21-0.12c0.48,8.96,4.36,13.44,12.84,13.44c6.3,0,11.99-2.3,14.17-11.02l20.71,5.81
		c-5.69,17.56-19.62,23.38-36.7,23.38c-23.62,0-37.06-12.84-37.06-33.07c0-20.95,14.9-34.88,37.79-34.88
		C1056.46,36.27,1071,49.48,1070.75,72.73z M1022.91,64.01h23.26c-1.45-7.63-5.33-10.78-11.14-10.78
		C1028.48,53.23,1024.36,56.5,1022.91,64.01z"/>
	<linearGradient id="SVGID_14_" gradientUnits="userSpaceOnUse" x1="294.2228" y1="310.1822" x2="1853.1752" y2="-152.715">
		<stop  offset="0" style="stop-color:#FF898C"/>
		<stop  offset="1" style="stop-color:#ED1E79"/>
	</linearGradient>
	<path class="st13" d="M1162.56,55.53h-15.75v47.24h-25.8V55.53h-9.69V37.73h9.69v-4.48c0-12.35,9.81-20.35,26.89-20.35
		c5.93,0,10.66,0.73,14.78,1.7V28.4c-2.18-0.12-4.72-0.24-6.54-0.24c-9.08,0-9.33,3.39-9.33,6.78v2.79h15.75V55.53z"/>
	<linearGradient id="SVGID_15_" gradientUnits="userSpaceOnUse" x1="302.4359" y1="337.8423" x2="1861.3883" y2="-125.0548">
		<stop  offset="0" style="stop-color:#FF898C"/>
		<stop  offset="1" style="stop-color:#ED1E79"/>
	</linearGradient>
	<path class="st14" d="M1242.75,70.07c0,20.95-14.54,34.16-39.12,34.16s-39.12-13.2-39.12-34.16c0-20.95,15.02-33.79,39.12-33.79
		C1227.85,36.27,1242.75,49.11,1242.75,70.07z M1216.34,70.8c0-9.81-4.12-16.96-12.72-16.96c-8.48,0-12.84,7.03-12.84,16.96
		c0,10.05,4.36,15.99,12.84,15.99C1211.98,86.78,1216.34,80.85,1216.34,70.8z"/>
	<linearGradient id="SVGID_16_" gradientUnits="userSpaceOnUse" x1="307.4543" y1="354.7432" x2="1866.4066" y2="-108.1539">
		<stop  offset="0" style="stop-color:#FF898C"/>
		<stop  offset="1" style="stop-color:#ED1E79"/>
	</linearGradient>
	<path class="st15" d="M1306.09,37.49v23.13c-1.45-0.36-3.63-0.61-5.45-0.61c-13.44,0-22.17,8.36-22.17,22.17v20.59h-25.8V37.73
		h25.19v26.04h0.73c1.7-12.23,5.21-20.83,13.2-24.95c2.42-1.21,5.69-1.82,9.21-1.82C1302.7,37,1304.4,37.12,1306.09,37.49z"/>
	<linearGradient id="SVGID_17_" gradientUnits="userSpaceOnUse" x1="317.1068" y1="387.2512" x2="1876.0592" y2="-75.646">
		<stop  offset="0" style="stop-color:#FF898C"/>
		<stop  offset="1" style="stop-color:#ED1E79"/>
	</linearGradient>
	<path class="st16" d="M1383.73,104.23c-22.89,0-36.46-13.44-36.46-33.07c0-21.56,16.23-34.88,37.55-34.88
		c19.14,0,31.86,10.54,34.76,25.68l-19.99,4.84c-1.94-7.87-6.3-12.6-13.32-12.6c-7.51,0-12.72,5.09-12.72,16.11
		c0,11.39,5.21,15.75,12.72,15.75c7.75,0,12.48-4.97,13.93-13.81l21.44,2.66C1418.98,91.99,1406.26,104.23,1383.73,104.23z"/>
	<linearGradient id="SVGID_18_" gradientUnits="userSpaceOnUse" x1="321.8311" y1="403.1617" x2="1880.7834" y2="-59.7354">
		<stop  offset="0" style="stop-color:#FF898C"/>
		<stop  offset="1" style="stop-color:#ED1E79"/>
	</linearGradient>
	<path class="st17" d="M1483.53,37.49v23.13c-1.45-0.36-3.63-0.61-5.45-0.61c-13.44,0-22.17,8.36-22.17,22.17v20.59h-25.8V37.73
		h25.19v26.04h0.73c1.7-12.23,5.21-20.83,13.2-24.95c2.42-1.21,5.69-1.82,9.21-1.82C1480.14,37,1481.84,37.12,1483.53,37.49z"/>
	<linearGradient id="SVGID_19_" gradientUnits="userSpaceOnUse" x1="328.512" y1="425.6618" x2="1887.4644" y2="-37.2353">
		<stop  offset="0" style="stop-color:#FF898C"/>
		<stop  offset="1" style="stop-color:#ED1E79"/>
	</linearGradient>
	<path class="st18" d="M1561.66,72.73l-48.21-0.12c0.48,8.96,4.36,13.44,12.84,13.44c6.3,0,11.99-2.3,14.17-11.02l20.71,5.81
		c-5.69,17.56-19.62,23.38-36.7,23.38c-23.62,0-37.06-12.84-37.06-33.07c0-20.95,14.9-34.88,37.79-34.88
		C1547.36,36.27,1561.9,49.48,1561.66,72.73z M1513.81,64.01h23.26c-1.45-7.63-5.33-10.78-11.14-10.78
		C1519.38,53.23,1515.27,56.5,1513.81,64.01z"/>
	<linearGradient id="SVGID_20_" gradientUnits="userSpaceOnUse" x1="335.9219" y1="450.6168" x2="1894.8743" y2="-12.2803">
		<stop  offset="0" style="stop-color:#FF898C"/>
		<stop  offset="1" style="stop-color:#ED1E79"/>
	</linearGradient>
	<path class="st19" d="M1647.65,85.21l-0.12,15.62c-3.75,1.7-10.54,3.15-16.59,3.15c-13.08,0-16.96-5.94-16.96-13.44V88.6h-0.61
		c-3.51,8.6-11.51,15.62-24.1,15.62c-12.6,0-21.56-7.63-21.56-17.44c0-7.51,4.84-12.72,15.38-16.35c6.06-2.06,16.59-4.97,30.04-8.72
		v-0.12c0-4.97-4-7.75-10.05-7.75c-5.94,0-11.51,2.42-15.26,11.63l-19.5-6.66c6.78-16.96,19.99-22.41,37.18-22.41
		c22.17,0,33.43,10.54,33.43,25.68V79.4c0,2.3,0,6.18,4.48,6.18C1644.5,85.57,1646.08,85.45,1647.65,85.21z M1613.13,79.76V69.71
		l-12.84,4.36c-4.6,1.57-6.78,3.15-6.78,5.81c0,2.91,2.42,6.18,7.51,6.18C1606.23,86.06,1611.56,83.15,1613.13,79.76z"/>
	<linearGradient id="SVGID_21_" gradientUnits="userSpaceOnUse" x1="338.9463" y1="460.8026" x2="1897.8987" y2="-2.0945">
		<stop  offset="0" style="stop-color:#FF898C"/>
		<stop  offset="1" style="stop-color:#ED1E79"/>
	</linearGradient>
	<path class="st20" d="M1662.67,37.73l10.54-18.77h11.14l0.36,18.77h16.96v17.81h-16.96l-0.12,17.44
		c-0.12,7.15,1.33,11.02,9.08,11.02c2.54,0,5.33-0.24,8.12-0.85v18.65c-5.21,1.45-10.9,2.3-18.77,2.3c-20.11,0-24.1-8.24-24.1-17.81
		V55.53h-9.45V37.73H1662.67z"/>
	<linearGradient id="SVGID_22_" gradientUnits="userSpaceOnUse" x1="346.489" y1="486.2051" x2="1905.4414" y2="23.308">
		<stop  offset="0" style="stop-color:#FF898C"/>
		<stop  offset="1" style="stop-color:#ED1E79"/>
	</linearGradient>
	<path class="st21" d="M1786.46,70.07c0,20.95-14.54,34.16-39.12,34.16s-39.12-13.2-39.12-34.16c0-20.95,15.02-33.79,39.12-33.79
		C1771.56,36.27,1786.46,49.11,1786.46,70.07z M1760.05,70.8c0-9.81-4.12-16.96-12.72-16.96c-8.48,0-12.84,7.03-12.84,16.96
		c0,10.05,4.36,15.99,12.84,15.99C1755.69,86.78,1760.05,80.85,1760.05,70.8z"/>
	<linearGradient id="SVGID_23_" gradientUnits="userSpaceOnUse" x1="351.5075" y1="503.1063" x2="1910.4598" y2="40.2092">
		<stop  offset="0" style="stop-color:#FF898C"/>
		<stop  offset="1" style="stop-color:#ED1E79"/>
	</linearGradient>
	<path class="st22" d="M1849.8,37.49v23.13c-1.45-0.36-3.63-0.61-5.45-0.61c-13.44,0-22.17,8.36-22.17,22.17v20.59h-25.8V37.73
		h25.19v26.04h0.73c1.7-12.23,5.21-20.83,13.2-24.95c2.42-1.21,5.69-1.82,9.21-1.82C1846.41,37,1848.11,37.12,1849.8,37.49z"/>
	<linearGradient id="SVGID_24_" gradientUnits="userSpaceOnUse" x1="357.8736" y1="524.5463" x2="1916.826" y2="61.6492">
		<stop  offset="0" style="stop-color:#FF898C"/>
		<stop  offset="1" style="stop-color:#ED1E79"/>
	</linearGradient>
	<path class="st23" d="M1867.97,79.03c4.12,5.94,10.78,9.21,20.23,9.21c6.9,0,10.42-2.3,10.42-5.33c0-2.18-1.57-3.15-5.45-3.51
		c-6.3-0.61-12.23-0.97-17.32-1.57c-10.78-1.21-20.71-6.42-20.71-19.26c0-14.17,13.57-22.29,31.86-22.29
		c12.35,0,23.98,3.39,31.73,11.51l-12.23,11.75c-5.69-5.33-12.6-7.39-19.38-7.39c-5.45,0-9.08,1.94-9.08,4.6
		c0,1.94,1.33,3.03,4.84,3.39c5.21,0.48,10.78,1.09,15.38,1.57c12.96,1.33,23.13,6.3,23.13,19.14c0,15.02-12.96,23.38-34.16,23.38
		c-16.11,0-29.19-4.6-35-16.59L1867.97,79.03z"/>
	<linearGradient id="SVGID_25_" gradientUnits="userSpaceOnUse" x1="245.0963" y1="144.733" x2="1804.0487" y2="-318.1642">
		<stop  offset="0" style="stop-color:#FF898C"/>
		<stop  offset="1" style="stop-color:#ED1E79"/>
	</linearGradient>
	<path class="st24" d="M128.8,166.67l-17.44,65.04H81.69L70.9,192.22h-0.24l-11.51,39.49H30.21l-18.17-65.04h27.25l8.6,41.67h0.61
		l11.87-41.67h21.44l11.87,41.67h0.61l8.84-41.67H128.8z"/>
	<linearGradient id="SVGID_26_" gradientUnits="userSpaceOnUse" x1="250.7734" y1="163.8524" x2="1809.7257" y2="-299.0447">
		<stop  offset="0" style="stop-color:#FF898C"/>
		<stop  offset="1" style="stop-color:#ED1E79"/>
	</linearGradient>
	<path class="st25" d="M206.68,189.92v41.79h-25.8v-37.06c0-6.06-2.79-9.93-9.08-9.93c-5.57,0-10.42,3.03-10.42,12.48v34.52h-25.8
		v-88.42h25.8v38.64h0.61c2.66-9.81,9.69-16.72,22.29-16.72C198.57,165.21,206.68,173.45,206.68,189.92z"/>
	<linearGradient id="SVGID_27_" gradientUnits="userSpaceOnUse" x1="260.75" y1="197.4518" x2="1819.7024" y2="-265.4453">
		<stop  offset="0" style="stop-color:#FF898C"/>
		<stop  offset="1" style="stop-color:#ED1E79"/>
	</linearGradient>
	<path class="st26" d="M294.01,199.01c0,20.95-14.54,34.16-39.12,34.16s-39.12-13.2-39.12-34.16c0-20.95,15.02-33.79,39.12-33.79
		C279.11,165.21,294.01,178.05,294.01,199.01z M267.6,199.73c0-9.81-4.12-16.96-12.72-16.96c-8.48,0-12.84,7.03-12.84,16.96
		c0,10.05,4.36,15.99,12.84,15.99C263.24,215.72,267.6,209.79,267.6,199.73z"/>
	<linearGradient id="SVGID_28_" gradientUnits="userSpaceOnUse" x1="271.1512" y1="232.4813" x2="1830.1036" y2="-230.4158">
		<stop  offset="0" style="stop-color:#FF898C"/>
		<stop  offset="1" style="stop-color:#ED1E79"/>
	</linearGradient>
	<path class="st27" d="M450.38,166.67l-17.44,65.04h-29.68l-10.78-39.49h-0.24l-11.51,39.49h-28.95l-18.17-65.04h27.25l8.6,41.67
		h0.61l11.87-41.67h21.44l11.87,41.67h0.61l8.84-41.67H450.38z"/>
	<linearGradient id="SVGID_29_" gradientUnits="userSpaceOnUse" x1="280.713" y1="264.6837" x2="1839.6654" y2="-198.2135">
		<stop  offset="0" style="stop-color:#FF898C"/>
		<stop  offset="1" style="stop-color:#ED1E79"/>
	</linearGradient>
	<path class="st28" d="M532.01,214.15l-0.12,15.62c-3.75,1.7-10.54,3.15-16.59,3.15c-13.08,0-16.96-5.94-16.96-13.44v-1.94h-0.61
		c-3.51,8.6-11.51,15.62-24.1,15.62c-12.6,0-21.56-7.63-21.56-17.44c0-7.51,4.84-12.72,15.38-16.35c6.06-2.06,16.59-4.97,30.04-8.72
		v-0.12c0-4.97-4-7.75-10.05-7.75c-5.94,0-11.51,2.42-15.26,11.63l-19.5-6.66c6.78-16.96,19.99-22.41,37.18-22.41
		c22.17,0,33.43,10.54,33.43,25.68v17.32c0,2.3,0,6.18,4.48,6.18C528.86,214.51,530.44,214.39,532.01,214.15z M497.49,208.7v-10.05
		L484.65,203c-4.6,1.57-6.78,3.15-6.78,5.81c0,2.91,2.42,6.18,7.51,6.18C490.59,215,495.92,212.09,497.49,208.7z"/>
	<linearGradient id="SVGID_30_" gradientUnits="userSpaceOnUse" x1="286.7599" y1="285.0483" x2="1845.7123" y2="-177.8489">
		<stop  offset="0" style="stop-color:#FF898C"/>
		<stop  offset="1" style="stop-color:#ED1E79"/>
	</linearGradient>
	<path class="st29" d="M611.47,189.92v41.79h-25.8v-37.06c0-6.06-2.79-9.93-9.08-9.93c-5.57,0-10.42,3.03-10.42,12.48v34.52h-25.8
		v-65.04h24.95v16.11h0.73c2.91-9.93,9.69-17.56,23.01-17.56C603.35,165.21,611.47,173.45,611.47,189.92z"/>
	<linearGradient id="SVGID_31_" gradientUnits="userSpaceOnUse" x1="290.5774" y1="297.9049" x2="1849.5298" y2="-164.9922">
		<stop  offset="0" style="stop-color:#FF898C"/>
		<stop  offset="1" style="stop-color:#ED1E79"/>
	</linearGradient>
	<path class="st30" d="M631.45,166.67l10.54-18.77h11.14l0.36,18.77h16.96v17.81H653.5l-0.12,17.44
		c-0.12,7.15,1.33,11.02,9.08,11.02c2.54,0,5.33-0.24,8.12-0.85v18.65c-5.21,1.45-10.9,2.3-18.77,2.3c-20.11,0-24.1-8.24-24.1-17.81
		v-30.77h-9.45v-17.81H631.45z"/>
	<linearGradient id="SVGID_32_" gradientUnits="userSpaceOnUse" x1="298.1239" y1="323.3202" x2="1857.0763" y2="-139.5769">
		<stop  offset="0" style="stop-color:#FF898C"/>
		<stop  offset="1" style="stop-color:#ED1E79"/>
	</linearGradient>
	<path class="st31" d="M724.59,166.67l10.54-18.77h11.14l0.36,18.77h16.96v17.81h-16.96l-0.12,17.44
		c-0.12,7.15,1.33,11.02,9.08,11.02c2.54,0,5.33-0.24,8.12-0.85v18.65c-5.21,1.45-10.9,2.3-18.77,2.3c-20.11,0-24.1-8.24-24.1-17.81
		v-30.77h-9.45v-17.81H724.59z"/>
	<linearGradient id="SVGID_33_" gradientUnits="userSpaceOnUse" x1="305.6666" y1="348.7227" x2="1864.619" y2="-114.1744">
		<stop  offset="0" style="stop-color:#FF898C"/>
		<stop  offset="1" style="stop-color:#ED1E79"/>
	</linearGradient>
	<path class="st32" d="M848.38,199.01c0,20.95-14.54,34.16-39.12,34.16s-39.12-13.2-39.12-34.16c0-20.95,15.02-33.79,39.12-33.79
		C833.48,165.21,848.38,178.05,848.38,199.01z M821.97,199.73c0-9.81-4.12-16.96-12.72-16.96c-8.48,0-12.84,7.03-12.84,16.96
		c0,10.05,4.36,15.99,12.84,15.99C817.61,215.72,821.97,209.79,821.97,199.73z"/>
	<linearGradient id="SVGID_34_" gradientUnits="userSpaceOnUse" x1="311.7873" y1="369.336" x2="1870.7396" y2="-93.5612">
		<stop  offset="0" style="stop-color:#FF898C"/>
		<stop  offset="1" style="stop-color:#ED1E79"/>
	</linearGradient>
	<path class="st33" d="M973.38,199.13c0,21.92-12.35,34.04-29.31,34.04c-11.38,0-19.38-6.18-23.13-16.72h-0.48v15.26h-25.8v-88.42
		h25.8v38.88h0.48c3.75-10.9,11.75-16.96,23.38-16.96C960.66,165.21,973.38,177.2,973.38,199.13z M947.21,199.13
		c0-9.45-4.97-15.87-13.2-15.87c-7.99,0-13.57,6.06-13.57,15.02v1.82c0,9.45,5.69,15.02,13.45,15.02
		C942.25,215.12,947.21,208.82,947.21,199.13z"/>
	<linearGradient id="SVGID_35_" gradientUnits="userSpaceOnUse" x1="320.8125" y1="399.7314" x2="1879.7649" y2="-63.1658">
		<stop  offset="0" style="stop-color:#FF898C"/>
		<stop  offset="1" style="stop-color:#ED1E79"/>
	</linearGradient>
	<path class="st34" d="M1036.72,166.42v23.13c-1.45-0.36-3.63-0.61-5.45-0.61c-13.44,0-22.17,8.36-22.17,22.17v20.59h-25.8v-65.04
		h25.19v26.04h0.73c1.7-12.23,5.21-20.83,13.2-24.95c2.42-1.21,5.69-1.82,9.21-1.82C1033.33,165.94,1035.02,166.06,1036.72,166.42z"
		/>
	<linearGradient id="SVGID_36_" gradientUnits="userSpaceOnUse" x1="322.628" y1="405.8455" x2="1881.5803" y2="-57.0516">
		<stop  offset="0" style="stop-color:#FF898C"/>
		<stop  offset="1" style="stop-color:#ED1E79"/>
	</linearGradient>
	<path class="st35" d="M1071,143.29v17.68h-25.92v-17.68H1071z M1045.08,166.67h25.8v65.04h-25.8V166.67z"/>
	<linearGradient id="SVGID_37_" gradientUnits="userSpaceOnUse" x1="330.842" y1="433.5089" x2="1889.7944" y2="-29.3882">
		<stop  offset="0" style="stop-color:#FF898C"/>
		<stop  offset="1" style="stop-color:#ED1E79"/>
	</linearGradient>
	<path class="st36" d="M1155.54,189.92v41.79h-25.8v-37.06c0-6.06-2.79-9.93-9.08-9.93c-5.57,0-10.42,3.03-10.42,12.48v34.52h-25.8
		v-65.04h24.95v16.11h0.73c2.91-9.93,9.69-17.56,23.01-17.56C1147.42,165.21,1155.54,173.45,1155.54,189.92z"/>
	<linearGradient id="SVGID_38_" gradientUnits="userSpaceOnUse" x1="339.2755" y1="461.9112" x2="1898.2279" y2="-0.9859">
		<stop  offset="0" style="stop-color:#FF898C"/>
		<stop  offset="1" style="stop-color:#ED1E79"/>
	</linearGradient>
	<path class="st37" d="M1242.02,231.95c0,16.23-17.81,25.19-44.21,25.19c-22.04,0-30.52-6.42-30.52-13.81
		c0-6.18,5.69-8.72,13.69-9.21v-0.97c-11.02-0.36-16.96-5.09-16.96-12.96c0-8.12,6.54-14.05,18.29-15.87v-0.48
		c-9.69-3.51-15.14-9.69-15.14-17.81c0-12.6,12.96-20.83,35-20.83c5.69,0,10.78,0.61,15.14,1.57l1.33-20.11h22.65v0.61L1223,168.6
		c8.96,3.51,13.93,9.57,13.93,17.44c0,12.6-13.08,20.71-34.76,20.71c-4.48,0-8.48-0.36-12.23-0.97c-3.63,0.85-5.09,2.3-5.09,4.24
		c0,1.82,1.57,3.03,5.57,3.03h23.98C1231.97,213.06,1242.02,219.36,1242.02,231.95z M1219.49,237.4c0-2.54-2.3-3.27-8.12-3.27
		h-20.71c-4.12,0-5.33,1.82-5.33,3.88c0,4.12,5.09,6.42,15.75,6.42C1212.1,244.43,1219.49,242.01,1219.49,237.4z M1193.21,186.05
		c0,5.69,3.27,8.24,8.84,8.24c5.45,0,8.84-2.54,8.84-8.24c0-5.81-3.39-8.36-8.84-8.36C1196.72,177.69,1193.21,180.23,1193.21,186.05
		z"/>
	<linearGradient id="SVGID_39_" gradientUnits="userSpaceOnUse" x1="344.1295" y1="478.2589" x2="1903.0819" y2="15.3617">
		<stop  offset="0" style="stop-color:#FF898C"/>
		<stop  offset="1" style="stop-color:#ED1E79"/>
	</linearGradient>
	<path class="st38" d="M1292.4,166.67l10.54-18.77h11.14l0.36,18.77h16.96v17.81h-16.96l-0.12,17.44
		c-0.12,7.15,1.33,11.02,9.08,11.02c2.54,0,5.33-0.24,8.12-0.85v18.65c-5.21,1.45-10.9,2.3-18.77,2.3c-20.11,0-24.1-8.24-24.1-17.81
		v-30.77h-9.45v-17.81H1292.4z"/>
	<linearGradient id="SVGID_40_" gradientUnits="userSpaceOnUse" x1="348.5062" y1="492.9985" x2="1907.4586" y2="30.1014">
		<stop  offset="0" style="stop-color:#FF898C"/>
		<stop  offset="1" style="stop-color:#ED1E79"/>
	</linearGradient>
	<path class="st39" d="M1412.92,189.92v41.79h-25.8v-37.06c0-6.06-2.79-9.93-9.08-9.93c-5.57,0-10.42,3.03-10.42,12.48v34.52h-25.8
		v-88.42h25.8v38.64h0.61c2.66-9.81,9.69-16.72,22.29-16.72C1404.8,165.21,1412.92,173.45,1412.92,189.92z"/>
	<linearGradient id="SVGID_41_" gradientUnits="userSpaceOnUse" x1="358.3959" y1="526.3054" x2="1917.3483" y2="63.4082">
		<stop  offset="0" style="stop-color:#FF898C"/>
		<stop  offset="1" style="stop-color:#ED1E79"/>
	</linearGradient>
	<path class="st40" d="M1496.25,201.67l-48.21-0.12c0.48,8.96,4.36,13.44,12.84,13.44c6.3,0,11.99-2.3,14.17-11.02l20.71,5.81
		c-5.69,17.56-19.62,23.38-36.7,23.38c-23.62,0-37.06-12.84-37.06-33.07c0-20.95,14.9-34.88,37.79-34.88
		C1481.96,165.21,1496.49,178.42,1496.25,201.67z M1448.4,192.95h23.26c-1.45-7.63-5.33-10.78-11.14-10.78
		C1453.98,182.17,1449.86,185.44,1448.4,192.95z"/>
	<linearGradient id="SVGID_42_" gradientUnits="userSpaceOnUse" x1="359.9977" y1="531.6998" x2="1918.9501" y2="68.8026">
		<stop  offset="0" style="stop-color:#FF898C"/>
		<stop  offset="1" style="stop-color:#ED1E79"/>
	</linearGradient>
	<path class="st41" d="M1532.22,143.29v17.68h-25.92v-17.68H1532.22z M1506.3,166.67h25.8v65.04h-25.8V166.67z"/>
	<linearGradient id="SVGID_43_" gradientUnits="userSpaceOnUse" x1="366.3764" y1="553.1823" x2="1925.3289" y2="90.2851">
		<stop  offset="0" style="stop-color:#FF898C"/>
		<stop  offset="1" style="stop-color:#ED1E79"/>
	</linearGradient>
	<path class="st42" d="M1599.08,166.42v23.13c-1.45-0.36-3.63-0.61-5.45-0.61c-13.44,0-22.17,8.36-22.17,22.17v20.59h-25.8v-65.04
		h25.19v26.04h0.73c1.7-12.23,5.21-20.83,13.2-24.95c2.42-1.21,5.69-1.82,9.21-1.82C1595.69,165.94,1597.38,166.06,1599.08,166.42z"
		/>
	<linearGradient id="SVGID_44_" gradientUnits="userSpaceOnUse" x1="375.14" y1="582.6962" x2="1934.0924" y2="119.7991">
		<stop  offset="0" style="stop-color:#FF898C"/>
		<stop  offset="1" style="stop-color:#ED1E79"/>
	</linearGradient>
	<path class="st43" d="M1718.99,143.29v88.42h-25.8v-15.38h-0.48c-3.75,10.78-11.63,16.84-23.38,16.84
		c-16.23,0-29.07-11.87-29.07-33.91c0-21.8,12.35-34.04,29.43-34.04c11.39,0,19.38,6.3,23.01,16.72h0.48v-38.64H1718.99z
		 M1693.31,200.1v-1.82c0-9.33-5.81-15.02-13.57-15.02c-8.24,0-13.2,6.42-13.2,15.99c0,9.57,4.97,15.87,13.2,15.87
		C1687.74,215.12,1693.31,209.06,1693.31,200.1z"/>
	<linearGradient id="SVGID_45_" gradientUnits="userSpaceOnUse" x1="383.2535" y1="610.0211" x2="1942.2059" y2="147.124">
		<stop  offset="0" style="stop-color:#FF898C"/>
		<stop  offset="1" style="stop-color:#ED1E79"/>
	</linearGradient>
	<path class="st44" d="M1803.05,201.67l-48.21-0.12c0.48,8.96,4.36,13.44,12.84,13.44c6.3,0,11.99-2.3,14.17-11.02l20.71,5.81
		c-5.69,17.56-19.62,23.38-36.7,23.38c-23.62,0-37.06-12.84-37.06-33.07c0-20.95,14.9-34.88,37.79-34.88
		C1788.75,165.21,1803.29,178.42,1803.05,201.67z M1755.2,192.95h23.26c-1.45-7.63-5.33-10.78-11.14-10.78
		C1760.77,182.17,1756.65,185.44,1755.2,192.95z"/>
	<linearGradient id="SVGID_46_" gradientUnits="userSpaceOnUse" x1="389.4255" y1="630.8074" x2="1948.3779" y2="167.9103">
		<stop  offset="0" style="stop-color:#FF898C"/>
		<stop  offset="1" style="stop-color:#ED1E79"/>
	</linearGradient>
	<path class="st45" d="M1823.15,207.97c4.12,5.94,10.78,9.21,20.23,9.21c6.9,0,10.42-2.3,10.42-5.33c0-2.18-1.57-3.15-5.45-3.51
		c-6.3-0.61-12.23-0.97-17.32-1.57c-10.78-1.21-20.71-6.42-20.71-19.26c0-14.17,13.57-22.29,31.86-22.29
		c12.35,0,23.98,3.39,31.73,11.51l-12.23,11.75c-5.69-5.33-12.6-7.39-19.38-7.39c-5.45,0-9.08,1.94-9.08,4.6
		c0,1.94,1.33,3.03,4.84,3.39c5.21,0.48,10.78,1.09,15.38,1.57c12.96,1.33,23.13,6.3,23.13,19.14c0,15.02-12.96,23.38-34.16,23.38
		c-16.11,0-29.19-4.6-35-16.59L1823.15,207.97z"/>
	<linearGradient id="SVGID_47_" gradientUnits="userSpaceOnUse" x1="390.7532" y1="635.2788" x2="1949.7056" y2="172.3817">
		<stop  offset="0" style="stop-color:#FF898C"/>
		<stop  offset="1" style="stop-color:#ED1E79"/>
	</linearGradient>
	<path class="st46" d="M1911.81,143.29v17.68h-25.92v-17.68H1911.81z M1885.89,166.67h25.8v65.04h-25.8V166.67z"/>
	<linearGradient id="SVGID_48_" gradientUnits="userSpaceOnUse" x1="400.6098" y1="668.4741" x2="1959.5623" y2="205.5769">
		<stop  offset="0" style="stop-color:#FF898C"/>
		<stop  offset="1" style="stop-color:#ED1E79"/>
	</linearGradient>
	<path class="st47" d="M1999.02,231.95c0,16.23-17.81,25.19-44.21,25.19c-22.04,0-30.52-6.42-30.52-13.81
		c0-6.18,5.69-8.72,13.69-9.21v-0.97c-11.02-0.36-16.96-5.09-16.96-12.96c0-8.12,6.54-14.05,18.29-15.87v-0.48
		c-9.69-3.51-15.14-9.69-15.14-17.81c0-12.6,12.96-20.83,35-20.83c5.69,0,10.78,0.61,15.14,1.57l1.33-20.11h22.65v0.61L1980,168.6
		c8.96,3.51,13.93,9.57,13.93,17.44c0,12.6-13.08,20.71-34.76,20.71c-4.48,0-8.48-0.36-12.23-0.97c-3.63,0.85-5.09,2.3-5.09,4.24
		c0,1.82,1.57,3.03,5.57,3.03h23.98C1988.97,213.06,1999.02,219.36,1999.02,231.95z M1976.49,237.4c0-2.54-2.3-3.27-8.12-3.27
		h-20.71c-4.12,0-5.33,1.82-5.33,3.88c0,4.12,5.09,6.42,15.75,6.42C1969.1,244.43,1976.49,242.01,1976.49,237.4z M1950.21,186.05
		c0,5.69,3.27,8.24,8.84,8.24c5.45,0,8.84-2.54,8.84-8.24c0-5.81-3.39-8.36-8.84-8.36C1953.72,177.69,1950.21,180.23,1950.21,186.05
		z"/>
	<linearGradient id="SVGID_49_" gradientUnits="userSpaceOnUse" x1="405.4834" y1="684.8872" x2="1964.4358" y2="221.9901">
		<stop  offset="0" style="stop-color:#FF898C"/>
		<stop  offset="1" style="stop-color:#ED1E79"/>
	</linearGradient>
	<path class="st48" d="M2076.78,189.92v41.79h-25.8v-37.06c0-6.06-2.79-9.93-9.08-9.93c-5.57,0-10.42,3.03-10.42,12.48v34.52h-25.8
		v-65.04h24.95v16.11h0.73c2.91-9.93,9.69-17.56,23.01-17.56C2068.66,165.21,2076.78,173.45,2076.78,189.92z"/>
	<linearGradient id="SVGID_50_" gradientUnits="userSpaceOnUse" x1="411.82" y1="706.2278" x2="1970.7723" y2="243.3307">
		<stop  offset="0" style="stop-color:#FF898C"/>
		<stop  offset="1" style="stop-color:#ED1E79"/>
	</linearGradient>
	<path class="st49" d="M2099.55,207.97c4.12,5.94,10.78,9.21,20.23,9.21c6.9,0,10.42-2.3,10.42-5.33c0-2.18-1.57-3.15-5.45-3.51
		c-6.3-0.61-12.23-0.97-17.32-1.57c-10.78-1.21-20.71-6.42-20.71-19.26c0-14.17,13.57-22.29,31.86-22.29
		c12.35,0,23.98,3.39,31.73,11.51l-12.23,11.75c-5.69-5.33-12.6-7.39-19.38-7.39c-5.45,0-9.08,1.94-9.08,4.6
		c0,1.94,1.33,3.03,4.84,3.39c5.21,0.48,10.78,1.09,15.38,1.57c12.96,1.33,23.13,6.3,23.13,19.14c0,15.02-12.96,23.38-34.16,23.38
		c-16.11,0-29.19-4.6-35-16.59L2099.55,207.97z"/>
	<linearGradient id="SVGID_51_" gradientUnits="userSpaceOnUse" x1="280.4695" y1="263.8633" x2="1839.4219" y2="-199.0339">
		<stop  offset="0" style="stop-color:#FF898C"/>
		<stop  offset="1" style="stop-color:#ED1E79"/>
	</linearGradient>
	<path class="st50" d="M94.77,343.09l-0.12,15.62c-3.75,1.7-10.54,3.15-16.59,3.15c-13.08,0-16.96-5.94-16.96-13.44v-1.94h-0.61
		c-3.51,8.6-11.51,15.63-24.1,15.63c-12.6,0-21.56-7.63-21.56-17.44c0-7.51,4.84-12.72,15.38-16.35c6.06-2.06,16.59-4.97,30.04-8.72
		v-0.12c0-4.97-4-7.75-10.05-7.75c-5.94,0-11.51,2.42-15.26,11.63l-19.5-6.66c6.78-16.96,19.99-22.41,37.18-22.41
		c22.17,0,33.43,10.54,33.43,25.68v17.32c0,2.3,0,6.18,4.48,6.18C91.62,343.45,93.19,343.33,94.77,343.09z M60.25,337.64v-10.05
		l-12.84,4.36c-4.6,1.57-6.78,3.15-6.78,5.81c0,2.91,2.42,6.18,7.51,6.18C53.34,343.93,58.67,341.03,60.25,337.64z"/>
	<linearGradient id="SVGID_52_" gradientUnits="userSpaceOnUse" x1="286.5162" y1="284.2278" x2="1845.4686" y2="-178.6693">
		<stop  offset="0" style="stop-color:#FF898C"/>
		<stop  offset="1" style="stop-color:#ED1E79"/>
	</linearGradient>
	<path class="st51" d="M174.22,318.86v41.79h-25.8v-37.06c0-6.06-2.79-9.93-9.08-9.93c-5.57,0-10.42,3.03-10.42,12.48v34.52h-25.8
		V295.6h24.95v16.11h0.73c2.91-9.93,9.69-17.56,23.01-17.56C166.11,294.15,174.22,302.39,174.22,318.86z"/>
	<linearGradient id="SVGID_53_" gradientUnits="userSpaceOnUse" x1="292.2767" y1="303.628" x2="1851.2291" y2="-159.2691">
		<stop  offset="0" style="stop-color:#FF898C"/>
		<stop  offset="1" style="stop-color:#ED1E79"/>
	</linearGradient>
	<path class="st52" d="M262.03,272.23v88.42h-25.8v-15.38h-0.48c-3.75,10.78-11.63,16.84-23.38,16.84
		c-16.23,0-29.07-11.87-29.07-33.92c0-21.8,12.35-34.04,29.43-34.04c11.39,0,19.38,6.3,23.01,16.72h0.48v-38.64H262.03z
		 M236.36,329.04v-1.82c0-9.33-5.81-15.02-13.57-15.02c-8.24,0-13.2,6.42-13.2,15.99c0,9.57,4.97,15.87,13.2,15.87
		C230.78,344.05,236.36,338,236.36,329.04z"/>
	<linearGradient id="SVGID_54_" gradientUnits="userSpaceOnUse" x1="298.41" y1="324.2839" x2="1857.3624" y2="-138.6132">
		<stop  offset="0" style="stop-color:#FF898C"/>
		<stop  offset="1" style="stop-color:#ED1E79"/>
	</linearGradient>
	<path class="st53" d="M337.85,272.23v17.68h-25.92v-17.68H337.85z M311.93,295.6h25.8v65.04h-25.8V295.6z"/>
	<linearGradient id="SVGID_55_" gradientUnits="userSpaceOnUse" x1="301.5995" y1="335.0253" x2="1860.5519" y2="-127.8718">
		<stop  offset="0" style="stop-color:#FF898C"/>
		<stop  offset="1" style="stop-color:#ED1E79"/>
	</linearGradient>
	<path class="st54" d="M351.3,272.23h25.8v88.42h-25.8V272.23z"/>
	<linearGradient id="SVGID_56_" gradientUnits="userSpaceOnUse" x1="304.7888" y1="345.7666" x2="1863.7412" y2="-117.1305">
		<stop  offset="0" style="stop-color:#FF898C"/>
		<stop  offset="1" style="stop-color:#ED1E79"/>
	</linearGradient>
	<path class="st55" d="M390.66,272.23h25.8v88.42h-25.8V272.23z"/>
	<linearGradient id="SVGID_57_" gradientUnits="userSpaceOnUse" x1="312.9195" y1="373.1491" x2="1871.8719" y2="-89.748">
		<stop  offset="0" style="stop-color:#FF898C"/>
		<stop  offset="1" style="stop-color:#ED1E79"/>
	</linearGradient>
	<path class="st56" d="M500.04,295.6v65.04h-24.95v-16.23h-0.61c-3.03,9.93-9.81,17.68-23.13,17.68c-14.17,0-22.29-8.36-22.29-24.83
		V295.6h25.8v36.94c0,6.06,2.67,9.93,9.08,9.93c5.57,0,10.3-3.03,10.3-12.48v-34.4H500.04z"/>
	<linearGradient id="SVGID_58_" gradientUnits="userSpaceOnUse" x1="319.3199" y1="394.7043" x2="1878.2722" y2="-68.1928">
		<stop  offset="0" style="stop-color:#FF898C"/>
		<stop  offset="1" style="stop-color:#ED1E79"/>
	</linearGradient>
	<path class="st57" d="M523.65,336.91c4.12,5.94,10.78,9.21,20.23,9.21c6.9,0,10.42-2.3,10.42-5.33c0-2.18-1.57-3.15-5.45-3.51
		c-6.3-0.61-12.23-0.97-17.32-1.57c-10.78-1.21-20.71-6.42-20.71-19.26c0-14.17,13.57-22.29,31.86-22.29
		c12.35,0,23.98,3.39,31.73,11.51l-12.23,11.75c-5.69-5.33-12.6-7.39-19.38-7.39c-5.45,0-9.08,1.94-9.08,4.6
		c0,1.94,1.33,3.03,4.84,3.39c5.21,0.48,10.78,1.09,15.38,1.57c12.96,1.33,23.13,6.3,23.13,19.14c0,15.02-12.96,23.38-34.16,23.38
		c-16.11,0-29.19-4.6-35-16.59L523.65,336.91z"/>
	<linearGradient id="SVGID_59_" gradientUnits="userSpaceOnUse" x1="322.6988" y1="406.084" x2="1881.6511" y2="-56.8132">
		<stop  offset="0" style="stop-color:#FF898C"/>
		<stop  offset="1" style="stop-color:#ED1E79"/>
	</linearGradient>
	<path class="st58" d="M593.66,295.6l10.54-18.77h11.14l0.36,18.77h16.96v17.81H615.7l-0.12,17.44c-0.12,7.15,1.33,11.02,9.08,11.02
		c2.54,0,5.33-0.24,8.12-0.85v18.65c-5.21,1.45-10.9,2.3-18.77,2.3c-20.11,0-24.1-8.24-24.1-17.81v-30.77h-9.45V295.6H593.66z"/>
	<linearGradient id="SVGID_60_" gradientUnits="userSpaceOnUse" x1="328.4296" y1="425.3844" x2="1887.382" y2="-37.5128">
		<stop  offset="0" style="stop-color:#FF898C"/>
		<stop  offset="1" style="stop-color:#ED1E79"/>
	</linearGradient>
	<path class="st59" d="M696.49,295.36v23.13c-1.45-0.36-3.63-0.61-5.45-0.61c-13.44,0-22.17,8.36-22.17,22.17v20.59h-25.8V295.6
		h25.19v26.04H669c1.7-12.23,5.21-20.83,13.2-24.95c2.42-1.21,5.69-1.82,9.21-1.82C693.1,294.88,694.8,295,696.49,295.36z"/>
	<linearGradient id="SVGID_61_" gradientUnits="userSpaceOnUse" x1="335.9552" y1="450.7291" x2="1894.9076" y2="-12.168">
		<stop  offset="0" style="stop-color:#FF898C"/>
		<stop  offset="1" style="stop-color:#ED1E79"/>
	</linearGradient>
	<path class="st60" d="M779.58,343.09l-0.12,15.62c-3.75,1.7-10.54,3.15-16.59,3.15c-13.08,0-16.96-5.94-16.96-13.44v-1.94h-0.61
		c-3.51,8.6-11.51,15.63-24.1,15.63c-12.6,0-21.56-7.63-21.56-17.44c0-7.51,4.84-12.72,15.38-16.35c6.06-2.06,16.59-4.97,30.04-8.72
		v-0.12c0-4.97-4-7.75-10.05-7.75c-5.94,0-11.51,2.42-15.26,11.63l-19.5-6.66c6.78-16.96,19.99-22.41,37.18-22.41
		c22.17,0,33.43,10.54,33.43,25.68v17.32c0,2.3,0,6.18,4.48,6.18C776.43,343.45,778.01,343.33,779.58,343.09z M745.06,337.64v-10.05
		l-12.84,4.36c-4.6,1.57-6.78,3.15-6.78,5.81c0,2.91,2.42,6.18,7.51,6.18C738.16,343.93,743.49,341.03,745.06,337.64z"/>
	<linearGradient id="SVGID_62_" gradientUnits="userSpaceOnUse" x1="338.9796" y1="460.9149" x2="1897.932" y2="-1.9822">
		<stop  offset="0" style="stop-color:#FF898C"/>
		<stop  offset="1" style="stop-color:#ED1E79"/>
	</linearGradient>
	<path class="st61" d="M794.6,295.6l10.54-18.77h11.14l0.36,18.77h16.96v17.81h-16.96l-0.12,17.44c-0.12,7.15,1.33,11.02,9.08,11.02
		c2.54,0,5.33-0.24,8.12-0.85v18.65c-5.21,1.45-10.9,2.3-18.77,2.3c-20.11,0-24.1-8.24-24.1-17.81v-30.77h-9.45V295.6H794.6z"/>
	<linearGradient id="SVGID_63_" gradientUnits="userSpaceOnUse" x1="341.5211" y1="469.4739" x2="1900.4734" y2="6.5767">
		<stop  offset="0" style="stop-color:#FF898C"/>
		<stop  offset="1" style="stop-color:#ED1E79"/>
	</linearGradient>
	<path class="st62" d="M869.94,272.23v17.68h-25.92v-17.68H869.94z M844.02,295.6h25.8v65.04h-25.8V295.6z"/>
	<linearGradient id="SVGID_64_" gradientUnits="userSpaceOnUse" x1="349.7314" y1="497.1248" x2="1908.6838" y2="34.2277">
		<stop  offset="0" style="stop-color:#FF898C"/>
		<stop  offset="1" style="stop-color:#ED1E79"/>
	</linearGradient>
	<path class="st63" d="M957.99,327.95c0,20.95-14.54,34.16-39.12,34.16s-39.12-13.2-39.12-34.16c0-20.95,15.02-33.79,39.12-33.79
		C943.1,294.15,957.99,306.99,957.99,327.95z M931.59,328.67c0-9.81-4.12-16.96-12.72-16.96c-8.48,0-12.84,7.03-12.84,16.96
		c0,10.05,4.36,15.99,12.84,15.99C927.23,344.66,931.59,338.73,931.59,328.67z"/>
	<linearGradient id="SVGID_65_" gradientUnits="userSpaceOnUse" x1="356.585" y1="520.2065" x2="1915.5374" y2="57.3094">
		<stop  offset="0" style="stop-color:#FF898C"/>
		<stop  offset="1" style="stop-color:#ED1E79"/>
	</linearGradient>
	<path class="st64" d="M1039.02,318.86v41.79h-25.8v-37.06c0-6.06-2.79-9.93-9.08-9.93c-5.57,0-10.42,3.03-10.42,12.48v34.52h-25.8
		V295.6h24.95v16.11h0.73c2.91-9.93,9.69-17.56,23.01-17.56C1030.91,294.15,1039.02,302.39,1039.02,318.86z"/>
	<linearGradient id="SVGID_66_" gradientUnits="userSpaceOnUse" x1="362.9216" y1="541.5469" x2="1921.8739" y2="78.6498">
		<stop  offset="0" style="stop-color:#FF898C"/>
		<stop  offset="1" style="stop-color:#ED1E79"/>
	</linearGradient>
	<path class="st65" d="M1061.79,336.91c4.12,5.94,10.78,9.21,20.23,9.21c6.9,0,10.42-2.3,10.42-5.33c0-2.18-1.57-3.15-5.45-3.51
		c-6.3-0.61-12.23-0.97-17.32-1.57c-10.78-1.21-20.71-6.42-20.71-19.26c0-14.17,13.57-22.29,31.86-22.29
		c12.35,0,23.98,3.39,31.73,11.51l-12.23,11.75c-5.69-5.33-12.6-7.39-19.38-7.39c-5.45,0-9.08,1.94-9.08,4.6
		c0,1.94,1.33,3.03,4.84,3.39c5.21,0.48,10.78,1.09,15.38,1.57c12.96,1.33,23.13,6.3,23.13,19.14c0,15.02-12.96,23.38-34.16,23.38
		c-16.11,0-29.19-4.6-35-16.59L1061.79,336.91z"/>
	<linearGradient id="SVGID_67_" gradientUnits="userSpaceOnUse" x1="369.2544" y1="562.8746" x2="1928.2068" y2="99.9775">
		<stop  offset="0" style="stop-color:#FF898C"/>
		<stop  offset="1" style="stop-color:#ED1E79"/>
	</linearGradient>
	<path class="st66" d="M1168.26,295.6l10.54-18.77h11.14l0.36,18.77h16.96v17.81h-16.96l-0.12,17.44
		c-0.12,7.15,1.33,11.02,9.08,11.02c2.54,0,5.33-0.24,8.12-0.85v18.65c-5.21,1.45-10.9,2.3-18.77,2.3c-20.11,0-24.1-8.24-24.1-17.81
		v-30.77h-9.45V295.6H1168.26z"/>
	<linearGradient id="SVGID_68_" gradientUnits="userSpaceOnUse" x1="376.7971" y1="588.2771" x2="1935.7495" y2="125.38">
		<stop  offset="0" style="stop-color:#FF898C"/>
		<stop  offset="1" style="stop-color:#ED1E79"/>
	</linearGradient>
	<path class="st67" d="M1292.04,327.95c0,20.95-14.54,34.16-39.12,34.16s-39.12-13.2-39.12-34.16c0-20.95,15.02-33.79,39.12-33.79
		C1277.15,294.15,1292.04,306.99,1292.04,327.95z M1265.64,328.67c0-9.81-4.12-16.96-12.72-16.96c-8.48,0-12.84,7.03-12.84,16.96
		c0,10.05,4.36,15.99,12.84,15.99C1261.28,344.66,1265.64,338.73,1265.64,328.67z"/>
	<linearGradient id="SVGID_69_" gradientUnits="userSpaceOnUse" x1="381.5799" y1="604.3848" x2="1940.5323" y2="141.4877">
		<stop  offset="0" style="stop-color:#FF898C"/>
		<stop  offset="1" style="stop-color:#ED1E79"/>
	</linearGradient>
	<path class="st68" d="M1338.43,272.23h25.8v88.42h-25.8V272.23z"/>
	<linearGradient id="SVGID_70_" gradientUnits="userSpaceOnUse" x1="384.7693" y1="615.1261" x2="1943.7217" y2="152.229">
		<stop  offset="0" style="stop-color:#FF898C"/>
		<stop  offset="1" style="stop-color:#ED1E79"/>
	</linearGradient>
	<path class="st69" d="M1403.72,272.23v17.68h-25.92v-17.68H1403.72z M1377.8,295.6h25.8v65.04h-25.8V295.6z"/>
	<linearGradient id="SVGID_71_" gradientUnits="userSpaceOnUse" x1="388.8883" y1="628.9981" x2="1947.8407" y2="166.101">
		<stop  offset="0" style="stop-color:#FF898C"/>
		<stop  offset="1" style="stop-color:#ED1E79"/>
	</linearGradient>
	<path class="st70" d="M1462.46,313.41h-15.75v47.24h-25.8v-47.24h-9.69V295.6h9.69v-4.48c0-12.35,9.81-20.35,26.89-20.35
		c5.93,0,10.66,0.73,14.78,1.7v13.81c-2.18-0.12-4.72-0.24-6.54-0.24c-9.08,0-9.33,3.39-9.33,6.78v2.79h15.75V313.41z"/>
	<linearGradient id="SVGID_72_" gradientUnits="userSpaceOnUse" x1="397.0146" y1="656.3658" x2="1955.9669" y2="193.4686">
		<stop  offset="0" style="stop-color:#FF898C"/>
		<stop  offset="1" style="stop-color:#ED1E79"/>
	</linearGradient>
	<path class="st71" d="M1538.65,330.61l-48.21-0.12c0.48,8.96,4.36,13.44,12.84,13.44c6.3,0,11.99-2.3,14.17-11.02l20.71,5.81
		c-5.69,17.56-19.62,23.38-36.7,23.38c-23.62,0-37.06-12.84-37.06-33.07c0-20.95,14.9-34.88,37.79-34.88
		C1524.35,294.15,1538.89,307.35,1538.65,330.61z M1490.8,321.89h23.26c-1.45-7.63-5.33-10.78-11.14-10.78
		C1496.37,311.11,1492.26,314.38,1490.8,321.89z"/>
	<linearGradient id="SVGID_73_" gradientUnits="userSpaceOnUse" x1="407.0574" y1="690.1883" x2="1966.0098" y2="227.2912">
		<stop  offset="0" style="stop-color:#FF898C"/>
		<stop  offset="1" style="stop-color:#ED1E79"/>
	</linearGradient>
	<path class="st72" d="M1572.44,335.21v25.44H1547v-25.44H1572.44z"/>
</g>
</svg>
