<?xml version="1.0" encoding="utf-8"?>
<!-- Generator: Adobe Illustrator 25.1.0, SVG Export Plug-In . SVG Version: 6.00 Build 0)  -->
<svg version="1.1" id="Layer_1" xmlns="http://www.w3.org/2000/svg" xmlns:xlink="http://www.w3.org/1999/xlink" x="0px" y="0px"
	 viewBox="0 0 45 45" style="enable-background:new 0 0 45 45;" xml:space="preserve">
<style type="text/css">
	.st0{fill:#FFFFFF;}
</style>
<g>
	<g>
		<path class="st0" d="M40.57,42.58c-0.51,0-1.02-0.2-1.41-0.59L3.01,5.84c-0.78-0.78-0.78-2.05,0-2.83c0.78-0.78,2.05-0.78,2.83,0
			l36.15,36.15c0.78,0.78,0.78,2.05,0,2.83C41.6,42.38,41.09,42.58,40.57,42.58z"/>
	</g>
	<g>
		<path class="st0" d="M4.43,42.58c-0.51,0-1.02-0.2-1.41-0.59c-0.78-0.78-0.78-2.05,0-2.83L39.16,3.01c0.78-0.78,2.05-0.78,2.83,0
			c0.78,0.78,0.78,2.05,0,2.83L5.84,41.99C5.45,42.38,4.94,42.58,4.43,42.58z"/>
	</g>
</g>
</svg>
