<?xml version="1.0" encoding="utf-8"?>
<!-- Generator: Adobe Illustrator 25.1.0, SVG Export Plug-In . SVG Version: 6.00 Build 0)  -->
<svg version="1.1" id="Layer_1" xmlns="http://www.w3.org/2000/svg" xmlns:xlink="http://www.w3.org/1999/xlink" x="0px" y="0px"
	 viewBox="0 0 556.31 137.35" style="enable-background:new 0 0 556.31 137.35;" xml:space="preserve">
<style type="text/css">
	.st0{fill:#FFFFFF;}
</style>
<g>
	<g>
		<path class="st0" d="M52.08,57.53H36.34v47.24h-25.8V57.53H0.85V39.73h9.69v-4.48c0-12.35,9.81-20.35,26.89-20.35
			c5.93,0,10.66,0.73,14.78,1.7V30.4c-2.18-0.12-4.72-0.24-6.54-0.24c-9.08,0-9.33,3.39-9.33,6.78v2.79h15.75V57.53z"/>
		<path class="st0" d="M112.89,39.48v23.13c-1.45-0.36-3.63-0.61-5.45-0.61c-13.44,0-22.17,8.36-22.17,22.17v20.59h-25.8V39.73
			h25.19v26.04h0.73c1.7-12.23,5.21-20.83,13.2-24.95c2.42-1.21,5.69-1.82,9.21-1.82C109.5,39,111.19,39.12,112.89,39.48z"/>
		<path class="st0" d="M191.01,74.73l-48.21-0.12c0.48,8.96,4.36,13.44,12.84,13.44c6.3,0,11.99-2.3,14.17-11.02l20.71,5.81
			c-5.69,17.56-19.62,23.38-36.7,23.38c-23.62,0-37.06-12.84-37.06-33.07c0-20.95,14.9-34.88,37.79-34.88
			C176.72,38.27,191.25,51.47,191.01,74.73z M143.17,66.01h23.26c-1.45-7.63-5.33-10.78-11.14-10.78
			C148.74,55.23,144.62,58.5,143.17,66.01z"/>
		<path class="st0" d="M271.68,74.73l-48.21-0.12c0.48,8.96,4.36,13.44,12.84,13.44c6.3,0,11.99-2.3,14.17-11.02l20.71,5.81
			c-5.69,17.56-19.62,23.38-36.7,23.38c-23.62,0-37.06-12.84-37.06-33.07c0-20.95,14.9-34.88,37.79-34.88
			C257.38,38.27,271.92,51.47,271.68,74.73z M223.83,66.01h23.26c-1.45-7.63-5.33-10.78-11.14-10.78
			C229.4,55.23,225.29,58.5,223.83,66.01z"/>
		<path class="st0" d="M360.34,72.19c0,21.92-12.35,34.04-29.31,34.04c-11.38,0-19.38-6.18-23.13-16.72h-0.48v15.26h-25.8V16.35
			h25.8v38.88h0.48c3.75-10.9,11.75-16.96,23.38-16.96C347.62,38.27,360.34,50.26,360.34,72.19z M334.17,72.19
			c0-9.45-4.97-15.87-13.2-15.87c-7.99,0-13.57,6.06-13.57,15.02v1.82c0,9.45,5.69,15.02,13.45,15.02
			C329.21,88.18,334.17,81.88,334.17,72.19z"/>
		<path class="st0" d="M396.19,16.35v17.68h-25.92V16.35H396.19z M370.27,39.73h25.8v65.04h-25.8V39.73z"/>
		<path class="st0" d="M480.25,74.73l-48.21-0.12c0.48,8.96,4.36,13.44,12.84,13.44c6.3,0,11.99-2.3,14.17-11.02l20.71,5.81
			c-5.69,17.56-19.62,23.38-36.7,23.38c-23.62,0-37.06-12.84-37.06-33.07c0-20.95,14.9-34.88,37.79-34.88
			C465.95,38.27,480.49,51.47,480.25,74.73z M432.4,66.01h23.26c-1.45-7.63-5.33-10.78-11.14-10.78
			C437.97,55.23,433.85,58.5,432.4,66.01z"/>
		<path class="st0" d="M500.35,81.03c4.12,5.94,10.78,9.21,20.23,9.21c6.9,0,10.42-2.3,10.42-5.33c0-2.18-1.57-3.15-5.45-3.51
			c-6.3-0.61-12.23-0.97-17.32-1.57c-10.78-1.21-20.71-6.42-20.71-19.26c0-14.17,13.57-22.29,31.86-22.29
			c12.35,0,23.98,3.39,31.73,11.51l-12.23,11.75c-5.69-5.33-12.6-7.39-19.38-7.39c-5.45,0-9.08,1.94-9.08,4.6
			c0,1.94,1.33,3.03,4.84,3.39c5.21,0.48,10.78,1.09,15.38,1.57c12.96,1.33,23.13,6.3,23.13,19.14c0,15.02-12.96,23.38-34.16,23.38
			c-16.11,0-29.19-4.6-35-16.59L500.35,81.03z"/>
	</g>
</g>
</svg>
