<?xml version="1.0" encoding="utf-8"?>
<!-- Generator: Adobe Illustrator 25.2.0, SVG Export Plug-In . SVG Version: 6.00 Build 0)  -->
<svg version="1.1" id="Layer_1" xmlns="http://www.w3.org/2000/svg" xmlns:xlink="http://www.w3.org/1999/xlink" x="0px" y="0px"
	 viewBox="0 0 960 160" style="enable-background:new 0 0 960 160;" xml:space="preserve">
<style type="text/css">
	.st0{fill:url(#SVGID_1_);}
	.st1{fill:url(#SVGID_2_);}
	.st2{fill:url(#SVGID_3_);}
	.st3{fill:url(#SVGID_4_);}
	.st4{fill:url(#SVGID_5_);}
	.st5{fill:url(#SVGID_6_);}
	.st6{fill:url(#SVGID_7_);}
	.st7{fill:url(#SVGID_8_);}
	.st8{fill:url(#SVGID_9_);}
	.st9{fill:url(#SVGID_10_);}
	.st10{fill:url(#SVGID_11_);}
	.st11{fill:url(#SVGID_12_);}
	.st12{fill:url(#SVGID_13_);}
	.st13{fill:url(#SVGID_14_);}
	.st14{fill:url(#SVGID_15_);}
	.st15{fill:url(#SVGID_16_);}
	.st16{fill:url(#SVGID_17_);}
	.st17{fill:url(#SVGID_18_);}
	.st18{fill:url(#SVGID_19_);}
	.st19{fill:url(#SVGID_20_);}
	.st20{fill:url(#SVGID_21_);}
	.st21{fill:url(#SVGID_22_);}
	.st22{fill:url(#SVGID_23_);}
	.st23{fill:url(#SVGID_24_);}
	.st24{fill:url(#SVGID_25_);}
	.st25{fill:url(#SVGID_26_);}
	.st26{fill:url(#SVGID_27_);}
	.st27{fill:url(#SVGID_28_);}
	.st28{fill:url(#SVGID_29_);}
	.st29{fill:url(#SVGID_30_);}
	.st30{fill:url(#SVGID_31_);}
	.st31{fill:url(#SVGID_32_);}
	.st32{fill:url(#SVGID_33_);}
	.st33{fill:url(#SVGID_34_);}
	.st34{fill:url(#SVGID_35_);}
	.st35{fill:url(#SVGID_36_);}
	.st36{fill:url(#SVGID_37_);}
</style>
<g>
	
		<linearGradient id="SVGID_1_" gradientUnits="userSpaceOnUse" x1="10.4529" y1="114.6766" x2="880.2498" y2="288.636" gradientTransform="matrix(1 0 0 -1 0 162)">
		<stop  offset="0" style="stop-color:#FF898C"/>
		<stop  offset="1" style="stop-color:#ED1E79"/>
	</linearGradient>
	<path class="st0" d="M52.9,56H30.1l-4.2,11.1H9.3l22.1-56.5h20.8l22.5,56.5H57L52.9,56z M48.5,43.8l-6.6-18h-0.5l-6.7,18H48.5z"/>
	
		<linearGradient id="SVGID_2_" gradientUnits="userSpaceOnUse" x1="12.9464" y1="102.2093" x2="882.7433" y2="276.1687" gradientTransform="matrix(1 0 0 -1 0 162)">
		<stop  offset="0" style="stop-color:#FF898C"/>
		<stop  offset="1" style="stop-color:#ED1E79"/>
	</linearGradient>
	<path class="st1" d="M126.2,10.5V67h-16.5v-9.8h-0.3C107,64.1,101.9,68,94.4,68c-10.4,0-18.6-7.6-18.6-21.7
		c0-13.9,7.9-21.8,18.8-21.8c7.3,0,12.4,4,14.7,10.7h0.3V10.5H126.2z M109.8,46.8v-1.2c0-6-3.7-9.6-8.7-9.6c-5.3,0-8.4,4.1-8.4,10.2
		s3.2,10.1,8.4,10.1C106.2,56.5,109.8,52.6,109.8,46.8z"/>
	
		<linearGradient id="SVGID_3_" gradientUnits="userSpaceOnUse" x1="15.9032" y1="87.4254" x2="885.7001" y2="261.3847" gradientTransform="matrix(1 0 0 -1 0 162)">
		<stop  offset="0" style="stop-color:#FF898C"/>
		<stop  offset="1" style="stop-color:#ED1E79"/>
	</linearGradient>
	<path class="st2" d="M182.4,46.2c0,13.4-9.3,21.8-25,21.8s-25-8.4-25-21.8s9.6-21.6,25-21.6C172.9,24.5,182.4,32.8,182.4,46.2z
		 M165.6,46.6c0-6.3-2.6-10.8-8.1-10.8c-5.4,0-8.2,4.5-8.2,10.8c0,6.4,2.8,10.2,8.2,10.2C162.8,56.8,165.6,53,165.6,46.6z"/>
	
		<linearGradient id="SVGID_4_" gradientUnits="userSpaceOnUse" x1="16.4066" y1="84.9085" x2="886.2035" y2="258.8679" gradientTransform="matrix(1 0 0 -1 0 162)">
		<stop  offset="0" style="stop-color:#FF898C"/>
		<stop  offset="1" style="stop-color:#ED1E79"/>
	</linearGradient>
	<path class="st3" d="M239,46.2c0,14-7.9,21.7-18.7,21.7c-7.3,0-12.4-3.9-14.8-10.7h-0.3V67h-16.5V10.5h16.5v24.8h0.3
		c2.4-7,7.5-10.8,14.9-10.8C230.9,24.5,239,32.2,239,46.2z M222.3,46.2c0-6-3.2-10.1-8.4-10.1c-5.1,0-8.7,3.9-8.7,9.6v1.2
		c0,6,3.6,9.6,8.6,9.6C219.1,56.5,222.3,52.4,222.3,46.2z"/>
	
		<linearGradient id="SVGID_5_" gradientUnits="userSpaceOnUse" x1="20.1299" y1="66.2919" x2="889.9268" y2="240.2513" gradientTransform="matrix(1 0 0 -1 0 162)">
		<stop  offset="0" style="stop-color:#FF898C"/>
		<stop  offset="1" style="stop-color:#ED1E79"/>
	</linearGradient>
	<path class="st4" d="M290.5,47.8l-30.8-0.1c0.3,5.7,2.8,8.6,8.2,8.6c4,0,7.7-1.5,9.1-7l13.2,3.7C286.6,64.3,277.7,68,266.7,68
		c-15.1,0-23.7-8.2-23.7-21.1c0-13.4,9.5-22.3,24.1-22.3C281.4,24.5,290.7,33,290.5,47.8z M259.9,42.3h14.9
		c-0.9-4.9-3.4-6.9-7.1-6.9C263.5,35.4,260.9,37.5,259.9,42.3z"/>
	
		<linearGradient id="SVGID_6_" gradientUnits="userSpaceOnUse" x1="21.0668" y1="61.6074" x2="890.8637" y2="235.5668" gradientTransform="matrix(1 0 0 -1 0 162)">
		<stop  offset="0" style="stop-color:#FF898C"/>
		<stop  offset="1" style="stop-color:#ED1E79"/>
	</linearGradient>
	<path class="st5" d="M320.8,10.5h16.6V67h-16.6V10.5z"/>
	
		<linearGradient id="SVGID_7_" gradientUnits="userSpaceOnUse" x1="22.0568" y1="56.6574" x2="891.8536" y2="230.6167" gradientTransform="matrix(1 0 0 -1 0 162)">
		<stop  offset="0" style="stop-color:#FF898C"/>
		<stop  offset="1" style="stop-color:#ED1E79"/>
	</linearGradient>
	<path class="st6" d="M346.5,10.5H363V67h-16.5V10.5z"/>
	
		<linearGradient id="SVGID_8_" gradientUnits="userSpaceOnUse" x1="23.0245" y1="51.8189" x2="892.8214" y2="225.7783" gradientTransform="matrix(1 0 0 -1 0 162)">
		<stop  offset="0" style="stop-color:#FF898C"/>
		<stop  offset="1" style="stop-color:#ED1E79"/>
	</linearGradient>
	<path class="st7" d="M371.7,10.5h16.5V67h-16.5V10.5z"/>
	
		<linearGradient id="SVGID_9_" gradientUnits="userSpaceOnUse" x1="25.9597" y1="37.143" x2="895.7565" y2="211.1023" gradientTransform="matrix(1 0 0 -1 0 162)">
		<stop  offset="0" style="stop-color:#FF898C"/>
		<stop  offset="1" style="stop-color:#ED1E79"/>
	</linearGradient>
	<path class="st8" d="M441.6,25.5v41.6h-16V56.7h-0.4C423.3,63,419,68,410.5,68c-9.1,0-14.2-5.3-14.2-15.9V25.5h16.5v23.6
		c0,3.9,1.7,6.3,5.8,6.3c3.6,0,6.6-1.9,6.6-8v-22H441.6z"/>
	
		<linearGradient id="SVGID_10_" gradientUnits="userSpaceOnUse" x1="27.8966" y1="27.4584" x2="897.6935" y2="201.4178" gradientTransform="matrix(1 0 0 -1 0 162)">
		<stop  offset="0" style="stop-color:#FF898C"/>
		<stop  offset="1" style="stop-color:#ED1E79"/>
	</linearGradient>
	<path class="st9" d="M456.7,51.9c2.6,3.8,6.9,5.9,12.9,5.9c4.4,0,6.7-1.5,6.7-3.4c0-1.4-1-2-3.5-2.2c-4-0.4-7.8-0.6-11.1-1
		c-6.9-0.8-13.2-4.1-13.2-12.3c0-9.1,8.7-14.2,20.4-14.2c7.9,0,15.3,2.2,20.3,7.4l-7.8,7.5c-3.6-3.4-8-4.7-12.4-4.7
		c-3.5,0-5.8,1.2-5.8,2.9c0,1.2,0.9,1.9,3.1,2.2c3.3,0.3,6.9,0.7,9.8,1c8.3,0.8,14.8,4,14.8,12.2c0,9.6-8.3,14.9-21.8,14.9
		c-10.3,0-18.7-2.9-22.4-10.6L456.7,51.9z"/>
	
		<linearGradient id="SVGID_11_" gradientUnits="userSpaceOnUse" x1="28.5406" y1="24.2382" x2="898.3375" y2="198.1976" gradientTransform="matrix(1 0 0 -1 0 162)">
		<stop  offset="0" style="stop-color:#FF898C"/>
		<stop  offset="1" style="stop-color:#ED1E79"/>
	</linearGradient>
	<path class="st10" d="M501.4,25.5l6.7-12h7.1l0.2,12h10.8v11.4h-10.8L515.4,48c-0.1,4.6,0.8,7,5.8,7c1.6,0,3.4-0.2,5.2-0.5v11.9
		c-3.3,0.9-7,1.5-12,1.5c-12.9,0-15.4-5.3-15.4-11.4V36.9h-6V25.5H501.4z"/>
	
		<linearGradient id="SVGID_12_" gradientUnits="userSpaceOnUse" x1="30.6652" y1="13.615" x2="900.4621" y2="187.5744" gradientTransform="matrix(1 0 0 -1 0 162)">
		<stop  offset="0" style="stop-color:#FF898C"/>
		<stop  offset="1" style="stop-color:#ED1E79"/>
	</linearGradient>
	<path class="st11" d="M567.2,25.3v14.8c-0.9-0.2-2.3-0.4-3.5-0.4c-8.6,0-14.2,5.3-14.2,14.2v13.2H533V25.5h16.1v16.6h0.5
		c1.1-7.8,3.3-13.3,8.4-16c1.5-0.8,3.6-1.2,5.9-1.2C565,25,566.1,25.1,567.2,25.3z"/>
	
		<linearGradient id="SVGID_13_" gradientUnits="userSpaceOnUse" x1="32.949" y1="2.1963" x2="902.746" y2="176.1557" gradientTransform="matrix(1 0 0 -1 0 162)">
		<stop  offset="0" style="stop-color:#FF898C"/>
		<stop  offset="1" style="stop-color:#ED1E79"/>
	</linearGradient>
	<path class="st12" d="M620.3,55.8l-0.1,10c-2.4,1.1-6.7,2-10.6,2c-8.4,0-10.8-3.8-10.8-8.6V58h-0.4c-2.2,5.5-7.3,10-15.4,10
		c-8,0-13.8-4.9-13.8-11.2c0-4.8,3.1-8.1,9.8-10.5c3.9-1.3,10.6-3.2,19.2-5.6v-0.1c0-3.2-2.5-5-6.4-5c-3.8,0-7.3,1.5-9.8,7.4
		L569.6,39c4.3-10.8,12.8-14.3,23.8-14.3c14.2,0,21.4,6.7,21.4,16.4v11.1c0,1.5,0,4,2.9,4C618.2,56.1,619.3,56,620.3,55.8z
		 M598.2,52.3v-6.4l-8.2,2.8c-2.9,1-4.3,2-4.3,3.7c0,1.9,1.5,4,4.8,4C593.8,56.4,597.2,54.5,598.2,52.3z"/>
	
		<linearGradient id="SVGID_14_" gradientUnits="userSpaceOnUse" x1="33.4798" y1="-0.4579" x2="903.2767" y2="173.5014" gradientTransform="matrix(1 0 0 -1 0 162)">
		<stop  offset="0" style="stop-color:#FF898C"/>
		<stop  offset="1" style="stop-color:#ED1E79"/>
	</linearGradient>
	<path class="st13" d="M629.9,25.5l6.7-12h7.1l0.2,12h10.8v11.4h-10.8L643.9,48c-0.1,4.6,0.8,7,5.8,7c1.6,0,3.4-0.2,5.2-0.5v11.9
		c-3.3,0.9-7,1.5-12,1.5c-12.8,0-15.4-5.3-15.4-11.4V36.9h-6V25.5H629.9z"/>
	
		<linearGradient id="SVGID_15_" gradientUnits="userSpaceOnUse" x1="36.1547" y1="-13.8323" x2="905.9516" y2="160.1271" gradientTransform="matrix(1 0 0 -1 0 162)">
		<stop  offset="0" style="stop-color:#FF898C"/>
		<stop  offset="1" style="stop-color:#ED1E79"/>
	</linearGradient>
	<path class="st14" d="M709,46.2c0,13.4-9.3,21.8-25,21.8s-25-8.4-25-21.8s9.6-21.6,25-21.6C699.5,24.5,709,32.8,709,46.2z
		 M692.1,46.6c0-6.3-2.6-10.8-8.1-10.8c-5.4,0-8.2,4.5-8.2,10.8c0,6.4,2.8,10.2,8.2,10.2C689.3,56.8,692.1,53,692.1,46.6z"/>
	
		<linearGradient id="SVGID_16_" gradientUnits="userSpaceOnUse" x1="37.6768" y1="-21.4426" x2="907.4736" y2="152.5167" gradientTransform="matrix(1 0 0 -1 0 162)">
		<stop  offset="0" style="stop-color:#FF898C"/>
		<stop  offset="1" style="stop-color:#ED1E79"/>
	</linearGradient>
	<path class="st15" d="M749.5,25.3v14.8c-0.9-0.2-2.3-0.4-3.5-0.4c-8.6,0-14.2,5.3-14.2,14.2v13.2h-16.5V25.5h16.1v16.6h0.5
		c1.1-7.8,3.3-13.3,8.4-16c1.5-0.8,3.6-1.2,5.9-1.2C747.3,25,748.4,25.1,749.5,25.3z"/>
	
		<linearGradient id="SVGID_17_" gradientUnits="userSpaceOnUse" x1="39.8785" y1="-32.4512" x2="909.6755" y2="141.5081" gradientTransform="matrix(1 0 0 -1 0 162)">
		<stop  offset="0" style="stop-color:#FF898C"/>
		<stop  offset="1" style="stop-color:#ED1E79"/>
	</linearGradient>
	<path class="st16" d="M839.5,54.3V67c-1.8,0.5-6.4,0.7-8.9,0.7c-6.8,0-10.6-1.9-14.4-5.2c-4.7,3.2-10.9,5.5-19,5.5
		c-13.2,0-21.4-6.6-21.4-16.9c0-6.8,4.4-12.6,13.2-16l1.1-0.5c-2.7-3.7-4.3-6.9-4.3-10.5c0-6.9,5.7-14.5,19.1-14.5
		c10.5,0,17.4,5.3,17.4,13.6c0,5-3,9.4-12.2,13.9c2,2.2,3.9,4,7,7.1c3.4-4,7.2-8.6,9.4-12l9.9,7.3c-3.1,4.6-6.8,9.3-9.9,13.1
		c2.8,1.4,6.3,1.9,11,1.9C838.2,54.5,838.9,54.4,839.5,54.3z M800.1,55c2.6,0,5-0.6,7-1.6c-5.9-6-7.8-8-9.8-10.1
		c-3.4,1.7-4.8,3.2-4.8,5.7C792.5,52.5,795.2,55,800.1,55z M803,29.4c0.8-0.3,1.5-0.6,2.1-0.9c2.9-1.3,3.9-3.2,3.9-4.6
		c0-2-1.9-3.6-4.6-3.6c-2.9,0-4.7,1.5-4.7,3.5C799.7,25.2,800.9,26.9,803,29.4z"/>
	
		<linearGradient id="SVGID_18_" gradientUnits="userSpaceOnUse" x1="26.3011" y1="35.4362" x2="896.0979" y2="209.3955" gradientTransform="matrix(1 0 0 -1 0 162)">
		<stop  offset="0" style="stop-color:#FF898C"/>
		<stop  offset="1" style="stop-color:#ED1E79"/>
	</linearGradient>
	<path class="st17" d="M52.9,138.4H30.1l-4.2,11.1H9.3l22.1-56.5h20.8l22.5,56.5H57L52.9,138.4z M48.5,126.2l-6.6-18h-0.5l-6.7,18
		H48.5z"/>
	
		<linearGradient id="SVGID_19_" gradientUnits="userSpaceOnUse" x1="27.8736" y1="27.5731" x2="897.6705" y2="201.5324" gradientTransform="matrix(1 0 0 -1 0 162)">
		<stop  offset="0" style="stop-color:#FF898C"/>
		<stop  offset="1" style="stop-color:#ED1E79"/>
	</linearGradient>
	<path class="st18" d="M107.5,119.3H97.4v30.2H81v-30.2h-6.2v-11.4H81V105c0-7.9,6.3-13,17.2-13c3.8,0,6.8,0.5,9.4,1.1v8.8
		c-1.4-0.1-3-0.2-4.2-0.2c-5.8,0-6,2.2-6,4.3v1.8h10.1L107.5,119.3L107.5,119.3z"/>
	
		<linearGradient id="SVGID_20_" gradientUnits="userSpaceOnUse" x1="29.6037" y1="18.9228" x2="899.4007" y2="192.8822" gradientTransform="matrix(1 0 0 -1 0 162)">
		<stop  offset="0" style="stop-color:#FF898C"/>
		<stop  offset="1" style="stop-color:#ED1E79"/>
	</linearGradient>
	<path class="st19" d="M117,107.9l6.7-12h7.1l0.2,12h10.8v11.4h-10.8l-0.1,11.2c-0.1,4.6,0.9,7,5.8,7c1.6,0,3.4-0.1,5.2-0.5v11.9
		c-3.3,0.9-7,1.5-12,1.5c-12.8,0-15.4-5.3-15.4-11.4v-19.7h-6v-11.4C108.6,107.9,117,107.9,117,107.9z"/>
	
		<linearGradient id="SVGID_21_" gradientUnits="userSpaceOnUse" x1="32.2506" y1="5.6881" x2="902.0476" y2="179.6475" gradientTransform="matrix(1 0 0 -1 0 162)">
		<stop  offset="0" style="stop-color:#FF898C"/>
		<stop  offset="1" style="stop-color:#ED1E79"/>
	</linearGradient>
	<path class="st20" d="M193.6,130.3l-30.8-0.1c0.3,5.7,2.8,8.6,8.2,8.6c4,0,7.7-1.5,9.1-7l13.2,3.7c-3.6,11.2-12.5,14.9-23.5,14.9
		c-15.1,0-23.7-8.2-23.7-21.1c0-13.4,9.5-22.3,24.1-22.3C184.4,107,193.7,115.4,193.6,130.3z M163,124.7h14.9
		c-0.9-4.9-3.4-6.9-7.1-6.9C166.6,117.8,163.9,119.9,163,124.7z"/>
	
		<linearGradient id="SVGID_22_" gradientUnits="userSpaceOnUse" x1="33.7034" y1="-1.5753" x2="903.5002" y2="172.3841" gradientTransform="matrix(1 0 0 -1 0 162)">
		<stop  offset="0" style="stop-color:#FF898C"/>
		<stop  offset="1" style="stop-color:#ED1E79"/>
	</linearGradient>
	<path class="st21" d="M234.1,107.7v14.8c-0.9-0.2-2.3-0.4-3.5-0.4c-8.6,0-14.2,5.3-14.2,14.2v13.2H200v-41.6h16.1v16.6h0.5
		c1.1-7.8,3.3-13.3,8.4-15.9c1.6-0.8,3.6-1.2,5.9-1.2C232,107.4,233.1,107.5,234.1,107.7z"/>
	
		<linearGradient id="SVGID_23_" gradientUnits="userSpaceOnUse" x1="35.3054" y1="-9.5859" x2="905.1024" y2="164.3735" gradientTransform="matrix(1 0 0 -1 0 162)">
		<stop  offset="0" style="stop-color:#FF898C"/>
		<stop  offset="1" style="stop-color:#ED1E79"/>
	</linearGradient>
	<path class="st22" d="M311.1,135.9v13.6h-47.8V92.9h46.2v13.6h-29.6v8.8h23.7v11.6h-23.7v9.1L311.1,135.9L311.1,135.9z"/>
	
		<linearGradient id="SVGID_24_" gradientUnits="userSpaceOnUse" x1="37.6159" y1="-21.1378" x2="907.4128" y2="152.8216" gradientTransform="matrix(1 0 0 -1 0 162)">
		<stop  offset="0" style="stop-color:#FF898C"/>
		<stop  offset="1" style="stop-color:#ED1E79"/>
	</linearGradient>
	<path class="st23" d="M364.9,106.1v1.8H375v11.4h-10.1v30.2h-16.5v-30.2h-11.8v30.2h-16.5v-30.2h-6.2v-11.4h6.2V105
		c0-7.9,6.3-13,17.3-13c2.8,0,5.7,0.4,7.9,1v8.9c-0.7-0.1-2-0.2-2.6-0.2c-5.5,0-6,1.7-6,4.3v1.8h11.8V105c0-7.9,6.3-13,17.3-13
		c3.9,0,6.7,0.5,9.4,1.1v8.8c-1.5-0.1-2.9-0.2-4.1-0.2C365.4,101.8,364.9,103.5,364.9,106.1z"/>
	
		<linearGradient id="SVGID_25_" gradientUnits="userSpaceOnUse" x1="41.099" y1="-38.5542" x2="910.8959" y2="135.4052" gradientTransform="matrix(1 0 0 -1 0 162)">
		<stop  offset="0" style="stop-color:#FF898C"/>
		<stop  offset="1" style="stop-color:#ED1E79"/>
	</linearGradient>
	<path class="st24" d="M423.6,130.3l-30.8-0.1c0.3,5.7,2.8,8.6,8.2,8.6c4,0,7.7-1.5,9.1-7l13.2,3.7c-3.6,11.2-12.5,14.9-23.5,14.9
		c-15.1,0-23.7-8.2-23.7-21.1c0-13.4,9.5-22.3,24.1-22.3C414.5,107,423.8,115.4,423.6,130.3z M393.1,124.7h14.9
		c-0.9-4.9-3.4-6.9-7.1-6.9C396.6,117.8,394,119.9,393.1,124.7z"/>
	
		<linearGradient id="SVGID_26_" gradientUnits="userSpaceOnUse" x1="43.0667" y1="-48.3922" x2="912.8636" y2="125.5672" gradientTransform="matrix(1 0 0 -1 0 162)">
		<stop  offset="0" style="stop-color:#FF898C"/>
		<stop  offset="1" style="stop-color:#ED1E79"/>
	</linearGradient>
	<path class="st25" d="M451,150.4c-14.6,0-23.3-8.6-23.3-21.1c0-13.8,10.4-22.3,24-22.3c12.2,0,20.4,6.7,22.2,16.4l-12.8,3.1
		c-1.2-5-4-8.1-8.5-8.1c-4.8,0-8.1,3.2-8.1,10.3c0,7.3,3.3,10.1,8.1,10.1c5,0,8-3.2,8.9-8.8l13.7,1.7
		C473.6,142.6,465.5,150.4,451,150.4z"/>
	
		<linearGradient id="SVGID_27_" gradientUnits="userSpaceOnUse" x1="43.7694" y1="-51.906" x2="913.5663" y2="122.0534" gradientTransform="matrix(1 0 0 -1 0 162)">
		<stop  offset="0" style="stop-color:#FF898C"/>
		<stop  offset="1" style="stop-color:#ED1E79"/>
	</linearGradient>
	<path class="st26" d="M485.3,107.9l6.7-12h7.1l0.2,12h10.8v11.4h-10.8l-0.1,11.2c-0.1,4.6,0.9,7,5.8,7c1.6,0,3.4-0.1,5.2-0.5v11.9
		c-3.3,0.9-7,1.5-12,1.5c-12.9,0-15.4-5.3-15.4-11.4v-19.7h-6v-11.4C476.9,107.9,485.3,107.9,485.3,107.9z"/>
	
		<linearGradient id="SVGID_28_" gradientUnits="userSpaceOnUse" x1="46.3062" y1="-64.5897" x2="916.1031" y2="109.3697" gradientTransform="matrix(1 0 0 -1 0 162)">
		<stop  offset="0" style="stop-color:#FF898C"/>
		<stop  offset="1" style="stop-color:#ED1E79"/>
	</linearGradient>
	<path class="st27" d="M523.3,134.3c2.6,3.8,6.9,5.9,12.9,5.9c4.4,0,6.7-1.5,6.7-3.4c0-1.4-1-2-3.5-2.2c-4-0.4-7.8-0.6-11.1-1
		c-6.9-0.8-13.2-4.1-13.2-12.3c0-9.1,8.7-14.2,20.4-14.2c7.9,0,15.3,2.2,20.3,7.3l-7.8,7.5c-3.6-3.4-8-4.7-12.4-4.7
		c-3.5,0-5.8,1.2-5.8,2.9c0,1.2,0.8,1.9,3.1,2.2c3.3,0.3,6.9,0.7,9.8,1c8.3,0.8,14.8,4,14.8,12.2c0,9.6-8.3,14.9-21.8,14.9
		c-10.3,0-18.7-2.9-22.4-10.6L523.3,134.3z"/>
	
		<linearGradient id="SVGID_29_" gradientUnits="userSpaceOnUse" x1="47.8483" y1="-72.3003" x2="917.6453" y2="101.6591" gradientTransform="matrix(1 0 0 -1 0 162)">
		<stop  offset="0" style="stop-color:#FF898C"/>
		<stop  offset="1" style="stop-color:#ED1E79"/>
	</linearGradient>
	<path class="st28" d="M591.4,107.9l6.7-12h7.1l0.2,12h10.8v11.4h-10.8l-0.1,11.2c-0.1,4.6,0.8,7,5.8,7c1.6,0,3.4-0.1,5.2-0.5v11.9
		c-3.3,0.9-7,1.5-12,1.5c-12.8,0-15.4-5.3-15.4-11.4v-19.7h-6v-11.4C582.9,107.9,591.4,107.9,591.4,107.9z"/>
	
		<linearGradient id="SVGID_30_" gradientUnits="userSpaceOnUse" x1="50.5046" y1="-85.582" x2="920.3015" y2="88.3773" gradientTransform="matrix(1 0 0 -1 0 162)">
		<stop  offset="0" style="stop-color:#FF898C"/>
		<stop  offset="1" style="stop-color:#ED1E79"/>
	</linearGradient>
	<path class="st29" d="M667.7,107.9v41.6h-16v-10.4h-0.4c-1.9,6.4-6.3,11.3-14.8,11.3c-9.1,0-14.2-5.3-14.2-15.9v-26.6h16.5v23.6
		c0,3.9,1.7,6.4,5.8,6.4c3.6,0,6.6-1.9,6.6-8v-22L667.7,107.9L667.7,107.9z"/>
	
		<linearGradient id="SVGID_31_" gradientUnits="userSpaceOnUse" x1="51.296" y1="-89.5387" x2="921.0929" y2="84.4207" gradientTransform="matrix(1 0 0 -1 0 162)">
		<stop  offset="0" style="stop-color:#FF898C"/>
		<stop  offset="1" style="stop-color:#ED1E79"/>
	</linearGradient>
	<path class="st30" d="M681,107.9l6.7-12h7.1l0.2,12H706v11.4h-10.8l-0.1,11.2c-0.1,4.6,0.8,7,5.8,7c1.6,0,3.4-0.1,5.2-0.5v11.9
		c-3.3,0.9-7,1.5-12,1.5c-12.8,0-15.4-5.3-15.4-11.4v-19.7h-6v-11.4C672.6,107.9,681,107.9,681,107.9z"/>
	
		<linearGradient id="SVGID_32_" gradientUnits="userSpaceOnUse" x1="53.9705" y1="-102.9112" x2="923.7674" y2="71.0482" gradientTransform="matrix(1 0 0 -1 0 162)">
		<stop  offset="0" style="stop-color:#FF898C"/>
		<stop  offset="1" style="stop-color:#ED1E79"/>
	</linearGradient>
	<path class="st31" d="M760.1,128.6c0,13.4-9.3,21.8-25,21.8s-25-8.4-25-21.8s9.6-21.6,25-21.6C750.6,107,760.1,115.2,760.1,128.6z
		 M743.3,129c0-6.3-2.6-10.8-8.1-10.8c-5.4,0-8.2,4.5-8.2,10.8c0,6.4,2.8,10.2,8.2,10.2C740.5,139.2,743.3,135.4,743.3,129z"/>
	
		<linearGradient id="SVGID_33_" gradientUnits="userSpaceOnUse" x1="55.491" y1="-110.5138" x2="925.2879" y2="63.4456" gradientTransform="matrix(1 0 0 -1 0 162)">
		<stop  offset="0" style="stop-color:#FF898C"/>
		<stop  offset="1" style="stop-color:#ED1E79"/>
	</linearGradient>
	<path class="st32" d="M800.6,107.7v14.8c-0.9-0.2-2.3-0.4-3.5-0.4c-8.6,0-14.2,5.3-14.2,14.2v13.2h-16.5v-41.6h16.1v16.6h0.5
		c1.1-7.8,3.3-13.3,8.4-15.9c1.5-0.8,3.6-1.2,5.9-1.2C798.5,107.4,799.5,107.5,800.6,107.7z"/>
	
		<linearGradient id="SVGID_34_" gradientUnits="userSpaceOnUse" x1="55.5747" y1="-110.9321" x2="925.3716" y2="63.0273" gradientTransform="matrix(1 0 0 -1 0 162)">
		<stop  offset="0" style="stop-color:#FF898C"/>
		<stop  offset="1" style="stop-color:#ED1E79"/>
	</linearGradient>
	<path class="st33" d="M822.5,92.9v11.3H806V92.9H822.5z M806,107.9h16.5v41.6H806V107.9z"/>
	
		<linearGradient id="SVGID_35_" gradientUnits="userSpaceOnUse" x1="58.772" y1="-126.919" x2="928.569" y2="47.0403" gradientTransform="matrix(1 0 0 -1 0 162)">
		<stop  offset="0" style="stop-color:#FF898C"/>
		<stop  offset="1" style="stop-color:#ED1E79"/>
	</linearGradient>
	<path class="st34" d="M879.7,138.2l-0.1,10c-2.4,1.1-6.7,2-10.6,2c-8.4,0-10.8-3.8-10.8-8.6v-1.2h-0.4c-2.2,5.5-7.3,10-15.4,10
		c-8,0-13.8-4.9-13.8-11.1c0-4.8,3.1-8.1,9.8-10.4c3.9-1.3,10.6-3.2,19.2-5.6v-0.1c0-3.2-2.5-4.9-6.4-4.9c-3.8,0-7.3,1.6-9.8,7.4
		l-12.5-4.3c4.3-10.8,12.8-14.3,23.8-14.3c14.2,0,21.4,6.7,21.4,16.4v11.1c0,1.5,0,3.9,2.9,3.9C877.7,138.5,878.7,138.4,879.7,138.2
		z M857.6,134.8v-6.4l-8.2,2.8c-2.9,1-4.3,2-4.3,3.7c0,1.9,1.5,3.9,4.8,3.9C853.2,138.8,856.6,136.9,857.6,134.8z"/>
	
		<linearGradient id="SVGID_36_" gradientUnits="userSpaceOnUse" x1="58.6145" y1="-126.131" x2="928.4113" y2="47.8283" gradientTransform="matrix(1 0 0 -1 0 162)">
		<stop  offset="0" style="stop-color:#FF898C"/>
		<stop  offset="1" style="stop-color:#ED1E79"/>
	</linearGradient>
	<path class="st35" d="M885,92.9h16.5v56.5H885V92.9z"/>
	
		<linearGradient id="SVGID_37_" gradientUnits="userSpaceOnUse" x1="61.4309" y1="-140.2128" x2="931.2277" y2="33.7466" gradientTransform="matrix(1 0 0 -1 0 162)">
		<stop  offset="0" style="stop-color:#FF898C"/>
		<stop  offset="1" style="stop-color:#ED1E79"/>
	</linearGradient>
	<path class="st36" d="M916.6,134.3c2.6,3.8,6.9,5.9,12.9,5.9c4.4,0,6.7-1.5,6.7-3.4c0-1.4-1-2-3.5-2.2c-4-0.4-7.8-0.6-11.1-1
		c-6.9-0.8-13.2-4.1-13.2-12.3c0-9.1,8.7-14.2,20.4-14.2c7.9,0,15.3,2.2,20.3,7.3l-7.8,7.5c-3.6-3.4-8-4.7-12.4-4.7
		c-3.5,0-5.8,1.2-5.8,2.9c0,1.2,0.8,1.9,3.1,2.2c3.3,0.3,6.9,0.7,9.8,1c8.3,0.8,14.8,4,14.8,12.2c0,9.6-8.3,14.9-21.8,14.9
		c-10.3,0-18.7-2.9-22.4-10.6L916.6,134.3z"/>
</g>
</svg>
