<?xml version="1.0" encoding="utf-8"?>
<!-- Generator: Adobe Illustrator 25.1.0, SVG Export Plug-In . SVG Version: 6.00 Build 0)  -->
<svg version="1.1" id="Layer_1" xmlns="http://www.w3.org/2000/svg" xmlns:xlink="http://www.w3.org/1999/xlink" x="0px" y="0px"
	 viewBox="0 0 1010 320" style="enable-background:new 0 0 1010 320;" xml:space="preserve">
<style type="text/css">
	.st0{fill:url(#SVGID_1_);}
	.st1{fill:url(#SVGID_2_);}
	.st2{fill:url(#SVGID_3_);}
	.st3{fill:url(#SVGID_4_);}
	.st4{fill:url(#SVGID_5_);}
	.st5{fill:url(#SVGID_6_);}
	.st6{fill:url(#SVGID_7_);}
	.st7{fill:url(#SVGID_8_);}
	.st8{fill:url(#SVGID_9_);}
	.st9{fill:url(#SVGID_10_);}
	.st10{fill:url(#SVGID_11_);}
	.st11{fill:url(#SVGID_12_);}
	.st12{fill:url(#SVGID_13_);}
	.st13{fill:url(#SVGID_14_);}
	.st14{fill:url(#SVGID_15_);}
	.st15{fill:url(#SVGID_16_);}
	.st16{fill:url(#SVGID_17_);}
	.st17{fill:url(#SVGID_18_);}
	.st18{fill:url(#SVGID_19_);}
	.st19{fill:url(#SVGID_20_);}
	.st20{fill:url(#SVGID_21_);}
	.st21{fill:url(#SVGID_22_);}
	.st22{fill:url(#SVGID_23_);}
	.st23{fill:url(#SVGID_24_);}
	.st24{fill:url(#SVGID_25_);}
	.st25{fill:url(#SVGID_26_);}
	.st26{fill:url(#SVGID_27_);}
	.st27{fill:url(#SVGID_28_);}
	.st28{fill:url(#SVGID_29_);}
	.st29{fill:url(#SVGID_30_);}
	.st30{fill:url(#SVGID_31_);}
	.st31{fill:url(#SVGID_32_);}
	.st32{fill:url(#SVGID_33_);}
	.st33{fill:url(#SVGID_34_);}
	.st34{fill:url(#SVGID_35_);}
	.st35{fill:url(#SVGID_36_);}
	.st36{fill:url(#SVGID_37_);}
	.st37{fill:url(#SVGID_38_);}
	.st38{fill:url(#SVGID_39_);}
	.st39{fill:url(#SVGID_40_);}
	.st40{fill:url(#SVGID_41_);}
	.st41{fill:url(#SVGID_42_);}
	.st42{fill:url(#SVGID_43_);}
	.st43{fill:url(#SVGID_44_);}
	.st44{fill:url(#SVGID_45_);}
	.st45{fill:url(#SVGID_46_);}
	.st46{fill:url(#SVGID_47_);}
	.st47{fill:url(#SVGID_48_);}
	.st48{fill:url(#SVGID_49_);}
	.st49{fill:url(#SVGID_50_);}
	.st50{fill:url(#SVGID_51_);}
	.st51{fill:url(#SVGID_52_);}
	.st52{fill:url(#SVGID_53_);}
	.st53{fill:url(#SVGID_54_);}
	.st54{fill:url(#SVGID_55_);}
	.st55{fill:url(#SVGID_56_);}
	.st56{fill:url(#SVGID_57_);}
	.st57{fill:url(#SVGID_58_);}
	.st58{fill:url(#SVGID_59_);}
	.st59{fill:url(#SVGID_60_);}
	.st60{fill:url(#SVGID_61_);}
	.st61{fill:url(#SVGID_62_);}
	.st62{fill:url(#SVGID_63_);}
	.st63{fill:url(#SVGID_64_);}
	.st64{fill:url(#SVGID_65_);}
	.st65{fill:url(#SVGID_66_);}
	.st66{fill:url(#SVGID_67_);}
	.st67{fill:url(#SVGID_68_);}
	.st68{fill:url(#SVGID_69_);}
	.st69{fill:url(#SVGID_70_);}
	.st70{fill:url(#SVGID_71_);}
	.st71{fill:url(#SVGID_72_);}
	.st72{fill:url(#SVGID_73_);}
</style>
<g>
	<linearGradient id="SVGID_1_" gradientUnits="userSpaceOnUse" x1="-25.3761" y1="54.2337" x2="890.9082" y2="-252.4723">
		<stop  offset="0" style="stop-color:#FF898C"/>
		<stop  offset="1" style="stop-color:#ED1E79"/>
	</linearGradient>
	<path class="st0" d="M64.37,21.86h-19.1v42.91H28.73V21.86H9.64V8.33h54.74V21.86z"/>
	<linearGradient id="SVGID_2_" gradientUnits="userSpaceOnUse" x1="-18.8408" y1="73.758" x2="897.4435" y2="-232.9481">
		<stop  offset="0" style="stop-color:#FF898C"/>
		<stop  offset="1" style="stop-color:#ED1E79"/>
	</linearGradient>
	<path class="st1" d="M115.01,38.1v26.67H98.54V41.11c0-3.87-1.78-6.34-5.8-6.34c-3.56,0-6.65,1.93-6.65,7.96v22.03H69.63V8.33H86.1
		v24.66h0.39c1.7-6.26,6.18-10.67,14.23-10.67C109.83,22.32,115.01,27.58,115.01,38.1z"/>
	<linearGradient id="SVGID_3_" gradientUnits="userSpaceOnUse" x1="-11.2755" y1="96.3591" x2="905.0088" y2="-210.3469">
		<stop  offset="0" style="stop-color:#FF898C"/>
		<stop  offset="1" style="stop-color:#ED1E79"/>
	</linearGradient>
	<path class="st2" d="M168.2,45.59l-30.77-0.08c0.31,5.72,2.78,8.58,8.19,8.58c4.02,0,7.65-1.47,9.05-7.04l13.22,3.71
		c-3.63,11.21-12.52,14.92-23.43,14.92c-15.08,0-23.66-8.2-23.66-21.11c0-13.38,9.51-22.27,24.12-22.27
		C159.08,22.32,168.36,30.75,168.2,45.59z M137.66,40.03h14.84c-0.93-4.87-3.4-6.88-7.11-6.88
		C141.22,33.15,138.59,35.23,137.66,40.03z"/>
	<linearGradient id="SVGID_4_" gradientUnits="userSpaceOnUse" x1="-2.3961" y1="122.8863" x2="913.8882" y2="-183.8197">
		<stop  offset="0" style="stop-color:#FF898C"/>
		<stop  offset="1" style="stop-color:#ED1E79"/>
	</linearGradient>
	<path class="st3" d="M244.97,64.92c0,10.36-11.37,16.08-28.22,16.08c-14.07,0-19.48-4.1-19.48-8.81c0-3.94,3.63-5.57,8.74-5.88
		V65.7c-7.04-0.23-10.82-3.25-10.82-8.27c0-5.18,4.18-8.97,11.67-10.13v-0.31c-6.18-2.24-9.66-6.18-9.66-11.36
		c0-8.04,8.27-13.3,22.34-13.3c3.63,0,6.88,0.39,9.66,1l0.85-12.83h14.46v0.39l-11.67,13.61c5.72,2.24,8.89,6.11,8.89,11.13
		c0,8.04-8.35,13.22-22.19,13.22c-2.86,0-5.41-0.23-7.81-0.62c-2.32,0.54-3.25,1.47-3.25,2.71c0,1.16,1.01,1.93,3.56,1.93h15.31
		C238.55,52.86,244.97,56.88,244.97,64.92z M230.59,68.4c0-1.62-1.47-2.09-5.18-2.09h-13.22c-2.63,0-3.4,1.16-3.4,2.47
		c0,2.63,3.25,4.1,10.05,4.1C225.87,72.89,230.59,71.34,230.59,68.4z M213.81,35.62c0,3.63,2.09,5.26,5.64,5.26
		c3.48,0,5.64-1.62,5.64-5.26c0-3.71-2.16-5.33-5.64-5.33C216.05,30.29,213.81,31.91,213.81,35.62z"/>
	<linearGradient id="SVGID_5_" gradientUnits="userSpaceOnUse" x1="1.3484" y1="134.0732" x2="917.6328" y2="-172.6328">
		<stop  offset="0" style="stop-color:#FF898C"/>
		<stop  offset="1" style="stop-color:#ED1E79"/>
	</linearGradient>
	<path class="st4" d="M295.38,43.89c0,13.37-9.28,21.8-24.97,21.8c-15.69,0-24.97-8.43-24.97-21.8c0-13.38,9.59-21.57,24.97-21.57
		C285.87,22.32,295.38,30.52,295.38,43.89z M278.52,44.36c0-6.26-2.63-10.82-8.12-10.82c-5.41,0-8.2,4.48-8.2,10.82
		c0,6.42,2.78,10.21,8.2,10.21C275.74,54.56,278.52,50.77,278.52,44.36z"/>
	<linearGradient id="SVGID_6_" gradientUnits="userSpaceOnUse" x1="6.0095" y1="147.998" x2="922.2938" y2="-158.708">
		<stop  offset="0" style="stop-color:#FF898C"/>
		<stop  offset="1" style="stop-color:#ED1E79"/>
	</linearGradient>
	<path class="st5" d="M331.32,37.01v13.84h-28.84V37.01H331.32z"/>
	<linearGradient id="SVGID_7_" gradientUnits="userSpaceOnUse" x1="8.5333" y1="155.5379" x2="924.8176" y2="-151.1681">
		<stop  offset="0" style="stop-color:#FF898C"/>
		<stop  offset="1" style="stop-color:#ED1E79"/>
	</linearGradient>
	<path class="st6" d="M344.7,23.25l6.73-11.98h7.11l0.23,11.98h10.82v11.36h-10.82l-0.08,11.13c-0.08,4.56,0.85,7.04,5.8,7.04
		c1.62,0,3.4-0.15,5.18-0.54v11.91c-3.32,0.93-6.96,1.47-11.98,1.47c-12.83,0-15.39-5.26-15.39-11.36V34.62h-6.03V23.25H344.7z"/>
	<linearGradient id="SVGID_8_" gradientUnits="userSpaceOnUse" x1="14.2787" y1="172.7025" x2="930.563" y2="-134.0036">
		<stop  offset="0" style="stop-color:#FF898C"/>
		<stop  offset="1" style="stop-color:#ED1E79"/>
	</linearGradient>
	<path class="st7" d="M423.71,43.89c0,13.37-9.28,21.8-24.97,21.8c-15.69,0-24.97-8.43-24.97-21.8c0-13.38,9.59-21.57,24.97-21.57
		C414.2,22.32,423.71,30.52,423.71,43.89z M406.86,44.36c0-6.26-2.63-10.82-8.12-10.82c-5.41,0-8.2,4.48-8.2,10.82
		c0,6.42,2.78,10.21,8.2,10.21C404.07,54.56,406.86,50.77,406.86,44.36z"/>
	<linearGradient id="SVGID_9_" gradientUnits="userSpaceOnUse" x1="22.9027" y1="198.4666" x2="939.187" y2="-108.2394">
		<stop  offset="0" style="stop-color:#FF898C"/>
		<stop  offset="1" style="stop-color:#ED1E79"/>
	</linearGradient>
	<path class="st8" d="M503.49,43.97c0,13.99-7.89,21.73-18.71,21.73c-7.27,0-12.37-3.94-14.77-10.67h-0.31v25.05h-16.47V23.25h16.47
		v9.9h0.31c2.4-6.96,7.5-10.82,14.92-10.82C495.38,22.32,503.49,29.98,503.49,43.97z M486.79,43.97c0-6.03-3.17-10.13-8.43-10.13
		c-5.1,0-8.66,3.87-8.66,9.59v1.16c0,6.03,3.63,9.59,8.58,9.59C483.62,54.18,486.79,50.16,486.79,43.97z"/>
	<linearGradient id="SVGID_10_" gradientUnits="userSpaceOnUse" x1="24.0549" y1="201.9086" x2="940.3391" y2="-104.7974">
		<stop  offset="0" style="stop-color:#FF898C"/>
		<stop  offset="1" style="stop-color:#ED1E79"/>
	</linearGradient>
	<path class="st9" d="M509.83,8.33h16.47v56.44h-16.47V8.33z"/>
	<linearGradient id="SVGID_11_" gradientUnits="userSpaceOnUse" x1="30.9113" y1="222.3923" x2="947.1956" y2="-84.3137">
		<stop  offset="0" style="stop-color:#FF898C"/>
		<stop  offset="1" style="stop-color:#ED1E79"/>
	</linearGradient>
	<path class="st10" d="M583.43,53.56l-0.08,9.97c-2.4,1.08-6.73,2.01-10.59,2.01c-8.35,0-10.82-3.79-10.82-8.58v-1.24h-0.39
		c-2.24,5.49-7.34,9.97-15.39,9.97c-8.04,0-13.76-4.87-13.76-11.13c0-4.79,3.09-8.12,9.82-10.44c3.87-1.31,10.59-3.17,19.17-5.57
		v-0.08c0-3.17-2.55-4.95-6.42-4.95c-3.79,0-7.35,1.55-9.74,7.42l-12.45-4.25c4.33-10.82,12.76-14.3,23.73-14.3
		c14.15,0,21.34,6.73,21.34,16.39v11.06c0,1.47,0,3.94,2.86,3.94C581.42,53.79,582.43,53.71,583.43,53.56z M561.4,50.08v-6.42
		l-8.2,2.78c-2.94,1.01-4.33,2.01-4.33,3.71c0,1.86,1.55,3.94,4.79,3.94C556.99,54.1,560.39,52.24,561.4,50.08z"/>
	<linearGradient id="SVGID_12_" gradientUnits="userSpaceOnUse" x1="35.5837" y1="236.3509" x2="951.8679" y2="-70.3551">
		<stop  offset="0" style="stop-color:#FF898C"/>
		<stop  offset="1" style="stop-color:#ED1E79"/>
	</linearGradient>
	<path class="st11" d="M609.56,65.7c-14.61,0-23.27-8.58-23.27-21.11c0-13.76,10.36-22.27,23.97-22.27
		c12.22,0,20.33,6.73,22.19,16.39l-12.76,3.09c-1.24-5.03-4.02-8.04-8.5-8.04c-4.79,0-8.12,3.25-8.12,10.28
		c0,7.27,3.32,10.05,8.12,10.05c4.95,0,7.96-3.17,8.89-8.81l13.68,1.7C632.06,57.89,623.94,65.7,609.56,65.7z"/>
	<linearGradient id="SVGID_13_" gradientUnits="userSpaceOnUse" x1="40.7181" y1="251.6901" x2="957.0024" y2="-55.016">
		<stop  offset="0" style="stop-color:#FF898C"/>
		<stop  offset="1" style="stop-color:#ED1E79"/>
	</linearGradient>
	<path class="st12" d="M684.25,45.59l-30.77-0.08c0.31,5.72,2.78,8.58,8.19,8.58c4.02,0,7.65-1.47,9.05-7.04l13.22,3.71
		c-3.63,11.21-12.52,14.92-23.43,14.92c-15.08,0-23.66-8.2-23.66-21.11c0-13.38,9.51-22.27,24.12-22.27
		C675.12,22.32,684.4,30.75,684.25,45.59z M653.71,40.03h14.84c-0.93-4.87-3.4-6.88-7.11-6.88
		C657.26,33.15,654.63,35.23,653.71,40.03z"/>
	<linearGradient id="SVGID_14_" gradientUnits="userSpaceOnUse" x1="45.3535" y1="265.5384" x2="961.6378" y2="-41.1676">
		<stop  offset="0" style="stop-color:#FF898C"/>
		<stop  offset="1" style="stop-color:#ED1E79"/>
	</linearGradient>
	<path class="st13" d="M742.85,34.62H732.8v30.15h-16.47V34.62h-6.18V23.25h6.18v-2.86c0-7.89,6.26-12.99,17.16-12.99
		c3.79,0,6.8,0.46,9.43,1.08v8.81c-1.39-0.08-3.01-0.15-4.18-0.15c-5.8,0-5.95,2.16-5.95,4.33v1.78h10.05V34.62z"/>
	<linearGradient id="SVGID_15_" gradientUnits="userSpaceOnUse" x1="51.5896" y1="284.1687" x2="967.8739" y2="-22.5373">
		<stop  offset="0" style="stop-color:#FF898C"/>
		<stop  offset="1" style="stop-color:#ED1E79"/>
	</linearGradient>
	<path class="st14" d="M794.03,43.89c0,13.37-9.28,21.8-24.97,21.8s-24.97-8.43-24.97-21.8c0-13.38,9.59-21.57,24.97-21.57
		C784.52,22.32,794.03,30.52,794.03,43.89z M777.17,44.36c0-6.26-2.63-10.82-8.12-10.82c-5.41,0-8.2,4.48-8.2,10.82
		c0,6.42,2.78,10.21,8.2,10.21C774.39,54.56,777.17,50.77,777.17,44.36z"/>
	<linearGradient id="SVGID_16_" gradientUnits="userSpaceOnUse" x1="55.5729" y1="296.0689" x2="971.8572" y2="-10.6371">
		<stop  offset="0" style="stop-color:#FF898C"/>
		<stop  offset="1" style="stop-color:#ED1E79"/>
	</linearGradient>
	<path class="st15" d="M834.46,23.1v14.77c-0.93-0.23-2.32-0.39-3.48-0.39c-8.58,0-14.15,5.33-14.15,14.15v13.14h-16.47V23.25h16.08
		v16.62h0.46c1.08-7.81,3.32-13.3,8.43-15.93c1.55-0.77,3.63-1.16,5.88-1.16C832.29,22.79,833.38,22.86,834.46,23.1z"/>
	<linearGradient id="SVGID_17_" gradientUnits="userSpaceOnUse" x1="2.3414" y1="137.0396" x2="918.6257" y2="-169.6664">
		<stop  offset="0" style="stop-color:#FF898C"/>
		<stop  offset="1" style="stop-color:#ED1E79"/>
	</linearGradient>
	<path class="st16" d="M33.76,148c-14.61,0-23.27-8.58-23.27-21.11c0-13.76,10.36-22.27,23.97-22.27c12.22,0,20.33,6.73,22.19,16.39
		l-12.76,3.09c-1.24-5.03-4.02-8.04-8.5-8.04c-4.79,0-8.12,3.25-8.12,10.28c0,7.27,3.32,10.05,8.12,10.05
		c4.95,0,7.96-3.17,8.89-8.81l13.68,1.7C56.26,140.19,48.14,148,33.76,148z"/>
	<linearGradient id="SVGID_18_" gradientUnits="userSpaceOnUse" x1="6.09" y1="148.2386" x2="922.3743" y2="-158.4675">
		<stop  offset="0" style="stop-color:#FF898C"/>
		<stop  offset="1" style="stop-color:#ED1E79"/>
	</linearGradient>
	<path class="st17" d="M97.46,105.4v14.77c-0.93-0.23-2.32-0.39-3.48-0.39c-8.58,0-14.15,5.33-14.15,14.15v13.14H63.37v-41.52h16.08
		v16.62h0.46c1.08-7.81,3.32-13.3,8.43-15.93c1.55-0.77,3.63-1.16,5.88-1.16C95.3,105.09,96.38,105.17,97.46,105.4z"/>
	<linearGradient id="SVGID_19_" gradientUnits="userSpaceOnUse" x1="11.3941" y1="164.0845" x2="927.6783" y2="-142.6216">
		<stop  offset="0" style="stop-color:#FF898C"/>
		<stop  offset="1" style="stop-color:#ED1E79"/>
	</linearGradient>
	<path class="st18" d="M147.33,127.9l-30.77-0.08c0.31,5.72,2.78,8.58,8.19,8.58c4.02,0,7.65-1.47,9.05-7.04l13.22,3.71
		c-3.63,11.21-12.52,14.92-23.43,14.92c-15.08,0-23.66-8.2-23.66-21.11c0-13.38,9.51-22.27,24.12-22.27
		C138.2,104.62,147.48,113.05,147.33,127.9z M116.79,122.33h14.84c-0.93-4.87-3.4-6.88-7.11-6.88
		C120.35,115.45,117.72,117.54,116.79,122.33z"/>
	<linearGradient id="SVGID_20_" gradientUnits="userSpaceOnUse" x1="17.2748" y1="181.6533" x2="933.5591" y2="-125.0527">
		<stop  offset="0" style="stop-color:#FF898C"/>
		<stop  offset="1" style="stop-color:#ED1E79"/>
	</linearGradient>
	<path class="st19" d="M202.22,135.86l-0.08,9.97c-2.4,1.08-6.73,2.01-10.59,2.01c-8.35,0-10.82-3.79-10.82-8.58v-1.24h-0.39
		c-2.24,5.49-7.34,9.97-15.39,9.97c-8.04,0-13.76-4.87-13.76-11.13c0-4.79,3.09-8.12,9.82-10.44c3.87-1.31,10.59-3.17,19.17-5.57
		v-0.08c0-3.17-2.55-4.95-6.42-4.95c-3.79,0-7.35,1.55-9.74,7.42L151.58,119c4.33-10.82,12.76-14.3,23.73-14.3
		c14.15,0,21.34,6.73,21.34,16.39v11.06c0,1.47,0,3.94,2.86,3.94C200.21,136.09,201.21,136.01,202.22,135.86z M180.18,132.38v-6.42
		l-8.2,2.78c-2.94,1.01-4.33,2.01-4.33,3.71c0,1.86,1.55,3.94,4.79,3.94C175.78,136.4,179.18,134.54,180.18,132.38z"/>
	<linearGradient id="SVGID_21_" gradientUnits="userSpaceOnUse" x1="19.9163" y1="189.5446" x2="936.2006" y2="-117.1614">
		<stop  offset="0" style="stop-color:#FF898C"/>
		<stop  offset="1" style="stop-color:#ED1E79"/>
	</linearGradient>
	<path class="st20" d="M211.8,105.55l6.73-11.98h7.11l0.23,11.98h10.82v11.36h-10.82l-0.08,11.13c-0.08,4.56,0.85,7.04,5.8,7.04
		c1.62,0,3.4-0.15,5.18-0.54v11.91c-3.32,0.93-6.96,1.47-11.98,1.47c-12.83,0-15.39-5.26-15.39-11.36v-19.64h-6.03v-11.36H211.8z"/>
	<linearGradient id="SVGID_22_" gradientUnits="userSpaceOnUse" x1="25.6616" y1="206.7089" x2="941.9459" y2="-99.9972">
		<stop  offset="0" style="stop-color:#FF898C"/>
		<stop  offset="1" style="stop-color:#ED1E79"/>
	</linearGradient>
	<path class="st21" d="M290.82,126.19c0,13.37-9.28,21.8-24.97,21.8s-24.97-8.43-24.97-21.8c0-13.38,9.59-21.57,24.97-21.57
		C281.31,104.62,290.82,112.82,290.82,126.19z M273.96,126.66c0-6.26-2.63-10.82-8.12-10.82c-5.41,0-8.2,4.48-8.2,10.82
		c0,6.42,2.78,10.21,8.2,10.21C271.18,136.86,273.96,133.08,273.96,126.66z"/>
	<linearGradient id="SVGID_23_" gradientUnits="userSpaceOnUse" x1="29.6451" y1="218.6093" x2="945.9293" y2="-88.0967">
		<stop  offset="0" style="stop-color:#FF898C"/>
		<stop  offset="1" style="stop-color:#ED1E79"/>
	</linearGradient>
	<path class="st22" d="M331.25,105.4v14.77c-0.93-0.23-2.32-0.39-3.48-0.39c-8.58,0-14.15,5.33-14.15,14.15v13.14h-16.47v-41.52
		h16.08v16.62h0.46c1.08-7.81,3.32-13.3,8.43-15.93c1.55-0.77,3.63-1.16,5.88-1.16C329.08,105.09,330.17,105.17,331.25,105.4z"/>
	<linearGradient id="SVGID_24_" gradientUnits="userSpaceOnUse" x1="34.7006" y1="233.7127" x2="950.9849" y2="-72.9933">
		<stop  offset="0" style="stop-color:#FF898C"/>
		<stop  offset="1" style="stop-color:#ED1E79"/>
	</linearGradient>
	<path class="st23" d="M342.84,131.92c2.63,3.79,6.88,5.88,12.91,5.88c4.41,0,6.65-1.47,6.65-3.4c0-1.39-1.01-2.01-3.48-2.24
		c-4.02-0.39-7.81-0.62-11.06-1c-6.88-0.77-13.22-4.1-13.22-12.29c0-9.05,8.66-14.23,20.33-14.23c7.89,0,15.31,2.16,20.26,7.34
		l-7.81,7.5c-3.63-3.4-8.04-4.72-12.37-4.72c-3.48,0-5.8,1.24-5.8,2.94c0,1.24,0.85,1.93,3.09,2.16c3.32,0.31,6.88,0.7,9.82,1.01
		c8.27,0.85,14.77,4.02,14.77,12.22c0,9.59-8.27,14.92-21.8,14.92c-10.28,0-18.63-2.94-22.34-10.59L342.84,131.92z"/>
	<linearGradient id="SVGID_25_" gradientUnits="userSpaceOnUse" x1="42.556" y1="257.1807" x2="958.8403" y2="-49.5253">
		<stop  offset="0" style="stop-color:#FF898C"/>
		<stop  offset="1" style="stop-color:#ED1E79"/>
	</linearGradient>
	<path class="st24" d="M476.36,105.55l-11.13,41.52h-18.94l-6.88-25.2h-0.15l-7.35,25.2h-18.48l-11.6-41.52h17.4l5.49,26.6h0.39
		l7.58-26.6h13.68l7.58,26.6h0.39l5.64-26.6H476.36z"/>
	<linearGradient id="SVGID_26_" gradientUnits="userSpaceOnUse" x1="47.3478" y1="271.4963" x2="963.6321" y2="-35.2097">
		<stop  offset="0" style="stop-color:#FF898C"/>
		<stop  offset="1" style="stop-color:#ED1E79"/>
	</linearGradient>
	<path class="st25" d="M526.07,120.4v26.67H509.6v-23.66c0-3.87-1.78-6.34-5.8-6.34c-3.56,0-6.65,1.93-6.65,7.96v22.03h-16.47V90.63
		h16.47v24.66h0.39c1.7-6.26,6.18-10.67,14.23-10.67C520.89,104.62,526.07,109.88,526.07,120.4z"/>
	<linearGradient id="SVGID_27_" gradientUnits="userSpaceOnUse" x1="54.9807" y1="294.2997" x2="971.265" y2="-12.4064">
		<stop  offset="0" style="stop-color:#FF898C"/>
		<stop  offset="1" style="stop-color:#ED1E79"/>
	</linearGradient>
	<path class="st26" d="M581.81,126.19c0,13.37-9.28,21.8-24.97,21.8s-24.97-8.43-24.97-21.8c0-13.38,9.59-21.57,24.97-21.57
		C572.3,104.62,581.81,112.82,581.81,126.19z M564.96,126.66c0-6.26-2.63-10.82-8.12-10.82c-5.41,0-8.2,4.48-8.2,10.82
		c0,6.42,2.78,10.21,8.2,10.21C562.17,136.86,564.96,133.08,564.96,126.66z"/>
	<linearGradient id="SVGID_28_" gradientUnits="userSpaceOnUse" x1="63.2366" y1="318.9642" x2="979.5209" y2="12.2582">
		<stop  offset="0" style="stop-color:#FF898C"/>
		<stop  offset="1" style="stop-color:#ED1E79"/>
	</linearGradient>
	<path class="st27" d="M681.62,105.55l-11.13,41.52h-18.94l-6.88-25.2h-0.15l-7.35,25.2h-18.48l-11.6-41.52h17.4l5.49,26.6h0.39
		l7.58-26.6h13.68l7.58,26.6h0.39l5.64-26.6H681.62z"/>
	<linearGradient id="SVGID_29_" gradientUnits="userSpaceOnUse" x1="70.8267" y1="341.6395" x2="987.111" y2="34.9334">
		<stop  offset="0" style="stop-color:#FF898C"/>
		<stop  offset="1" style="stop-color:#ED1E79"/>
	</linearGradient>
	<path class="st28" d="M733.73,135.86l-0.08,9.97c-2.4,1.08-6.73,2.01-10.59,2.01c-8.35,0-10.82-3.79-10.82-8.58v-1.24h-0.39
		c-2.24,5.49-7.34,9.97-15.39,9.97c-8.04,0-13.76-4.87-13.76-11.13c0-4.79,3.09-8.12,9.82-10.44c3.87-1.31,10.59-3.17,19.17-5.57
		v-0.08c0-3.17-2.55-4.95-6.42-4.95c-3.79,0-7.35,1.55-9.74,7.42L683.09,119c4.33-10.82,12.76-14.3,23.73-14.3
		c14.15,0,21.34,6.73,21.34,16.39v11.06c0,1.47,0,3.94,2.86,3.94C731.72,136.09,732.72,136.01,733.73,135.86z M711.69,132.38v-6.42
		l-8.2,2.78c-2.94,1.01-4.33,2.01-4.33,3.71c0,1.86,1.55,3.94,4.79,3.94C707.29,136.4,710.69,134.54,711.69,132.38z"/>
	<linearGradient id="SVGID_30_" gradientUnits="userSpaceOnUse" x1="75.6257" y1="355.9764" x2="991.9099" y2="49.2704">
		<stop  offset="0" style="stop-color:#FF898C"/>
		<stop  offset="1" style="stop-color:#ED1E79"/>
	</linearGradient>
	<path class="st29" d="M784.44,120.4v26.67h-16.47v-23.66c0-3.87-1.78-6.34-5.8-6.34c-3.56,0-6.65,1.93-6.65,7.96v22.03h-16.47
		v-41.52h15.93v10.28h0.46c1.86-6.34,6.18-11.21,14.69-11.21C779.26,104.62,784.44,109.88,784.44,120.4z"/>
	<linearGradient id="SVGID_31_" gradientUnits="userSpaceOnUse" x1="78.8973" y1="365.7504" x2="995.1816" y2="59.0444">
		<stop  offset="0" style="stop-color:#FF898C"/>
		<stop  offset="1" style="stop-color:#ED1E79"/>
	</linearGradient>
	<path class="st30" d="M797.2,105.55l6.73-11.98h7.11l0.23,11.98h10.82v11.36h-10.82l-0.08,11.13c-0.08,4.56,0.85,7.04,5.8,7.04
		c1.62,0,3.4-0.15,5.18-0.54v11.91c-3.32,0.93-6.96,1.47-11.98,1.47c-12.83,0-15.39-5.26-15.39-11.36v-19.64h-6.03v-11.36H797.2z"/>
	<linearGradient id="SVGID_32_" gradientUnits="userSpaceOnUse" x1="84.8871" y1="383.645" x2="1001.1714" y2="76.939">
		<stop  offset="0" style="stop-color:#FF898C"/>
		<stop  offset="1" style="stop-color:#ED1E79"/>
	</linearGradient>
	<path class="st31" d="M856.65,105.55l6.73-11.98h7.11l0.23,11.98h10.82v11.36h-10.82l-0.08,11.13c-0.08,4.56,0.85,7.04,5.8,7.04
		c1.62,0,3.4-0.15,5.18-0.54v11.91c-3.32,0.93-6.96,1.47-11.98,1.47c-12.83,0-15.39-5.26-15.39-11.36v-19.64h-6.03v-11.36H856.65z"
		/>
	<linearGradient id="SVGID_33_" gradientUnits="userSpaceOnUse" x1="90.6325" y1="400.8092" x2="1006.9167" y2="94.1032">
		<stop  offset="0" style="stop-color:#FF898C"/>
		<stop  offset="1" style="stop-color:#ED1E79"/>
	</linearGradient>
	<path class="st32" d="M935.66,126.19c0,13.37-9.28,21.8-24.97,21.8s-24.97-8.43-24.97-21.8c0-13.38,9.59-21.57,24.97-21.57
		C926.15,104.62,935.66,112.82,935.66,126.19z M918.81,126.66c0-6.26-2.63-10.82-8.12-10.82c-5.41,0-8.2,4.48-8.2,10.82
		c0,6.42,2.78,10.21,8.2,10.21C916.02,136.86,918.81,133.08,918.81,126.66z"/>
	<linearGradient id="SVGID_34_" gradientUnits="userSpaceOnUse" x1="24.5839" y1="203.4891" x2="940.8682" y2="-103.217">
		<stop  offset="0" style="stop-color:#FF898C"/>
		<stop  offset="1" style="stop-color:#ED1E79"/>
	</linearGradient>
	<path class="st33" d="M62.98,208.57c0,13.99-7.89,21.73-18.71,21.73c-7.27,0-12.37-3.94-14.77-10.67H29.2v9.74H12.73v-56.44H29.2
		v24.82h0.31c2.4-6.96,7.5-10.82,14.92-10.82C54.86,186.92,62.98,194.58,62.98,208.57z M46.28,208.57c0-6.03-3.17-10.13-8.43-10.13
		c-5.1,0-8.66,3.87-8.66,9.59v1.16c0,6.03,3.63,9.59,8.58,9.59C43.11,218.78,46.28,214.76,46.28,208.57z"/>
	<linearGradient id="SVGID_35_" gradientUnits="userSpaceOnUse" x1="31.4625" y1="224.0388" x2="947.7468" y2="-82.6672">
		<stop  offset="0" style="stop-color:#FF898C"/>
		<stop  offset="1" style="stop-color:#ED1E79"/>
	</linearGradient>
	<path class="st34" d="M103.41,187.7v14.77c-0.93-0.23-2.32-0.39-3.48-0.39c-8.58,0-14.15,5.33-14.15,14.15v13.14H69.32v-41.52H85.4
		v16.62h0.46c1.08-7.81,3.32-13.3,8.43-15.93c1.55-0.77,3.63-1.16,5.88-1.16C101.25,187.39,102.33,187.47,103.41,187.7z"/>
	<linearGradient id="SVGID_36_" gradientUnits="userSpaceOnUse" x1="33.1893" y1="229.1978" x2="949.4736" y2="-77.5082">
		<stop  offset="0" style="stop-color:#FF898C"/>
		<stop  offset="1" style="stop-color:#ED1E79"/>
	</linearGradient>
	<path class="st35" d="M125.29,172.93v11.29h-16.55v-11.29H125.29z M108.75,187.85h16.47v41.52h-16.47V187.85z"/>
	<linearGradient id="SVGID_37_" gradientUnits="userSpaceOnUse" x1="39.4232" y1="247.8214" x2="955.7075" y2="-58.8846">
		<stop  offset="0" style="stop-color:#FF898C"/>
		<stop  offset="1" style="stop-color:#ED1E79"/>
	</linearGradient>
	<path class="st36" d="M179.26,202.7v26.67h-16.47v-23.66c0-3.87-1.78-6.34-5.8-6.34c-3.56,0-6.65,1.93-6.65,7.96v22.03h-16.47
		v-41.52h15.93v10.28h0.46c1.86-6.34,6.18-11.21,14.69-11.21C174.08,186.92,179.26,192.18,179.26,202.7z"/>
	<linearGradient id="SVGID_38_" gradientUnits="userSpaceOnUse" x1="46.0899" y1="267.7383" x2="962.3741" y2="-38.9678">
		<stop  offset="0" style="stop-color:#FF898C"/>
		<stop  offset="1" style="stop-color:#ED1E79"/>
	</linearGradient>
	<path class="st37" d="M234.46,229.52c0,10.36-11.37,16.08-28.22,16.08c-14.07,0-19.48-4.1-19.48-8.81c0-3.94,3.63-5.57,8.74-5.88
		v-0.62c-7.04-0.23-10.82-3.25-10.82-8.27c0-5.18,4.18-8.97,11.67-10.13v-0.31c-6.18-2.24-9.66-6.18-9.66-11.36
		c0-8.04,8.27-13.3,22.34-13.3c3.63,0,6.88,0.39,9.66,1l0.85-12.83h14.46v0.39l-11.67,13.61c5.72,2.24,8.89,6.11,8.89,11.13
		c0,8.04-8.35,13.22-22.19,13.22c-2.86,0-5.41-0.23-7.81-0.62c-2.32,0.54-3.25,1.47-3.25,2.71c0,1.16,1.01,1.93,3.56,1.93h15.31
		C228.04,217.46,234.46,221.48,234.46,229.52z M220.08,233c0-1.62-1.47-2.09-5.18-2.09h-13.22c-2.63,0-3.4,1.16-3.4,2.47
		c0,2.63,3.25,4.1,10.05,4.1C215.36,237.49,220.08,235.94,220.08,233z M203.3,200.22c0,3.63,2.09,5.26,5.64,5.26
		c3.48,0,5.64-1.62,5.64-5.26c0-3.71-2.16-5.33-5.64-5.33C205.54,194.89,203.3,196.51,203.3,200.22z"/>
	<linearGradient id="SVGID_39_" gradientUnits="userSpaceOnUse" x1="50.2114" y1="280.0512" x2="966.4957" y2="-26.6549">
		<stop  offset="0" style="stop-color:#FF898C"/>
		<stop  offset="1" style="stop-color:#ED1E79"/>
	</linearGradient>
	<path class="st38" d="M266.61,187.85l6.73-11.98h7.11l0.23,11.98h10.82v11.36h-10.82l-0.08,11.13c-0.08,4.56,0.85,7.04,5.8,7.04
		c1.62,0,3.4-0.15,5.18-0.54v11.91c-3.32,0.93-6.96,1.47-11.98,1.47c-12.83,0-15.39-5.26-15.39-11.36v-19.64h-6.03v-11.36H266.61z"
		/>
	<linearGradient id="SVGID_40_" gradientUnits="userSpaceOnUse" x1="53.7296" y1="290.5619" x2="970.0139" y2="-16.1441">
		<stop  offset="0" style="stop-color:#FF898C"/>
		<stop  offset="1" style="stop-color:#ED1E79"/>
	</linearGradient>
	<path class="st39" d="M343.54,202.7v26.67h-16.47v-23.66c0-3.87-1.78-6.34-5.8-6.34c-3.56,0-6.65,1.93-6.65,7.96v22.03h-16.47
		v-56.44h16.47v24.66h0.39c1.7-6.26,6.18-10.67,14.23-10.67C338.36,186.92,343.54,192.18,343.54,202.7z"/>
	<linearGradient id="SVGID_41_" gradientUnits="userSpaceOnUse" x1="61.2948" y1="313.1631" x2="977.5791" y2="6.4571">
		<stop  offset="0" style="stop-color:#FF898C"/>
		<stop  offset="1" style="stop-color:#ED1E79"/>
	</linearGradient>
	<path class="st40" d="M396.73,210.2l-30.77-0.08c0.31,5.72,2.78,8.58,8.19,8.58c4.02,0,7.65-1.47,9.05-7.04l13.22,3.71
		c-3.63,11.21-12.52,14.92-23.43,14.92c-15.08,0-23.66-8.2-23.66-21.11c0-13.38,9.51-22.27,24.12-22.27
		C387.6,186.92,396.88,195.35,396.73,210.2z M366.19,204.63h14.84c-0.93-4.87-3.4-6.88-7.11-6.88
		C369.75,197.75,367.12,199.84,366.19,204.63z"/>
	<linearGradient id="SVGID_42_" gradientUnits="userSpaceOnUse" x1="62.8508" y1="317.8116" x2="979.1351" y2="11.1055">
		<stop  offset="0" style="stop-color:#FF898C"/>
		<stop  offset="1" style="stop-color:#ED1E79"/>
	</linearGradient>
	<path class="st41" d="M419.69,172.93v11.29h-16.55v-11.29H419.69z M403.14,187.85h16.47v41.52h-16.47V187.85z"/>
	<linearGradient id="SVGID_43_" gradientUnits="userSpaceOnUse" x1="67.6281" y1="332.0835" x2="983.9124" y2="25.3775">
		<stop  offset="0" style="stop-color:#FF898C"/>
		<stop  offset="1" style="stop-color:#ED1E79"/>
	</linearGradient>
	<path class="st42" d="M462.36,187.7v14.77c-0.93-0.23-2.32-0.39-3.48-0.39c-8.58,0-14.15,5.33-14.15,14.15v13.14h-16.47v-41.52
		h16.08v16.62h0.46c1.08-7.81,3.32-13.3,8.43-15.93c1.55-0.77,3.63-1.16,5.88-1.16C460.2,187.39,461.28,187.47,462.36,187.7z"/>
	<linearGradient id="SVGID_44_" gradientUnits="userSpaceOnUse" x1="74.8698" y1="353.7183" x2="991.1541" y2="47.0123">
		<stop  offset="0" style="stop-color:#FF898C"/>
		<stop  offset="1" style="stop-color:#ED1E79"/>
	</linearGradient>
	<path class="st43" d="M538.9,172.93v56.44h-16.47v-9.82h-0.31c-2.4,6.88-7.42,10.75-14.92,10.75c-10.36,0-18.55-7.58-18.55-21.65
		c0-13.92,7.89-21.72,18.79-21.72c7.27,0,12.37,4.02,14.69,10.67h0.31v-24.66H538.9z M522.51,209.19v-1.16
		c0-5.95-3.71-9.59-8.66-9.59c-5.26,0-8.43,4.1-8.43,10.21s3.17,10.13,8.43,10.13C518.95,218.78,522.51,214.91,522.51,209.19z"/>
	<linearGradient id="SVGID_45_" gradientUnits="userSpaceOnUse" x1="81.0251" y1="372.1071" x2="997.3094" y2="65.4011">
		<stop  offset="0" style="stop-color:#FF898C"/>
		<stop  offset="1" style="stop-color:#ED1E79"/>
	</linearGradient>
	<path class="st44" d="M592.55,210.2l-30.77-0.08c0.31,5.72,2.78,8.58,8.19,8.58c4.02,0,7.65-1.47,9.05-7.04l13.22,3.71
		c-3.63,11.21-12.52,14.92-23.43,14.92c-15.08,0-23.66-8.2-23.66-21.11c0-13.38,9.51-22.27,24.12-22.27
		C583.43,186.92,592.71,195.35,592.55,210.2z M562.01,204.63h14.84c-0.93-4.87-3.4-6.88-7.11-6.88
		C565.57,197.75,562.94,199.84,562.01,204.63z"/>
	<linearGradient id="SVGID_46_" gradientUnits="userSpaceOnUse" x1="85.9253" y1="386.7467" x2="1002.2096" y2="80.0407">
		<stop  offset="0" style="stop-color:#FF898C"/>
		<stop  offset="1" style="stop-color:#ED1E79"/>
	</linearGradient>
	<path class="st45" d="M605.38,214.22c2.63,3.79,6.88,5.88,12.91,5.88c4.41,0,6.65-1.47,6.65-3.4c0-1.39-1.01-2.01-3.48-2.24
		c-4.02-0.39-7.81-0.62-11.06-1c-6.88-0.77-13.22-4.1-13.22-12.29c0-9.05,8.66-14.23,20.33-14.23c7.89,0,15.31,2.16,20.26,7.34
		l-7.81,7.5c-3.63-3.4-8.04-4.72-12.37-4.72c-3.48,0-5.8,1.24-5.8,2.94c0,1.24,0.85,1.93,3.09,2.16c3.32,0.31,6.88,0.7,9.82,1.01
		c8.27,0.85,14.77,4.02,14.77,12.22c0,9.59-8.27,14.92-21.8,14.92c-10.28,0-18.63-2.94-22.34-10.59L605.38,214.22z"/>
	<linearGradient id="SVGID_47_" gradientUnits="userSpaceOnUse" x1="87.2625" y1="390.7416" x2="1003.5468" y2="84.0355">
		<stop  offset="0" style="stop-color:#FF898C"/>
		<stop  offset="1" style="stop-color:#ED1E79"/>
	</linearGradient>
	<path class="st46" d="M661.98,172.93v11.29h-16.55v-11.29H661.98z M645.43,187.85h16.47v41.52h-16.47V187.85z"/>
	<linearGradient id="SVGID_48_" gradientUnits="userSpaceOnUse" x1="94.7729" y1="413.1788" x2="1011.0572" y2="106.4728">
		<stop  offset="0" style="stop-color:#FF898C"/>
		<stop  offset="1" style="stop-color:#ED1E79"/>
	</linearGradient>
	<path class="st47" d="M717.64,229.52c0,10.36-11.37,16.08-28.22,16.08c-14.07,0-19.48-4.1-19.48-8.81c0-3.94,3.63-5.57,8.74-5.88
		v-0.62c-7.04-0.23-10.82-3.25-10.82-8.27c0-5.18,4.18-8.97,11.67-10.13v-0.31c-6.18-2.24-9.66-6.18-9.66-11.36
		c0-8.04,8.27-13.3,22.34-13.3c3.63,0,6.88,0.39,9.66,1l0.85-12.83h14.46v0.39l-11.67,13.61c5.72,2.24,8.89,6.11,8.89,11.13
		c0,8.04-8.35,13.22-22.19,13.22c-2.86,0-5.41-0.23-7.81-0.62c-2.32,0.54-3.25,1.47-3.25,2.71c0,1.16,1.01,1.93,3.56,1.93h15.31
		C711.22,217.46,717.64,221.48,717.64,229.52z M703.26,233c0-1.62-1.47-2.09-5.18-2.09h-13.22c-2.63,0-3.4,1.16-3.4,2.47
		c0,2.63,3.25,4.1,10.05,4.1C698.55,237.49,703.26,235.94,703.26,233z M686.48,200.22c0,3.63,2.09,5.26,5.64,5.26
		c3.48,0,5.64-1.62,5.64-5.26c0-3.71-2.16-5.33-5.64-5.33C688.73,194.89,686.48,196.51,686.48,200.22z"/>
	<linearGradient id="SVGID_49_" gradientUnits="userSpaceOnUse" x1="98.6684" y1="424.8166" x2="1014.9527" y2="118.1106">
		<stop  offset="0" style="stop-color:#FF898C"/>
		<stop  offset="1" style="stop-color:#ED1E79"/>
	</linearGradient>
	<path class="st48" d="M767.27,202.7v26.67h-16.47v-23.66c0-3.87-1.78-6.34-5.8-6.34c-3.56,0-6.65,1.93-6.65,7.96v22.03h-16.47
		v-41.52h15.93v10.28h0.46c1.86-6.34,6.18-11.21,14.69-11.21C762.09,186.92,767.27,192.18,767.27,202.7z"/>
	<linearGradient id="SVGID_50_" gradientUnits="userSpaceOnUse" x1="103.7006" y1="439.8502" x2="1019.9849" y2="133.1441">
		<stop  offset="0" style="stop-color:#FF898C"/>
		<stop  offset="1" style="stop-color:#ED1E79"/>
	</linearGradient>
	<path class="st49" d="M781.81,214.22c2.63,3.79,6.88,5.88,12.91,5.88c4.41,0,6.65-1.47,6.65-3.4c0-1.39-1.01-2.01-3.48-2.24
		c-4.02-0.39-7.81-0.62-11.06-1c-6.88-0.77-13.22-4.1-13.22-12.29c0-9.05,8.66-14.23,20.33-14.23c7.89,0,15.31,2.16,20.26,7.34
		l-7.81,7.5c-3.63-3.4-8.04-4.72-12.37-4.72c-3.48,0-5.8,1.24-5.8,2.94c0,1.24,0.85,1.93,3.09,2.16c3.32,0.31,6.88,0.7,9.82,1.01
		c8.27,0.85,14.77,4.02,14.77,12.22c0,9.59-8.27,14.92-21.8,14.92c-10.28,0-18.63-2.94-22.34-10.59L781.81,214.22z"/>
	<linearGradient id="SVGID_51_" gradientUnits="userSpaceOnUse" x1="111.7071" y1="463.7697" x2="1027.9915" y2="157.0637">
		<stop  offset="0" style="stop-color:#FF898C"/>
		<stop  offset="1" style="stop-color:#ED1E79"/>
	</linearGradient>
	<path class="st50" d="M893.6,218.16l-0.08,9.97c-2.4,1.08-6.73,2.01-10.59,2.01c-8.35,0-10.82-3.79-10.82-8.58v-1.24h-0.39
		c-2.24,5.49-7.34,9.97-15.39,9.97c-8.04,0-13.76-4.87-13.76-11.13c0-4.79,3.09-8.12,9.82-10.44c3.87-1.31,10.59-3.17,19.17-5.57
		v-0.08c0-3.17-2.55-4.95-6.42-4.95c-3.79,0-7.35,1.55-9.74,7.42l-12.45-4.25c4.33-10.82,12.76-14.3,23.73-14.3
		c14.15,0,21.34,6.73,21.34,16.39v11.06c0,1.47,0,3.94,2.86,3.94C891.59,218.39,892.59,218.31,893.6,218.16z M871.57,214.68v-6.42
		l-8.2,2.78c-2.94,1.01-4.33,2.01-4.33,3.71c0,1.86,1.55,3.94,4.79,3.94C867.16,218.7,870.56,216.85,871.57,214.68z"/>
	<linearGradient id="SVGID_52_" gradientUnits="userSpaceOnUse" x1="116.506" y1="478.1064" x2="1032.7903" y2="171.4003">
		<stop  offset="0" style="stop-color:#FF898C"/>
		<stop  offset="1" style="stop-color:#ED1E79"/>
	</linearGradient>
	<path class="st51" d="M944.31,202.7v26.67h-16.47v-23.66c0-3.87-1.78-6.34-5.8-6.34c-3.56,0-6.65,1.93-6.65,7.96v22.03h-16.47
		v-41.52h15.93v10.28h0.46c1.86-6.34,6.18-11.21,14.69-11.21C939.13,186.92,944.31,192.18,944.31,202.7z"/>
	<linearGradient id="SVGID_53_" gradientUnits="userSpaceOnUse" x1="121.3642" y1="492.6203" x2="1037.6484" y2="185.9143">
		<stop  offset="0" style="stop-color:#FF898C"/>
		<stop  offset="1" style="stop-color:#ED1E79"/>
	</linearGradient>
	<path class="st52" d="M1000.36,172.93v56.44H983.9v-9.82h-0.31c-2.4,6.88-7.42,10.75-14.92,10.75c-10.36,0-18.55-7.58-18.55-21.65
		c0-13.92,7.89-21.72,18.79-21.72c7.27,0,12.37,4.02,14.69,10.67h0.31v-24.66H1000.36z M983.97,209.19v-1.16
		c0-5.95-3.71-9.59-8.66-9.59c-5.26,0-8.43,4.1-8.43,10.21s3.17,10.13,8.43,10.13C980.42,218.78,983.97,214.91,983.97,209.19z"/>
	<linearGradient id="SVGID_54_" gradientUnits="userSpaceOnUse" x1="48.2954" y1="274.3271" x2="964.5797" y2="-32.3789">
		<stop  offset="0" style="stop-color:#FF898C"/>
		<stop  offset="1" style="stop-color:#ED1E79"/>
	</linearGradient>
	<path class="st53" d="M29.35,255.23v11.29H12.8v-11.29H29.35z M12.8,270.15h16.47v41.52H12.8V270.15z"/>
	<linearGradient id="SVGID_55_" gradientUnits="userSpaceOnUse" x1="50.8269" y1="281.89" x2="967.1111" y2="-24.816">
		<stop  offset="0" style="stop-color:#FF898C"/>
		<stop  offset="1" style="stop-color:#ED1E79"/>
	</linearGradient>
	<path class="st54" d="M37.93,255.23H54.4v56.44H37.93V255.23z"/>
	<linearGradient id="SVGID_56_" gradientUnits="userSpaceOnUse" x1="53.3585" y1="289.4532" x2="969.6428" y2="-17.2528">
		<stop  offset="0" style="stop-color:#FF898C"/>
		<stop  offset="1" style="stop-color:#ED1E79"/>
	</linearGradient>
	<path class="st55" d="M63.06,255.23h16.47v56.44H63.06V255.23z"/>
	<linearGradient id="SVGID_57_" gradientUnits="userSpaceOnUse" x1="59.5262" y1="307.8792" x2="975.8104" y2="1.1732">
		<stop  offset="0" style="stop-color:#FF898C"/>
		<stop  offset="1" style="stop-color:#ED1E79"/>
	</linearGradient>
	<path class="st56" d="M132.87,270.15v41.52h-15.93v-10.36h-0.39c-1.93,6.34-6.26,11.29-14.77,11.29c-9.05,0-14.23-5.33-14.23-15.85
		v-26.6h16.47v23.58c0,3.87,1.7,6.34,5.8,6.34c3.56,0,6.57-1.93,6.57-7.96v-21.96H132.87z"/>
	<linearGradient id="SVGID_58_" gradientUnits="userSpaceOnUse" x1="64.6089" y1="323.0638" x2="980.8932" y2="16.3577">
		<stop  offset="0" style="stop-color:#FF898C"/>
		<stop  offset="1" style="stop-color:#ED1E79"/>
	</linearGradient>
	<path class="st57" d="M147.94,296.52c2.63,3.79,6.88,5.88,12.91,5.88c4.41,0,6.65-1.47,6.65-3.4c0-1.39-1.01-2.01-3.48-2.24
		c-4.02-0.39-7.81-0.62-11.06-1c-6.88-0.77-13.22-4.1-13.22-12.29c0-9.05,8.66-14.23,20.33-14.23c7.89,0,15.31,2.16,20.26,7.34
		l-7.81,7.5c-3.63-3.4-8.04-4.72-12.37-4.72c-3.48,0-5.8,1.24-5.8,2.94c0,1.24,0.85,1.93,3.09,2.16c3.32,0.31,6.88,0.7,9.82,1.01
		c8.27,0.85,14.77,4.02,14.77,12.22c0,9.59-8.27,14.92-21.8,14.92c-10.28,0-18.63-2.94-22.34-10.59L147.94,296.52z"/>
	<linearGradient id="SVGID_59_" gradientUnits="userSpaceOnUse" x1="67.5298" y1="331.7899" x2="983.814" y2="25.0838">
		<stop  offset="0" style="stop-color:#FF898C"/>
		<stop  offset="1" style="stop-color:#ED1E79"/>
	</linearGradient>
	<path class="st58" d="M192.63,270.15l6.73-11.98h7.11l0.23,11.98h10.82v11.36H206.7l-0.08,11.13c-0.08,4.56,0.85,7.04,5.8,7.04
		c1.62,0,3.4-0.15,5.18-0.54v11.91c-3.32,0.93-6.96,1.47-11.98,1.47c-12.83,0-15.39-5.26-15.39-11.36v-19.64h-6.03v-11.36H192.63z"
		/>
	<linearGradient id="SVGID_60_" gradientUnits="userSpaceOnUse" x1="71.8371" y1="344.658" x2="988.1213" y2="37.952">
		<stop  offset="0" style="stop-color:#FF898C"/>
		<stop  offset="1" style="stop-color:#ED1E79"/>
	</linearGradient>
	<path class="st59" d="M258.27,270v14.77c-0.93-0.23-2.32-0.39-3.48-0.39c-8.58,0-14.15,5.33-14.15,14.15v13.14h-16.47v-41.52h16.08
		v16.62h0.46c1.08-7.81,3.32-13.3,8.43-15.93c1.55-0.77,3.63-1.16,5.88-1.16C256.1,269.69,257.18,269.77,258.27,270z"/>
	<linearGradient id="SVGID_61_" gradientUnits="userSpaceOnUse" x1="77.8109" y1="362.5048" x2="994.0952" y2="55.7988">
		<stop  offset="0" style="stop-color:#FF898C"/>
		<stop  offset="1" style="stop-color:#ED1E79"/>
	</linearGradient>
	<path class="st60" d="M311.3,300.46l-0.08,9.97c-2.4,1.08-6.73,2.01-10.59,2.01c-8.35,0-10.82-3.79-10.82-8.58v-1.24h-0.39
		c-2.24,5.49-7.34,9.97-15.39,9.97c-8.04,0-13.76-4.87-13.76-11.13c0-4.79,3.09-8.12,9.82-10.44c3.87-1.31,10.59-3.17,19.17-5.57
		v-0.08c0-3.17-2.55-4.95-6.42-4.95c-3.79,0-7.35,1.55-9.74,7.42l-12.45-4.25c4.33-10.82,12.76-14.3,23.73-14.3
		c14.15,0,21.34,6.73,21.34,16.39v11.06c0,1.47,0,3.94,2.86,3.94C309.29,300.69,310.3,300.61,311.3,300.46z M289.27,296.98v-6.42
		l-8.2,2.78c-2.94,1.01-4.33,2.01-4.33,3.71c0,1.86,1.55,3.94,4.79,3.94C284.86,301,288.26,299.15,289.27,296.98z"/>
	<linearGradient id="SVGID_62_" gradientUnits="userSpaceOnUse" x1="80.4524" y1="370.3964" x2="996.7367" y2="63.6903">
		<stop  offset="0" style="stop-color:#FF898C"/>
		<stop  offset="1" style="stop-color:#ED1E79"/>
	</linearGradient>
	<path class="st61" d="M320.89,270.15l6.73-11.98h7.11l0.23,11.98h10.82v11.36h-10.82l-0.08,11.13c-0.08,4.56,0.85,7.04,5.8,7.04
		c1.62,0,3.4-0.15,5.18-0.54v11.91c-3.32,0.93-6.96,1.47-11.98,1.47c-12.83,0-15.39-5.26-15.39-11.36v-19.64h-6.03v-11.36H320.89z"
		/>
	<linearGradient id="SVGID_63_" gradientUnits="userSpaceOnUse" x1="82.5139" y1="376.5551" x2="998.7982" y2="69.8491">
		<stop  offset="0" style="stop-color:#FF898C"/>
		<stop  offset="1" style="stop-color:#ED1E79"/>
	</linearGradient>
	<path class="st62" d="M368.98,255.23v11.29h-16.55v-11.29H368.98z M352.43,270.15h16.47v41.52h-16.47V270.15z"/>
	<linearGradient id="SVGID_64_" gradientUnits="userSpaceOnUse" x1="88.7448" y1="395.1698" x2="1005.0291" y2="88.4638">
		<stop  offset="0" style="stop-color:#FF898C"/>
		<stop  offset="1" style="stop-color:#ED1E79"/>
	</linearGradient>
	<path class="st63" d="M425.18,290.8c0,13.37-9.28,21.8-24.97,21.8s-24.97-8.43-24.97-21.8c0-13.38,9.59-21.57,24.97-21.57
		C415.67,269.23,425.18,277.42,425.18,290.8z M408.33,291.26c0-6.26-2.63-10.82-8.12-10.82c-5.41,0-8.2,4.48-8.2,10.82
		c0,6.42,2.78,10.21,8.2,10.21C405.54,301.46,408.33,297.68,408.33,291.26z"/>
	<linearGradient id="SVGID_65_" gradientUnits="userSpaceOnUse" x1="94.1848" y1="411.422" x2="1010.4691" y2="104.7159">
		<stop  offset="0" style="stop-color:#FF898C"/>
		<stop  offset="1" style="stop-color:#ED1E79"/>
	</linearGradient>
	<path class="st64" d="M476.9,285v26.67h-16.47v-23.66c0-3.87-1.78-6.34-5.8-6.34c-3.56,0-6.65,1.93-6.65,7.96v22.03h-16.47v-41.52
		h15.93v10.28h0.46c1.86-6.34,6.18-11.21,14.69-11.21C471.72,269.23,476.9,274.48,476.9,285z"/>
	<linearGradient id="SVGID_66_" gradientUnits="userSpaceOnUse" x1="99.217" y1="426.4555" x2="1015.5013" y2="119.7495">
		<stop  offset="0" style="stop-color:#FF898C"/>
		<stop  offset="1" style="stop-color:#ED1E79"/>
	</linearGradient>
	<path class="st65" d="M491.43,296.52c2.63,3.79,6.88,5.88,12.91,5.88c4.41,0,6.65-1.47,6.65-3.4c0-1.39-1.01-2.01-3.48-2.24
		c-4.02-0.39-7.81-0.62-11.06-1c-6.88-0.77-13.22-4.1-13.22-12.29c0-9.05,8.66-14.23,20.33-14.23c7.89,0,15.31,2.16,20.26,7.34
		l-7.81,7.5c-3.63-3.4-8.04-4.72-12.37-4.72c-3.48,0-5.8,1.24-5.8,2.94c0,1.24,0.85,1.93,3.09,2.16c3.32,0.31,6.88,0.7,9.82,1.01
		c8.27,0.85,14.77,4.02,14.77,12.22c0,9.59-8.27,14.92-21.8,14.92c-10.28,0-18.63-2.94-22.34-10.59L491.43,296.52z"/>
	<linearGradient id="SVGID_67_" gradientUnits="userSpaceOnUse" x1="104.4824" y1="442.1859" x2="1020.7667" y2="135.4799">
		<stop  offset="0" style="stop-color:#FF898C"/>
		<stop  offset="1" style="stop-color:#ED1E79"/>
	</linearGradient>
	<path class="st66" d="M559.39,270.15l6.73-11.98h7.11l0.23,11.98h10.82v11.36h-10.82l-0.08,11.13c-0.08,4.56,0.85,7.04,5.8,7.04
		c1.62,0,3.4-0.15,5.18-0.54v11.91c-3.32,0.93-6.96,1.47-11.98,1.47c-12.83,0-15.39-5.26-15.39-11.36v-19.64h-6.03v-11.36H559.39z"
		/>
	<linearGradient id="SVGID_68_" gradientUnits="userSpaceOnUse" x1="110.2278" y1="459.3502" x2="1026.5121" y2="152.6441">
		<stop  offset="0" style="stop-color:#FF898C"/>
		<stop  offset="1" style="stop-color:#ED1E79"/>
	</linearGradient>
	<path class="st67" d="M638.4,290.8c0,13.37-9.28,21.8-24.97,21.8s-24.97-8.43-24.97-21.8c0-13.38,9.59-21.57,24.97-21.57
		C628.89,269.23,638.4,277.42,638.4,290.8z M621.55,291.26c0-6.26-2.63-10.82-8.12-10.82c-5.41,0-8.2,4.48-8.2,10.82
		c0,6.42,2.78,10.21,8.2,10.21C618.76,301.46,621.55,297.68,621.55,291.26z"/>
	<linearGradient id="SVGID_69_" gradientUnits="userSpaceOnUse" x1="114.31" y1="471.5459" x2="1030.5942" y2="164.8399">
		<stop  offset="0" style="stop-color:#FF898C"/>
		<stop  offset="1" style="stop-color:#ED1E79"/>
	</linearGradient>
	<path class="st68" d="M668.01,255.23h16.47v56.44h-16.47V255.23z"/>
	<linearGradient id="SVGID_70_" gradientUnits="userSpaceOnUse" x1="116.8415" y1="479.1088" x2="1033.1259" y2="172.4028">
		<stop  offset="0" style="stop-color:#FF898C"/>
		<stop  offset="1" style="stop-color:#ED1E79"/>
	</linearGradient>
	<path class="st69" d="M709.68,255.23v11.29h-16.55v-11.29H709.68z M693.14,270.15h16.47v41.52h-16.47V270.15z"/>
	<linearGradient id="SVGID_71_" gradientUnits="userSpaceOnUse" x1="120.108" y1="488.8672" x2="1036.3922" y2="182.1612">
		<stop  offset="0" style="stop-color:#FF898C"/>
		<stop  offset="1" style="stop-color:#ED1E79"/>
	</linearGradient>
	<path class="st70" d="M747.18,281.52h-10.05v30.15h-16.47v-30.15h-6.18v-11.36h6.18v-2.86c0-7.89,6.26-12.99,17.16-12.99
		c3.79,0,6.8,0.46,9.43,1.08v8.81c-1.39-0.08-3.01-0.15-4.18-0.15c-5.8,0-5.95,2.16-5.95,4.33v1.78h10.05V281.52z"/>
	<linearGradient id="SVGID_72_" gradientUnits="userSpaceOnUse" x1="126.2763" y1="507.295" x2="1042.5605" y2="200.589">
		<stop  offset="0" style="stop-color:#FF898C"/>
		<stop  offset="1" style="stop-color:#ED1E79"/>
	</linearGradient>
	<path class="st71" d="M795.81,292.5l-30.77-0.08c0.31,5.72,2.78,8.58,8.19,8.58c4.02,0,7.65-1.47,9.05-7.04l13.22,3.71
		c-3.63,11.21-12.52,14.92-23.43,14.92c-15.08,0-23.66-8.2-23.66-21.11c0-13.38,9.51-22.27,24.12-22.27
		C786.68,269.23,795.96,277.65,795.81,292.5z M765.27,286.93h14.84c-0.93-4.87-3.4-6.88-7.11-6.88
		C768.82,280.05,766.2,282.14,765.27,286.93z"/>
	<linearGradient id="SVGID_73_" gradientUnits="userSpaceOnUse" x1="133.7622" y1="529.6592" x2="1050.0465" y2="222.9532">
		<stop  offset="0" style="stop-color:#FF898C"/>
		<stop  offset="1" style="stop-color:#ED1E79"/>
	</linearGradient>
	<path class="st72" d="M817.38,295.43v16.24h-16.24v-16.24H817.38z"/>
</g>
</svg>
