<?xml version="1.0" encoding="utf-8"?>
<!-- Generator: Adobe Illustrator 25.1.0, SVG Export Plug-In . SVG Version: 6.00 Build 0)  -->
<svg version="1.1" id="Layer_1" xmlns="http://www.w3.org/2000/svg" xmlns:xlink="http://www.w3.org/1999/xlink" x="0px" y="0px"
	 viewBox="0 0 375.47 137.35" style="enable-background:new 0 0 375.47 137.35;" xml:space="preserve">
<style type="text/css">
	.st0{fill:#000038;}
</style>
<g>
	<g>
		<path class="st0" d="M77.88,62.98v41.79h-25.8V67.71c0-6.06-2.79-9.93-9.08-9.93c-5.57,0-10.42,3.03-10.42,12.48v34.52H6.78V16.35
			h25.8v38.64h0.61c2.66-9.81,9.69-16.71,22.29-16.71C69.77,38.27,77.88,46.51,77.88,62.98z"/>
		<path class="st0" d="M165.21,72.07c0,20.95-14.54,34.16-39.12,34.16c-24.59,0-39.12-13.2-39.12-34.16s15.02-33.79,39.12-33.79
			C150.31,38.27,165.21,51.11,165.21,72.07z M138.81,72.79c0-9.81-4.12-16.96-12.72-16.96c-8.48,0-12.84,7.02-12.84,16.96
			c0,10.05,4.36,15.99,12.84,15.99C134.44,88.78,138.81,82.85,138.81,72.79z"/>
		<path class="st0" d="M288.88,62.98v41.79h-25.8V67.71c0-6.18-2.54-9.93-8.24-9.93c-5.33,0-9.93,3.03-9.93,12.48v34.52h-25.8V67.71
			c0-6.18-2.66-9.93-8.24-9.93c-5.45,0-9.93,3.03-9.93,12.48v34.52h-25.8V39.73h24.95v15.99h0.73c2.91-9.81,9.69-17.44,22.65-17.44
			c11.51,0,18.77,5.81,20.83,17.44h0.61c2.91-9.81,9.21-17.44,22.16-17.44C280.88,38.27,288.88,46.51,288.88,62.98z"/>
		<path class="st0" d="M372.21,74.73L324,74.61c0.48,8.96,4.36,13.44,12.84,13.44c6.3,0,11.99-2.3,14.17-11.02l20.71,5.81
			c-5.69,17.56-19.62,23.38-36.7,23.38c-23.62,0-37.06-12.84-37.06-33.07c0-20.95,14.9-34.88,37.79-34.88
			C357.91,38.27,372.45,51.47,372.21,74.73z M324.36,66.01h23.26c-1.45-7.63-5.33-10.78-11.14-10.78
			C329.93,55.23,325.81,58.5,324.36,66.01z"/>
	</g>
</g>
</svg>
