<?xml version="1.0" encoding="utf-8"?>
<!-- Generator: Adobe Illustrator 25.1.0, SVG Export Plug-In . SVG Version: 6.00 Build 0)  -->
<svg version="1.1" id="Layer_1" xmlns="http://www.w3.org/2000/svg" xmlns:xlink="http://www.w3.org/1999/xlink" x="0px" y="0px"
	 viewBox="0 0 578.83 137.35" style="enable-background:new 0 0 578.83 137.35;" xml:space="preserve">
<style type="text/css">
	.st0{fill:#FFFFFF;}
</style>
<g>
	<g>
		<path class="st0" d="M14.05,39.73l10.54-18.77h11.14l0.36,18.77h16.96v17.81H36.09l-0.12,17.44C35.85,82.12,37.31,86,45.06,86
			c2.54,0,5.33-0.24,8.12-0.85v18.65c-5.21,1.45-10.9,2.3-18.77,2.3c-20.11,0-24.1-8.24-24.1-17.81V57.53H0.85V39.73H14.05z"/>
		<path class="st0" d="M133.48,39.73v65.04h-24.95V88.54h-0.61c-3.03,9.93-9.81,17.68-23.13,17.68c-14.17,0-22.29-8.36-22.29-24.83
			V39.73h25.8v36.94c0,6.06,2.67,9.93,9.08,9.93c5.57,0,10.3-3.03,10.3-12.48v-34.4H133.48z"/>
		<path class="st0" d="M154.31,39.73l10.54-18.77h11.14l0.36,18.77h16.96v17.81h-16.96l-0.12,17.44
			c-0.12,7.15,1.33,11.02,9.08,11.02c2.54,0,5.33-0.24,8.12-0.85v18.65c-5.21,1.45-10.9,2.3-18.77,2.3
			c-20.11,0-24.1-8.24-24.1-17.81V57.53h-9.45V39.73H154.31z"/>
		<path class="st0" d="M278.09,72.07c0,20.95-14.54,34.16-39.12,34.16s-39.12-13.2-39.12-34.16s15.02-33.79,39.12-33.79
			C263.19,38.27,278.09,51.11,278.09,72.07z M251.69,72.79c0-9.81-4.12-16.96-12.72-16.96c-8.48,0-12.84,7.02-12.84,16.96
			c0,10.05,4.36,15.99,12.84,15.99C247.33,88.78,251.69,82.85,251.69,72.79z"/>
		<path class="st0" d="M341.44,39.48v23.13c-1.45-0.36-3.63-0.61-5.45-0.61c-13.44,0-22.17,8.36-22.17,22.17v20.59h-25.8V39.73
			h25.19v26.04h0.73c1.7-12.23,5.21-20.83,13.2-24.95c2.42-1.21,5.69-1.82,9.21-1.82C338.05,39,339.74,39.12,341.44,39.48z"/>
		<path class="st0" d="M375.71,16.35v17.68h-25.92V16.35H375.71z M349.79,39.73h25.8v65.04h-25.8V39.73z"/>
		<path class="st0" d="M465.1,87.21l-0.12,15.62c-3.75,1.7-10.54,3.15-16.59,3.15c-13.08,0-16.96-5.94-16.96-13.44V90.6h-0.61
			c-3.51,8.6-11.51,15.62-24.1,15.62c-12.6,0-21.56-7.63-21.56-17.44c0-7.51,4.84-12.72,15.38-16.35
			c6.06-2.06,16.59-4.97,30.04-8.72v-0.12c0-4.97-4-7.75-10.05-7.75c-5.94,0-11.51,2.42-15.26,11.63l-19.5-6.66
			c6.78-16.96,19.99-22.41,37.18-22.41c22.17,0,33.43,10.54,33.43,25.68v17.32c0,2.3,0,6.18,4.48,6.18
			C461.96,87.57,463.53,87.45,465.1,87.21z M430.58,81.76V71.7l-12.84,4.36c-4.6,1.57-6.78,3.15-6.78,5.81
			c0,2.91,2.42,6.18,7.51,6.18C423.68,88.05,429.01,85.15,430.58,81.76z"/>
		<path class="st0" d="M473.46,16.35h25.8v88.42h-25.8V16.35z"/>
		<path class="st0" d="M522.88,81.03c4.12,5.94,10.78,9.21,20.23,9.21c6.9,0,10.42-2.3,10.42-5.33c0-2.18-1.57-3.15-5.45-3.51
			c-6.3-0.61-12.23-0.97-17.32-1.57c-10.78-1.21-20.71-6.42-20.71-19.26c0-14.17,13.57-22.29,31.86-22.29
			c12.35,0,23.98,3.39,31.73,11.51l-12.23,11.75c-5.69-5.33-12.6-7.39-19.38-7.39c-5.45,0-9.08,1.94-9.08,4.6
			c0,1.94,1.33,3.03,4.84,3.39c5.21,0.48,10.78,1.09,15.38,1.57c12.96,1.33,23.13,6.3,23.13,19.14c0,15.02-12.96,23.38-34.16,23.38
			c-16.11,0-29.19-4.6-35-16.59L522.88,81.03z"/>
	</g>
</g>
</svg>
