<?xml version="1.0" encoding="utf-8"?>
<!-- Generator: Adobe Illustrator 25.1.0, SVG Export Plug-In . SVG Version: 6.00 Build 0)  -->
<svg version="1.1" id="Layer_1" xmlns="http://www.w3.org/2000/svg" xmlns:xlink="http://www.w3.org/1999/xlink" x="0px" y="0px"
	 viewBox="0 0 1005 175" style="enable-background:new 0 0 1005 175;" xml:space="preserve">
<style type="text/css">
	.st0{fill:url(#SVGID_1_);}
	.st1{fill:url(#SVGID_2_);}
	.st2{fill:url(#SVGID_3_);}
	.st3{fill:url(#SVGID_4_);}
	.st4{fill:url(#SVGID_5_);}
	.st5{fill:url(#SVGID_6_);}
	.st6{fill:url(#SVGID_7_);}
	.st7{fill:url(#SVGID_8_);}
	.st8{fill:url(#SVGID_9_);}
	.st9{fill:url(#SVGID_10_);}
	.st10{fill:url(#SVGID_11_);}
	.st11{fill:url(#SVGID_12_);}
	.st12{fill:url(#SVGID_13_);}
	.st13{fill:url(#SVGID_14_);}
	.st14{fill:url(#SVGID_15_);}
	.st15{fill:url(#SVGID_16_);}
	.st16{fill:url(#SVGID_17_);}
	.st17{fill:url(#SVGID_18_);}
	.st18{fill:url(#SVGID_19_);}
	.st19{fill:url(#SVGID_20_);}
	.st20{fill:url(#SVGID_21_);}
	.st21{fill:url(#SVGID_22_);}
	.st22{fill:url(#SVGID_23_);}
	.st23{fill:url(#SVGID_24_);}
	.st24{fill:url(#SVGID_25_);}
	.st25{fill:url(#SVGID_26_);}
	.st26{fill:url(#SVGID_27_);}
	.st27{fill:url(#SVGID_28_);}
	.st28{fill:url(#SVGID_29_);}
	.st29{fill:url(#SVGID_30_);}
	.st30{fill:url(#SVGID_31_);}
	.st31{fill:url(#SVGID_32_);}
	.st32{fill:url(#SVGID_33_);}
	.st33{fill:url(#SVGID_34_);}
</style>
<g>
	<linearGradient id="SVGID_1_" gradientUnits="userSpaceOnUse" x1="23.8709" y1="37.8703" x2="1005.775" y2="-141.8877">
		<stop  offset="0" style="stop-color:#FF898C"/>
		<stop  offset="1" style="stop-color:#ED1E79"/>
	</linearGradient>
	<path class="st0" d="M27.98,23.93v10.22H50.9v13.55H27.98v19.2H11.42V10.38h45.36v13.55H27.98z"/>
	<linearGradient id="SVGID_2_" gradientUnits="userSpaceOnUse" x1="26.7919" y1="53.8256" x2="1008.6959" y2="-125.9325">
		<stop  offset="0" style="stop-color:#FF898C"/>
		<stop  offset="1" style="stop-color:#ED1E79"/>
	</linearGradient>
	<path class="st1" d="M94.86,25.17v14.78c-0.93-0.23-2.32-0.39-3.48-0.39c-8.59,0-14.17,5.34-14.17,14.17v13.16H60.73V25.32h16.1
		v16.64h0.46c1.08-7.82,3.33-13.31,8.44-15.95c1.55-0.77,3.64-1.16,5.88-1.16C92.7,24.86,93.78,24.93,94.86,25.17z"/>
	<linearGradient id="SVGID_3_" gradientUnits="userSpaceOnUse" x1="28.4984" y1="63.1472" x2="1010.4024" y2="-116.6109">
		<stop  offset="0" style="stop-color:#FF898C"/>
		<stop  offset="1" style="stop-color:#ED1E79"/>
	</linearGradient>
	<path class="st2" d="M144.79,47.69l-30.81-0.08c0.31,5.73,2.79,8.59,8.21,8.59c4.03,0,7.66-1.47,9.06-7.04l13.24,3.72
		c-3.64,11.22-12.54,14.94-23.46,14.94c-15.09,0-23.69-8.21-23.69-21.13c0-13.39,9.52-22.29,24.15-22.29
		C135.66,24.39,144.95,32.83,144.79,47.69z M114.22,42.12h14.86c-0.93-4.88-3.41-6.89-7.12-6.89
		C117.78,35.23,115.15,37.32,114.22,42.12z"/>
	<linearGradient id="SVGID_4_" gradientUnits="userSpaceOnUse" x1="30.1702" y1="72.2791" x2="1012.0742" y2="-107.4789">
		<stop  offset="0" style="stop-color:#FF898C"/>
		<stop  offset="1" style="stop-color:#ED1E79"/>
	</linearGradient>
	<path class="st3" d="M196.35,47.69l-30.81-0.08c0.31,5.73,2.79,8.59,8.21,8.59c4.03,0,7.66-1.47,9.06-7.04l13.24,3.72
		c-3.64,11.22-12.54,14.94-23.46,14.94c-15.09,0-23.69-8.21-23.69-21.13c0-13.39,9.52-22.29,24.15-22.29
		C187.21,24.39,196.5,32.83,196.35,47.69z M165.77,42.12h14.86c-0.93-4.88-3.41-6.89-7.12-6.89
		C169.33,35.23,166.7,37.32,165.77,42.12z"/>
	<linearGradient id="SVGID_5_" gradientUnits="userSpaceOnUse" x1="32.5033" y1="85.0234" x2="1014.4073" y2="-94.7346">
		<stop  offset="0" style="stop-color:#FF898C"/>
		<stop  offset="1" style="stop-color:#ED1E79"/>
	</linearGradient>
	<path class="st4" d="M232.5,51.72c2.63,3.79,6.89,5.88,12.93,5.88c4.41,0,6.66-1.47,6.66-3.41c0-1.39-1.01-2.01-3.48-2.25
		c-4.03-0.39-7.82-0.62-11.07-1.01c-6.89-0.77-13.24-4.1-13.24-12.31c0-9.06,8.67-14.24,20.36-14.24c7.9,0,15.33,2.17,20.28,7.35
		l-7.82,7.51c-3.64-3.41-8.05-4.72-12.38-4.72c-3.48,0-5.81,1.24-5.81,2.94c0,1.24,0.85,1.94,3.1,2.17c3.33,0.31,6.89,0.7,9.83,1.01
		c8.28,0.85,14.79,4.03,14.79,12.23c0,9.6-8.28,14.94-21.83,14.94c-10.29,0-18.66-2.94-22.37-10.6L232.5,51.72z"/>
	<linearGradient id="SVGID_6_" gradientUnits="userSpaceOnUse" x1="32.9568" y1="87.5006" x2="1014.8608" y2="-92.2575">
		<stop  offset="0" style="stop-color:#FF898C"/>
		<stop  offset="1" style="stop-color:#ED1E79"/>
	</linearGradient>
	<path class="st5" d="M277.24,25.32l6.73-12h7.12l0.23,12h10.84V36.7h-10.84l-0.08,11.15c-0.08,4.57,0.85,7.04,5.81,7.04
		c1.62,0,3.41-0.15,5.19-0.54v11.92c-3.33,0.93-6.97,1.47-12,1.47c-12.85,0-15.4-5.26-15.4-11.38V36.7h-6.04V25.32H277.24z"/>
	<linearGradient id="SVGID_7_" gradientUnits="userSpaceOnUse" x1="35.2852" y1="100.2192" x2="1017.1892" y2="-79.5389">
		<stop  offset="0" style="stop-color:#FF898C"/>
		<stop  offset="1" style="stop-color:#ED1E79"/>
	</linearGradient>
	<path class="st6" d="M353.56,25.32v41.57h-15.95V56.52h-0.39c-1.93,6.35-6.27,11.3-14.78,11.3c-9.06,0-14.24-5.34-14.24-15.87
		V25.32h16.49v23.61c0,3.87,1.7,6.35,5.81,6.35c3.56,0,6.58-1.94,6.58-7.97V25.32H353.56z"/>
	<linearGradient id="SVGID_8_" gradientUnits="userSpaceOnUse" x1="35.9349" y1="103.768" x2="1017.8389" y2="-75.9901">
		<stop  offset="0" style="stop-color:#FF898C"/>
		<stop  offset="1" style="stop-color:#ED1E79"/>
	</linearGradient>
	<path class="st7" d="M409.45,23.54v1.78h10.06V36.7h-10.06v30.19h-16.49V36.7h-11.84v30.19h-16.49V36.7h-6.19V25.32h6.19v-2.86
		c0-7.9,6.27-13,17.26-13c2.79,0,5.73,0.39,7.9,1.01v8.9c-0.7-0.08-2.01-0.15-2.63-0.15c-5.5,0-6.04,1.7-6.04,4.33v1.78h11.84v-2.86
		c0-7.9,6.27-13,17.26-13c3.87,0,6.73,0.46,9.37,1.08v8.82c-1.47-0.08-2.86-0.15-4.1-0.15C410,19.2,409.45,20.91,409.45,23.54z"/>
	<linearGradient id="SVGID_9_" gradientUnits="userSpaceOnUse" x1="38.2461" y1="116.3926" x2="1020.1501" y2="-63.3654">
		<stop  offset="0" style="stop-color:#FF898C"/>
		<stop  offset="1" style="stop-color:#ED1E79"/>
	</linearGradient>
	<path class="st8" d="M476.64,36.7h-10.06v30.19h-16.49V36.7h-6.19V25.32h6.19v-2.86c0-7.9,6.27-13,17.18-13
		c3.79,0,6.81,0.46,9.44,1.08v8.82c-1.39-0.08-3.02-0.15-4.18-0.15c-5.81,0-5.96,2.17-5.96,4.33v1.78h10.06V36.7z"/>
	<linearGradient id="SVGID_10_" gradientUnits="userSpaceOnUse" x1="40.8632" y1="130.6883" x2="1022.7673" y2="-49.0697">
		<stop  offset="0" style="stop-color:#FF898C"/>
		<stop  offset="1" style="stop-color:#ED1E79"/>
	</linearGradient>
	<path class="st9" d="M527.89,45.99c0,13.39-9.29,21.83-25,21.83s-25-8.44-25-21.83c0-13.39,9.6-21.6,25-21.6
		C518.37,24.39,527.89,32.6,527.89,45.99z M511.01,46.45c0-6.27-2.63-10.84-8.13-10.84c-5.42,0-8.21,4.49-8.21,10.84
		c0,6.42,2.79,10.22,8.21,10.22C508.23,56.67,511.01,52.88,511.01,46.45z"/>
	<linearGradient id="SVGID_11_" gradientUnits="userSpaceOnUse" x1="42.1469" y1="137.7003" x2="1024.0509" y2="-42.0577">
		<stop  offset="0" style="stop-color:#FF898C"/>
		<stop  offset="1" style="stop-color:#ED1E79"/>
	</linearGradient>
	<path class="st10" d="M568.37,25.17v14.78c-0.93-0.23-2.32-0.39-3.48-0.39c-8.59,0-14.17,5.34-14.17,14.17v13.16h-16.49V25.32h16.1
		v16.64h0.46c1.08-7.82,3.33-13.31,8.44-15.95c1.55-0.77,3.64-1.16,5.88-1.16C566.21,24.86,567.29,24.93,568.37,25.17z"/>
	<linearGradient id="SVGID_12_" gradientUnits="userSpaceOnUse" x1="45.4474" y1="155.7289" x2="1027.3514" y2="-24.0291">
		<stop  offset="0" style="stop-color:#FF898C"/>
		<stop  offset="1" style="stop-color:#ED1E79"/>
	</linearGradient>
	<path class="st11" d="M643.85,25.32l-16.26,41.26c-4.49,11.53-11.46,16.57-23.3,16.57c-3.72,0-7.51-0.62-9.75-1.39l0.08-10.37
		c2.32,0.7,5.19,1.08,8.05,1.08c2.25,0,3.56-0.31,4.49-1.01c1.08-0.85,1.62-2.01,1.62-3.56c0-2.24-0.85-4.64-1.86-7.12l-14.71-35.45
		h18.11l7.97,28.41h0.46l7.82-28.41H643.85z"/>
	<linearGradient id="SVGID_13_" gradientUnits="userSpaceOnUse" x1="46.2502" y1="160.1139" x2="1028.1542" y2="-19.6441">
		<stop  offset="0" style="stop-color:#FF898C"/>
		<stop  offset="1" style="stop-color:#ED1E79"/>
	</linearGradient>
	<path class="st12" d="M694.01,45.99c0,13.39-9.29,21.83-25,21.83s-25-8.44-25-21.83c0-13.39,9.6-21.6,25-21.6
		C684.49,24.39,694.01,32.6,694.01,45.99z M677.13,46.45c0-6.27-2.63-10.84-8.13-10.84c-5.42,0-8.21,4.49-8.21,10.84
		c0,6.42,2.79,10.22,8.21,10.22C674.35,56.67,677.13,52.88,677.13,46.45z"/>
	<linearGradient id="SVGID_14_" gradientUnits="userSpaceOnUse" x1="47.9819" y1="169.5734" x2="1029.886" y2="-10.1846">
		<stop  offset="0" style="stop-color:#FF898C"/>
		<stop  offset="1" style="stop-color:#ED1E79"/>
	</linearGradient>
	<path class="st13" d="M745.1,25.32v41.57h-15.95V56.52h-0.39c-1.93,6.35-6.27,11.3-14.78,11.3c-9.06,0-14.24-5.34-14.24-15.87
		V25.32h16.49v23.61c0,3.87,1.7,6.35,5.81,6.35c3.56,0,6.58-1.94,6.58-7.97V25.32H745.1z"/>
	<linearGradient id="SVGID_15_" gradientUnits="userSpaceOnUse" x1="49.3159" y1="176.8599" x2="1031.22" y2="-2.8981">
		<stop  offset="0" style="stop-color:#FF898C"/>
		<stop  offset="1" style="stop-color:#ED1E79"/>
	</linearGradient>
	<path class="st14" d="M781.71,25.32l6.73-12h7.12l0.23,12h10.84V36.7H795.8l-0.08,11.15c-0.08,4.57,0.85,7.04,5.81,7.04
		c1.62,0,3.41-0.15,5.19-0.54v11.92c-3.33,0.93-6.97,1.47-12,1.47c-12.85,0-15.4-5.26-15.4-11.38V36.7h-6.04V25.32H781.71z"/>
	<linearGradient id="SVGID_16_" gradientUnits="userSpaceOnUse" x1="51.6597" y1="189.6626" x2="1033.5637" y2="9.9046">
		<stop  offset="0" style="stop-color:#FF898C"/>
		<stop  offset="1" style="stop-color:#ED1E79"/>
	</linearGradient>
	<path class="st15" d="M860.82,45.99c0,13.39-9.29,21.83-25,21.83s-25-8.44-25-21.83c0-13.39,9.6-21.6,25-21.6
		C851.3,24.39,860.82,32.6,860.82,45.99z M843.95,46.45c0-6.27-2.63-10.84-8.13-10.84c-5.42,0-8.21,4.49-8.21,10.84
		c0,6.42,2.79,10.22,8.21,10.22C841.16,56.67,843.95,52.88,843.95,46.45z"/>
	<linearGradient id="SVGID_17_" gradientUnits="userSpaceOnUse" x1="40.2201" y1="127.1757" x2="1022.1242" y2="-52.5823">
		<stop  offset="0" style="stop-color:#FF898C"/>
		<stop  offset="1" style="stop-color:#ED1E79"/>
	</linearGradient>
	<path class="st16" d="M55.62,107.73v41.57H39.67v-10.37h-0.39c-1.93,6.35-6.27,11.3-14.78,11.3c-9.06,0-14.24-5.34-14.24-15.87
		v-26.63h16.49v23.61c0,3.87,1.7,6.35,5.81,6.35c3.56,0,6.58-1.94,6.58-7.97v-21.98H55.62z"/>
	<linearGradient id="SVGID_18_" gradientUnits="userSpaceOnUse" x1="41.8537" y1="136.0989" x2="1023.7578" y2="-43.6591">
		<stop  offset="0" style="stop-color:#FF898C"/>
		<stop  offset="1" style="stop-color:#ED1E79"/>
	</linearGradient>
	<path class="st17" d="M70.71,134.12c2.63,3.79,6.89,5.88,12.93,5.88c4.41,0,6.66-1.47,6.66-3.41c0-1.39-1.01-2.01-3.48-2.25
		c-4.03-0.39-7.82-0.62-11.07-1.01c-6.89-0.77-13.24-4.1-13.24-12.31c0-9.06,8.67-14.24,20.36-14.24c7.9,0,15.33,2.17,20.28,7.35
		l-7.82,7.51c-3.64-3.41-8.05-4.72-12.38-4.72c-3.48,0-5.81,1.24-5.81,2.94c0,1.24,0.85,1.94,3.1,2.17c3.33,0.31,6.89,0.7,9.83,1.01
		c8.28,0.85,14.79,4.03,14.79,12.23c0,9.6-8.28,14.94-21.83,14.94c-10.29,0-18.66-2.94-22.37-10.6L70.71,134.12z"/>
	<linearGradient id="SVGID_19_" gradientUnits="userSpaceOnUse" x1="43.4566" y1="144.8544" x2="1025.3606" y2="-34.9036">
		<stop  offset="0" style="stop-color:#FF898C"/>
		<stop  offset="1" style="stop-color:#ED1E79"/>
	</linearGradient>
	<path class="st18" d="M155.94,130.1l-30.81-0.08c0.31,5.73,2.79,8.59,8.21,8.59c4.03,0,7.66-1.47,9.06-7.04l13.24,3.72
		c-3.64,11.22-12.54,14.94-23.46,14.94c-15.09,0-23.69-8.21-23.69-21.13c0-13.39,9.52-22.29,24.15-22.29
		C146.8,106.8,156.09,115.23,155.94,130.1z M125.36,124.52h14.86c-0.93-4.88-3.41-6.89-7.12-6.89
		C128.92,117.63,126.29,119.72,125.36,124.52z"/>
	<linearGradient id="SVGID_20_" gradientUnits="userSpaceOnUse" x1="44.5863" y1="151.0255" x2="1026.4904" y2="-28.7325">
		<stop  offset="0" style="stop-color:#FF898C"/>
		<stop  offset="1" style="stop-color:#ED1E79"/>
	</linearGradient>
	<path class="st19" d="M231.1,122.59v26.71h-16.49v-23.69c0-3.87-1.78-6.35-5.81-6.35c-3.56,0-6.66,1.94-6.66,7.97v22.06h-16.49
		V92.79h16.49v24.69h0.39c1.7-6.27,6.19-10.68,14.24-10.68C225.92,106.8,231.1,112.06,231.1,122.59z"/>
	<linearGradient id="SVGID_21_" gradientUnits="userSpaceOnUse" x1="47.6456" y1="167.7365" x2="1029.5497" y2="-12.0215">
		<stop  offset="0" style="stop-color:#FF898C"/>
		<stop  offset="1" style="stop-color:#ED1E79"/>
	</linearGradient>
	<path class="st20" d="M286.91,128.39c0,13.39-9.29,21.83-25,21.83s-25-8.44-25-21.83c0-13.39,9.6-21.6,25-21.6
		C277.39,106.8,286.91,115,286.91,128.39z M270.04,128.86c0-6.27-2.63-10.84-8.13-10.84c-5.42,0-8.21,4.49-8.21,10.84
		c0,6.42,2.79,10.22,8.21,10.22C267.25,139.08,270.04,135.28,270.04,128.86z"/>
	<linearGradient id="SVGID_22_" gradientUnits="userSpaceOnUse" x1="49.5381" y1="178.0737" x2="1031.4421" y2="-1.6843">
		<stop  offset="0" style="stop-color:#FF898C"/>
		<stop  offset="1" style="stop-color:#ED1E79"/>
	</linearGradient>
	<path class="st21" d="M363.16,107.73l-11.15,41.57h-18.96l-6.89-25.23h-0.15l-7.35,25.23h-18.5l-11.61-41.57h17.42l5.5,26.63h0.39
		l7.59-26.63h13.7l7.59,26.63h0.39l5.65-26.63H363.16z"/>
	<linearGradient id="SVGID_23_" gradientUnits="userSpaceOnUse" x1="51.768" y1="190.2543" x2="1033.672" y2="10.4962">
		<stop  offset="0" style="stop-color:#FF898C"/>
		<stop  offset="1" style="stop-color:#ED1E79"/>
	</linearGradient>
	<path class="st22" d="M412.24,130.1l-30.81-0.08c0.31,5.73,2.79,8.59,8.21,8.59c4.03,0,7.66-1.47,9.06-7.04l13.24,3.72
		c-3.64,11.22-12.54,14.94-23.46,14.94c-15.09,0-23.69-8.21-23.69-21.13c0-13.39,9.52-22.29,24.15-22.29
		C403.11,106.8,412.4,115.23,412.24,130.1z M381.67,124.52h14.86c-0.93-4.88-3.41-6.89-7.12-6.89
		C385.23,117.63,382.59,119.72,381.67,124.52z"/>
	<linearGradient id="SVGID_24_" gradientUnits="userSpaceOnUse" x1="53.1164" y1="197.6199" x2="1035.0205" y2="17.8619">
		<stop  offset="0" style="stop-color:#FF898C"/>
		<stop  offset="1" style="stop-color:#ED1E79"/>
	</linearGradient>
	<path class="st23" d="M464.03,107.73l-15.64,41.57h-19.82l-15.71-41.57h17.73l7.74,27.09h0.7l8.13-27.09H464.03z"/>
	<linearGradient id="SVGID_25_" gradientUnits="userSpaceOnUse" x1="54.9936" y1="207.8739" x2="1036.8977" y2="28.1159">
		<stop  offset="0" style="stop-color:#FF898C"/>
		<stop  offset="1" style="stop-color:#ED1E79"/>
	</linearGradient>
	<path class="st24" d="M511.71,130.1l-30.81-0.08c0.31,5.73,2.79,8.59,8.21,8.59c4.03,0,7.66-1.47,9.06-7.04l13.24,3.72
		c-3.64,11.22-12.54,14.94-23.46,14.94c-15.09,0-23.69-8.21-23.69-21.13c0-13.39,9.52-22.29,24.15-22.29
		C502.58,106.8,511.87,115.23,511.71,130.1z M481.14,124.52H496c-0.93-4.88-3.41-6.89-7.12-6.89
		C484.7,117.63,482.06,119.72,481.14,124.52z"/>
	<linearGradient id="SVGID_26_" gradientUnits="userSpaceOnUse" x1="56.2216" y1="214.5814" x2="1038.1256" y2="34.8234">
		<stop  offset="0" style="stop-color:#FF898C"/>
		<stop  offset="1" style="stop-color:#ED1E79"/>
	</linearGradient>
	<path class="st25" d="M552.27,107.57v14.78c-0.93-0.23-2.32-0.39-3.48-0.39c-8.59,0-14.17,5.34-14.17,14.17v13.16h-16.49v-41.57
		h16.1v16.64h0.46c1.08-7.82,3.33-13.31,8.44-15.95c1.55-0.77,3.64-1.16,5.88-1.16C550.11,107.26,551.19,107.34,552.27,107.57z"/>
	<linearGradient id="SVGID_27_" gradientUnits="userSpaceOnUse" x1="59.5221" y1="232.61" x2="1041.4261" y2="52.8519">
		<stop  offset="0" style="stop-color:#FF898C"/>
		<stop  offset="1" style="stop-color:#ED1E79"/>
	</linearGradient>
	<path class="st26" d="M627.75,107.73l-16.26,41.26c-4.49,11.53-11.46,16.57-23.3,16.57c-3.72,0-7.51-0.62-9.75-1.39l0.08-10.37
		c2.32,0.7,5.19,1.08,8.05,1.08c2.25,0,3.56-0.31,4.49-1.01c1.08-0.85,1.62-2.01,1.62-3.56c0-2.24-0.85-4.64-1.86-7.12l-14.71-35.45
		h18.11l7.97,28.41h0.46l7.82-28.41H627.75z"/>
	<linearGradient id="SVGID_28_" gradientUnits="userSpaceOnUse" x1="60.3248" y1="236.995" x2="1042.2289" y2="57.2369">
		<stop  offset="0" style="stop-color:#FF898C"/>
		<stop  offset="1" style="stop-color:#ED1E79"/>
	</linearGradient>
	<path class="st27" d="M677.91,128.39c0,13.39-9.29,21.83-25,21.83s-25-8.44-25-21.83c0-13.39,9.6-21.6,25-21.6
		C668.39,106.8,677.91,115,677.91,128.39z M661.03,128.86c0-6.27-2.63-10.84-8.13-10.84c-5.42,0-8.21,4.49-8.21,10.84
		c0,6.42,2.79,10.22,8.21,10.22C658.25,139.08,661.03,135.28,661.03,128.86z"/>
	<linearGradient id="SVGID_29_" gradientUnits="userSpaceOnUse" x1="62.0566" y1="246.4543" x2="1043.9607" y2="66.6963">
		<stop  offset="0" style="stop-color:#FF898C"/>
		<stop  offset="1" style="stop-color:#ED1E79"/>
	</linearGradient>
	<path class="st28" d="M729,107.73v41.57h-15.95v-10.37h-0.39c-1.93,6.35-6.27,11.3-14.78,11.3c-9.06,0-14.24-5.34-14.24-15.87
		v-26.63h16.49v23.61c0,3.87,1.7,6.35,5.81,6.35c3.56,0,6.58-1.94,6.58-7.97v-21.98H729z"/>
	<linearGradient id="SVGID_30_" gradientUnits="userSpaceOnUse" x1="64.7174" y1="260.9888" x2="1046.6215" y2="81.2307">
		<stop  offset="0" style="stop-color:#FF898C"/>
		<stop  offset="1" style="stop-color:#ED1E79"/>
	</linearGradient>
	<path class="st29" d="M831.25,107.73l-11.15,41.57h-18.96l-6.89-25.23h-0.15l-7.35,25.23h-18.5l-11.61-41.57h17.42l5.5,26.63h0.39
		l7.59-26.63h13.7l7.59,26.63h0.39l5.65-26.63H831.25z"/>
	<linearGradient id="SVGID_31_" gradientUnits="userSpaceOnUse" x1="67.1622" y1="274.3432" x2="1049.0663" y2="94.5852">
		<stop  offset="0" style="stop-color:#FF898C"/>
		<stop  offset="1" style="stop-color:#ED1E79"/>
	</linearGradient>
	<path class="st30" d="M883.43,138.07l-0.08,9.99c-2.4,1.08-6.73,2.01-10.6,2.01c-8.36,0-10.84-3.79-10.84-8.59v-1.24h-0.39
		c-2.24,5.5-7.35,9.99-15.4,9.99c-8.05,0-13.78-4.88-13.78-11.15c0-4.8,3.1-8.13,9.83-10.45c3.87-1.32,10.6-3.17,19.2-5.57v-0.08
		c0-3.17-2.55-4.95-6.42-4.95c-3.79,0-7.35,1.55-9.75,7.43l-12.46-4.26c4.33-10.84,12.77-14.32,23.76-14.32
		c14.17,0,21.36,6.73,21.36,16.41v11.07c0,1.47,0,3.95,2.86,3.95C881.42,138.3,882.42,138.22,883.43,138.07z M861.37,134.59v-6.42
		l-8.21,2.79c-2.94,1.01-4.33,2.01-4.33,3.72c0,1.86,1.55,3.95,4.8,3.95C856.96,138.61,860.36,136.75,861.37,134.59z"/>
	<linearGradient id="SVGID_32_" gradientUnits="userSpaceOnUse" x1="68.71" y1="282.7976" x2="1050.614" y2="103.0396">
		<stop  offset="0" style="stop-color:#FF898C"/>
		<stop  offset="1" style="stop-color:#ED1E79"/>
	</linearGradient>
	<path class="st31" d="M934.21,122.59v26.71h-16.49v-23.69c0-3.87-1.78-6.35-5.81-6.35c-3.56,0-6.66,1.94-6.66,7.97v22.06h-16.49
		v-41.57h15.95v10.29h0.46c1.86-6.35,6.19-11.22,14.71-11.22C929.02,106.8,934.21,112.06,934.21,122.59z"/>
	<linearGradient id="SVGID_33_" gradientUnits="userSpaceOnUse" x1="69.272" y1="285.8679" x2="1051.1761" y2="106.1098">
		<stop  offset="0" style="stop-color:#FF898C"/>
		<stop  offset="1" style="stop-color:#ED1E79"/>
	</linearGradient>
	<path class="st32" d="M946.98,107.73l6.73-12h7.12l0.23,12h10.84v11.38h-10.84l-0.08,11.15c-0.08,4.57,0.85,7.04,5.81,7.04
		c1.62,0,3.41-0.15,5.19-0.54v11.92c-3.33,0.93-6.97,1.47-12,1.47c-12.85,0-15.4-5.26-15.4-11.38V119.1h-6.04v-11.38H946.98z"/>
	<linearGradient id="SVGID_34_" gradientUnits="userSpaceOnUse" x1="69.806" y1="288.7843" x2="1051.7101" y2="109.0263">
		<stop  offset="0" style="stop-color:#FF898C"/>
		<stop  offset="1" style="stop-color:#ED1E79"/>
	</linearGradient>
	<path class="st33" d="M983.05,130.25l-5.57-21.75V92.79h17.26v15.71l-5.5,21.75H983.05z M978.02,133.11v16.26h16.25v-16.26H978.02z
		"/>
</g>
</svg>
