<?xml version="1.0" encoding="utf-8"?>
<!-- Generator: Adobe Illustrator 25.1.0, SVG Export Plug-In . SVG Version: 6.00 Build 0)  -->
<svg version="1.1" id="Layer_1" xmlns="http://www.w3.org/2000/svg" xmlns:xlink="http://www.w3.org/1999/xlink" x="0px" y="0px"
	 viewBox="0 0 890 250" style="enable-background:new 0 0 890 250;" xml:space="preserve">
<style type="text/css">
	.st0{fill:url(#SVGID_1_);}
	.st1{fill:url(#SVGID_2_);}
	.st2{fill:url(#SVGID_3_);}
	.st3{fill:url(#SVGID_4_);}
	.st4{fill:url(#SVGID_5_);}
	.st5{fill:url(#SVGID_6_);}
	.st6{fill:url(#SVGID_7_);}
	.st7{fill:url(#SVGID_8_);}
	.st8{fill:url(#SVGID_9_);}
	.st9{fill:url(#SVGID_10_);}
	.st10{fill:url(#SVGID_11_);}
	.st11{fill:url(#SVGID_12_);}
	.st12{fill:url(#SVGID_13_);}
	.st13{fill:url(#SVGID_14_);}
	.st14{fill:url(#SVGID_15_);}
	.st15{fill:url(#SVGID_16_);}
	.st16{fill:url(#SVGID_17_);}
	.st17{fill:url(#SVGID_18_);}
	.st18{fill:url(#SVGID_19_);}
	.st19{fill:url(#SVGID_20_);}
	.st20{fill:url(#SVGID_21_);}
	.st21{fill:url(#SVGID_22_);}
	.st22{fill:url(#SVGID_23_);}
	.st23{fill:url(#SVGID_24_);}
	.st24{fill:url(#SVGID_25_);}
	.st25{fill:url(#SVGID_26_);}
	.st26{fill:url(#SVGID_27_);}
	.st27{fill:url(#SVGID_28_);}
	.st28{fill:url(#SVGID_29_);}
	.st29{fill:url(#SVGID_30_);}
	.st30{fill:url(#SVGID_31_);}
	.st31{fill:url(#SVGID_32_);}
	.st32{fill:url(#SVGID_33_);}
	.st33{fill:url(#SVGID_34_);}
	.st34{fill:url(#SVGID_35_);}
	.st35{fill:url(#SVGID_36_);}
	.st36{fill:url(#SVGID_37_);}
	.st37{fill:url(#SVGID_38_);}
	.st38{fill:url(#SVGID_39_);}
	.st39{fill:url(#SVGID_40_);}
</style>
<g>
	<linearGradient id="SVGID_1_" gradientUnits="userSpaceOnUse" x1="-39.9248" y1="61.8159" x2="711.9663" y2="-168.197">
		<stop  offset="0" style="stop-color:#FF898C"/>
		<stop  offset="1" style="stop-color:#ED1E79"/>
	</linearGradient>
	<path class="st0" d="M49.32,51.65H26.49l-4.18,11.07H5.67L27.8,6.21h20.82l22.53,56.51h-17.8L49.32,51.65z M44.83,39.5l-6.58-17.96
		h-0.46L31.05,39.5H44.83z"/>
	<linearGradient id="SVGID_2_" gradientUnits="userSpaceOnUse" x1="-33.3438" y1="83.3285" x2="718.5473" y2="-146.6845">
		<stop  offset="0" style="stop-color:#FF898C"/>
		<stop  offset="1" style="stop-color:#ED1E79"/>
	</linearGradient>
	<path class="st1" d="M144.85,21.15L133.7,62.72h-18.96l-6.89-25.23h-0.15l-7.35,25.23h-18.5L70.22,21.15h17.42l5.5,26.63h0.39
		l7.59-26.63h13.7l7.59,26.63h0.39l5.65-26.63H144.85z"/>
	<linearGradient id="SVGID_3_" gradientUnits="userSpaceOnUse" x1="-27.4528" y1="102.5855" x2="724.4383" y2="-127.4274">
		<stop  offset="0" style="stop-color:#FF898C"/>
		<stop  offset="1" style="stop-color:#ED1E79"/>
	</linearGradient>
	<path class="st2" d="M193.92,43.52l-30.81-0.08c0.31,5.73,2.79,8.59,8.21,8.59c4.03,0,7.66-1.47,9.06-7.04l13.24,3.72
		c-3.64,11.22-12.54,14.94-23.46,14.94c-15.09,0-23.69-8.21-23.69-21.13c0-13.39,9.52-22.29,24.15-22.29
		C184.79,20.22,194.08,28.66,193.92,43.52z M163.35,37.95h14.86c-0.93-4.88-3.41-6.89-7.12-6.89
		C166.91,31.06,164.28,33.15,163.35,37.95z"/>
	<linearGradient id="SVGID_4_" gradientUnits="userSpaceOnUse" x1="-23.2864" y1="116.2052" x2="728.6047" y2="-113.8078">
		<stop  offset="0" style="stop-color:#FF898C"/>
		<stop  offset="1" style="stop-color:#ED1E79"/>
	</linearGradient>
	<path class="st3" d="M206.77,47.55c2.63,3.79,6.89,5.88,12.93,5.88c4.41,0,6.66-1.47,6.66-3.41c0-1.39-1.01-2.01-3.48-2.25
		c-4.03-0.39-7.82-0.62-11.07-1.01c-6.89-0.77-13.24-4.1-13.24-12.31c0-9.06,8.67-14.24,20.36-14.24c7.9,0,15.33,2.17,20.28,7.35
		l-7.82,7.51c-3.64-3.41-8.05-4.72-12.38-4.72c-3.48,0-5.81,1.24-5.81,2.94c0,1.24,0.85,1.94,3.1,2.17c3.33,0.31,6.89,0.7,9.83,1.01
		c8.28,0.85,14.79,4.03,14.79,12.23c0,9.6-8.28,14.94-21.83,14.94c-10.29,0-18.66-2.94-22.37-10.6L206.77,47.55z"/>
	<linearGradient id="SVGID_5_" gradientUnits="userSpaceOnUse" x1="-19.0016" y1="130.2118" x2="732.8895" y2="-99.8012">
		<stop  offset="0" style="stop-color:#FF898C"/>
		<stop  offset="1" style="stop-color:#ED1E79"/>
	</linearGradient>
	<path class="st4" d="M294.55,41.82c0,13.39-9.29,21.83-25,21.83s-25-8.44-25-21.83c0-13.39,9.6-21.6,25-21.6
		C285.03,20.22,294.55,28.43,294.55,41.82z M277.68,42.29c0-6.27-2.63-10.84-8.13-10.84c-5.42,0-8.21,4.49-8.21,10.84
		c0,6.42,2.79,10.22,8.21,10.22C274.89,52.5,277.68,48.71,277.68,42.29z"/>
	<linearGradient id="SVGID_6_" gradientUnits="userSpaceOnUse" x1="-13.2095" y1="149.1456" x2="738.6816" y2="-80.8674">
		<stop  offset="0" style="stop-color:#FF898C"/>
		<stop  offset="1" style="stop-color:#ED1E79"/>
	</linearGradient>
	<path class="st5" d="M373.59,36.02v26.71H357.1V39.03c0-3.95-1.63-6.35-5.26-6.35c-3.41,0-6.35,1.94-6.35,7.97v22.06H329V39.03
		c0-3.95-1.7-6.35-5.26-6.35c-3.48,0-6.35,1.94-6.35,7.97v22.06H300.9V21.15h15.95v10.22h0.46c1.86-6.27,6.19-11.15,14.48-11.15
		c7.35,0,12,3.72,13.31,11.15h0.39c1.86-6.27,5.88-11.15,14.17-11.15C368.48,20.22,373.59,25.49,373.59,36.02z"/>
	<linearGradient id="SVGID_7_" gradientUnits="userSpaceOnUse" x1="-7.5206" y1="167.7423" x2="744.3705" y2="-62.2706">
		<stop  offset="0" style="stop-color:#FF898C"/>
		<stop  offset="1" style="stop-color:#ED1E79"/>
	</linearGradient>
	<path class="st6" d="M426.85,43.52l-30.81-0.08c0.31,5.73,2.79,8.59,8.21,8.59c4.03,0,7.66-1.47,9.06-7.04l13.24,3.72
		C422.9,59.93,414,63.65,403.08,63.65c-15.09,0-23.69-8.21-23.69-21.13c0-13.39,9.52-22.29,24.15-22.29
		C417.71,20.22,427,28.66,426.85,43.52z M396.27,37.95h14.86c-0.93-4.88-3.41-6.89-7.12-6.89C399.83,31.06,397.2,33.15,396.27,37.95
		z"/>
	<linearGradient id="SVGID_8_" gradientUnits="userSpaceOnUse" x1="-0.5251" y1="190.6098" x2="751.366" y2="-39.4032">
		<stop  offset="0" style="stop-color:#FF898C"/>
		<stop  offset="1" style="stop-color:#ED1E79"/>
	</linearGradient>
	<path class="st7" d="M505.11,51.5l-0.08,9.99c-2.4,1.08-6.73,2.01-10.6,2.01c-8.36,0-10.84-3.79-10.84-8.59v-1.24h-0.39
		c-2.24,5.5-7.35,9.99-15.4,9.99c-8.05,0-13.78-4.88-13.78-11.15c0-4.8,3.1-8.13,9.83-10.45c3.87-1.32,10.6-3.17,19.2-5.57V36.4
		c0-3.17-2.55-4.95-6.42-4.95c-3.79,0-7.35,1.55-9.75,7.43l-12.46-4.26c4.33-10.84,12.77-14.32,23.76-14.32
		c14.17,0,21.36,6.73,21.36,16.41v11.07c0,1.47,0,3.95,2.86,3.95C503.09,51.73,504.1,51.65,505.11,51.5z M483.05,48.01v-6.42
		l-8.21,2.79c-2.94,1.01-4.33,2.01-4.33,3.72c0,1.86,1.55,3.95,4.8,3.95C478.63,52.04,482.04,50.18,483.05,48.01z"/>
	<linearGradient id="SVGID_9_" gradientUnits="userSpaceOnUse" x1="3.5564" y1="203.9518" x2="755.4475" y2="-26.0612">
		<stop  offset="0" style="stop-color:#FF898C"/>
		<stop  offset="1" style="stop-color:#ED1E79"/>
	</linearGradient>
	<path class="st8" d="M555.89,36.02v26.71H539.4V39.03c0-3.87-1.78-6.35-5.81-6.35c-3.56,0-6.66,1.94-6.66,7.97v22.06h-16.49V21.15
		h15.95v10.29h0.46c1.86-6.35,6.19-11.22,14.71-11.22C550.7,20.22,555.89,25.49,555.89,36.02z"/>
	<linearGradient id="SVGID_10_" gradientUnits="userSpaceOnUse" x1="4.8119" y1="208.0561" x2="756.7031" y2="-21.9569">
		<stop  offset="0" style="stop-color:#FF898C"/>
		<stop  offset="1" style="stop-color:#ED1E79"/>
	</linearGradient>
	<path class="st9" d="M580.58,6.21v11.3h-16.57V6.21H580.58z M564.02,21.15h16.49v41.57h-16.49V21.15z"/>
	<linearGradient id="SVGID_11_" gradientUnits="userSpaceOnUse" x1="11.459" y1="229.7847" x2="763.3501" y2="-0.2282">
		<stop  offset="0" style="stop-color:#FF898C"/>
		<stop  offset="1" style="stop-color:#ED1E79"/>
	</linearGradient>
	<path class="st10" d="M661.86,36.02v26.71h-16.49V39.03c0-3.95-1.63-6.35-5.26-6.35c-3.41,0-6.35,1.94-6.35,7.97v22.06h-16.49
		V39.03c0-3.95-1.7-6.35-5.26-6.35c-3.48,0-6.35,1.94-6.35,7.97v22.06h-16.49V21.15h15.95v10.22h0.46
		c1.86-6.27,6.19-11.15,14.48-11.15c7.35,0,12,3.72,13.31,11.15h0.39c1.86-6.27,5.88-11.15,14.17-11.15
		C656.75,20.22,661.86,25.49,661.86,36.02z"/>
	<linearGradient id="SVGID_12_" gradientUnits="userSpaceOnUse" x1="17.7379" y1="250.3098" x2="769.629" y2="20.2969">
		<stop  offset="0" style="stop-color:#FF898C"/>
		<stop  offset="1" style="stop-color:#ED1E79"/>
	</linearGradient>
	<path class="st11" d="M718.52,51.5l-0.08,9.99c-2.4,1.08-6.73,2.01-10.6,2.01c-8.36,0-10.84-3.79-10.84-8.59v-1.24h-0.39
		c-2.24,5.5-7.35,9.99-15.4,9.99c-8.05,0-13.78-4.88-13.78-11.15c0-4.8,3.1-8.13,9.83-10.45c3.87-1.32,10.6-3.17,19.2-5.57V36.4
		c0-3.17-2.55-4.95-6.42-4.95c-3.79,0-7.35,1.55-9.75,7.43l-12.46-4.26c4.33-10.84,12.77-14.32,23.76-14.32
		c14.17,0,21.36,6.73,21.36,16.41v11.07c0,1.47,0,3.95,2.86,3.95C716.51,51.73,717.52,51.65,718.52,51.5z M696.46,48.01v-6.42
		l-8.21,2.79c-2.94,1.01-4.33,2.01-4.33,3.72c0,1.86,1.55,3.95,4.8,3.95C692.05,52.04,695.46,50.18,696.46,48.01z"/>
	<linearGradient id="SVGID_13_" gradientUnits="userSpaceOnUse" x1="19.8327" y1="257.1576" x2="771.7238" y2="27.1446">
		<stop  offset="0" style="stop-color:#FF898C"/>
		<stop  offset="1" style="stop-color:#ED1E79"/>
	</linearGradient>
	<path class="st12" d="M728.12,21.15l6.73-12h7.12l0.23,12h10.84v11.38h-10.84l-0.08,11.15c-0.08,4.57,0.85,7.04,5.81,7.04
		c1.62,0,3.41-0.15,5.19-0.54V62.1c-3.33,0.93-6.97,1.47-12,1.47c-12.85,0-15.4-5.26-15.4-11.38V32.53h-6.04V21.15H728.12z"/>
	<linearGradient id="SVGID_14_" gradientUnits="userSpaceOnUse" x1="21.558" y1="262.7974" x2="773.4491" y2="32.7845">
		<stop  offset="0" style="stop-color:#FF898C"/>
		<stop  offset="1" style="stop-color:#ED1E79"/>
	</linearGradient>
	<path class="st13" d="M776.27,6.21v11.3h-16.57V6.21H776.27z M759.71,21.15h16.49v41.57h-16.49V21.15z"/>
	<linearGradient id="SVGID_15_" gradientUnits="userSpaceOnUse" x1="27.0367" y1="280.7067" x2="778.9278" y2="50.6937">
		<stop  offset="0" style="stop-color:#FF898C"/>
		<stop  offset="1" style="stop-color:#ED1E79"/>
	</linearGradient>
	<path class="st14" d="M832.55,41.82c0,13.39-9.29,21.83-25,21.83s-25-8.44-25-21.83c0-13.39,9.6-21.6,25-21.6
		C823.03,20.22,832.55,28.43,832.55,41.82z M815.67,42.29c0-6.27-2.63-10.84-8.13-10.84c-5.42,0-8.21,4.49-8.21,10.84
		c0,6.42,2.79,10.22,8.21,10.22C812.89,52.5,815.67,48.71,815.67,42.29z"/>
	<linearGradient id="SVGID_16_" gradientUnits="userSpaceOnUse" x1="31.663" y1="295.8297" x2="783.5541" y2="65.8168">
		<stop  offset="0" style="stop-color:#FF898C"/>
		<stop  offset="1" style="stop-color:#ED1E79"/>
	</linearGradient>
	<path class="st15" d="M884.33,36.02v26.71h-16.49V39.03c0-3.87-1.78-6.35-5.81-6.35c-3.56,0-6.66,1.94-6.66,7.97v22.06H838.9V21.15
		h15.95v10.29h0.46c1.86-6.35,6.19-11.22,14.71-11.22C879.15,20.22,884.33,25.49,884.33,36.02z"/>
	<linearGradient id="SVGID_17_" gradientUnits="userSpaceOnUse" x1="-15.7019" y1="140.9982" x2="736.1892" y2="-89.0147">
		<stop  offset="0" style="stop-color:#FF898C"/>
		<stop  offset="1" style="stop-color:#ED1E79"/>
	</linearGradient>
	<path class="st16" d="M58.38,133.9l-0.08,9.99c-2.4,1.08-6.73,2.01-10.6,2.01c-8.36,0-10.84-3.79-10.84-8.59v-1.24h-0.39
		c-2.24,5.5-7.35,9.99-15.4,9.99c-8.05,0-13.78-4.88-13.78-11.15c0-4.8,3.1-8.13,9.83-10.45c3.87-1.32,10.6-3.17,19.2-5.57v-0.08
		c0-3.17-2.55-4.95-6.42-4.95c-3.79,0-7.35,1.55-9.75,7.43l-12.46-4.26c4.33-10.84,12.77-14.32,23.76-14.32
		c14.17,0,21.36,6.73,21.36,16.41v11.07c0,1.47,0,3.95,2.86,3.95C56.37,134.13,57.37,134.06,58.38,133.9z M36.32,130.42v-6.42
		l-8.21,2.79c-2.94,1.01-4.33,2.01-4.33,3.72c0,1.86,1.55,3.95,4.8,3.95C31.91,134.44,35.31,132.59,36.32,130.42z"/>
	<linearGradient id="SVGID_18_" gradientUnits="userSpaceOnUse" x1="-11.9266" y1="153.3394" x2="739.9645" y2="-76.6735">
		<stop  offset="0" style="stop-color:#FF898C"/>
		<stop  offset="1" style="stop-color:#ED1E79"/>
	</linearGradient>
	<path class="st17" d="M70.15,129.95c2.63,3.79,6.89,5.88,12.93,5.88c4.41,0,6.66-1.47,6.66-3.41c0-1.39-1.01-2.01-3.48-2.25
		c-4.03-0.39-7.82-0.62-11.07-1.01c-6.89-0.77-13.24-4.1-13.24-12.31c0-9.06,8.67-14.24,20.36-14.24c7.9,0,15.33,2.17,20.28,7.35
		l-7.82,7.51c-3.64-3.41-8.05-4.72-12.38-4.72c-3.48,0-5.81,1.24-5.81,2.94c0,1.24,0.85,1.94,3.1,2.17c3.33,0.31,6.89,0.7,9.83,1.01
		c8.28,0.85,14.79,4.03,14.79,12.23c0,9.6-8.28,14.94-21.83,14.94c-10.29,0-18.66-2.94-22.37-10.6L70.15,129.95z"/>
	<linearGradient id="SVGID_19_" gradientUnits="userSpaceOnUse" x1="-7.9454" y1="166.3536" x2="743.9457" y2="-63.6593">
		<stop  offset="0" style="stop-color:#FF898C"/>
		<stop  offset="1" style="stop-color:#ED1E79"/>
	</linearGradient>
	<path class="st18" d="M116.67,129.95c2.63,3.79,6.89,5.88,12.93,5.88c4.41,0,6.66-1.47,6.66-3.41c0-1.39-1.01-2.01-3.48-2.25
		c-4.03-0.39-7.82-0.62-11.07-1.01c-6.89-0.77-13.24-4.1-13.24-12.31c0-9.06,8.67-14.24,20.36-14.24c7.9,0,15.33,2.17,20.28,7.35
		l-7.82,7.51c-3.64-3.41-8.05-4.72-12.38-4.72c-3.48,0-5.81,1.24-5.81,2.94c0,1.24,0.85,1.94,3.1,2.17c3.33,0.31,6.89,0.7,9.83,1.01
		c8.28,0.85,14.79,4.03,14.79,12.23c0,9.6-8.28,14.94-21.83,14.94c-10.29,0-18.66-2.94-22.37-10.6L116.67,129.95z"/>
	<linearGradient id="SVGID_20_" gradientUnits="userSpaceOnUse" x1="-3.719" y1="180.1693" x2="748.1721" y2="-49.8437">
		<stop  offset="0" style="stop-color:#FF898C"/>
		<stop  offset="1" style="stop-color:#ED1E79"/>
	</linearGradient>
	<path class="st19" d="M201.9,125.93l-30.81-0.08c0.31,5.73,2.79,8.59,8.21,8.59c4.03,0,7.66-1.47,9.06-7.04l13.24,3.72
		c-3.64,11.22-12.54,14.94-23.46,14.94c-15.09,0-23.69-8.21-23.69-21.13c0-13.39,9.52-22.29,24.15-22.29
		C192.76,102.63,202.05,111.07,201.9,125.93z M171.32,120.36h14.86c-0.93-4.88-3.41-6.89-7.12-6.89
		C174.88,113.47,172.25,115.56,171.32,120.36z"/>
	<linearGradient id="SVGID_21_" gradientUnits="userSpaceOnUse" x1="-1.2" y1="188.4036" x2="750.6911" y2="-41.6093">
		<stop  offset="0" style="stop-color:#FF898C"/>
		<stop  offset="1" style="stop-color:#ED1E79"/>
	</linearGradient>
	<path class="st20" d="M212.97,103.56l6.73-12h7.12l0.23,12h10.84v11.38h-10.84l-0.08,11.15c-0.08,4.57,0.85,7.04,5.81,7.04
		c1.62,0,3.41-0.15,5.19-0.54v11.92c-3.33,0.93-6.97,1.47-12,1.47c-12.85,0-15.4-5.26-15.4-11.38v-19.66h-6.04v-11.38H212.97z"/>
	<linearGradient id="SVGID_22_" gradientUnits="userSpaceOnUse" x1="3.5476" y1="203.923" x2="755.4387" y2="-26.09">
		<stop  offset="0" style="stop-color:#FF898C"/>
		<stop  offset="1" style="stop-color:#ED1E79"/>
	</linearGradient>
	<path class="st21" d="M250.97,129.95c2.63,3.79,6.89,5.88,12.93,5.88c4.41,0,6.66-1.47,6.66-3.41c0-1.39-1.01-2.01-3.48-2.25
		c-4.03-0.39-7.82-0.62-11.07-1.01c-6.89-0.77-13.24-4.1-13.24-12.31c0-9.06,8.67-14.24,20.36-14.24c7.9,0,15.33,2.17,20.28,7.35
		l-7.82,7.51c-3.64-3.41-8.05-4.72-12.38-4.72c-3.48,0-5.81,1.24-5.81,2.94c0,1.24,0.85,1.94,3.1,2.17c3.33,0.31,6.89,0.7,9.83,1.01
		c8.28,0.85,14.79,4.03,14.79,12.23c0,9.6-8.28,14.94-21.83,14.94c-10.29,0-18.66-2.94-22.37-10.6L250.97,129.95z"/>
	<linearGradient id="SVGID_23_" gradientUnits="userSpaceOnUse" x1="7.1275" y1="215.6255" x2="759.0186" y2="-14.3874">
		<stop  offset="0" style="stop-color:#FF898C"/>
		<stop  offset="1" style="stop-color:#ED1E79"/>
	</linearGradient>
	<path class="st22" d="M343.32,114.94h-10.06v30.19h-16.49v-30.19h-6.19v-11.38h6.19v-2.86c0-7.9,6.27-13,17.18-13
		c3.79,0,6.81,0.46,9.44,1.08v8.82c-1.39-0.08-3.02-0.15-4.18-0.15c-5.81,0-5.96,2.17-5.96,4.33v1.78h10.06V114.94z"/>
	<linearGradient id="SVGID_24_" gradientUnits="userSpaceOnUse" x1="12.6084" y1="233.542" x2="764.4995" y2="3.529">
		<stop  offset="0" style="stop-color:#FF898C"/>
		<stop  offset="1" style="stop-color:#ED1E79"/>
	</linearGradient>
	<path class="st23" d="M394.57,124.23c0,13.39-9.29,21.83-25,21.83s-25-8.44-25-21.83c0-13.39,9.6-21.6,25-21.6
		C385.05,102.63,394.57,110.83,394.57,124.23z M377.69,124.69c0-6.27-2.63-10.84-8.13-10.84c-5.42,0-8.21,4.49-8.21,10.84
		c0,6.42,2.79,10.22,8.21,10.22C374.91,134.91,377.69,131.12,377.69,124.69z"/>
	<linearGradient id="SVGID_25_" gradientUnits="userSpaceOnUse" x1="15.9959" y1="244.6155" x2="767.887" y2="14.6025">
		<stop  offset="0" style="stop-color:#FF898C"/>
		<stop  offset="1" style="stop-color:#ED1E79"/>
	</linearGradient>
	<path class="st24" d="M435.05,103.4v14.78c-0.93-0.23-2.32-0.39-3.48-0.39c-8.59,0-14.17,5.34-14.17,14.17v13.16h-16.49v-41.57
		h16.1v16.64h0.46c1.08-7.82,3.33-13.31,8.44-15.95c1.55-0.77,3.64-1.16,5.88-1.16C432.88,103.09,433.97,103.17,435.05,103.4z"/>
	<linearGradient id="SVGID_26_" gradientUnits="userSpaceOnUse" x1="23.7727" y1="270.037" x2="775.6638" y2="40.0241">
		<stop  offset="0" style="stop-color:#FF898C"/>
		<stop  offset="1" style="stop-color:#ED1E79"/>
	</linearGradient>
	<path class="st25" d="M536.38,118.42v26.71h-16.49v-23.69c0-3.95-1.63-6.35-5.26-6.35c-3.41,0-6.35,1.94-6.35,7.97v22.06h-16.49
		v-23.69c0-3.95-1.7-6.35-5.26-6.35c-3.48,0-6.35,1.94-6.35,7.97v22.06h-16.49v-41.57h15.95v10.22h0.46
		c1.86-6.27,6.19-11.15,14.48-11.15c7.35,0,12,3.72,13.31,11.15h0.39c1.86-6.27,5.88-11.15,14.17-11.15
		C531.27,102.63,536.38,107.89,536.38,118.42z"/>
	<linearGradient id="SVGID_27_" gradientUnits="userSpaceOnUse" x1="29.52" y1="288.8245" x2="781.4111" y2="58.8116">
		<stop  offset="0" style="stop-color:#FF898C"/>
		<stop  offset="1" style="stop-color:#ED1E79"/>
	</linearGradient>
	<path class="st26" d="M592.19,124.23c0,13.39-9.29,21.83-25,21.83s-25-8.44-25-21.83c0-13.39,9.6-21.6,25-21.6
		C582.67,102.63,592.19,110.83,592.19,124.23z M575.32,124.69c0-6.27-2.63-10.84-8.13-10.84c-5.42,0-8.21,4.49-8.21,10.84
		c0,6.42,2.79,10.22,8.21,10.22C572.53,134.91,575.32,131.12,575.32,124.69z"/>
	<linearGradient id="SVGID_28_" gradientUnits="userSpaceOnUse" x1="32.1927" y1="297.5612" x2="784.0838" y2="67.5483">
		<stop  offset="0" style="stop-color:#FF898C"/>
		<stop  offset="1" style="stop-color:#ED1E79"/>
	</linearGradient>
	<path class="st27" d="M603.18,103.56l6.73-12h7.12l0.23,12h10.84v11.38h-10.84l-0.08,11.15c-0.08,4.57,0.85,7.04,5.81,7.04
		c1.62,0,3.41-0.15,5.19-0.54v11.92c-3.33,0.93-6.97,1.47-12,1.47c-12.85,0-15.4-5.26-15.4-11.38v-19.66h-6.04v-11.38H603.18z"/>
	<linearGradient id="SVGID_29_" gradientUnits="userSpaceOnUse" x1="33.9181" y1="303.2014" x2="785.8091" y2="73.1884">
		<stop  offset="0" style="stop-color:#FF898C"/>
		<stop  offset="1" style="stop-color:#ED1E79"/>
	</linearGradient>
	<path class="st28" d="M651.33,88.62v11.3h-16.57v-11.3H651.33z M634.77,103.56h16.49v41.57h-16.49V103.56z"/>
	<linearGradient id="SVGID_30_" gradientUnits="userSpaceOnUse" x1="39.3967" y1="321.1103" x2="791.2878" y2="91.0974">
		<stop  offset="0" style="stop-color:#FF898C"/>
		<stop  offset="1" style="stop-color:#ED1E79"/>
	</linearGradient>
	<path class="st29" d="M707.61,124.23c0,13.39-9.29,21.83-25,21.83s-25-8.44-25-21.83c0-13.39,9.6-21.6,25-21.6
		C698.09,102.63,707.61,110.83,707.61,124.23z M690.73,124.69c0-6.27-2.63-10.84-8.13-10.84c-5.42,0-8.21,4.49-8.21,10.84
		c0,6.42,2.79,10.22,8.21,10.22C687.95,134.91,690.73,131.12,690.73,124.69z"/>
	<linearGradient id="SVGID_31_" gradientUnits="userSpaceOnUse" x1="44.023" y1="336.2334" x2="795.9141" y2="106.2204">
		<stop  offset="0" style="stop-color:#FF898C"/>
		<stop  offset="1" style="stop-color:#ED1E79"/>
	</linearGradient>
	<path class="st30" d="M759.4,118.42v26.71h-16.49v-23.69c0-3.87-1.78-6.35-5.81-6.35c-3.56,0-6.66,1.94-6.66,7.97v22.06h-16.49
		v-41.57h15.95v10.29h0.46c1.86-6.35,6.19-11.22,14.71-11.22C754.21,102.63,759.4,107.89,759.4,118.42z"/>
	<linearGradient id="SVGID_32_" gradientUnits="userSpaceOnUse" x1="6.1884" y1="212.5556" x2="758.0795" y2="-17.4574">
		<stop  offset="0" style="stop-color:#FF898C"/>
		<stop  offset="1" style="stop-color:#ED1E79"/>
	</linearGradient>
	<path class="st31" d="M57.84,171.02v56.51H41.35v-9.83h-0.31c-2.4,6.89-7.43,10.76-14.94,10.76c-10.37,0-18.58-7.59-18.58-21.67
		c0-13.93,7.9-21.75,18.81-21.75c7.28,0,12.39,4.03,14.71,10.68h0.31v-24.69H57.84z M41.43,207.33v-1.16c0-5.96-3.72-9.6-8.67-9.6
		c-5.26,0-8.44,4.1-8.44,10.22s3.17,10.14,8.44,10.14C37.87,216.93,41.43,213.06,41.43,207.33z"/>
	<linearGradient id="SVGID_33_" gradientUnits="userSpaceOnUse" x1="11.6021" y1="230.2524" x2="763.4932" y2="0.2395">
		<stop  offset="0" style="stop-color:#FF898C"/>
		<stop  offset="1" style="stop-color:#ED1E79"/>
	</linearGradient>
	<path class="st32" d="M111.56,208.33l-30.81-0.08c0.31,5.73,2.79,8.59,8.21,8.59c4.03,0,7.66-1.47,9.06-7.04l13.24,3.72
		c-3.64,11.22-12.54,14.94-23.46,14.94c-15.09,0-23.69-8.21-23.69-21.13c0-13.39,9.52-22.29,24.15-22.29
		C102.42,185.03,111.71,193.47,111.56,208.33z M80.98,202.76h14.86c-0.93-4.88-3.41-6.89-7.12-6.89
		C84.54,195.87,81.91,197.96,80.98,202.76z"/>
	<linearGradient id="SVGID_34_" gradientUnits="userSpaceOnUse" x1="15.7685" y1="243.8721" x2="767.6596" y2="13.8591">
		<stop  offset="0" style="stop-color:#FF898C"/>
		<stop  offset="1" style="stop-color:#ED1E79"/>
	</linearGradient>
	<path class="st33" d="M124.41,212.36c2.63,3.79,6.89,5.88,12.93,5.88c4.41,0,6.66-1.47,6.66-3.41c0-1.39-1.01-2.01-3.48-2.25
		c-4.03-0.39-7.82-0.62-11.07-1.01c-6.89-0.77-13.24-4.1-13.24-12.31c0-9.06,8.67-14.24,20.36-14.24c7.9,0,15.33,2.17,20.28,7.35
		l-7.82,7.51c-3.64-3.41-8.05-4.72-12.38-4.72c-3.48,0-5.81,1.24-5.81,2.94c0,1.24,0.85,1.94,3.1,2.17c3.33,0.31,6.89,0.7,9.83,1.01
		c8.28,0.85,14.79,4.03,14.79,12.23c0,9.6-8.28,14.94-21.83,14.94c-10.29,0-18.66-2.94-22.37-10.6L124.41,212.36z"/>
	<linearGradient id="SVGID_35_" gradientUnits="userSpaceOnUse" x1="16.7274" y1="247.0068" x2="768.6185" y2="16.9938">
		<stop  offset="0" style="stop-color:#FF898C"/>
		<stop  offset="1" style="stop-color:#ED1E79"/>
	</linearGradient>
	<path class="st34" d="M181.07,171.02v11.3h-16.57v-11.3H181.07z M164.51,185.96h16.49v41.57h-16.49V185.96z"/>
	<linearGradient id="SVGID_36_" gradientUnits="userSpaceOnUse" x1="23.3108" y1="268.5272" x2="775.2019" y2="38.5142">
		<stop  offset="0" style="stop-color:#FF898C"/>
		<stop  offset="1" style="stop-color:#ED1E79"/>
	</linearGradient>
	<path class="st35" d="M236.81,227.69c0,10.37-11.38,16.1-28.25,16.1c-14.09,0-19.51-4.1-19.51-8.82c0-3.95,3.64-5.57,8.75-5.88
		v-0.62c-7.04-0.23-10.84-3.25-10.84-8.28c0-5.19,4.18-8.98,11.69-10.14v-0.31c-6.19-2.25-9.68-6.19-9.68-11.38
		c0-8.05,8.28-13.31,22.37-13.31c3.64,0,6.89,0.39,9.68,1.01l0.85-12.85h14.48v0.39l-11.69,13.62c5.73,2.25,8.9,6.12,8.9,11.15
		c0,8.05-8.36,13.24-22.22,13.24c-2.86,0-5.42-0.23-7.82-0.62c-2.32,0.54-3.25,1.47-3.25,2.71c0,1.16,1.01,1.94,3.56,1.94h15.33
		C230.38,215.61,236.81,219.64,236.81,227.69z M222.41,231.17c0-1.63-1.47-2.09-5.19-2.09h-13.24c-2.63,0-3.41,1.16-3.41,2.48
		c0,2.63,3.25,4.1,10.06,4.1C217.69,235.66,222.41,234.11,222.41,231.17z M205.61,198.35c0,3.64,2.09,5.26,5.65,5.26
		c3.48,0,5.65-1.63,5.65-5.26c0-3.72-2.17-5.34-5.65-5.34C207.86,193.01,205.61,194.63,205.61,198.35z"/>
	<linearGradient id="SVGID_37_" gradientUnits="userSpaceOnUse" x1="26.6071" y1="279.3023" x2="778.4982" y2="49.2894">
		<stop  offset="0" style="stop-color:#FF898C"/>
		<stop  offset="1" style="stop-color:#ED1E79"/>
	</linearGradient>
	<path class="st36" d="M286.5,200.83v26.71h-16.49v-23.69c0-3.87-1.78-6.35-5.81-6.35c-3.56,0-6.66,1.94-6.66,7.97v22.06h-16.49
		v-41.57h15.95v10.29h0.46c1.86-6.35,6.19-11.22,14.71-11.22C281.32,185.03,286.5,190.3,286.5,200.83z"/>
	<linearGradient id="SVGID_38_" gradientUnits="userSpaceOnUse" x1="31.1301" y1="294.0876" x2="783.0212" y2="64.0746">
		<stop  offset="0" style="stop-color:#FF898C"/>
		<stop  offset="1" style="stop-color:#ED1E79"/>
	</linearGradient>
	<path class="st37" d="M339.76,208.33l-30.81-0.08c0.31,5.73,2.79,8.59,8.21,8.59c4.03,0,7.66-1.47,9.06-7.04l13.24,3.72
		c-3.64,11.22-12.54,14.94-23.46,14.94c-15.09,0-23.69-8.21-23.69-21.13c0-13.39,9.52-22.29,24.15-22.29
		C330.62,185.03,339.91,193.47,339.76,208.33z M309.18,202.76h14.86c-0.93-4.88-3.41-6.89-7.12-6.89
		C312.74,195.87,310.11,197.96,309.18,202.76z"/>
	<linearGradient id="SVGID_39_" gradientUnits="userSpaceOnUse" x1="34.364" y1="304.659" x2="786.2551" y2="74.646">
		<stop  offset="0" style="stop-color:#FF898C"/>
		<stop  offset="1" style="stop-color:#ED1E79"/>
	</linearGradient>
	<path class="st38" d="M380.32,185.81v14.78c-0.93-0.23-2.32-0.39-3.48-0.39c-8.59,0-14.17,5.34-14.17,14.17v13.16h-16.49v-41.57
		h16.1v16.64h0.46c1.08-7.82,3.33-13.31,8.44-15.95c1.55-0.77,3.64-1.16,5.88-1.16C378.15,185.5,379.24,185.58,380.32,185.81z"/>
	<linearGradient id="SVGID_40_" gradientUnits="userSpaceOnUse" x1="38.6616" y1="318.7076" x2="790.5527" y2="88.6946">
		<stop  offset="0" style="stop-color:#FF898C"/>
		<stop  offset="1" style="stop-color:#ED1E79"/>
	</linearGradient>
	<path class="st39" d="M391.93,212.36c2.63,3.79,6.89,5.88,12.93,5.88c4.41,0,6.66-1.47,6.66-3.41c0-1.39-1.01-2.01-3.48-2.25
		c-4.03-0.39-7.82-0.62-11.07-1.01c-6.89-0.77-13.24-4.1-13.24-12.31c0-9.06,8.67-14.24,20.36-14.24c7.9,0,15.33,2.17,20.28,7.35
		l-7.82,7.51c-3.64-3.41-8.05-4.72-12.38-4.72c-3.48,0-5.81,1.24-5.81,2.94c0,1.24,0.85,1.94,3.1,2.17c3.33,0.31,6.89,0.7,9.83,1.01
		c8.28,0.85,14.79,4.03,14.79,12.23c0,9.6-8.28,14.94-21.83,14.94c-10.29,0-18.66-2.94-22.37-10.6L391.93,212.36z"/>
</g>
</svg>
