<?xml version="1.0" encoding="utf-8"?>
<!-- Generator: Adobe Illustrator 25.1.0, SVG Export Plug-In . SVG Version: 6.00 Build 0)  -->
<svg version="1.1" id="Layer_1" xmlns="http://www.w3.org/2000/svg" xmlns:xlink="http://www.w3.org/1999/xlink" x="0px" y="0px"
	 viewBox="0 0 355.37 137.35" style="enable-background:new 0 0 355.37 137.35;" xml:space="preserve">
<style type="text/css">
	.st0{fill:#FFFFFF;}
</style>
<g>
	<g>
		<path class="st0" d="M16.84,81.03c4.12,5.94,10.78,9.21,20.23,9.21c6.9,0,10.42-2.3,10.42-5.33c0-2.18-1.57-3.15-5.45-3.51
			c-6.3-0.61-12.23-0.97-17.32-1.57C13.93,78.61,4,73.4,4,60.56c0-14.17,13.57-22.29,31.86-22.29c12.35,0,23.98,3.39,31.73,11.51
			L55.35,61.53c-5.69-5.33-12.6-7.39-19.38-7.39c-5.45,0-9.08,1.94-9.08,4.6c0,1.94,1.33,3.03,4.84,3.39
			c5.21,0.48,10.78,1.09,15.38,1.57c12.96,1.33,23.13,6.3,23.13,19.14c0,15.02-12.96,23.38-34.16,23.38c-16.11,0-29.19-4.6-35-16.59
			L16.84,81.03z"/>
		<path class="st0" d="M86.84,39.73l10.54-18.77h11.14l0.36,18.77h16.96v17.81h-16.96l-0.12,17.44C108.65,82.12,110.1,86,117.85,86
			c2.54,0,5.33-0.24,8.12-0.85v18.65c-5.21,1.45-10.9,2.3-18.77,2.3c-20.11,0-24.1-8.24-24.1-17.81V57.53h-9.45V39.73H86.84z"/>
		<path class="st0" d="M210.63,72.07c0,20.95-14.54,34.16-39.12,34.16s-39.12-13.2-39.12-34.16s15.02-33.79,39.12-33.79
			C195.73,38.27,210.63,51.11,210.63,72.07z M184.23,72.79c0-9.81-4.12-16.96-12.72-16.96c-8.48,0-12.84,7.02-12.84,16.96
			c0,10.05,4.36,15.99,12.84,15.99C179.87,88.78,184.23,82.85,184.23,72.79z"/>
		<path class="st0" d="M273.98,39.48v23.13c-1.45-0.36-3.63-0.61-5.45-0.61c-13.44,0-22.17,8.36-22.17,22.17v20.59h-25.8V39.73
			h25.19v26.04h0.73c1.7-12.23,5.21-20.83,13.2-24.95c2.42-1.21,5.69-1.82,9.21-1.82C270.59,39,272.28,39.12,273.98,39.48z"/>
		<path class="st0" d="M352.1,74.73l-48.21-0.12c0.48,8.96,4.36,13.44,12.84,13.44c6.3,0,11.99-2.3,14.17-11.02l20.71,5.81
			c-5.69,17.56-19.62,23.38-36.7,23.38c-23.62,0-37.06-12.84-37.06-33.07c0-20.95,14.9-34.88,37.79-34.88
			C337.81,38.27,352.34,51.47,352.1,74.73z M304.26,66.01h23.26c-1.45-7.63-5.33-10.78-11.14-10.78
			C309.83,55.23,305.71,58.5,304.26,66.01z"/>
	</g>
</g>
</svg>
