<?xml version="1.0" encoding="utf-8"?>
<!-- Generator: Adobe Illustrator 25.1.0, SVG Export Plug-In . SVG Version: 6.00 Build 0)  -->
<svg version="1.1" id="Layer_1" xmlns="http://www.w3.org/2000/svg" xmlns:xlink="http://www.w3.org/1999/xlink" x="0px" y="0px"
	 viewBox="0 0 65 65" style="enable-background:new 0 0 65 65;" xml:space="preserve">
<style type="text/css">
	.st0{fill:#ED1E79;}
</style>
<g>
	<g>
		<path class="st0" d="M28.71,53.85c-6.44,0-12.88-2.45-17.79-7.36C6.16,41.74,3.55,35.42,3.55,28.7s2.62-13.04,7.37-17.79
			c9.81-9.81,25.77-9.81,35.58,0v0c0,0,0,0,0,0c4.75,4.75,7.37,11.07,7.37,17.79s-2.62,13.04-7.37,17.79
			C41.59,51.39,35.15,53.84,28.71,53.85z M28.71,9.55c-4.91,0-9.81,1.87-13.55,5.6c-3.62,3.62-5.61,8.43-5.61,13.55
			c0,5.12,1.99,9.93,5.61,13.55c7.47,7.47,19.62,7.47,27.09,0c3.62-3.62,5.61-8.43,5.61-13.55s-1.99-9.93-5.61-13.55v0
			C38.52,11.42,33.61,9.55,28.71,9.55z"/>
	</g>
	<g>
		<path class="st0" d="M58.45,61.45c-0.77,0-1.54-0.29-2.12-0.88L42.25,46.49c-1.17-1.17-1.17-3.07,0-4.24
			c1.17-1.17,3.07-1.17,4.24,0l14.08,14.08c1.17,1.17,1.17,3.07,0,4.24C59.99,61.15,59.22,61.45,58.45,61.45z"/>
	</g>
</g>
</svg>
