<?xml version="1.0" encoding="utf-8"?>
<!-- Generator: Adobe Illustrator 25.1.0, SVG Export Plug-In . SVG Version: 6.00 Build 0)  -->
<svg version="1.1" id="Layer_1" xmlns="http://www.w3.org/2000/svg" xmlns:xlink="http://www.w3.org/1999/xlink" x="0px" y="0px"
	 viewBox="0 0 1920 1080" style="enable-background:new 0 0 1920 1080;" xml:space="preserve">
<style type="text/css">
	.st0{opacity:0.8;fill:url(#SVGID_1_);}
	.st1{fill:url(#SVGID_2_);}
	.st2{fill:#FFFFFF;}
</style>
<linearGradient id="SVGID_1_" gradientUnits="userSpaceOnUse" x1="-213.7651" y1="1064.2817" x2="2921.5601" y2="-336.1635">
	<stop  offset="0" style="stop-color:#000038"/>
	<stop  offset="1" style="stop-color:#080275"/>
</linearGradient>
<polygon class="st0" points="0,0 1920,0 1920,1080 0,1080 "/>
<g>
	<linearGradient id="SVGID_2_" gradientUnits="userSpaceOnUse" x1="0" y1="540" x2="1920" y2="540">
		<stop  offset="0" style="stop-color:#FF898C"/>
		<stop  offset="1" style="stop-color:#ED1E79"/>
	</linearGradient>
	<path class="st1" d="M1898,22v1036H22V22H1898 M1920,0H0v1080h1920V0L1920,0z"/>
</g>
<polygon class="st2" points="1199.3,525.99 1194.51,530.78 1203.57,539.84 1151.62,539.84 1151.62,546.61 1203.57,546.61 
	1194.51,555.67 1199.3,560.46 1216.54,543.23 "/>
<g>
	<path class="st2" d="M884.38,516.38l-14.23,53.08h-24.22l-8.8-32.22h-0.2l-9.39,32.22h-23.62l-14.83-53.08h22.24l7.02,34h0.49
		l9.69-34h17.5l9.69,34h0.49l7.22-34H884.38z"/>
	<path class="st2" d="M951,555.12l-0.1,12.75c-3.06,1.38-8.6,2.57-13.54,2.57c-10.68,0-13.84-4.84-13.84-10.97v-1.58h-0.49
		c-2.87,7.02-9.39,12.75-19.67,12.75c-10.28,0-17.59-6.23-17.59-14.23c0-6.13,3.95-10.38,12.55-13.34
		c4.94-1.68,13.54-4.05,24.51-7.12v-0.1c0-4.05-3.26-6.33-8.2-6.33c-4.84,0-9.39,1.98-12.45,9.49l-15.91-5.44
		c5.54-13.84,16.31-18.29,30.35-18.29c18.09,0,27.28,8.6,27.28,20.96v14.14c0,1.88,0,5.04,3.66,5.04
		C948.43,555.42,949.72,555.32,951,555.12z M922.83,550.68v-8.2l-10.48,3.56c-3.76,1.29-5.54,2.57-5.54,4.74
		c0,2.37,1.98,5.04,6.13,5.04C917.2,555.82,921.55,553.44,922.83,550.68z"/>
	<path class="st2" d="M963.26,516.38l8.6-15.32h9.09l0.3,15.32h13.84v14.53h-13.84l-0.1,14.23c-0.1,5.83,1.09,9,7.41,9
		c2.08,0,4.35-0.2,6.62-0.69v15.22c-4.25,1.19-8.9,1.88-15.32,1.88c-16.41,0-19.67-6.72-19.67-14.53v-25.11h-7.71v-14.53H963.26z"/>
	<path class="st2" d="M1030.18,570.64c-18.68,0-29.75-10.97-29.75-26.98c0-17.59,13.25-28.47,30.64-28.47
		c15.62,0,26,8.6,28.37,20.96l-16.31,3.95c-1.58-6.42-5.14-10.28-10.87-10.28c-6.13,0-10.38,4.15-10.38,13.15
		c0,9.29,4.25,12.85,10.38,12.85c6.33,0,10.18-4.05,11.37-11.27l17.5,2.17C1058.95,560.66,1048.57,570.64,1030.18,570.64z"/>
	<path class="st2" d="M1126.07,535.35v34.1h-21.05v-30.25c0-4.94-2.27-8.11-7.41-8.11c-4.55,0-8.5,2.47-8.5,10.18v28.17h-21.05
		V497.3h21.05v31.53h0.49c2.17-8.01,7.91-13.64,18.19-13.64C1119.44,515.19,1126.07,521.91,1126.07,535.35z"/>
</g>
</svg>
