<?xml version="1.0" encoding="utf-8"?>
<!-- Generator: Adobe Illustrator 25.1.0, SVG Export Plug-In . SVG Version: 6.00 Build 0)  -->
<svg version="1.1" id="Layer_1" xmlns="http://www.w3.org/2000/svg" xmlns:xlink="http://www.w3.org/1999/xlink" x="0px" y="0px"
	 viewBox="0 0 790 70" style="enable-background:new 0 0 790 70;" xml:space="preserve">
<style type="text/css">
	.st0{fill:#FFFFFF;}
	.st1{fill:url(#SVGID_1_);}
</style>
<g>
	<g>
		<path class="st0" d="M93.14,7.35L81.4,62.65H61.25l-8.63-33.63h-0.23L43.6,62.65H23.68L11.86,7.35h16.36l7.12,37.57h0.45
			l9.54-37.57h15l9.47,37.57h0.3l7.12-37.57H93.14z"/>
		<path class="st0" d="M143.44,51.66l-0.08,9.77c-2.35,1.06-6.59,1.97-10.38,1.97c-8.18,0-10.6-3.71-10.6-8.41v-1.21H122
			c-2.2,5.38-7.2,9.77-15.07,9.77s-13.48-4.77-13.48-10.91c0-4.7,3.03-7.95,9.62-10.23c3.79-1.29,10.38-3.11,18.78-5.45v-0.08
			c0-3.11-2.5-4.85-6.29-4.85c-3.71,0-7.2,1.51-9.54,7.27l-12.19-4.17c4.24-10.6,12.5-14.01,23.25-14.01
			c13.86,0,20.91,6.59,20.91,16.06v10.83c0,1.44,0,3.86,2.8,3.86C141.47,51.89,142.45,51.82,143.44,51.66z M121.85,48.26v-6.29
			l-8.03,2.73c-2.88,0.98-4.24,1.97-4.24,3.64c0,1.82,1.51,3.86,4.7,3.86C117.53,52.19,120.86,50.38,121.85,48.26z"/>
		<path class="st0" d="M152.83,21.97l6.59-11.74h6.97l0.23,11.74h10.6v11.13h-10.6l-0.08,10.91c-0.08,4.47,0.83,6.89,5.68,6.89
			c1.59,0,3.33-0.15,5.07-0.53v11.66c-3.26,0.91-6.82,1.44-11.74,1.44c-12.57,0-15.07-5.15-15.07-11.13V33.11h-5.91V21.97H152.83z"
			/>
		<path class="st0" d="M204.11,63.56c-14.32,0-22.8-8.41-22.8-20.68c0-13.48,10.15-21.81,23.48-21.81
			c11.97,0,19.92,6.59,21.74,16.06l-12.5,3.03c-1.21-4.92-3.94-7.88-8.33-7.88c-4.7,0-7.95,3.18-7.95,10.07
			c0,7.12,3.26,9.85,7.95,9.85c4.85,0,7.8-3.11,8.71-8.63l13.41,1.67C226.15,55.91,218.2,63.56,204.11,63.56z"/>
		<path class="st0" d="M277.59,36.51v26.13h-16.13V39.47c0-3.79-1.74-6.21-5.68-6.21c-3.48,0-6.51,1.89-6.51,7.8v21.59h-16.13V7.35
			h16.13v24.16h0.38c1.67-6.14,6.06-10.45,13.94-10.45C272.51,21.06,277.59,26.21,277.59,36.51z"/>
		<path class="st0" d="M312.89,21.97l6.59-11.74h6.97l0.23,11.74h10.6v11.13h-10.6l-0.08,10.91c-0.08,4.47,0.83,6.89,5.68,6.89
			c1.59,0,3.33-0.15,5.07-0.53v11.66c-3.26,0.91-6.82,1.44-11.74,1.44c-12.57,0-15.07-5.15-15.07-11.13V33.11h-5.91V21.97H312.89z"
			/>
		<path class="st0" d="M387.57,21.97v40.67h-15.6V52.5h-0.38c-1.89,6.21-6.14,11.06-14.47,11.06c-8.86,0-13.94-5.23-13.94-15.53
			V21.97h16.13v23.1c0,3.79,1.67,6.21,5.68,6.21c3.48,0,6.44-1.89,6.44-7.8V21.97H387.57z"/>
		<path class="st0" d="M400.6,21.97l6.59-11.74h6.97l0.23,11.74h10.6v11.13h-10.6l-0.08,10.91c-0.08,4.47,0.83,6.89,5.68,6.89
			c1.59,0,3.33-0.15,5.07-0.53v11.66c-3.26,0.91-6.82,1.44-11.74,1.44c-12.57,0-15.07-5.15-15.07-11.13V33.11h-5.91V21.97H400.6z"/>
		<path class="st0" d="M478.01,42.2c0,13.1-9.09,21.36-24.47,21.36c-15.38,0-24.47-8.26-24.47-21.36c0-13.1,9.39-21.13,24.47-21.13
			C468.7,21.06,478.01,29.09,478.01,42.2z M461.5,42.65c0-6.14-2.58-10.6-7.95-10.6c-5.3,0-8.03,4.39-8.03,10.6
			c0,6.29,2.73,10,8.03,10C458.77,52.65,461.5,48.94,461.5,42.65z"/>
		<path class="st0" d="M517.63,21.82v14.47c-0.91-0.23-2.27-0.38-3.41-0.38c-8.41,0-13.86,5.23-13.86,13.86v12.88h-16.13V21.97
			h15.75v16.28h0.45c1.06-7.65,3.26-13.03,8.26-15.6c1.51-0.76,3.56-1.14,5.76-1.14C515.51,21.52,516.57,21.59,517.63,21.82z"/>
		<path class="st0" d="M539.07,7.35v11.06h-16.21V7.35H539.07z M522.86,21.97h16.13v40.67h-16.13V21.97z"/>
		<path class="st0" d="M594.97,51.66l-0.08,9.77c-2.35,1.06-6.59,1.97-10.38,1.97c-8.18,0-10.6-3.71-10.6-8.41v-1.21h-0.38
			c-2.2,5.38-7.2,9.77-15.07,9.77s-13.48-4.77-13.48-10.91c0-4.7,3.03-7.95,9.62-10.23c3.79-1.29,10.38-3.11,18.78-5.45v-0.08
			c0-3.11-2.5-4.85-6.29-4.85c-3.71,0-7.2,1.51-9.54,7.27l-12.19-4.17c4.24-10.6,12.5-14.01,23.25-14.01
			c13.86,0,20.91,6.59,20.91,16.06v10.83c0,1.44,0,3.86,2.8,3.86C593,51.89,593.98,51.82,594.97,51.66z M573.38,48.26v-6.29
			l-8.03,2.73c-2.88,0.98-4.24,1.97-4.24,3.64c0,1.82,1.51,3.86,4.7,3.86C569.06,52.19,572.4,50.38,573.38,48.26z"/>
		<path class="st0" d="M600.2,7.35h16.13v55.29H600.2V7.35z"/>
		<path class="st0" d="M631.1,47.8c2.58,3.71,6.74,5.76,12.65,5.76c4.32,0,6.51-1.44,6.51-3.33c0-1.36-0.98-1.97-3.41-2.2
			c-3.94-0.38-7.65-0.61-10.83-0.98c-6.74-0.76-12.95-4.01-12.95-12.04c0-8.86,8.48-13.94,19.92-13.94c7.73,0,15,2.12,19.85,7.2
			l-7.65,7.35c-3.56-3.33-7.88-4.62-12.12-4.62c-3.41,0-5.68,1.21-5.68,2.88c0,1.21,0.83,1.89,3.03,2.12
			c3.26,0.3,6.74,0.68,9.62,0.98c8.1,0.83,14.47,3.94,14.47,11.97c0,9.39-8.1,14.62-21.36,14.62c-10.07,0-18.25-2.88-21.89-10.38
			L631.1,47.8z"/>
	</g>
	<linearGradient id="SVGID_1_" gradientUnits="userSpaceOnUse" x1="92.8377" y1="111.8529" x2="1007.6581" y2="16.0811">
		<stop  offset="0" style="stop-color:#FF898C"/>
		<stop  offset="1" style="stop-color:#ED1E79"/>
	</linearGradient>
	<polygon class="st1" points="764.22,20.5 758.36,26.35 769.44,37.43 705.94,37.43 705.94,45.71 769.44,45.71 758.36,56.78 
		764.22,62.64 785.29,41.57 	"/>
</g>
</svg>
